<svg width="72" height="40" viewBox="0 0 72 40" fill="none" xmlns="http://www.w3.org/2000/svg">
<path d="M5.03427 15H0.772905L5.57404 0.454545H10.9718L15.7729 15H11.5115L8.32972 4.46023H8.21609L5.03427 15ZM4.23881 9.26136H12.2502V12.2159H4.23881V9.26136ZM21.1511 8.86364V15H17.2306V0.454545H21.0091V6.16477H21.1227C21.3689 5.46875 21.7785 4.92661 22.3514 4.53835C22.9243 4.14536 23.6132 3.94886 24.4181 3.94886C25.1899 3.94886 25.8599 4.12405 26.4281 4.47443C27.001 4.82481 27.4437 5.30777 27.7562 5.9233C28.0734 6.53883 28.2297 7.24432 28.225 8.03977V15H24.3045V8.86364C24.3092 8.32386 24.1743 7.90009 23.8997 7.59233C23.6298 7.28456 23.2439 7.13068 22.742 7.13068C22.4248 7.13068 22.1454 7.2017 21.9039 7.34375C21.6672 7.48106 21.4825 7.67992 21.35 7.94034C21.2221 8.19602 21.1558 8.50379 21.1511 8.86364ZM30.1603 15V4.09091H33.8819V6.16477H33.9956C34.2228 5.48295 34.6111 4.94318 35.1603 4.54545C35.7096 4.14773 36.363 3.94886 37.1206 3.94886C37.8876 3.94886 38.5481 4.15246 39.1021 4.55966C39.6561 4.96212 39.9899 5.49716 40.1035 6.16477H40.2172C40.4018 5.49716 40.7948 4.96212 41.3961 4.55966C41.9975 4.15246 42.7029 3.94886 43.5126 3.94886C44.559 3.94886 45.4065 4.28504 46.0552 4.95739C46.7086 5.62973 47.0353 6.52462 47.0353 7.64205V15H43.1149V8.63636C43.1149 8.15814 42.9941 7.78409 42.7527 7.5142C42.5112 7.23958 42.1868 7.10227 41.7797 7.10227C41.3772 7.10227 41.0576 7.23958 40.8208 7.5142C40.5888 7.78409 40.4728 8.15814 40.4728 8.63636V15H36.7228V8.63636C36.7228 8.15814 36.6021 7.78409 36.3606 7.5142C36.1191 7.23958 35.7948 7.10227 35.3876 7.10227C35.1177 7.10227 34.8857 7.16383 34.6916 7.28693C34.4975 7.41004 34.3459 7.58759 34.237 7.8196C34.1329 8.04687 34.0808 8.31913 34.0808 8.63636V15H30.1603ZM52.0087 15.1705C51.3127 15.1705 50.6971 15.0568 50.1621 14.8295C49.6318 14.5975 49.2151 14.2472 48.9121 13.7784C48.6091 13.3097 48.4576 12.7131 48.4576 11.9886C48.4576 11.392 48.5594 10.883 48.763 10.4616C48.9666 10.0355 49.2507 9.6875 49.6152 9.41761C49.9798 9.14773 50.4036 8.94176 50.8865 8.79972C51.3742 8.65767 51.8998 8.56534 52.4632 8.52273C53.074 8.47538 53.5641 8.41856 53.9334 8.35227C54.3075 8.28125 54.5774 8.18419 54.7431 8.06108C54.9088 7.93324 54.9917 7.76515 54.9917 7.55682V7.52841C54.9917 7.24432 54.8828 7.02652 54.665 6.875C54.4471 6.72348 54.1678 6.64773 53.8269 6.64773C53.4528 6.64773 53.1474 6.73059 52.9107 6.89631C52.6787 7.05729 52.539 7.30587 52.4917 7.64205H48.8837C48.931 6.97917 49.1417 6.36837 49.5158 5.80966C49.8946 5.24621 50.4462 4.7964 51.1706 4.46023C51.8951 4.11932 52.7994 3.94886 53.8837 3.94886C54.665 3.94886 55.3657 4.04119 55.986 4.22585C56.6062 4.40578 57.1342 4.65909 57.5698 4.9858C58.0054 5.30777 58.3368 5.68655 58.5641 6.12216C58.7961 6.55303 58.9121 7.02178 58.9121 7.52841V15H55.2473V13.4659H55.1621C54.9443 13.8731 54.6792 14.2022 54.3667 14.4531C54.0589 14.7041 53.7061 14.8864 53.3084 15C52.9154 15.1136 52.4822 15.1705 52.0087 15.1705ZM53.2871 12.6989C53.5854 12.6989 53.8648 12.6373 54.1252 12.5142C54.3903 12.3911 54.6058 12.2135 54.7715 11.9815C54.9372 11.7495 55.0201 11.4678 55.0201 11.1364V10.2273C54.9159 10.2699 54.8046 10.3101 54.6863 10.348C54.5726 10.3859 54.4495 10.4214 54.3169 10.4545C54.1891 10.4877 54.0518 10.5185 53.905 10.5469C53.763 10.5753 53.6138 10.6013 53.4576 10.625C53.1545 10.6723 52.906 10.7505 52.7118 10.8594C52.5224 10.9635 52.3804 11.0938 52.2857 11.25C52.1957 11.4015 52.1507 11.572 52.1507 11.7614C52.1507 12.0644 52.2573 12.2964 52.4703 12.4574C52.6834 12.6184 52.9557 12.6989 53.2871 12.6989ZM64.7342 15.142C63.9577 15.142 63.2427 14.9384 62.5893 14.5312C61.9406 14.1241 61.4198 13.5062 61.0268 12.6776C60.6386 11.849 60.4444 10.8049 60.4444 9.54545C60.4444 8.22917 60.648 7.15909 61.0552 6.33523C61.4672 5.51136 61.9975 4.90767 62.6461 4.52415C63.2995 4.14062 63.9861 3.94886 64.7058 3.94886C65.2456 3.94886 65.719 4.04356 66.1262 4.23295C66.5334 4.41761 66.8743 4.66619 67.149 4.97869C67.4236 5.28646 67.6319 5.625 67.774 5.99432H67.8308V0.454545H71.7512V15H67.8592V13.2102H67.774C67.6225 13.5795 67.4047 13.911 67.1206 14.2045C66.8412 14.4934 66.5003 14.723 66.0978 14.8935C65.7001 15.0592 65.2456 15.142 64.7342 15.142ZM66.1831 12.1307C66.5429 12.1307 66.8507 12.0265 67.1064 11.8182C67.3668 11.6051 67.5656 11.3068 67.7029 10.9233C67.845 10.535 67.916 10.0758 67.916 9.54545C67.916 9.00568 67.845 8.54403 67.7029 8.16051C67.5656 7.77225 67.3668 7.47633 67.1064 7.27273C66.8507 7.06439 66.5429 6.96023 66.1831 6.96023C65.8232 6.96023 65.5154 7.06439 65.2598 7.27273C65.0088 7.47633 64.8147 7.77225 64.6774 8.16051C64.5448 8.54403 64.4785 9.00568 64.4785 9.54545C64.4785 10.0852 64.5448 10.5492 64.6774 10.9375C64.8147 11.321 65.0088 11.617 65.2598 11.8253C65.5154 12.0289 65.8232 12.1307 66.1831 12.1307ZM10.1719 39V24.4545H16.4503C17.5298 24.4545 18.4744 24.6676 19.2841 25.0938C20.0938 25.5199 20.7235 26.1188 21.1733 26.8906C21.6231 27.6624 21.848 28.5644 21.848 29.5966C21.848 30.6383 21.616 31.5402 21.152 32.3026C20.6927 33.0649 20.0464 33.652 19.2131 34.0639C18.3845 34.4759 17.4162 34.6818 16.3082 34.6818H12.5582V31.6136H15.5128C15.9768 31.6136 16.3722 31.5331 16.6989 31.3722C17.0303 31.2064 17.2836 30.9721 17.4588 30.669C17.6387 30.366 17.7287 30.0085 17.7287 29.5966C17.7287 29.1799 17.6387 28.8248 17.4588 28.5312C17.2836 28.233 17.0303 28.0057 16.6989 27.8494C16.3722 27.6884 15.9768 27.608 15.5128 27.608H14.1207V39H10.1719ZM27.2741 24.4545V39H23.3537V24.4545H27.2741ZM32.3114 39.1705C31.6154 39.1705 30.9999 39.0568 30.4648 38.8295C29.9345 38.5975 29.5179 38.2472 29.2148 37.7784C28.9118 37.3097 28.7603 36.7131 28.7603 35.9886C28.7603 35.392 28.8621 34.883 29.0657 34.4616C29.2693 34.0355 29.5534 33.6875 29.918 33.4176C30.2826 33.1477 30.7063 32.9418 31.1893 32.7997C31.677 32.6577 32.2025 32.5653 32.766 32.5227C33.3768 32.4754 33.8668 32.4186 34.2362 32.3523C34.6102 32.2812 34.8801 32.1842 35.0458 32.0611C35.2115 31.9332 35.2944 31.7652 35.2944 31.5568V31.5284C35.2944 31.2443 35.1855 31.0265 34.9677 30.875C34.7499 30.7235 34.4705 30.6477 34.1296 30.6477C33.7556 30.6477 33.4502 30.7306 33.2134 30.8963C32.9814 31.0573 32.8417 31.3059 32.7944 31.642H29.1864C29.2338 30.9792 29.4445 30.3684 29.8185 29.8097C30.1973 29.2462 30.7489 28.7964 31.4734 28.4602C32.1978 28.1193 33.1022 27.9489 34.1864 27.9489C34.9677 27.9489 35.6684 28.0412 36.2887 28.2259C36.909 28.4058 37.4369 28.6591 37.8725 28.9858C38.3081 29.3078 38.6396 29.6866 38.8668 30.1222C39.0988 30.553 39.2148 31.0218 39.2148 31.5284V39H35.5501V37.4659H35.4648C35.247 37.8731 34.9819 38.2022 34.6694 38.4531C34.3616 38.7041 34.0089 38.8864 33.6112 39C33.2182 39.1136 32.7849 39.1705 32.3114 39.1705ZM33.5898 36.6989C33.8881 36.6989 34.1675 36.6373 34.4279 36.5142C34.6931 36.3911 34.9085 36.2135 35.0742 35.9815C35.2399 35.7495 35.3228 35.4678 35.3228 35.1364V34.2273C35.2186 34.2699 35.1074 34.3101 34.989 34.348C34.8754 34.3859 34.7522 34.4214 34.6197 34.4545C34.4918 34.4877 34.3545 34.5185 34.2077 34.5469C34.0657 34.5753 33.9165 34.6013 33.7603 34.625C33.4573 34.6723 33.2087 34.7505 33.0146 34.8594C32.8252 34.9635 32.6831 35.0938 32.5884 35.25C32.4985 35.4015 32.4535 35.572 32.4535 35.7614C32.4535 36.0644 32.56 36.2964 32.7731 36.4574C32.9862 36.6184 33.2584 36.6989 33.5898 36.6989ZM41.2017 39V36.8409L45.9744 31.1307V31.0739H41.3722V28.0909H50.6051V30.4773L46.2585 35.9602V36.017H50.7756V39H41.2017ZM55.9833 39.1705C55.2873 39.1705 54.6718 39.0568 54.1367 38.8295C53.6064 38.5975 53.1897 38.2472 52.8867 37.7784C52.5837 37.3097 52.4322 36.7131 52.4322 35.9886C52.4322 35.392 52.534 34.883 52.7376 34.4616C52.9412 34.0355 53.2253 33.6875 53.5898 33.4176C53.9544 33.1477 54.3782 32.9418 54.8612 32.7997C55.3488 32.6577 55.8744 32.5653 56.4379 32.5227C57.0487 32.4754 57.5387 32.4186 57.908 32.3523C58.2821 32.2812 58.552 32.1842 58.7177 32.0611C58.8834 31.9332 58.9663 31.7652 58.9663 31.5568V31.5284C58.9663 31.2443 58.8574 31.0265 58.6396 30.875C58.4218 30.7235 58.1424 30.6477 57.8015 30.6477C57.4274 30.6477 57.122 30.7306 56.8853 30.8963C56.6533 31.0573 56.5136 31.3059 56.4663 31.642H52.8583C52.9057 30.9792 53.1164 30.3684 53.4904 29.8097C53.8692 29.2462 54.4208 28.7964 55.1452 28.4602C55.8697 28.1193 56.774 27.9489 57.8583 27.9489C58.6396 27.9489 59.3403 28.0412 59.9606 28.2259C60.5808 28.4058 61.1088 28.6591 61.5444 28.9858C61.98 29.3078 62.3114 29.6866 62.5387 30.1222C62.7707 30.553 62.8867 31.0218 62.8867 31.5284V39H59.2219V37.4659H59.1367C58.9189 37.8731 58.6538 38.2022 58.3413 38.4531C58.0335 38.7041 57.6808 38.8864 57.283 39C56.89 39.1136 56.4568 39.1705 55.9833 39.1705ZM57.2617 36.6989C57.56 36.6989 57.8394 36.6373 58.0998 36.5142C58.3649 36.3911 58.5804 36.2135 58.7461 35.9815C58.9118 35.7495 58.9947 35.4678 58.9947 35.1364V34.2273C58.8905 34.2699 58.7792 34.3101 58.6609 34.348C58.5472 34.3859 58.4241 34.4214 58.2915 34.4545C58.1637 34.4877 58.0264 34.5185 57.8796 34.5469C57.7376 34.5753 57.5884 34.6013 57.4322 34.625C57.1291 34.6723 56.8806 34.7505 56.6864 34.8594C56.497 34.9635 56.355 35.0938 56.2603 35.25C56.1703 35.4015 56.1254 35.572 56.1254 35.7614C56.1254 36.0644 56.2319 36.2964 56.445 36.4574C56.658 36.6184 56.9303 36.6989 57.2617 36.6989Z" fill="#00A6CD"/>
</svg>
