<svg width="137" height="40" viewBox="0 0 137 40" fill="none" xmlns="http://www.w3.org/2000/svg">
<path d="M5.11239 15H0.85103L5.65217 0.454545H11.0499L15.851 15H11.5897L8.40785 4.46023H8.29421L5.11239 15ZM4.31694 9.26136H12.3283V12.2159H4.31694V9.26136ZM21.2292 8.86364V15H17.3088V4.09091H21.0304V6.16477H21.144C21.3807 5.47348 21.7974 4.93134 22.394 4.53835C22.9953 4.14536 23.6961 3.94886 24.4963 3.94886C25.2681 3.94886 25.938 4.12642 26.5062 4.48153C27.0791 4.83191 27.5218 5.31487 27.8343 5.9304C28.1516 6.54593 28.3078 7.24905 28.3031 8.03977V15H24.3826V8.86364C24.3874 8.32386 24.2501 7.90009 23.9707 7.59233C23.6961 7.28456 23.3126 7.13068 22.8201 7.13068C22.4982 7.13068 22.2164 7.2017 21.975 7.34375C21.7382 7.48106 21.5559 7.67992 21.4281 7.94034C21.3002 8.19602 21.234 8.50379 21.2292 8.86364ZM35.4941 19.3182C34.4004 19.3182 33.4629 19.1619 32.6816 18.8494C31.9051 18.5417 31.3014 18.1155 30.8706 17.571C30.4444 17.0313 30.2053 16.411 30.1532 15.7102H33.9316C33.9695 15.9422 34.0642 16.1293 34.2157 16.2713C34.3672 16.4134 34.5614 16.5152 34.7981 16.5767C35.0396 16.643 35.3095 16.6761 35.6078 16.6761C36.1144 16.6761 36.5334 16.553 36.8649 16.3068C37.2011 16.0606 37.3691 15.6155 37.3691 14.9716V13.125H37.2555C37.1135 13.4943 36.8957 13.8092 36.6021 14.0696C36.3085 14.3253 35.9558 14.5218 35.5439 14.6591C35.1319 14.7917 34.6797 14.858 34.1873 14.858C33.4108 14.858 32.6958 14.678 32.0424 14.3182C31.3938 13.9583 30.8729 13.3878 30.4799 12.6065C30.0917 11.8253 29.8975 10.8049 29.8975 9.54545C29.8975 8.22917 30.1011 7.15909 30.5083 6.33523C30.9203 5.51136 31.4506 4.90767 32.0993 4.52415C32.7527 4.14062 33.4392 3.94886 34.1589 3.94886C34.6987 3.94886 35.1722 4.04356 35.5794 4.23295C35.9866 4.41761 36.3275 4.66619 36.6021 4.97869C36.8767 5.28646 37.0851 5.625 37.2271 5.99432H37.3123V4.09091H41.2328V14.9716C41.2328 15.8949 40.9937 16.6785 40.5154 17.3224C40.042 17.9711 39.3743 18.4659 38.5126 18.8068C37.6509 19.1477 36.6447 19.3182 35.4941 19.3182ZM35.6362 12.0739C35.996 12.0739 36.3038 11.9744 36.5595 11.7756C36.8199 11.572 37.0188 11.2831 37.1561 10.9091C37.2981 10.5303 37.3691 10.0758 37.3691 9.54545C37.3691 9.00568 37.2981 8.54403 37.1561 8.16051C37.0188 7.77225 36.8199 7.47633 36.5595 7.27273C36.3038 7.06439 35.996 6.96023 35.6362 6.96023C35.2763 6.96023 34.9686 7.06439 34.7129 7.27273C34.4619 7.47633 34.2678 7.77225 34.1305 8.16051C33.9979 8.54403 33.9316 9.00568 33.9316 9.54545C33.9316 10.0852 33.9979 10.5445 34.1305 10.9233C34.2678 11.2973 34.4619 11.5838 34.7129 11.7827C34.9686 11.9768 35.2763 12.0739 35.6362 12.0739ZM48.454 15.1989C47.2892 15.1989 46.2855 14.9763 45.4426 14.5312C44.6046 14.0814 43.9583 13.4375 43.5037 12.5994C43.0539 11.7566 42.829 10.7481 42.829 9.57386C42.829 8.44697 43.0563 7.46212 43.5108 6.61932C43.9654 5.77651 44.6069 5.12074 45.4355 4.65199C46.2641 4.18324 47.2419 3.94886 48.3688 3.94886C49.1926 3.94886 49.9384 4.0767 50.606 4.33239C51.2736 4.58807 51.8442 4.95975 52.3176 5.44744C52.7911 5.9304 53.1557 6.51752 53.4114 7.20881C53.6671 7.90009 53.7949 8.67898 53.7949 9.54545V10.4545H44.0506V8.29545H50.187C50.1822 7.98295 50.1017 7.70833 49.9455 7.47159C49.794 7.23011 49.588 7.04309 49.3276 6.91051C49.0719 6.7732 48.7807 6.70455 48.454 6.70455C48.1368 6.70455 47.8456 6.7732 47.5804 6.91051C47.3153 7.04309 47.1022 7.22775 46.9412 7.46449C46.785 7.70123 46.7021 7.97822 46.6926 8.29545V10.625C46.6926 10.9754 46.766 11.2879 46.9128 11.5625C47.0596 11.8371 47.2703 12.0526 47.5449 12.2088C47.8195 12.3651 48.151 12.4432 48.5392 12.4432C48.8091 12.4432 49.0553 12.4053 49.2779 12.3295C49.5051 12.2538 49.6993 12.1449 49.8603 12.0028C50.0212 11.8561 50.1396 11.6809 50.2154 11.4773H53.7949C53.6718 12.2348 53.3806 12.893 52.9213 13.4517C52.4621 14.0057 51.8536 14.4366 51.0961 14.7443C50.3432 15.0473 49.4625 15.1989 48.454 15.1989ZM59.3152 0.454545V15H55.3947V0.454545H59.3152ZM74.6863 5.25568C74.6247 5.00473 74.5276 4.78456 74.3951 4.59517C74.2625 4.40104 74.0968 4.23769 73.8979 4.10511C73.7038 3.9678 73.4765 3.866 73.2161 3.79972C72.9604 3.72869 72.6787 3.69318 72.3709 3.69318C71.708 3.69318 71.1422 3.8518 70.6735 4.16903C70.2095 4.48627 69.8543 4.94318 69.6081 5.53977C69.3667 6.13636 69.2459 6.85606 69.2459 7.69886C69.2459 8.55114 69.3619 9.2803 69.5939 9.88636C69.8259 10.4924 70.1716 10.9564 70.6309 11.2784C71.0901 11.6004 71.6607 11.7614 72.3425 11.7614C72.9438 11.7614 73.4434 11.6738 73.8411 11.4986C74.2435 11.3234 74.5442 11.0748 74.7431 10.7528C74.9419 10.4309 75.0414 10.0521 75.0414 9.61648L75.7232 9.6875H72.3993V6.875H78.8482V8.89205C78.8482 10.2178 78.5665 11.3518 78.003 12.294C77.4443 13.2315 76.6725 13.9512 75.6877 14.4531C74.7076 14.9503 73.583 15.1989 72.3141 15.1989C70.8984 15.1989 69.6555 14.8982 68.5854 14.2969C67.5153 13.6955 66.6796 12.8385 66.0783 11.7259C65.4817 10.6132 65.1834 9.28977 65.1834 7.75568C65.1834 6.55303 65.3657 5.48769 65.7303 4.55966C66.0996 3.63163 66.611 2.84801 67.2644 2.20881C67.9178 1.56487 68.673 1.07955 69.53 0.75284C70.387 0.421401 71.3056 0.255681 72.2857 0.255681C73.1474 0.255681 73.9476 0.378788 74.6863 0.625C75.4296 0.866477 76.0854 1.21212 76.6536 1.66193C77.2265 2.10701 77.6882 2.63494 78.0385 3.24574C78.3889 3.85653 78.602 4.52651 78.6777 5.25568H74.6863ZM83.786 15.1705C83.09 15.1705 82.4745 15.0568 81.9395 14.8295C81.4092 14.5975 80.9925 14.2472 80.6895 13.7784C80.3864 13.3097 80.2349 12.7131 80.2349 11.9886C80.2349 11.392 80.3367 10.883 80.5403 10.4616C80.7439 10.0355 81.028 9.6875 81.3926 9.41761C81.7572 9.14773 82.1809 8.94176 82.6639 8.79972C83.1516 8.65767 83.6771 8.56534 84.2406 8.52273C84.8514 8.47538 85.3414 8.41856 85.7108 8.35227C86.0848 8.28125 86.3547 8.18419 86.5204 8.06108C86.6861 7.93324 86.769 7.76515 86.769 7.55682V7.52841C86.769 7.24432 86.6601 7.02652 86.4423 6.875C86.2245 6.72348 85.9451 6.64773 85.6042 6.64773C85.2302 6.64773 84.9248 6.73059 84.688 6.89631C84.456 7.05729 84.3163 7.30587 84.269 7.64205H80.661C80.7084 6.97917 80.9191 6.36837 81.2931 5.80966C81.6719 5.24621 82.2235 4.7964 82.948 4.46023C83.6724 4.11932 84.5768 3.94886 85.661 3.94886C86.4423 3.94886 87.1431 4.04119 87.7633 4.22585C88.3836 4.40578 88.9115 4.65909 89.3471 4.9858C89.7827 5.30777 90.1142 5.68655 90.3414 6.12216C90.5734 6.55303 90.6895 7.02178 90.6895 7.52841V15H87.0247V13.4659H86.9395C86.7217 13.8731 86.4565 14.2022 86.144 14.4531C85.8362 14.7041 85.4835 14.8864 85.0858 15C84.6928 15.1136 84.2595 15.1705 83.786 15.1705ZM85.0645 12.6989C85.3627 12.6989 85.6421 12.6373 85.9025 12.5142C86.1677 12.3911 86.3831 12.2135 86.5488 11.9815C86.7145 11.7495 86.7974 11.4678 86.7974 11.1364V10.2273C86.6932 10.2699 86.582 10.3101 86.4636 10.348C86.35 10.3859 86.2269 10.4214 86.0943 10.4545C85.9664 10.4877 85.8291 10.5185 85.6824 10.5469C85.5403 10.5753 85.3912 10.6013 85.2349 10.625C84.9319 10.6723 84.6833 10.7505 84.4892 10.8594C84.2998 10.9635 84.1577 11.0938 84.063 11.25C83.9731 11.4015 83.9281 11.572 83.9281 11.7614C83.9281 12.0644 84.0346 12.2964 84.2477 12.4574C84.4608 12.6184 84.733 12.6989 85.0645 12.6989ZM92.5627 15V4.09091H96.3695V6.16477H96.4831C96.682 5.39773 96.9969 4.83665 97.4277 4.48153C97.8633 4.12642 98.3723 3.94886 98.9547 3.94886C99.1252 3.94886 99.2933 3.96307 99.459 3.99148C99.6294 4.01515 99.7928 4.05066 99.949 4.09801V7.44318C99.7549 7.37689 99.5158 7.32718 99.2317 7.29403C98.9476 7.26089 98.7038 7.24432 98.5002 7.24432C98.1167 7.24432 97.771 7.33191 97.4632 7.5071C97.1602 7.67756 96.9211 7.91903 96.7459 8.23153C96.5707 8.5393 96.4831 8.90152 96.4831 9.31818V15H92.5627ZM104.558 15.142C103.782 15.142 103.067 14.9384 102.414 14.5312C101.765 14.1241 101.244 13.5062 100.851 12.6776C100.463 11.849 100.269 10.8049 100.269 9.54545C100.269 8.22917 100.472 7.15909 100.879 6.33523C101.291 5.51136 101.822 4.90767 102.47 4.52415C103.124 4.14062 103.81 3.94886 104.53 3.94886C105.07 3.94886 105.543 4.04356 105.95 4.23295C106.358 4.41761 106.699 4.66619 106.973 4.97869C107.248 5.28646 107.456 5.625 107.598 5.99432H107.655V0.454545H111.575V15H107.683V13.2102H107.598C107.447 13.5795 107.229 13.911 106.945 14.2045C106.665 14.4934 106.325 14.723 105.922 14.8935C105.524 15.0592 105.07 15.142 104.558 15.142ZM106.007 12.1307C106.367 12.1307 106.675 12.0265 106.931 11.8182C107.191 11.6051 107.39 11.3068 107.527 10.9233C107.669 10.535 107.74 10.0758 107.74 9.54545C107.74 9.00568 107.669 8.54403 107.527 8.16051C107.39 7.77225 107.191 7.47633 106.931 7.27273C106.675 7.06439 106.367 6.96023 106.007 6.96023C105.647 6.96023 105.34 7.06439 105.084 7.27273C104.833 7.47633 104.639 7.77225 104.502 8.16051C104.369 8.54403 104.303 9.00568 104.303 9.54545C104.303 10.0852 104.369 10.5492 104.502 10.9375C104.639 11.321 104.833 11.617 105.084 11.8253C105.34 12.0289 105.647 12.1307 106.007 12.1307ZM118.727 15.1989C117.563 15.1989 116.559 14.9763 115.716 14.5312C114.878 14.0814 114.232 13.4375 113.777 12.5994C113.327 11.7566 113.102 10.7481 113.102 9.57386C113.102 8.44697 113.33 7.46212 113.784 6.61932C114.239 5.77651 114.88 5.12074 115.709 4.65199C116.538 4.18324 117.515 3.94886 118.642 3.94886C119.466 3.94886 120.212 4.0767 120.879 4.33239C121.547 4.58807 122.118 4.95975 122.591 5.44744C123.065 5.9304 123.429 6.51752 123.685 7.20881C123.941 7.90009 124.068 8.67898 124.068 9.54545V10.4545H114.324V8.29545H120.46C120.456 7.98295 120.375 7.70833 120.219 7.47159C120.067 7.23011 119.861 7.04309 119.601 6.91051C119.345 6.7732 119.054 6.70455 118.727 6.70455C118.41 6.70455 118.119 6.7732 117.854 6.91051C117.589 7.04309 117.376 7.22775 117.215 7.46449C117.058 7.70123 116.976 7.97822 116.966 8.29545V10.625C116.966 10.9754 117.039 11.2879 117.186 11.5625C117.333 11.8371 117.544 12.0526 117.818 12.2088C118.093 12.3651 118.424 12.4432 118.813 12.4432C119.083 12.4432 119.329 12.4053 119.551 12.3295C119.779 12.2538 119.973 12.1449 120.134 12.0028C120.295 11.8561 120.413 11.6809 120.489 11.4773H124.068C123.945 12.2348 123.654 12.893 123.195 13.4517C122.735 14.0057 122.127 14.4366 121.369 14.7443C120.617 15.0473 119.736 15.1989 118.727 15.1989ZM129.589 8.86364V15H125.668V4.09091H129.39V6.16477H129.503C129.74 5.47348 130.157 4.93134 130.753 4.53835C131.355 4.14536 132.055 3.94886 132.856 3.94886C133.627 3.94886 134.297 4.12642 134.866 4.48153C135.439 4.83191 135.881 5.31487 136.194 5.9304C136.511 6.54593 136.667 7.24905 136.662 8.03977V15H132.742V8.86364C132.747 8.32386 132.609 7.90009 132.33 7.59233C132.055 7.28456 131.672 7.13068 131.18 7.13068C130.858 7.13068 130.576 7.2017 130.334 7.34375C130.098 7.48106 129.915 7.67992 129.787 7.94034C129.66 8.19602 129.593 8.50379 129.589 8.86364ZM51.587 29C51.5491 28.5265 51.3716 28.1572 51.0543 27.892C50.7418 27.6269 50.266 27.4943 49.6268 27.4943C49.2196 27.4943 48.8858 27.544 48.6254 27.6435C48.3697 27.7382 48.1803 27.8684 48.0572 28.0341C47.9341 28.1998 47.8701 28.3892 47.8654 28.6023C47.8559 28.7775 47.8867 28.9361 47.9577 29.0781C48.0335 29.2154 48.1519 29.3409 48.3129 29.4545C48.4738 29.5634 48.6798 29.6629 48.9308 29.7528C49.1817 29.8428 49.48 29.9233 49.8256 29.9943L51.0188 30.25C51.8237 30.4205 52.5127 30.6454 53.0856 30.9247C53.6585 31.2041 54.1272 31.5331 54.4918 31.9119C54.8564 32.286 55.1239 32.7074 55.2944 33.1761C55.4696 33.6449 55.5595 34.1562 55.5643 34.7102C55.5595 35.6667 55.3204 36.4763 54.8469 37.1392C54.3735 37.8021 53.6964 38.3063 52.8157 38.652C51.9397 38.9976 50.8862 39.1705 49.6552 39.1705C48.391 39.1705 47.2878 38.9834 46.3455 38.6094C45.408 38.2353 44.6789 37.66 44.158 36.8835C43.6419 36.1023 43.3815 35.1032 43.3768 33.8864H47.1268C47.1504 34.3314 47.2617 34.7055 47.4606 35.0085C47.6594 35.3116 47.9388 35.5412 48.2987 35.6974C48.6632 35.8537 49.0965 35.9318 49.5984 35.9318C50.0198 35.9318 50.3725 35.8797 50.6566 35.7756C50.9407 35.6714 51.1561 35.527 51.3029 35.3423C51.4497 35.1577 51.5254 34.947 51.5302 34.7102C51.5254 34.4877 51.4521 34.2936 51.31 34.1278C51.1727 33.9574 50.9454 33.8059 50.6282 33.6733C50.311 33.536 49.8825 33.4081 49.3427 33.2898L47.8938 32.9773C46.6059 32.6979 45.5903 32.2315 44.8469 31.5781C44.1083 30.92 43.7414 30.0227 43.7461 28.8864C43.7414 27.9631 43.9876 27.1558 44.4847 26.4645C44.9866 25.7685 45.6803 25.2263 46.5657 24.8381C47.4558 24.4498 48.4762 24.2557 49.6268 24.2557C50.801 24.2557 51.8166 24.4522 52.6737 24.8452C53.5307 25.2382 54.1912 25.7921 54.6552 26.5071C55.1239 27.2173 55.3607 28.0483 55.3654 29H51.587ZM64.1971 34.2273V28.0909H68.1175V39H64.396V36.9261H64.2823C64.0456 37.6222 63.6313 38.1667 63.0394 38.5597C62.4476 38.9479 61.7444 39.142 60.93 39.142C60.1677 39.142 59.5001 38.9669 58.9272 38.6165C58.359 38.2661 57.9163 37.7831 57.5991 37.1676C57.2866 36.5521 57.128 35.8466 57.1232 35.0511V28.0909H61.0437V34.2273C61.0484 34.767 61.1857 35.1908 61.4556 35.4986C61.7302 35.8063 62.1138 35.9602 62.6062 35.9602C62.9329 35.9602 63.2146 35.8916 63.4513 35.7543C63.6928 35.6122 63.8775 35.4134 64.0053 35.1577C64.1379 34.8973 64.2018 34.5871 64.1971 34.2273ZM70.1115 39V28.0909H74.032V39H70.1115ZM72.0717 26.9545C71.5414 26.9545 71.0869 26.7794 70.7081 26.429C70.3293 26.0786 70.1399 25.6572 70.1399 25.1648C70.1399 24.6723 70.3293 24.2509 70.7081 23.9006C71.0869 23.5502 71.5414 23.375 72.0717 23.375C72.6068 23.375 73.0613 23.5502 73.4354 23.9006C73.8142 24.2509 74.0036 24.6723 74.0036 25.1648C74.0036 25.6572 73.8142 26.0786 73.4354 26.429C73.0613 26.7794 72.6068 26.9545 72.0717 26.9545ZM82.5352 28.0909V30.9318H75.3477V28.0909H82.5352ZM76.7397 25.4773H80.6602V35.4915C80.6602 35.643 80.6862 35.7708 80.7383 35.875C80.7904 35.9744 80.8709 36.0502 80.9798 36.1023C81.0887 36.1496 81.2283 36.1733 81.3988 36.1733C81.5172 36.1733 81.6545 36.1591 81.8107 36.1307C81.9717 36.1023 82.0901 36.0786 82.1658 36.0597L82.734 38.8153C82.5588 38.8674 82.3079 38.9313 81.9812 39.0071C81.6592 39.0829 81.2757 39.1326 80.8306 39.1562C79.931 39.2036 79.1758 39.1113 78.565 38.8793C77.9542 38.6425 77.4949 38.2708 77.1871 37.7642C76.8794 37.2576 76.7302 36.6231 76.7397 35.8608V25.4773ZM89.245 39.1989C88.0803 39.1989 87.0765 38.9763 86.2337 38.5312C85.3956 38.0814 84.7493 37.4375 84.2947 36.5994C83.8449 35.7566 83.62 34.7481 83.62 33.5739C83.62 32.447 83.8473 31.4621 84.3018 30.6193C84.7564 29.7765 85.398 29.1207 86.2266 28.652C87.0552 28.1832 88.0329 27.9489 89.1598 27.9489C89.9837 27.9489 90.7294 28.0767 91.397 28.3324C92.0646 28.5881 92.6352 28.9598 93.1087 29.4474C93.5821 29.9304 93.9467 30.5175 94.2024 31.2088C94.4581 31.9001 94.5859 32.679 94.5859 33.5455V34.4545H84.8416V32.2955H90.978C90.9732 31.983 90.8928 31.7083 90.7365 31.4716C90.585 31.2301 90.379 31.0431 90.1186 30.9105C89.8629 30.7732 89.5717 30.7045 89.245 30.7045C88.9278 30.7045 88.6366 30.7732 88.3714 30.9105C88.1063 31.0431 87.8932 31.2277 87.7322 31.4645C87.576 31.7012 87.4931 31.9782 87.4837 32.2955V34.625C87.4837 34.9754 87.5571 35.2879 87.7038 35.5625C87.8506 35.8371 88.0613 36.0526 88.3359 36.2088C88.6106 36.3651 88.942 36.4432 89.3303 36.4432C89.6001 36.4432 89.8464 36.4053 90.0689 36.3295C90.2962 36.2538 90.4903 36.1449 90.6513 36.0028C90.8123 35.8561 90.9306 35.6809 91.0064 35.4773H94.5859C94.4628 36.2348 94.1716 36.893 93.7124 37.4517C93.2531 38.0057 92.6446 38.4366 91.8871 38.7443C91.1342 39.0473 90.2536 39.1989 89.245 39.1989Z" fill="#00A6CD"/>
</svg>
