<svg width="111" height="40" viewBox="0 0 111 40" fill="none" xmlns="http://www.w3.org/2000/svg">
<path d="M26.79 15H21.1934V0.454545H26.7331C28.2293 0.454545 29.522 0.745738 30.611 1.32812C31.7047 1.90578 32.5475 2.73911 33.1394 3.82812C33.736 4.91241 34.0343 6.21212 34.0343 7.72727C34.0343 9.24242 33.7383 10.5445 33.1465 11.6335C32.5546 12.7178 31.7166 13.5511 30.6323 14.1335C29.548 14.7112 28.2672 15 26.79 15ZM25.1422 11.6477H26.6479C27.3676 11.6477 27.9808 11.5317 28.4874 11.2997C28.9988 11.0677 29.387 10.6676 29.6522 10.0994C29.9221 9.53125 30.057 8.74053 30.057 7.72727C30.057 6.71402 29.9197 5.9233 29.6451 5.35511C29.3752 4.78693 28.9775 4.38684 28.4519 4.15483C27.931 3.92282 27.2918 3.80682 26.5343 3.80682H25.1422V11.6477ZM41.1454 15.1989C39.9806 15.1989 38.9769 14.9763 38.1341 14.5312C37.296 14.0814 36.6497 13.4375 36.1951 12.5994C35.7453 11.7566 35.5204 10.7481 35.5204 9.57386C35.5204 8.44697 35.7477 7.46212 36.2022 6.61932C36.6568 5.77651 37.2984 5.12074 38.127 4.65199C38.9556 4.18324 39.9333 3.94886 41.0602 3.94886C41.8841 3.94886 42.6298 4.0767 43.2974 4.33239C43.965 4.58807 44.5356 4.95975 45.0091 5.44744C45.4825 5.9304 45.8471 6.51752 46.1028 7.20881C46.3585 7.90009 46.4863 8.67898 46.4863 9.54545V10.4545H36.742V8.29545H42.8784C42.8736 7.98295 42.7931 7.70833 42.6369 7.47159C42.4854 7.23011 42.2794 7.04309 42.019 6.91051C41.7633 6.7732 41.4721 6.70455 41.1454 6.70455C40.8282 6.70455 40.537 6.7732 40.2718 6.91051C40.0067 7.04309 39.7936 7.22775 39.6326 7.46449C39.4764 7.70123 39.3935 7.97822 39.3841 8.29545V10.625C39.3841 10.9754 39.4574 11.2879 39.6042 11.5625C39.751 11.8371 39.9617 12.0526 40.2363 12.2088C40.5109 12.3651 40.8424 12.4432 41.2306 12.4432C41.5005 12.4432 41.7467 12.4053 41.9693 12.3295C42.1966 12.2538 42.3907 12.1449 42.5517 12.0028C42.7127 11.8561 42.831 11.6809 42.9068 11.4773H46.4863C46.3632 12.2348 46.072 12.893 45.6127 13.4517C45.1535 14.0057 44.545 14.4366 43.7875 14.7443C43.0346 15.0473 42.1539 15.1989 41.1454 15.1989ZM52.0066 0.454545V15H48.0861V0.454545H52.0066ZM61.0779 10.2273V4.09091H64.9984V15H61.2768V12.9261H61.1632C60.9264 13.6222 60.5121 14.1667 59.9203 14.5597C59.3284 14.9479 58.6253 15.142 57.8109 15.142C57.0486 15.142 56.381 14.9669 55.8081 14.6165C55.2399 14.2661 54.7972 13.7831 54.4799 13.1676C54.1674 12.5521 54.0088 11.8466 54.0041 11.0511V4.09091H57.9245V10.2273C57.9293 10.767 58.0666 11.1908 58.3365 11.4986C58.6111 11.8063 58.9946 11.9602 59.487 11.9602C59.8137 11.9602 60.0955 11.8916 60.3322 11.7543C60.5737 11.6122 60.7583 11.4134 60.8862 11.1577C61.0188 10.8973 61.0827 10.5871 61.0779 10.2273ZM70.9128 8.86364V15H66.9924V4.09091H70.714V6.16477H70.8276C71.0643 5.47348 71.481 4.93134 72.0776 4.53835C72.6789 4.14536 73.3797 3.94886 74.1799 3.94886C74.9516 3.94886 75.6216 4.12642 76.1898 4.48153C76.7627 4.83191 77.2054 5.31487 77.5179 5.9304C77.8352 6.54593 77.9914 7.24905 77.9867 8.03977V15H74.0662V8.86364C74.071 8.32386 73.9337 7.90009 73.6543 7.59233C73.3797 7.28456 72.9962 7.13068 72.5037 7.13068C72.1818 7.13068 71.9 7.2017 71.6586 7.34375C71.4218 7.48106 71.2395 7.67992 71.1117 7.94034C70.9838 8.19602 70.9176 8.50379 70.9128 8.86364ZM82.9618 15.1705C82.2658 15.1705 81.6503 15.0568 81.1152 14.8295C80.5849 14.5975 80.1683 14.2472 79.8652 13.7784C79.5622 13.3097 79.4107 12.7131 79.4107 11.9886C79.4107 11.392 79.5125 10.883 79.7161 10.4616C79.9197 10.0355 80.2038 9.6875 80.5684 9.41761C80.9329 9.14773 81.3567 8.94176 81.8397 8.79972C82.3274 8.65767 82.8529 8.56534 83.4164 8.52273C84.0272 8.47538 84.5172 8.41856 84.8865 8.35227C85.2606 8.28125 85.5305 8.18419 85.6962 8.06108C85.8619 7.93324 85.9448 7.76515 85.9448 7.55682V7.52841C85.9448 7.24432 85.8359 7.02652 85.6181 6.875C85.4003 6.72348 85.1209 6.64773 84.78 6.64773C84.406 6.64773 84.1006 6.73059 83.8638 6.89631C83.6318 7.05729 83.4921 7.30587 83.4448 7.64205H79.8368C79.8842 6.97917 80.0949 6.36837 80.4689 5.80966C80.8477 5.24621 81.3993 4.7964 82.1238 4.46023C82.8482 4.11932 83.7525 3.94886 84.8368 3.94886C85.6181 3.94886 86.3188 4.04119 86.9391 4.22585C87.5594 4.40578 88.0873 4.65909 88.5229 4.9858C88.9585 5.30777 89.29 5.68655 89.5172 6.12216C89.7492 6.55303 89.8652 7.02178 89.8652 7.52841V15H86.2005V13.4659H86.1152C85.8974 13.8731 85.6323 14.2022 85.3198 14.4531C85.012 14.7041 84.6593 14.8864 84.2615 15C83.8685 15.1136 83.4353 15.1705 82.9618 15.1705ZM84.2402 12.6989C84.5385 12.6989 84.8179 12.6373 85.0783 12.5142C85.3435 12.3911 85.5589 12.2135 85.7246 11.9815C85.8903 11.7495 85.9732 11.4678 85.9732 11.1364V10.2273C85.869 10.2699 85.7578 10.3101 85.6394 10.348C85.5257 10.3859 85.4026 10.4214 85.2701 10.4545C85.1422 10.4877 85.0049 10.5185 84.8581 10.5469C84.7161 10.5753 84.5669 10.6013 84.4107 10.625C84.1077 10.6723 83.8591 10.7505 83.665 10.8594C83.4756 10.9635 83.3335 11.0938 83.2388 11.25C83.1489 11.4015 83.1039 11.572 83.1039 11.7614C83.1039 12.0644 83.2104 12.2964 83.4235 12.4574C83.6365 12.6184 83.9088 12.6989 84.2402 12.6989ZM0.949219 39V24.4545H7.22763C8.30717 24.4545 9.25178 24.651 10.0614 25.044C10.8711 25.437 11.5008 26.0028 11.9506 26.7415C12.4004 27.4801 12.6254 28.3655 12.6254 29.3977C12.6254 30.4394 12.3933 31.3177 11.9293 32.0327C11.4701 32.7476 10.8237 33.2874 9.99041 33.652C9.16181 34.0166 8.19354 34.1989 7.08558 34.1989H3.33558V31.1307H6.29013C6.75414 31.1307 7.1495 31.0739 7.47621 30.9602C7.80765 30.8419 8.06096 30.6548 8.23615 30.3991C8.41608 30.1435 8.50604 29.8097 8.50604 29.3977C8.50604 28.9811 8.41608 28.6425 8.23615 28.3821C8.06096 28.117 7.80765 27.9228 7.47621 27.7997C7.1495 27.6719 6.75414 27.608 6.29013 27.608H4.89808V39H0.949219ZM9.47195 32.3239L13.1083 39H8.81854L5.2674 32.3239H9.47195ZM19.3583 39.1989C18.1935 39.1989 17.1897 38.9763 16.3469 38.5312C15.5089 38.0814 14.8626 37.4375 14.408 36.5994C13.9582 35.7566 13.7333 34.7481 13.7333 33.5739C13.7333 32.447 13.9606 31.4621 14.4151 30.6193C14.8697 29.7765 15.5112 29.1207 16.3398 28.652C17.1684 28.1832 18.1462 27.9489 19.2731 27.9489C20.0969 27.9489 20.8427 28.0767 21.5103 28.3324C22.1779 28.5881 22.7485 28.9598 23.2219 29.4474C23.6954 29.9304 24.06 30.5175 24.3157 31.2088C24.5714 31.9001 24.6992 32.679 24.6992 33.5455V34.4545H14.9549V32.2955H21.0913C21.0865 31.983 21.006 31.7083 20.8498 31.4716C20.6983 31.2301 20.4923 31.0431 20.2319 30.9105C19.9762 30.7732 19.685 30.7045 19.3583 30.7045C19.0411 30.7045 18.7499 30.7732 18.4847 30.9105C18.2196 31.0431 18.0065 31.2277 17.8455 31.4645C17.6893 31.7012 17.6064 31.9782 17.5969 32.2955V34.625C17.5969 34.9754 17.6703 35.2879 17.8171 35.5625C17.9639 35.8371 18.1746 36.0526 18.4492 36.2088C18.7238 36.3651 19.0553 36.4432 19.4435 36.4432C19.7134 36.4432 19.9596 36.4053 20.1822 36.3295C20.4094 36.2538 20.6036 36.1449 20.7646 36.0028C20.9255 35.8561 21.0439 35.6809 21.1197 35.4773H24.6992C24.5761 36.2348 24.2849 36.893 23.8256 37.4517C23.3664 38.0057 22.7579 38.4366 22.0004 38.7443C21.2475 39.0473 20.3668 39.1989 19.3583 39.1989ZM36.2706 31.642H32.6626C32.6437 31.4195 32.5656 31.2277 32.4283 31.0668C32.291 30.9058 32.1134 30.7827 31.8956 30.6974C31.6825 30.6075 31.4458 30.5625 31.1854 30.5625C30.8492 30.5625 30.5604 30.6241 30.3189 30.7472C30.0774 30.8703 29.959 31.0455 29.9638 31.2727C29.959 31.4337 30.0277 31.5829 30.1697 31.7202C30.3165 31.8575 30.5982 31.964 31.0149 32.0398L33.2308 32.4375C34.3482 32.6411 35.1792 32.9844 35.7237 33.4673C36.273 33.9455 36.55 34.5871 36.5547 35.392C36.55 36.1686 36.3179 36.8433 35.8587 37.4162C35.4041 37.9844 34.7815 38.4247 33.9908 38.7372C33.2048 39.045 32.3075 39.1989 31.299 39.1989C29.6323 39.1989 28.3279 38.858 27.3857 38.1761C26.4482 37.4943 25.925 36.5947 25.8161 35.4773H29.7081C29.7602 35.8229 29.9306 36.0904 30.2195 36.2798C30.513 36.4645 30.8823 36.5568 31.3274 36.5568C31.6873 36.5568 31.9832 36.4953 32.2152 36.3722C32.4519 36.2491 32.5727 36.0739 32.5774 35.8466C32.5727 35.6383 32.4685 35.4725 32.2649 35.3494C32.0661 35.2263 31.7536 35.1269 31.3274 35.0511L29.3956 34.7102C28.2829 34.5161 27.4496 34.1468 26.8956 33.6023C26.3416 33.0578 26.067 32.357 26.0717 31.5C26.067 30.7424 26.2659 30.1009 26.6683 29.5753C27.0755 29.045 27.6555 28.6425 28.4084 28.3679C29.166 28.0885 30.0632 27.9489 31.1001 27.9489C32.6768 27.9489 33.9197 28.2756 34.8288 28.929C35.7427 29.5824 36.2232 30.4867 36.2706 31.642ZM44.5625 28.0909V30.9318H37.375V28.0909H44.5625ZM38.767 25.4773H42.6875V35.4915C42.6875 35.643 42.7135 35.7708 42.7656 35.875C42.8177 35.9744 42.8982 36.0502 43.0071 36.1023C43.116 36.1496 43.2557 36.1733 43.4261 36.1733C43.5445 36.1733 43.6818 36.1591 43.8381 36.1307C43.9991 36.1023 44.1174 36.0786 44.1932 36.0597L44.7614 38.8153C44.5862 38.8674 44.3352 38.9313 44.0085 39.0071C43.6866 39.0829 43.303 39.1326 42.858 39.1562C41.9583 39.2036 41.2031 39.1113 40.5923 38.8793C39.9815 38.6425 39.5223 38.2708 39.2145 37.7642C38.9067 37.2576 38.7576 36.6231 38.767 35.8608V25.4773ZM49.2021 39.1705C48.506 39.1705 47.8905 39.0568 47.3555 38.8295C46.8252 38.5975 46.4085 38.2472 46.1055 37.7784C45.8024 37.3097 45.6509 36.7131 45.6509 35.9886C45.6509 35.392 45.7527 34.883 45.9563 34.4616C46.1599 34.0355 46.444 33.6875 46.8086 33.4176C47.1732 33.1477 47.5969 32.9418 48.0799 32.7997C48.5676 32.6577 49.0932 32.5653 49.6566 32.5227C50.2674 32.4754 50.7575 32.4186 51.1268 32.3523C51.5008 32.2812 51.7707 32.1842 51.9364 32.0611C52.1022 31.9332 52.185 31.7652 52.185 31.5568V31.5284C52.185 31.2443 52.0761 31.0265 51.8583 30.875C51.6405 30.7235 51.3612 30.6477 51.0202 30.6477C50.6462 30.6477 50.3408 30.7306 50.104 30.8963C49.872 31.0573 49.7324 31.3059 49.685 31.642H46.0771C46.1244 30.9792 46.3351 30.3684 46.7092 29.8097C47.0879 29.2462 47.6396 28.7964 48.364 28.4602C49.0884 28.1193 49.9928 27.9489 51.0771 27.9489C51.8583 27.9489 52.5591 28.0412 53.1793 28.2259C53.7996 28.4058 54.3275 28.6591 54.7631 28.9858C55.1987 29.3078 55.5302 29.6866 55.7575 30.1222C55.9895 30.553 56.1055 31.0218 56.1055 31.5284V39H52.4407V37.4659H52.3555C52.1377 37.8731 51.8725 38.2022 51.56 38.4531C51.2522 38.7041 50.8995 38.8864 50.5018 39C50.1088 39.1136 49.6755 39.1705 49.2021 39.1705ZM50.4805 36.6989C50.7788 36.6989 51.0581 36.6373 51.3185 36.5142C51.5837 36.3911 51.7991 36.2135 51.9648 35.9815C52.1306 35.7495 52.2134 35.4678 52.2134 35.1364V34.2273C52.1093 34.2699 51.998 34.3101 51.8796 34.348C51.766 34.3859 51.6429 34.4214 51.5103 34.4545C51.3825 34.4877 51.2451 34.5185 51.0984 34.5469C50.9563 34.5753 50.8072 34.6013 50.6509 34.625C50.3479 34.6723 50.0993 34.7505 49.9052 34.8594C49.7158 34.9635 49.5737 35.0938 49.479 35.25C49.3891 35.4015 49.3441 35.572 49.3441 35.7614C49.3441 36.0644 49.4506 36.2964 49.6637 36.4574C49.8768 36.6184 50.149 36.6989 50.4805 36.6989ZM65.0526 34.2273V28.0909H68.973V39H65.2514V36.9261H65.1378C64.901 37.6222 64.4867 38.1667 63.8949 38.5597C63.303 38.9479 62.5999 39.142 61.7855 39.142C61.0232 39.142 60.3556 38.9669 59.7827 38.6165C59.2145 38.2661 58.7718 37.7831 58.4545 37.1676C58.142 36.5521 57.9834 35.8466 57.9787 35.0511V28.0909H61.8991V34.2273C61.9039 34.767 62.0412 35.1908 62.3111 35.4986C62.5857 35.8063 62.9692 35.9602 63.4616 35.9602C63.7884 35.9602 64.0701 35.8916 64.3068 35.7543C64.5483 35.6122 64.733 35.4134 64.8608 35.1577C64.9934 34.8973 65.0573 34.5871 65.0526 34.2273ZM70.967 39V28.0909H74.7738V30.1648H74.8874C75.0863 29.3977 75.4012 28.8366 75.832 28.4815C76.2676 28.1264 76.7766 27.9489 77.359 27.9489C77.5295 27.9489 77.6976 27.9631 77.8633 27.9915C78.0337 28.0152 78.1971 28.0507 78.3533 28.098V31.4432C78.1592 31.3769 77.9201 31.3272 77.636 31.294C77.3519 31.2609 77.1081 31.2443 76.9045 31.2443C76.521 31.2443 76.1753 31.3319 75.8675 31.5071C75.5645 31.6776 75.3254 31.919 75.1502 32.2315C74.975 32.5393 74.8874 32.9015 74.8874 33.3182V39H70.967ZM82.1708 39.1705C81.4748 39.1705 80.8593 39.0568 80.3242 38.8295C79.7939 38.5975 79.3772 38.2472 79.0742 37.7784C78.7712 37.3097 78.6197 36.7131 78.6197 35.9886C78.6197 35.392 78.7215 34.883 78.9251 34.4616C79.1287 34.0355 79.4128 33.6875 79.7773 33.4176C80.1419 33.1477 80.5657 32.9418 81.0487 32.7997C81.5363 32.6577 82.0619 32.5653 82.6254 32.5227C83.2362 32.4754 83.7262 32.4186 84.0955 32.3523C84.4696 32.2812 84.7395 32.1842 84.9052 32.0611C85.0709 31.9332 85.1538 31.7652 85.1538 31.5568V31.5284C85.1538 31.2443 85.0449 31.0265 84.8271 30.875C84.6093 30.7235 84.3299 30.6477 83.989 30.6477C83.6149 30.6477 83.3095 30.7306 83.0728 30.8963C82.8408 31.0573 82.7011 31.3059 82.6538 31.642H79.0458C79.0932 30.9792 79.3039 30.3684 79.6779 29.8097C80.0567 29.2462 80.6083 28.7964 81.3327 28.4602C82.0572 28.1193 82.9615 27.9489 84.0458 27.9489C84.8271 27.9489 85.5278 28.0412 86.1481 28.2259C86.7683 28.4058 87.2963 28.6591 87.7319 28.9858C88.1675 29.3078 88.4989 29.6866 88.7262 30.1222C88.9582 30.553 89.0742 31.0218 89.0742 31.5284V39H85.4094V37.4659H85.3242C85.1064 37.8731 84.8413 38.2022 84.5288 38.4531C84.221 38.7041 83.8683 38.8864 83.4705 39C83.0775 39.1136 82.6443 39.1705 82.1708 39.1705ZM83.4492 36.6989C83.7475 36.6989 84.0269 36.6373 84.2873 36.5142C84.5524 36.3911 84.7679 36.2135 84.9336 35.9815C85.0993 35.7495 85.1822 35.4678 85.1822 35.1364V34.2273C85.078 34.2699 84.9667 34.3101 84.8484 34.348C84.7347 34.3859 84.6116 34.4214 84.479 34.4545C84.3512 34.4877 84.2139 34.5185 84.0671 34.5469C83.9251 34.5753 83.7759 34.6013 83.6197 34.625C83.3166 34.6723 83.0681 34.7505 82.8739 34.8594C82.6845 34.9635 82.5425 35.0938 82.4478 35.25C82.3578 35.4015 82.3129 35.572 82.3129 35.7614C82.3129 36.0644 82.4194 36.2964 82.6325 36.4574C82.8455 36.6184 83.1178 36.6989 83.4492 36.6989ZM94.8679 32.8636V39H90.9474V28.0909H94.669V30.1648H94.7827C95.0194 29.4735 95.4361 28.9313 96.0327 28.5384C96.634 28.1454 97.3348 27.9489 98.1349 27.9489C98.9067 27.9489 99.5767 28.1264 100.145 28.4815C100.718 28.8319 101.161 29.3149 101.473 29.9304C101.79 30.5459 101.946 31.2491 101.942 32.0398V39H98.0213V32.8636C98.026 32.3239 97.8887 31.9001 97.6094 31.5923C97.3348 31.2846 96.9512 31.1307 96.4588 31.1307C96.1368 31.1307 95.8551 31.2017 95.6136 31.3438C95.3769 31.4811 95.1946 31.6799 95.0668 31.9403C94.9389 32.196 94.8726 32.5038 94.8679 32.8636ZM110.383 28.0909V30.9318H103.195V28.0909H110.383ZM104.587 25.4773H108.508V35.4915C108.508 35.643 108.534 35.7708 108.586 35.875C108.638 35.9744 108.719 36.0502 108.827 36.1023C108.936 36.1496 109.076 36.1733 109.246 36.1733C109.365 36.1733 109.502 36.1591 109.658 36.1307C109.819 36.1023 109.938 36.0786 110.013 36.0597L110.582 38.8153C110.406 38.8674 110.156 38.9313 109.829 39.0071C109.507 39.0829 109.123 39.1326 108.678 39.1562C107.779 39.2036 107.023 39.1113 106.413 38.8793C105.802 38.6425 105.343 38.2708 105.035 37.7642C104.727 37.2576 104.578 36.6231 104.587 35.8608V25.4773Z" fill="#00A6CD"/>
</svg>
