<svg width="166" height="41" viewBox="0 0 166 41" fill="none" xmlns="http://www.w3.org/2000/svg">
<path d="M0.392578 16V1.45455H6.6994C7.80735 1.45455 8.73775 1.60369 9.49059 1.90199C10.2482 2.20028 10.8187 2.62169 11.2022 3.16619C11.5905 3.7107 11.7846 4.35227 11.7846 5.09091C11.7846 5.62595 11.6663 6.11364 11.4295 6.55398C11.1975 6.99432 10.8708 7.36364 10.4494 7.66193C10.028 7.95549 9.53557 8.15909 8.97212 8.27273V8.41477C9.59712 8.43845 10.1653 8.59706 10.6767 8.89062C11.188 9.17945 11.5952 9.57955 11.8983 10.0909C12.2013 10.5975 12.3528 11.1941 12.3528 11.8807C12.3528 12.6761 12.1445 13.384 11.7278 14.0043C11.3159 14.6245 10.7288 15.1122 9.96644 15.4673C9.20413 15.8224 8.29504 16 7.23917 16H0.392578ZM4.34144 12.8466H6.18803C6.85091 12.8466 7.34807 12.7235 7.67951 12.4773C8.01095 12.2263 8.17667 11.857 8.17667 11.3693C8.17667 11.0284 8.09854 10.7396 7.94229 10.5028C7.78604 10.2661 7.56351 10.0862 7.27468 9.96307C6.99059 9.83996 6.64731 9.77841 6.24485 9.77841H4.34144V12.8466ZM4.34144 7.33523H5.96076C6.3064 7.33523 6.6118 7.28078 6.87695 7.17188C7.1421 7.06297 7.34807 6.90672 7.49485 6.70312C7.64637 6.49479 7.72212 6.24148 7.72212 5.94318C7.72212 5.49337 7.56114 5.15009 7.23917 4.91335C6.9172 4.67188 6.51 4.55114 6.01758 4.55114H4.34144V7.33523ZM20.8826 11.2273V5.09091H24.8031V16H21.0815V13.9261H20.9679C20.7311 14.6222 20.3168 15.1667 19.725 15.5597C19.1331 15.9479 18.43 16.142 17.6156 16.142C16.8533 16.142 16.1857 15.9669 15.6127 15.6165C15.0446 15.2661 14.6019 14.7831 14.2846 14.1676C13.9721 13.5521 13.8135 12.8466 13.8088 12.0511V5.09091H17.7292V11.2273C17.734 11.767 17.8713 12.1908 18.1412 12.4986C18.4158 12.8063 18.7993 12.9602 19.2917 12.9602C19.6184 12.9602 19.9002 12.8916 20.1369 12.7543C20.3784 12.6122 20.563 12.4134 20.6909 12.1577C20.8234 11.8973 20.8874 11.5871 20.8826 11.2273ZM33.3027 5.09091V7.93182H26.1152V5.09091H33.3027ZM27.5073 2.47727H31.4277V12.4915C31.4277 12.643 31.4538 12.7708 31.5059 12.875C31.5579 12.9744 31.6384 13.0502 31.7473 13.1023C31.8562 13.1496 31.9959 13.1733 32.1664 13.1733C32.2847 13.1733 32.4221 13.1591 32.5783 13.1307C32.7393 13.1023 32.8577 13.0786 32.9334 13.0597L33.5016 15.8153C33.3264 15.8674 33.0755 15.9313 32.7488 16.0071C32.4268 16.0829 32.0433 16.1326 31.5982 16.1562C30.6986 16.2036 29.9434 16.1113 29.3326 15.8793C28.7218 15.6425 28.2625 15.2708 27.9547 14.7642C27.647 14.2576 27.4978 13.6231 27.5073 12.8608V2.47727ZM41.4082 5.09091V7.93182H34.2207V5.09091H41.4082ZM35.6127 2.47727H39.5332V12.4915C39.5332 12.643 39.5592 12.7708 39.6113 12.875C39.6634 12.9744 39.7439 13.0502 39.8528 13.1023C39.9617 13.1496 40.1014 13.1733 40.2718 13.1733C40.3902 13.1733 40.5275 13.1591 40.6838 13.1307C40.8448 13.1023 40.9631 13.0786 41.0389 13.0597L41.6071 15.8153C41.4319 15.8674 41.1809 15.9313 40.8542 16.0071C40.5323 16.0829 40.1487 16.1326 39.7037 16.1562C38.804 16.2036 38.0488 16.1113 37.438 15.8793C36.8272 15.6425 36.368 15.2708 36.0602 14.7642C35.7524 14.2576 35.6033 13.6231 35.6127 12.8608V2.47727ZM48.1181 16.1989C46.9533 16.1989 45.9495 15.9763 45.1067 15.5312C44.2686 15.0814 43.6223 14.4375 43.1678 13.5994C42.718 12.7566 42.4931 11.7481 42.4931 10.5739C42.4931 9.44697 42.7203 8.46212 43.1749 7.61932C43.6294 6.77651 44.271 6.12074 45.0996 5.65199C45.9282 5.18324 46.906 4.94886 48.0328 4.94886C48.8567 4.94886 49.6025 5.0767 50.2701 5.33239C50.9377 5.58807 51.5082 5.95975 51.9817 6.44744C52.4552 6.9304 52.8198 7.51752 53.0755 8.20881C53.3311 8.90009 53.459 9.67898 53.459 10.5455V11.4545H43.7147V9.29545H49.851C49.8463 8.98295 49.7658 8.70833 49.6096 8.47159C49.458 8.23011 49.2521 8.04309 48.9917 7.91051C48.736 7.7732 48.4448 7.70455 48.1181 7.70455C47.8008 7.70455 47.5096 7.7732 47.2445 7.91051C46.9793 8.04309 46.7663 8.22775 46.6053 8.46449C46.449 8.70123 46.3662 8.97822 46.3567 9.29545V11.625C46.3567 11.9754 46.4301 12.2879 46.5769 12.5625C46.7237 12.8371 46.9344 13.0526 47.209 13.2088C47.4836 13.3651 47.815 13.4432 48.2033 13.4432C48.4732 13.4432 48.7194 13.4053 48.9419 13.3295C49.1692 13.2538 49.3633 13.1449 49.5243 13.0028C49.6853 12.8561 49.8037 12.6809 49.8794 12.4773H53.459C53.3359 13.2348 53.0447 13.893 52.5854 14.4517C52.1261 15.0057 51.5177 15.4366 50.7601 15.7443C50.0073 16.0473 49.1266 16.1989 48.1181 16.1989ZM55.0588 16V5.09091H58.8656V7.16477H58.9792C59.1781 6.39773 59.493 5.83665 59.9238 5.48153C60.3594 5.12642 60.8684 4.94886 61.4508 4.94886C61.6213 4.94886 61.7894 4.96307 61.9551 4.99148C62.1255 5.01515 62.2889 5.05066 62.4451 5.09801V8.44318C62.251 8.37689 62.0119 8.32718 61.7278 8.29403C61.4437 8.26089 61.1999 8.24432 60.9963 8.24432C60.6127 8.24432 60.2671 8.33191 59.9593 8.5071C59.6563 8.67756 59.4172 8.91903 59.242 9.23153C59.0668 9.5393 58.9792 9.90152 58.9792 10.3182V16H55.0588ZM70.714 5.09091V7.93182H63.4128V5.09091H70.714ZM64.8049 16V4.77841C64.8049 3.87879 64.9658 3.13305 65.2878 2.54119C65.6098 1.94934 66.0643 1.50663 66.6515 1.21307C67.2386 0.919507 67.9299 0.772726 68.7253 0.772726C69.2225 0.772726 69.7054 0.810605 70.1742 0.886364C70.6477 0.962121 70.998 1.02841 71.2253 1.08523L70.6571 3.89773C70.5151 3.85511 70.3494 3.82197 70.16 3.7983C69.9706 3.76989 69.8049 3.75568 69.6628 3.75568C69.2935 3.75568 69.0449 3.83381 68.9171 3.99006C68.7892 4.14631 68.7253 4.35227 68.7253 4.60795V16H64.8049ZM76.1472 1.45455V16H72.2267V1.45455H76.1472ZM80.5311 20.0909C80.0813 20.0909 79.6528 20.0554 79.2456 19.9844C78.8384 19.9181 78.4809 19.8258 78.1731 19.7074L79.0254 16.9233C79.3474 17.0369 79.6409 17.1103 79.9061 17.1435C80.176 17.1766 80.4056 17.1577 80.595 17.0866C80.7891 17.0156 80.9288 16.8807 81.014 16.6818L81.0993 16.483L77.264 5.09091H81.3549L83.1163 12.6477H83.2299L85.0197 5.09091H89.139L85.1618 16.9091C84.9629 17.5104 84.6741 18.0502 84.2953 18.5284C83.9212 19.0114 83.4288 19.3925 82.818 19.6719C82.2072 19.9512 81.4449 20.0909 80.5311 20.0909ZM103.628 6.25568C103.566 6.00473 103.469 5.78456 103.336 5.59517C103.204 5.40104 103.038 5.23769 102.839 5.10511C102.645 4.9678 102.418 4.866 102.157 4.79972C101.902 4.72869 101.62 4.69318 101.312 4.69318C100.649 4.69318 100.084 4.8518 99.6149 5.16903C99.1509 5.48627 98.7958 5.94318 98.5495 6.53977C98.3081 7.13636 98.1873 7.85606 98.1873 8.69886C98.1873 9.55114 98.3033 10.2803 98.5353 10.8864C98.7673 11.4924 99.113 11.9564 99.5723 12.2784C100.032 12.6004 100.602 12.7614 101.284 12.7614C101.885 12.7614 102.385 12.6738 102.782 12.4986C103.185 12.3234 103.486 12.0748 103.684 11.7528C103.883 11.4309 103.983 11.0521 103.983 10.6165L104.665 10.6875H101.341V7.875H107.79V9.89205C107.79 11.2178 107.508 12.3518 106.944 13.294C106.386 14.2315 105.614 14.9512 104.629 15.4531C103.649 15.9503 102.524 16.1989 101.256 16.1989C99.8398 16.1989 98.5969 15.8982 97.5268 15.2969C96.4567 14.6955 95.621 13.8385 95.0197 12.7259C94.4231 11.6132 94.1248 10.2898 94.1248 8.75568C94.1248 7.55303 94.3071 6.48769 94.6717 5.55966C95.041 4.63163 95.5524 3.84801 96.2058 3.20881C96.8592 2.56487 97.6144 2.07955 98.4714 1.75284C99.3284 1.4214 100.247 1.25568 101.227 1.25568C102.089 1.25568 102.889 1.37879 103.628 1.625C104.371 1.86648 105.027 2.21212 105.595 2.66193C106.168 3.10701 106.63 3.63494 106.98 4.24574C107.33 4.85653 107.543 5.52651 107.619 6.25568H103.628ZM112.727 16.1705C112.031 16.1705 111.416 16.0568 110.881 15.8295C110.351 15.5975 109.934 15.2472 109.631 14.7784C109.328 14.3097 109.176 13.7131 109.176 12.9886C109.176 12.392 109.278 11.883 109.482 11.4616C109.685 11.0355 109.969 10.6875 110.334 10.4176C110.699 10.1477 111.122 9.94176 111.605 9.79972C112.093 9.65767 112.619 9.56534 113.182 9.52273C113.793 9.47538 114.283 9.41856 114.652 9.35227C115.026 9.28125 115.296 9.18419 115.462 9.06108C115.628 8.93324 115.71 8.76515 115.71 8.55682V8.52841C115.71 8.24432 115.602 8.02652 115.384 7.875C115.166 7.72348 114.887 7.64773 114.546 7.64773C114.172 7.64773 113.866 7.73059 113.629 7.89631C113.397 8.05729 113.258 8.30587 113.21 8.64205H109.602C109.65 7.97917 109.86 7.36837 110.235 6.80966C110.613 6.24621 111.165 5.7964 111.889 5.46023C112.614 5.11932 113.518 4.94886 114.602 4.94886C115.384 4.94886 116.084 5.04119 116.705 5.22585C117.325 5.40578 117.853 5.65909 118.289 5.9858C118.724 6.30777 119.056 6.68655 119.283 7.12216C119.515 7.55303 119.631 8.02178 119.631 8.52841V16H115.966V14.4659H115.881C115.663 14.8731 115.398 15.2022 115.085 15.4531C114.778 15.7041 114.425 15.8864 114.027 16C113.634 16.1136 113.201 16.1705 112.727 16.1705ZM114.006 13.6989C114.304 13.6989 114.584 13.6373 114.844 13.5142C115.109 13.3911 115.325 13.2135 115.49 12.9815C115.656 12.7495 115.739 12.4678 115.739 12.1364V11.2273C115.635 11.2699 115.523 11.3101 115.405 11.348C115.291 11.3859 115.168 11.4214 115.036 11.4545C114.908 11.4877 114.771 11.5185 114.624 11.5469C114.482 11.5753 114.333 11.6013 114.176 11.625C113.873 11.6723 113.625 11.7505 113.431 11.8594C113.241 11.9635 113.099 12.0938 113.004 12.25C112.914 12.4015 112.869 12.572 112.869 12.7614C112.869 13.0644 112.976 13.2964 113.189 13.4574C113.402 13.6184 113.674 13.6989 114.006 13.6989ZM121.504 16V5.09091H125.311V7.16477H125.425C125.623 6.39773 125.938 5.83665 126.369 5.48153C126.805 5.12642 127.314 4.94886 127.896 4.94886C128.067 4.94886 128.235 4.96307 128.4 4.99148C128.571 5.01515 128.734 5.05066 128.89 5.09801V8.44318C128.696 8.37689 128.457 8.32718 128.173 8.29403C127.889 8.26089 127.645 8.24432 127.442 8.24432C127.058 8.24432 126.712 8.33191 126.405 8.5071C126.102 8.67756 125.863 8.91903 125.687 9.23153C125.512 9.5393 125.425 9.90152 125.425 10.3182V16H121.504ZM133.5 16.142C132.723 16.142 132.008 15.9384 131.355 15.5312C130.706 15.1241 130.185 14.5062 129.792 13.6776C129.404 12.849 129.21 11.8049 129.21 10.5455C129.21 9.22917 129.414 8.15909 129.821 7.33523C130.233 6.51136 130.763 5.90767 131.412 5.52415C132.065 5.14062 132.752 4.94886 133.471 4.94886C134.011 4.94886 134.485 5.04356 134.892 5.23295C135.299 5.41761 135.64 5.66619 135.915 5.97869C136.189 6.28646 136.398 6.625 136.54 6.99432H136.596V1.45455H140.517V16H136.625V14.2102H136.54C136.388 14.5795 136.17 14.911 135.886 15.2045C135.607 15.4934 135.266 15.723 134.863 15.8935C134.466 16.0592 134.011 16.142 133.5 16.142ZM134.949 13.1307C135.309 13.1307 135.616 13.0265 135.872 12.8182C136.132 12.6051 136.331 12.3068 136.469 11.9233C136.611 11.535 136.682 11.0758 136.682 10.5455C136.682 10.0057 136.611 9.54403 136.469 9.16051C136.331 8.77225 136.132 8.47633 135.872 8.27273C135.616 8.06439 135.309 7.96023 134.949 7.96023C134.589 7.96023 134.281 8.06439 134.025 8.27273C133.774 8.47633 133.58 8.77225 133.443 9.16051C133.31 9.54403 133.244 10.0057 133.244 10.5455C133.244 11.0852 133.31 11.5492 133.443 11.9375C133.58 12.321 133.774 12.617 134.025 12.8253C134.281 13.0289 134.589 13.1307 134.949 13.1307ZM147.669 16.1989C146.504 16.1989 145.5 15.9763 144.657 15.5312C143.819 15.0814 143.173 14.4375 142.719 13.5994C142.269 12.7566 142.044 11.7481 142.044 10.5739C142.044 9.44697 142.271 8.46212 142.726 7.61932C143.18 6.77651 143.822 6.12074 144.65 5.65199C145.479 5.18324 146.457 4.94886 147.584 4.94886C148.407 4.94886 149.153 5.0767 149.821 5.33239C150.488 5.58807 151.059 5.95975 151.532 6.44744C152.006 6.9304 152.371 7.51752 152.626 8.20881C152.882 8.90009 153.01 9.67898 153.01 10.5455V11.4545H143.265V9.29545H149.402C149.397 8.98295 149.317 8.70833 149.16 8.47159C149.009 8.23011 148.803 8.04309 148.542 7.91051C148.287 7.7732 147.996 7.70455 147.669 7.70455C147.352 7.70455 147.06 7.7732 146.795 7.91051C146.53 8.04309 146.317 8.22775 146.156 8.46449C146 8.70123 145.917 8.97822 145.907 9.29545V11.625C145.907 11.9754 145.981 12.2879 146.128 12.5625C146.274 12.8371 146.485 13.0526 146.76 13.2088C147.034 13.3651 147.366 13.4432 147.754 13.4432C148.024 13.4432 148.27 13.4053 148.493 13.3295C148.72 13.2538 148.914 13.1449 149.075 13.0028C149.236 12.8561 149.354 12.6809 149.43 12.4773H153.01C152.887 13.2348 152.595 13.893 152.136 14.4517C151.677 15.0057 151.068 15.4366 150.311 15.7443C149.558 16.0473 148.677 16.1989 147.669 16.1989ZM158.53 9.86364V16H154.61V5.09091H158.331V7.16477H158.445C158.682 6.47348 159.098 5.93134 159.695 5.53835C160.296 5.14536 160.997 4.94886 161.797 4.94886C162.569 4.94886 163.239 5.12642 163.807 5.48153C164.38 5.83191 164.823 6.31487 165.135 6.9304C165.452 7.54593 165.609 8.24905 165.604 9.03977V16H161.683V9.86364C161.688 9.32386 161.551 8.90009 161.271 8.59233C160.997 8.28456 160.613 8.13068 160.121 8.13068C159.799 8.13068 159.517 8.2017 159.276 8.34375C159.039 8.48106 158.857 8.67992 158.729 8.94034C158.601 9.19602 158.535 9.50379 158.53 9.86364ZM65.587 30C65.5491 29.5265 65.3716 29.1572 65.0543 28.892C64.7418 28.6269 64.266 28.4943 63.6268 28.4943C63.2196 28.4943 62.8858 28.544 62.6254 28.6435C62.3697 28.7382 62.1803 28.8684 62.0572 29.0341C61.9341 29.1998 61.8701 29.3892 61.8654 29.6023C61.8559 29.7775 61.8867 29.9361 61.9577 30.0781C62.0335 30.2154 62.1519 30.3409 62.3129 30.4545C62.4738 30.5634 62.6798 30.6629 62.9308 30.7528C63.1817 30.8428 63.48 30.9233 63.8256 30.9943L65.0188 31.25C65.8237 31.4205 66.5127 31.6454 67.0856 31.9247C67.6585 32.2041 68.1272 32.5331 68.4918 32.9119C68.8564 33.286 69.1239 33.7074 69.2944 34.1761C69.4696 34.6449 69.5595 35.1562 69.5643 35.7102C69.5595 36.6667 69.3204 37.4763 68.8469 38.1392C68.3735 38.8021 67.6964 39.3063 66.8157 39.652C65.9397 39.9976 64.8862 40.1705 63.6552 40.1705C62.391 40.1705 61.2878 39.9834 60.3455 39.6094C59.408 39.2353 58.6789 38.66 58.158 37.8835C57.6419 37.1023 57.3815 36.1032 57.3768 34.8864H61.1268C61.1504 35.3314 61.2617 35.7055 61.4606 36.0085C61.6594 36.3116 61.9388 36.5412 62.2987 36.6974C62.6632 36.8537 63.0965 36.9318 63.5984 36.9318C64.0198 36.9318 64.3725 36.8797 64.6566 36.7756C64.9407 36.6714 65.1561 36.527 65.3029 36.3423C65.4497 36.1577 65.5254 35.947 65.5302 35.7102C65.5254 35.4877 65.4521 35.2936 65.31 35.1278C65.1727 34.9574 64.9454 34.8059 64.6282 34.6733C64.311 34.536 63.8825 34.4081 63.3427 34.2898L61.8938 33.9773C60.6059 33.6979 59.5903 33.2315 58.8469 32.5781C58.1083 31.92 57.7414 31.0227 57.7461 29.8864C57.7414 28.9631 57.9876 28.1558 58.4847 27.4645C58.9866 26.7685 59.6803 26.2263 60.5657 25.8381C61.4558 25.4498 62.4762 25.2557 63.6268 25.2557C64.801 25.2557 65.8166 25.4522 66.6737 25.8452C67.5307 26.2382 68.1912 26.7921 68.6552 27.5071C69.1239 28.2173 69.3607 29.0483 69.3654 30H65.587ZM78.1971 35.2273V29.0909H82.1175V40H78.396V37.9261H78.2823C78.0456 38.6222 77.6313 39.1667 77.0394 39.5597C76.4476 39.9479 75.7444 40.142 74.93 40.142C74.1677 40.142 73.5001 39.9669 72.9272 39.6165C72.359 39.2661 71.9163 38.7831 71.5991 38.1676C71.2866 37.5521 71.128 36.8466 71.1232 36.0511V29.0909H75.0437V35.2273C75.0484 35.767 75.1857 36.1908 75.4556 36.4986C75.7302 36.8063 76.1138 36.9602 76.6062 36.9602C76.9329 36.9602 77.2146 36.8916 77.4513 36.7543C77.6928 36.6122 77.8775 36.4134 78.0053 36.1577C78.1379 35.8973 78.2018 35.5871 78.1971 35.2273ZM84.1115 40V29.0909H88.032V40H84.1115ZM86.0717 27.9545C85.5414 27.9545 85.0869 27.7794 84.7081 27.429C84.3293 27.0786 84.1399 26.6572 84.1399 26.1648C84.1399 25.6723 84.3293 25.2509 84.7081 24.9006C85.0869 24.5502 85.5414 24.375 86.0717 24.375C86.6068 24.375 87.0613 24.5502 87.4354 24.9006C87.8142 25.2509 88.0036 25.6723 88.0036 26.1648C88.0036 26.6572 87.8142 27.0786 87.4354 27.429C87.0613 27.7794 86.6068 27.9545 86.0717 27.9545ZM96.5352 29.0909V31.9318H89.3477V29.0909H96.5352ZM90.7397 26.4773H94.6602V36.4915C94.6602 36.643 94.6862 36.7708 94.7383 36.875C94.7904 36.9744 94.8709 37.0502 94.9798 37.1023C95.0887 37.1496 95.2283 37.1733 95.3988 37.1733C95.5172 37.1733 95.6545 37.1591 95.8107 37.1307C95.9717 37.1023 96.0901 37.0786 96.1658 37.0597L96.734 39.8153C96.5588 39.8674 96.3079 39.9313 95.9812 40.0071C95.6592 40.0829 95.2757 40.1326 94.8306 40.1562C93.931 40.2036 93.1758 40.1113 92.565 39.8793C91.9542 39.6425 91.4949 39.2708 91.1871 38.7642C90.8794 38.2576 90.7302 37.6231 90.7397 36.8608V26.4773ZM103.245 40.1989C102.08 40.1989 101.076 39.9763 100.234 39.5312C99.3956 39.0814 98.7493 38.4375 98.2947 37.5994C97.8449 36.7566 97.62 35.7481 97.62 34.5739C97.62 33.447 97.8473 32.4621 98.3018 31.6193C98.7564 30.7765 99.398 30.1207 100.227 29.652C101.055 29.1832 102.033 28.9489 103.16 28.9489C103.984 28.9489 104.729 29.0767 105.397 29.3324C106.065 29.5881 106.635 29.9598 107.109 30.4474C107.582 30.9304 107.947 31.5175 108.202 32.2088C108.458 32.9001 108.586 33.679 108.586 34.5455V35.4545H98.8416V33.2955H104.978C104.973 32.983 104.893 32.7083 104.737 32.4716C104.585 32.2301 104.379 32.0431 104.119 31.9105C103.863 31.7732 103.572 31.7045 103.245 31.7045C102.928 31.7045 102.637 31.7732 102.371 31.9105C102.106 32.0431 101.893 32.2277 101.732 32.4645C101.576 32.7012 101.493 32.9782 101.484 33.2955V35.625C101.484 35.9754 101.557 36.2879 101.704 36.5625C101.851 36.8371 102.061 37.0526 102.336 37.2088C102.611 37.3651 102.942 37.4432 103.33 37.4432C103.6 37.4432 103.846 37.4053 104.069 37.3295C104.296 37.2538 104.49 37.1449 104.651 37.0028C104.812 36.8561 104.931 36.6809 105.006 36.4773H108.586C108.463 37.2348 108.172 37.893 107.712 38.4517C107.253 39.0057 106.645 39.4366 105.887 39.7443C105.134 40.0473 104.254 40.1989 103.245 40.1989Z" fill="#00A6CD"/>
</svg>
