<svg width="101" height="45" viewBox="0 0 101 45" fill="none" xmlns="http://www.w3.org/2000/svg">
<path d="M0.253906 16V1.45455H10.4812V4.63636H4.20277V7.13636H9.85618V10.3182H4.20277V16H0.253906ZM16.4453 16.1989C15.2616 16.1989 14.2483 15.9645 13.4055 15.4957C12.5627 15.0223 11.9164 14.3641 11.4666 13.5213C11.0168 12.6738 10.7919 11.6913 10.7919 10.5739C10.7919 9.45644 11.0168 8.47633 11.4666 7.63352C11.9164 6.78598 12.5627 6.12784 13.4055 5.65909C14.2483 5.18561 15.2616 4.94886 16.4453 4.94886C17.629 4.94886 18.6423 5.18561 19.4851 5.65909C20.3279 6.12784 20.9742 6.78598 21.424 7.63352C21.8738 8.47633 22.0987 9.45644 22.0987 10.5739C22.0987 11.6913 21.8738 12.6738 21.424 13.5213C20.9742 14.3641 20.3279 15.0223 19.4851 15.4957C18.6423 15.9645 17.629 16.1989 16.4453 16.1989ZM16.4737 13.3011C16.8052 13.3011 17.0916 13.1899 17.3331 12.9673C17.5746 12.7448 17.7616 12.4276 17.8942 12.0156C18.0268 11.6037 18.093 11.1136 18.093 10.5455C18.093 9.97254 18.0268 9.48248 17.8942 9.07528C17.7616 8.66335 17.5746 8.34612 17.3331 8.12358C17.0916 7.90104 16.8052 7.78977 16.4737 7.78977C16.1233 7.78977 15.8227 7.90104 15.5717 8.12358C15.3208 8.34612 15.129 8.66335 14.9964 9.07528C14.8639 9.48248 14.7976 9.97254 14.7976 10.5455C14.7976 11.1136 14.8639 11.6037 14.9964 12.0156C15.129 12.4276 15.3208 12.7448 15.5717 12.9673C15.8227 13.1899 16.1233 13.3011 16.4737 13.3011ZM30.7635 11.2273V5.09091H34.6839V16H30.9624V13.9261H30.8487C30.612 14.6222 30.1977 15.1667 29.6058 15.5597C29.014 15.9479 28.3108 16.142 27.4964 16.142C26.7341 16.142 26.0665 15.9669 25.4936 15.6165C24.9254 15.2661 24.4827 14.7831 24.1655 14.1676C23.853 13.5521 23.6944 12.8466 23.6896 12.0511V5.09091H27.6101V11.2273C27.6148 11.767 27.7521 12.1908 28.022 12.4986C28.2966 12.8063 28.6802 12.9602 29.1726 12.9602C29.4993 12.9602 29.781 12.8916 30.0178 12.7543C30.2592 12.6122 30.4439 12.4134 30.5717 12.1577C30.7043 11.8973 30.7682 11.5871 30.7635 11.2273ZM36.6779 16V5.09091H40.4847V7.16477H40.5984C40.7972 6.39773 41.1121 5.83665 41.543 5.48153C41.9786 5.12642 42.4876 4.94886 43.07 4.94886C43.2404 4.94886 43.4085 4.96307 43.5742 4.99148C43.7447 5.01515 43.908 5.05066 44.0643 5.09801V8.44318C43.8701 8.37689 43.631 8.32718 43.3469 8.29403C43.0629 8.26089 42.819 8.24432 42.6154 8.24432C42.2319 8.24432 41.8862 8.33191 41.5785 8.5071C41.2754 8.67756 41.0363 8.91903 40.8612 9.23153C40.686 9.5393 40.5984 9.90152 40.5984 10.3182V16H36.6779ZM49.2773 16V1.45455H55.5558C56.6353 1.45455 57.5799 1.66761 58.3896 2.09375C59.1992 2.51989 59.829 3.11884 60.2788 3.89062C60.7286 4.66241 60.9535 5.56439 60.9535 6.59659C60.9535 7.63826 60.7215 8.54025 60.2575 9.30256C59.7982 10.0649 59.1519 10.652 58.3185 11.0639C57.4899 11.4759 56.5217 11.6818 55.4137 11.6818H51.6637V8.61364H54.6183C55.0823 8.61364 55.4776 8.53314 55.8043 8.37216C56.1358 8.20644 56.3891 7.97206 56.5643 7.66903C56.7442 7.366 56.8342 7.00852 56.8342 6.59659C56.8342 6.17992 56.7442 5.82481 56.5643 5.53125C56.3891 5.23295 56.1358 5.00568 55.8043 4.84943C55.4776 4.68845 55.0823 4.60795 54.6183 4.60795H53.2262V16H49.2773ZM67.4805 16.1989C66.2968 16.1989 65.2835 15.9645 64.4407 15.4957C63.5979 15.0223 62.9516 14.3641 62.5018 13.5213C62.052 12.6738 61.8271 11.6913 61.8271 10.5739C61.8271 9.45644 62.052 8.47633 62.5018 7.63352C62.9516 6.78598 63.5979 6.12784 64.4407 5.65909C65.2835 5.18561 66.2968 4.94886 67.4805 4.94886C68.6642 4.94886 69.6774 5.18561 70.5202 5.65909C71.363 6.12784 72.0094 6.78598 72.4592 7.63352C72.909 8.47633 73.1339 9.45644 73.1339 10.5739C73.1339 11.6913 72.909 12.6738 72.4592 13.5213C72.0094 14.3641 71.363 15.0223 70.5202 15.4957C69.6774 15.9645 68.6642 16.1989 67.4805 16.1989ZM67.5089 13.3011C67.8403 13.3011 68.1268 13.1899 68.3683 12.9673C68.6097 12.7448 68.7968 12.4276 68.9293 12.0156C69.0619 11.6037 69.1282 11.1136 69.1282 10.5455C69.1282 9.97254 69.0619 9.48248 68.9293 9.07528C68.7968 8.66335 68.6097 8.34612 68.3683 8.12358C68.1268 7.90104 67.8403 7.78977 67.5089 7.78977C67.1585 7.78977 66.8578 7.90104 66.6069 8.12358C66.3559 8.34612 66.1642 8.66335 66.0316 9.07528C65.899 9.48248 65.8327 9.97254 65.8327 10.5455C65.8327 11.1136 65.899 11.6037 66.0316 12.0156C66.1642 12.4276 66.3559 12.7448 66.6069 12.9673C66.8578 13.1899 67.1585 13.3011 67.5089 13.3011ZM74.7248 16V5.09091H78.6452V16H74.7248ZM76.685 3.95455C76.1547 3.95455 75.7002 3.77936 75.3214 3.42898C74.9426 3.0786 74.7532 2.6572 74.7532 2.16477C74.7532 1.67235 74.9426 1.25095 75.3214 0.900568C75.7002 0.550189 76.1547 0.375 76.685 0.375C77.2201 0.375 77.6746 0.550189 78.0487 0.900568C78.4274 1.25095 78.6168 1.67235 78.6168 2.16477C78.6168 2.6572 78.4274 3.0786 78.0487 3.42898C77.6746 3.77936 77.2201 3.95455 76.685 3.95455ZM84.5632 9.86364V16H80.6428V5.09091H84.3643V7.16477H84.478C84.7147 6.47348 85.1314 5.93134 85.728 5.53835C86.3293 5.14536 87.0301 4.94886 87.8303 4.94886C88.602 4.94886 89.272 5.12642 89.8402 5.48153C90.4131 5.83191 90.8558 6.31487 91.1683 6.9304C91.4856 7.54593 91.6418 8.24905 91.6371 9.03977V16H87.7166V9.86364C87.7214 9.32386 87.584 8.90009 87.3047 8.59233C87.0301 8.28456 86.6465 8.13068 86.1541 8.13068C85.8321 8.13068 85.5504 8.2017 85.3089 8.34375C85.0722 8.48106 84.8899 8.67992 84.7621 8.94034C84.6342 9.19602 84.5679 9.50379 84.5632 9.86364ZM100.078 5.09091V7.93182H92.8906V5.09091H100.078ZM94.2827 2.47727H98.2031V12.4915C98.2031 12.643 98.2292 12.7708 98.2812 12.875C98.3333 12.9744 98.4138 13.0502 98.5227 13.1023C98.6316 13.1496 98.7713 13.1733 98.9418 13.1733C99.0601 13.1733 99.1974 13.1591 99.3537 13.1307C99.5147 13.1023 99.633 13.0786 99.7088 13.0597L100.277 15.8153C100.102 15.8674 99.8509 15.9313 99.5241 16.0071C99.2022 16.0829 98.8187 16.1326 98.3736 16.1562C97.474 16.2036 96.7188 16.1113 96.108 15.8793C95.4972 15.6425 95.0379 15.2708 94.7301 14.7642C94.4223 14.2576 94.2732 13.6231 94.2827 12.8608V2.47727ZM15.8691 40V25.4545H22.176C23.2839 25.4545 24.2143 25.6037 24.9672 25.902C25.7247 26.2003 26.2953 26.6217 26.6788 27.1662C27.0671 27.7107 27.2612 28.3523 27.2612 29.0909C27.2612 29.6259 27.1428 30.1136 26.9061 30.554C26.6741 30.9943 26.3474 31.3636 25.926 31.6619C25.5046 31.9555 25.0121 32.1591 24.4487 32.2727V32.4148C25.0737 32.4384 25.6419 32.5971 26.1532 32.8906C26.6646 33.1795 27.0718 33.5795 27.3748 34.0909C27.6779 34.5975 27.8294 35.1941 27.8294 35.8807C27.8294 36.6761 27.621 37.384 27.2044 38.0043C26.7924 38.6245 26.2053 39.1122 25.443 39.4673C24.6807 39.8224 23.7716 40 22.7157 40H15.8691ZM19.818 36.8466H21.6646C22.3275 36.8466 22.8246 36.7235 23.1561 36.4773C23.4875 36.2263 23.6532 35.857 23.6532 35.3693C23.6532 35.0284 23.5751 34.7396 23.4189 34.5028C23.2626 34.2661 23.0401 34.0862 22.7512 33.9631C22.4672 33.84 22.1239 33.7784 21.7214 33.7784H19.818V36.8466ZM19.818 31.3352H21.4373C21.783 31.3352 22.0884 31.2808 22.3535 31.1719C22.6187 31.063 22.8246 30.9067 22.9714 30.7031C23.1229 30.4948 23.1987 30.2415 23.1987 29.9432C23.1987 29.4934 23.0377 29.1501 22.7157 28.9134C22.3938 28.6719 21.9866 28.5511 21.4941 28.5511H19.818V31.3352ZM32.3251 40.1705C31.6291 40.1705 31.0136 40.0568 30.4785 39.8295C29.9482 39.5975 29.5315 39.2472 29.2285 38.7784C28.9255 38.3097 28.774 37.7131 28.774 36.9886C28.774 36.392 28.8758 35.883 29.0794 35.4616C29.283 35.0355 29.5671 34.6875 29.9316 34.4176C30.2962 34.1477 30.72 33.9418 31.2029 33.7997C31.6906 33.6577 32.2162 33.5653 32.7797 33.5227C33.3904 33.4754 33.8805 33.4186 34.2498 33.3523C34.6239 33.2812 34.8938 33.1842 35.0595 33.0611C35.2252 32.9332 35.3081 32.7652 35.3081 32.5568V32.5284C35.3081 32.2443 35.1992 32.0265 34.9814 31.875C34.7636 31.7235 34.4842 31.6477 34.1433 31.6477C33.7692 31.6477 33.4638 31.7306 33.2271 31.8963C32.9951 32.0573 32.8554 32.3059 32.8081 32.642H29.2001C29.2475 31.9792 29.4582 31.3684 29.8322 30.8097C30.211 30.2462 30.7626 29.7964 31.487 29.4602C32.2115 29.1193 33.1158 28.9489 34.2001 28.9489C34.9814 28.9489 35.6821 29.0412 36.3024 29.2259C36.9226 29.4058 37.4506 29.6591 37.8862 29.9858C38.3218 30.3078 38.6532 30.6866 38.8805 31.1222C39.1125 31.553 39.2285 32.0218 39.2285 32.5284V40H35.5637V38.4659H35.4785C35.2607 38.8731 34.9956 39.2022 34.6831 39.4531C34.3753 39.7041 34.0225 39.8864 33.6248 40C33.2318 40.1136 32.7986 40.1705 32.3251 40.1705ZM33.6035 37.6989C33.9018 37.6989 34.1812 37.6373 34.4416 37.5142C34.7067 37.3911 34.9222 37.2135 35.0879 36.9815C35.2536 36.7495 35.3365 36.4678 35.3365 36.1364V35.2273C35.2323 35.2699 35.121 35.3101 35.0027 35.348C34.889 35.3859 34.7659 35.4214 34.6333 35.4545C34.5055 35.4877 34.3682 35.5185 34.2214 35.5469C34.0794 35.5753 33.9302 35.6013 33.774 35.625C33.4709 35.6723 33.2224 35.7505 33.0282 35.8594C32.8388 35.9635 32.6968 36.0938 32.6021 36.25C32.5121 36.4015 32.4672 36.572 32.4672 36.7614C32.4672 37.0644 32.5737 37.2964 32.7868 37.4574C32.9998 37.6184 33.2721 37.6989 33.6035 37.6989ZM44.6245 37.4148L44.6529 32.7557H45.1642L47.8063 29.0909H52.2097L47.7779 34.8011H46.6699L44.6245 37.4148ZM41.1017 40V25.4545H45.0222V40H41.1017ZM47.8347 40L45.3347 35.6818L47.8915 32.8977L52.3233 40H47.8347ZM58.0087 40.1989C56.8439 40.1989 55.8401 39.9763 54.9973 39.5312C54.1593 39.0814 53.513 38.4375 53.0584 37.5994C52.6086 36.7566 52.3837 35.7481 52.3837 34.5739C52.3837 33.447 52.611 32.4621 53.0655 31.6193C53.5201 30.7765 54.1616 30.1207 54.9902 29.652C55.8188 29.1832 56.7966 28.9489 57.9235 28.9489C58.7473 28.9489 59.4931 29.0767 60.1607 29.3324C60.8283 29.5881 61.3989 29.9598 61.8723 30.4474C62.3458 30.9304 62.7104 31.5175 62.9661 32.2088C63.2218 32.9001 63.3496 33.679 63.3496 34.5455V35.4545H53.6053V33.2955H59.7417C59.7369 32.983 59.6564 32.7083 59.5002 32.4716C59.3487 32.2301 59.1427 32.0431 58.8823 31.9105C58.6266 31.7732 58.3354 31.7045 58.0087 31.7045C57.6915 31.7045 57.4003 31.7732 57.1351 31.9105C56.87 32.0431 56.6569 32.2277 56.4959 32.4645C56.3397 32.7012 56.2568 32.9782 56.2473 33.2955V35.625C56.2473 35.9754 56.3207 36.2879 56.4675 36.5625C56.6143 36.8371 56.825 37.0526 57.0996 37.2088C57.3742 37.3651 57.7057 37.4432 58.0939 37.4432C58.3638 37.4432 58.61 37.4053 58.8326 37.3295C59.0598 37.2538 59.254 37.1449 59.415 37.0028C59.5759 36.8561 59.6943 36.6809 59.7701 36.4773H63.3496C63.2265 37.2348 62.9353 37.893 62.476 38.4517C62.0167 39.0057 61.4083 39.4366 60.6507 39.7443C59.8979 40.0473 59.0172 40.1989 58.0087 40.1989ZM64.9494 40V29.0909H68.7562V31.1648H68.8699C69.0687 30.3977 69.3836 29.8366 69.8145 29.4815C70.2501 29.1264 70.7591 28.9489 71.3414 28.9489C71.5119 28.9489 71.68 28.9631 71.8457 28.9915C72.0162 29.0152 72.1795 29.0507 72.3358 29.098V32.4432C72.1416 32.3769 71.9025 32.3272 71.6184 32.294C71.3343 32.2609 71.0905 32.2443 70.8869 32.2443C70.5034 32.2443 70.1577 32.3319 69.85 32.5071C69.5469 32.6776 69.3078 32.919 69.1326 33.2315C68.9574 33.5393 68.8699 33.9015 68.8699 34.3182V40H64.9494ZM76.3397 44.0909C75.8899 44.0909 75.4614 44.0554 75.0542 43.9844C74.647 43.9181 74.2895 43.8258 73.9817 43.7074L74.834 40.9233C75.156 41.0369 75.4495 41.1103 75.7147 41.1435C75.9846 41.1766 76.2142 41.1577 76.4036 41.0866C76.5977 41.0156 76.7374 40.8807 76.8226 40.6818L76.9078 40.483L73.0726 29.0909H77.1635L78.9249 36.6477H79.0385L80.8283 29.0909H84.9476L80.9703 40.9091C80.7715 41.5104 80.4827 42.0502 80.1039 42.5284C79.7298 43.0114 79.2374 43.3925 78.6266 43.6719C78.0158 43.9512 77.2535 44.0909 76.3397 44.0909Z" fill="#00A6CD"/>
</svg>
