<svg width="175" height="45" viewBox="0 0 175 45" fill="none" xmlns="http://www.w3.org/2000/svg">
<path d="M5.12802 16H0.866655L5.66779 1.45455H11.0655L15.8667 16H11.6053L8.42347 5.46023H8.30984L5.12802 16ZM4.33256 10.2614H12.3439V13.2159H4.33256V10.2614ZM21.2449 1.45455V16H17.3244V1.45455H21.2449ZM27.1628 9.86364V16H23.2424V1.45455H27.0208V7.16477H27.1344C27.3806 6.46875 27.7902 5.92661 28.3631 5.53835C28.936 5.14536 29.6249 4.94886 30.4299 4.94886C31.2016 4.94886 31.8716 5.12405 32.4398 5.47443C33.0127 5.82481 33.4554 6.30777 33.7679 6.9233C34.0852 7.53883 34.2414 8.24432 34.2367 9.03977V16H30.3162V9.86364C30.321 9.32386 30.186 8.90009 29.9114 8.59233C29.6415 8.28456 29.2556 8.13068 28.7537 8.13068C28.4365 8.13068 28.1571 8.2017 27.9157 8.34375C27.6789 8.48106 27.4943 8.67992 27.3617 8.94034C27.2338 9.19602 27.1676 9.50379 27.1628 9.86364ZM39.2118 16.1705C38.5158 16.1705 37.9003 16.0568 37.3652 15.8295C36.8349 15.5975 36.4183 15.2472 36.1152 14.7784C35.8122 14.3097 35.6607 13.7131 35.6607 12.9886C35.6607 12.392 35.7625 11.883 35.9661 11.4616C36.1697 11.0355 36.4538 10.6875 36.8184 10.4176C37.1829 10.1477 37.6067 9.94176 38.0897 9.79972C38.5774 9.65767 39.1029 9.56534 39.6664 9.52273C40.2772 9.47538 40.7672 9.41856 41.1365 9.35227C41.5106 9.28125 41.7805 9.18419 41.9462 9.06108C42.1119 8.93324 42.1948 8.76515 42.1948 8.55682V8.52841C42.1948 8.24432 42.0859 8.02652 41.8681 7.875C41.6503 7.72348 41.3709 7.64773 41.03 7.64773C40.656 7.64773 40.3506 7.73059 40.1138 7.89631C39.8818 8.05729 39.7421 8.30587 39.6948 8.64205H36.0868C36.1342 7.97917 36.3449 7.36837 36.7189 6.80966C37.0977 6.24621 37.6493 5.7964 38.3738 5.46023C39.0982 5.11932 40.0025 4.94886 41.0868 4.94886C41.8681 4.94886 42.5688 5.04119 43.1891 5.22585C43.8094 5.40578 44.3373 5.65909 44.7729 5.9858C45.2085 6.30777 45.54 6.68655 45.7672 7.12216C45.9992 7.55303 46.1152 8.02178 46.1152 8.52841V16H42.4505V14.4659H42.3652C42.1474 14.8731 41.8823 15.2022 41.5698 15.4531C41.262 15.7041 40.9093 15.8864 40.5115 16C40.1185 16.1136 39.6853 16.1705 39.2118 16.1705ZM40.4902 13.6989C40.7885 13.6989 41.0679 13.6373 41.3283 13.5142C41.5935 13.3911 41.8089 13.2135 41.9746 12.9815C42.1403 12.7495 42.2232 12.4678 42.2232 12.1364V11.2273C42.119 11.2699 42.0078 11.3101 41.8894 11.348C41.7757 11.3859 41.6526 11.4214 41.5201 11.4545C41.3922 11.4877 41.2549 11.5185 41.1081 11.5469C40.9661 11.5753 40.8169 11.6013 40.6607 11.625C40.3577 11.6723 40.1091 11.7505 39.915 11.8594C39.7256 11.9635 39.5835 12.0938 39.4888 12.25C39.3989 12.4015 39.3539 12.572 39.3539 12.7614C39.3539 13.0644 39.4604 13.2964 39.6735 13.4574C39.8865 13.6184 40.1588 13.6989 40.4902 13.6989ZM47.9885 5.09091H51.9089V16.3693C51.9089 17.3258 51.7077 18.0739 51.3052 18.6136C50.9075 19.1534 50.3488 19.5346 49.6291 19.7571C48.9094 19.9796 48.069 20.0909 47.1078 20.0909C46.9657 20.0909 46.8355 20.0885 46.7172 20.0838C46.594 20.0791 46.4591 20.072 46.3123 20.0625V17.1648C46.407 17.1742 46.4899 17.1813 46.5609 17.1861C46.6272 17.1908 46.6958 17.1932 46.7669 17.1932C47.2356 17.1932 47.5552 17.1198 47.7257 16.973C47.9009 16.831 47.9885 16.6013 47.9885 16.2841V5.09091ZM49.9487 3.95455C49.4184 3.95455 48.9638 3.77936 48.585 3.42898C48.2063 3.0786 48.0169 2.6572 48.0169 2.16477C48.0169 1.67235 48.2063 1.25095 48.585 0.900568C48.9638 0.550189 49.4184 0.375 49.9487 0.375C50.4837 0.375 50.9383 0.550189 51.3123 0.900568C51.6911 1.25095 51.8805 1.67235 51.8805 2.16477C51.8805 2.6572 51.6911 3.0786 51.3123 3.42898C50.9383 3.77936 50.4837 3.95455 49.9487 3.95455ZM53.9064 16V5.09091H57.8269V16H53.9064ZM55.8667 3.95455C55.3364 3.95455 54.8818 3.77936 54.503 3.42898C54.1242 3.0786 53.9348 2.6572 53.9348 2.16477C53.9348 1.67235 54.1242 1.25095 54.503 0.900568C54.8818 0.550189 55.3364 0.375 55.8667 0.375C56.4017 0.375 56.8562 0.550189 57.2303 0.900568C57.6091 1.25095 57.7985 1.67235 57.7985 2.16477C57.7985 2.6572 57.6091 3.0786 57.2303 3.42898C56.8562 3.77936 56.4017 3.95455 55.8667 3.95455ZM67.7008 1.45455V16H63.752V1.45455H67.7008ZM69.6291 16V5.09091H73.4359V7.16477H73.5495C73.7484 6.39773 74.0633 5.83665 74.4941 5.48153C74.9297 5.12642 75.4387 4.94886 76.0211 4.94886C76.1916 4.94886 76.3597 4.96307 76.5254 4.99148C76.6958 5.01515 76.8592 5.05066 77.0154 5.09801V8.44318C76.8213 8.37689 76.5822 8.32718 76.2981 8.29403C76.014 8.26089 75.7702 8.24432 75.5666 8.24432C75.1831 8.24432 74.8374 8.33191 74.5297 8.5071C74.2266 8.67756 73.9875 8.91903 73.8123 9.23153C73.6371 9.5393 73.5495 9.90152 73.5495 10.3182V16H69.6291ZM82.9316 16.1989C81.7479 16.1989 80.7347 15.9645 79.8919 15.4957C79.0491 15.0223 78.4028 14.3641 77.9529 13.5213C77.5031 12.6738 77.2782 11.6913 77.2782 10.5739C77.2782 9.45644 77.5031 8.47633 77.9529 7.63352C78.4028 6.78598 79.0491 6.12784 79.8919 5.65909C80.7347 5.18561 81.7479 4.94886 82.9316 4.94886C84.1154 4.94886 85.1286 5.18561 85.9714 5.65909C86.8142 6.12784 87.4605 6.78598 87.9103 7.63352C88.3601 8.47633 88.5851 9.45644 88.5851 10.5739C88.5851 11.6913 88.3601 12.6738 87.9103 13.5213C87.4605 14.3641 86.8142 15.0223 85.9714 15.4957C85.1286 15.9645 84.1154 16.1989 82.9316 16.1989ZM82.96 13.3011C83.2915 13.3011 83.5779 13.1899 83.8194 12.9673C84.0609 12.7448 84.2479 12.4276 84.3805 12.0156C84.5131 11.6037 84.5794 11.1136 84.5794 10.5455C84.5794 9.97254 84.5131 9.48248 84.3805 9.07528C84.2479 8.66335 84.0609 8.34612 83.8194 8.12358C83.5779 7.90104 83.2915 7.78977 82.96 7.78977C82.6097 7.78977 82.309 7.90104 82.0581 8.12358C81.8071 8.34612 81.6154 8.66335 81.4828 9.07528C81.3502 9.48248 81.2839 9.97254 81.2839 10.5455C81.2839 11.1136 81.3502 11.6037 81.4828 12.0156C81.6154 12.4276 81.8071 12.7448 82.0581 12.9673C82.309 13.1899 82.6097 13.3011 82.96 13.3011ZM94.0964 9.86364V16H90.176V5.09091H93.8975V7.16477H94.0112C94.2479 6.47348 94.6646 5.93134 95.2612 5.53835C95.8625 5.14536 96.5633 4.94886 97.3635 4.94886C98.1352 4.94886 98.8052 5.12642 99.3734 5.48153C99.9463 5.83191 100.389 6.31487 100.702 6.9304C101.019 7.54593 101.175 8.24905 101.17 9.03977V16H97.2498V9.86364C97.2546 9.32386 97.1172 8.90009 96.8379 8.59233C96.5633 8.28456 96.1797 8.13068 95.6873 8.13068C95.3654 8.13068 95.0836 8.2017 94.8422 8.34375C94.6054 8.48106 94.4231 8.67992 94.2953 8.94034C94.1674 9.19602 94.1011 9.50379 94.0964 9.86364ZM111.778 16.2273C110.736 16.2273 109.839 16.0426 109.086 15.6733C108.333 15.304 107.755 14.8092 107.353 14.1889C106.95 13.5687 106.749 12.8845 106.749 12.1364C106.749 11.5919 106.853 11.1113 107.062 10.6946C107.27 10.2732 107.561 9.88731 107.935 9.53693C108.309 9.18655 108.747 8.84091 109.249 8.5L112.545 6.45455C112.876 6.24621 113.101 6.03078 113.219 5.80824C113.338 5.58097 113.397 5.37973 113.397 5.20455C113.397 4.97254 113.312 4.76657 113.141 4.58665C112.971 4.40672 112.706 4.31913 112.346 4.32386C112.123 4.32386 111.931 4.36648 111.77 4.4517C111.609 4.5322 111.484 4.64583 111.394 4.79261C111.309 4.93939 111.266 5.11458 111.266 5.31818C111.266 5.59754 111.347 5.884 111.508 6.17756C111.669 6.46638 111.889 6.77888 112.168 7.11506C112.448 7.45123 112.762 7.82765 113.113 8.24432L120.158 16H116.238L110.329 9.75C110.04 9.44223 109.72 9.06581 109.37 8.62074C109.019 8.17093 108.716 7.6643 108.461 7.10085C108.21 6.5374 108.084 5.92424 108.084 5.26136C108.084 4.52273 108.262 3.84801 108.617 3.23722C108.972 2.62642 109.469 2.13873 110.108 1.77415C110.748 1.40956 111.493 1.22727 112.346 1.22727C113.16 1.22727 113.861 1.39536 114.448 1.73153C115.04 2.06771 115.494 2.51515 115.812 3.07386C116.134 3.63258 116.295 4.24811 116.295 4.92045C116.295 5.59754 116.126 6.22964 115.79 6.81676C115.459 7.40388 114.983 7.91761 114.363 8.35795L111.351 10.4886C111.119 10.6496 110.918 10.8343 110.748 11.0426C110.582 11.2509 110.499 11.5208 110.499 11.8523C110.499 12.1269 110.563 12.3613 110.691 12.5554C110.819 12.7495 110.999 12.8987 111.231 13.0028C111.467 13.107 111.744 13.1591 112.062 13.1591C112.545 13.1591 113.028 13.0431 113.51 12.8111C113.998 12.5743 114.443 12.2453 114.846 11.8239C115.248 11.3977 115.57 10.8958 115.812 10.3182C116.058 9.7358 116.181 9.10133 116.181 8.41477H119.278C119.278 9.25758 119.19 10.0696 119.015 10.8509C118.84 11.6321 118.558 12.3471 118.17 12.9957C117.781 13.6444 117.27 14.1913 116.635 14.6364C116.437 14.7358 116.242 14.8305 116.053 14.9205C115.864 15.0104 115.67 15.1051 115.471 15.2045C114.888 15.5786 114.28 15.8438 113.645 16C113.011 16.1515 112.388 16.2273 111.778 16.2273ZM132.804 6C132.766 5.52652 132.588 5.1572 132.271 4.89205C131.959 4.62689 131.483 4.49432 130.844 4.49432C130.436 4.49432 130.103 4.54403 129.842 4.64347C129.586 4.73816 129.397 4.86837 129.274 5.03409C129.151 5.19981 129.087 5.3892 129.082 5.60227C129.073 5.77746 129.104 5.93608 129.175 6.07812C129.25 6.21544 129.369 6.34091 129.53 6.45455C129.691 6.56345 129.897 6.66288 130.148 6.75284C130.398 6.8428 130.697 6.9233 131.042 6.99432L132.236 7.25C133.041 7.42045 133.729 7.64536 134.302 7.92472C134.875 8.20407 135.344 8.53314 135.709 8.91193C136.073 9.28598 136.341 9.70739 136.511 10.1761C136.686 10.6449 136.776 11.1562 136.781 11.7102C136.776 12.6667 136.537 13.4763 136.064 14.1392C135.59 14.8021 134.913 15.3063 134.032 15.652C133.157 15.9976 132.103 16.1705 130.872 16.1705C129.608 16.1705 128.505 15.9834 127.562 15.6094C126.625 15.2353 125.896 14.66 125.375 13.8835C124.859 13.1023 124.598 12.1032 124.594 10.8864H128.344C128.367 11.3314 128.479 11.7055 128.677 12.0085C128.876 12.3116 129.156 12.5412 129.515 12.6974C129.88 12.8537 130.313 12.9318 130.815 12.9318C131.237 12.9318 131.589 12.8797 131.873 12.7756C132.157 12.6714 132.373 12.527 132.52 12.3423C132.666 12.1577 132.742 11.947 132.747 11.7102C132.742 11.4877 132.669 11.2936 132.527 11.1278C132.39 10.9574 132.162 10.8059 131.845 10.6733C131.528 10.536 131.099 10.4081 130.559 10.2898L129.111 9.97727C127.823 9.69792 126.807 9.23153 126.064 8.57812C125.325 7.91998 124.958 7.02273 124.963 5.88636C124.958 4.96307 125.204 4.15578 125.702 3.46449C126.203 2.76847 126.897 2.22633 127.782 1.83807C128.673 1.44981 129.693 1.25568 130.844 1.25568C132.018 1.25568 133.033 1.45218 133.89 1.84517C134.747 2.23816 135.408 2.79214 135.872 3.5071C136.341 4.21733 136.577 5.0483 136.582 6H132.804ZM144.846 5.09091V7.93182H137.658V5.09091H144.846ZM139.05 2.47727H142.971V12.4915C142.971 12.643 142.997 12.7708 143.049 12.875C143.101 12.9744 143.181 13.0502 143.29 13.1023C143.399 13.1496 143.539 13.1733 143.709 13.1733C143.828 13.1733 143.965 13.1591 144.121 13.1307C144.282 13.1023 144.401 13.0786 144.476 13.0597L145.045 15.8153C144.869 15.8674 144.618 15.9313 144.292 16.0071C143.97 16.0829 143.586 16.1326 143.141 16.1562C142.242 16.2036 141.486 16.1113 140.876 15.8793C140.265 15.6425 139.805 15.2708 139.498 14.7642C139.19 14.2576 139.041 13.6231 139.05 12.8608V2.47727ZM151.556 16.1989C150.391 16.1989 149.387 15.9763 148.544 15.5312C147.706 15.0814 147.06 14.4375 146.605 13.5994C146.155 12.7566 145.931 11.7481 145.931 10.5739C145.931 9.44697 146.158 8.46212 146.612 7.61932C147.067 6.77651 147.709 6.12074 148.537 5.65199C149.366 5.18324 150.343 4.94886 151.47 4.94886C152.294 4.94886 153.04 5.0767 153.708 5.33239C154.375 5.58807 154.946 5.95975 155.419 6.44744C155.893 6.9304 156.257 7.51752 156.513 8.20881C156.769 8.90009 156.896 9.67898 156.896 10.5455V11.4545H147.152V9.29545H153.289C153.284 8.98295 153.203 8.70833 153.047 8.47159C152.896 8.23011 152.69 8.04309 152.429 7.91051C152.173 7.7732 151.882 7.70455 151.556 7.70455C151.238 7.70455 150.947 7.7732 150.682 7.91051C150.417 8.04309 150.204 8.22775 150.043 8.46449C149.887 8.70123 149.804 8.97822 149.794 9.29545V11.625C149.794 11.9754 149.868 12.2879 150.014 12.5625C150.161 12.8371 150.372 13.0526 150.646 13.2088C150.921 13.3651 151.253 13.4432 151.641 13.4432C151.911 13.4432 152.157 13.4053 152.379 13.3295C152.607 13.2538 152.801 13.1449 152.962 13.0028C153.123 12.8561 153.241 12.6809 153.317 12.4773H156.896C156.773 13.2348 156.482 13.893 156.023 14.4517C155.564 15.0057 154.955 15.4366 154.198 15.7443C153.445 16.0473 152.564 16.1989 151.556 16.1989ZM163.724 16.1989C162.559 16.1989 161.555 15.9763 160.712 15.5312C159.874 15.0814 159.228 14.4375 158.773 13.5994C158.323 12.7566 158.099 11.7481 158.099 10.5739C158.099 9.44697 158.326 8.46212 158.78 7.61932C159.235 6.77651 159.876 6.12074 160.705 5.65199C161.534 5.18324 162.511 4.94886 163.638 4.94886C164.462 4.94886 165.208 5.0767 165.876 5.33239C166.543 5.58807 167.114 5.95975 167.587 6.44744C168.061 6.9304 168.425 7.51752 168.681 8.20881C168.937 8.90009 169.064 9.67898 169.064 10.5455V11.4545H159.32V9.29545H165.456C165.452 8.98295 165.371 8.70833 165.215 8.47159C165.064 8.23011 164.858 8.04309 164.597 7.91051C164.341 7.7732 164.05 7.70455 163.724 7.70455C163.406 7.70455 163.115 7.7732 162.85 7.91051C162.585 8.04309 162.372 8.22775 162.211 8.46449C162.055 8.70123 161.972 8.97822 161.962 9.29545V11.625C161.962 11.9754 162.036 12.2879 162.182 12.5625C162.329 12.8371 162.54 13.0526 162.814 13.2088C163.089 13.3651 163.421 13.4432 163.809 13.4432C164.079 13.4432 164.325 13.4053 164.547 13.3295C164.775 13.2538 164.969 13.1449 165.13 13.0028C165.291 12.8561 165.409 12.6809 165.485 12.4773H169.064C168.941 13.2348 168.65 13.893 168.191 14.4517C167.732 15.0057 167.123 15.4366 166.366 15.7443C165.613 16.0473 164.732 16.1989 163.724 16.1989ZM174.585 1.45455V16H170.664V1.45455H174.585ZM54.4702 30.9091H50.4645C50.4361 30.5777 50.3603 30.277 50.2372 30.0071C50.1188 29.7372 49.9531 29.5052 49.7401 29.3111C49.5317 29.1122 49.2784 28.9607 48.9801 28.8565C48.6818 28.7476 48.3433 28.6932 47.9645 28.6932C47.3016 28.6932 46.7405 28.8542 46.2812 29.1761C45.8267 29.4981 45.4811 29.9598 45.2443 30.5611C45.0123 31.1624 44.8963 31.8845 44.8963 32.7273C44.8963 33.6174 45.0147 34.3632 45.2514 34.9645C45.4929 35.5611 45.8409 36.0109 46.2955 36.3139C46.75 36.6122 47.2969 36.7614 47.9361 36.7614C48.3007 36.7614 48.6274 36.7164 48.9162 36.6264C49.205 36.5317 49.456 36.3968 49.669 36.2216C49.8821 36.0464 50.0549 35.8357 50.1875 35.5895C50.3248 35.3385 50.4171 35.0568 50.4645 34.7443L54.4702 34.7727C54.4228 35.3883 54.25 36.0156 53.9517 36.6548C53.6534 37.2893 53.2296 37.8764 52.6804 38.4162C52.1359 38.9512 51.4612 39.3821 50.6562 39.7088C49.8513 40.0355 48.9162 40.1989 47.8509 40.1989C46.5156 40.1989 45.3177 39.9124 44.2571 39.3395C43.2012 38.7666 42.3655 37.9238 41.75 36.8111C41.1392 35.6984 40.8338 34.3371 40.8338 32.7273C40.8338 31.108 41.1463 29.7443 41.7713 28.6364C42.3963 27.5237 43.2391 26.6832 44.2997 26.1151C45.3603 25.5421 46.544 25.2557 47.8509 25.2557C48.7694 25.2557 49.6146 25.3812 50.3864 25.6321C51.1581 25.883 51.8352 26.25 52.4176 26.733C53 27.2112 53.4688 27.8007 53.8239 28.5014C54.179 29.2022 54.3944 30.0047 54.4702 30.9091ZM61.5742 40.1989C60.3905 40.1989 59.3772 39.9645 58.5344 39.4957C57.6916 39.0223 57.0453 38.3641 56.5955 37.5213C56.1457 36.6738 55.9208 35.6913 55.9208 34.5739C55.9208 33.4564 56.1457 32.4763 56.5955 31.6335C57.0453 30.786 57.6916 30.1278 58.5344 29.6591C59.3772 29.1856 60.3905 28.9489 61.5742 28.9489C62.7579 28.9489 63.7712 29.1856 64.614 29.6591C65.4568 30.1278 66.1031 30.786 66.5529 31.6335C67.0027 32.4763 67.2276 33.4564 67.2276 34.5739C67.2276 35.6913 67.0027 36.6738 66.5529 37.5213C66.1031 38.3641 65.4568 39.0223 64.614 39.4957C63.7712 39.9645 62.7579 40.1989 61.5742 40.1989ZM61.6026 37.3011C61.9341 37.3011 62.2205 37.1899 62.462 36.9673C62.7035 36.7448 62.8905 36.4276 63.0231 36.0156C63.1557 35.6037 63.2219 35.1136 63.2219 34.5455C63.2219 33.9725 63.1557 33.4825 63.0231 33.0753C62.8905 32.6634 62.7035 32.3461 62.462 32.1236C62.2205 31.901 61.9341 31.7898 61.6026 31.7898C61.2522 31.7898 60.9516 31.901 60.7006 32.1236C60.4497 32.3461 60.2579 32.6634 60.1254 33.0753C59.9928 33.4825 59.9265 33.9725 59.9265 34.5455C59.9265 35.1136 59.9928 35.6037 60.1254 36.0156C60.2579 36.4276 60.4497 36.7448 60.7006 36.9673C60.9516 37.1899 61.2522 37.3011 61.6026 37.3011ZM68.8185 40V29.0909H72.5401V31.1648H72.6538C72.881 30.483 73.2693 29.9432 73.8185 29.5455C74.3678 29.1477 75.0212 28.9489 75.7788 28.9489C76.5458 28.9489 77.2063 29.1525 77.7603 29.5597C78.3143 29.9621 78.6481 30.4972 78.7617 31.1648H78.8754C79.06 30.4972 79.453 29.9621 80.0543 29.5597C80.6557 29.1525 81.3612 28.9489 82.1708 28.9489C83.2172 28.9489 84.0647 29.285 84.7134 29.9574C85.3668 30.6297 85.6935 31.5246 85.6935 32.642V40H81.7731V33.6364C81.7731 33.1581 81.6523 32.7841 81.4109 32.5142C81.1694 32.2396 80.8451 32.1023 80.4379 32.1023C80.0354 32.1023 79.7158 32.2396 79.479 32.5142C79.247 32.7841 79.131 33.1581 79.131 33.6364V40H75.381V33.6364C75.381 33.1581 75.2603 32.7841 75.0188 32.5142C74.7773 32.2396 74.453 32.1023 74.0458 32.1023C73.7759 32.1023 73.5439 32.1638 73.3498 32.2869C73.1557 32.41 73.0041 32.5876 72.8952 32.8196C72.7911 33.0469 72.739 33.3191 72.739 33.6364V40H68.8185ZM87.6271 44.0909V29.0909H91.5192V30.9943H91.6044C91.7464 30.625 91.9548 30.2865 92.2294 29.9787C92.504 29.6662 92.8449 29.4176 93.2521 29.233C93.6593 29.0436 94.1328 28.9489 94.6726 28.9489C95.3923 28.9489 96.0765 29.1406 96.7251 29.5241C97.3786 29.9077 97.9089 30.5114 98.3161 31.3352C98.728 32.1591 98.9339 33.2292 98.9339 34.5455C98.9339 35.8049 98.7375 36.849 98.3445 37.6776C97.9562 38.5062 97.4354 39.1241 96.782 39.5312C96.1333 39.9384 95.4207 40.142 94.6442 40.142C94.1328 40.142 93.6759 40.0592 93.2734 39.8935C92.8757 39.723 92.5348 39.4934 92.2507 39.2045C91.9714 38.911 91.7559 38.5795 91.6044 38.2102H91.5476V44.0909H87.6271ZM91.4624 34.5455C91.4624 35.0758 91.531 35.535 91.6683 35.9233C91.8104 36.3068 92.0092 36.6051 92.2649 36.8182C92.5253 37.0265 92.8355 37.1307 93.1953 37.1307C93.5552 37.1307 93.8606 37.0289 94.1115 36.8253C94.3672 36.617 94.5613 36.321 94.6939 35.9375C94.8312 35.5492 94.8999 35.0852 94.8999 34.5455C94.8999 34.0057 94.8312 33.544 94.6939 33.1605C94.5613 32.7723 94.3672 32.4763 94.1115 32.2727C93.8606 32.0644 93.5552 31.9602 93.1953 31.9602C92.8355 31.9602 92.5253 32.0644 92.2649 32.2727C92.0092 32.4763 91.8104 32.7723 91.6683 33.1605C91.531 33.544 91.4624 34.0057 91.4624 34.5455ZM103.616 40.1705C102.92 40.1705 102.305 40.0568 101.77 39.8295C101.239 39.5975 100.823 39.2472 100.52 38.7784C100.217 38.3097 100.065 37.7131 100.065 36.9886C100.065 36.392 100.167 35.883 100.37 35.4616C100.574 35.0355 100.858 34.6875 101.223 34.4176C101.587 34.1477 102.011 33.9418 102.494 33.7997C102.982 33.6577 103.507 33.5653 104.071 33.5227C104.681 33.4754 105.172 33.4186 105.541 33.3523C105.915 33.2812 106.185 33.1842 106.35 33.0611C106.516 32.9332 106.599 32.7652 106.599 32.5568V32.5284C106.599 32.2443 106.49 32.0265 106.272 31.875C106.055 31.7235 105.775 31.6477 105.434 31.6477C105.06 31.6477 104.755 31.7306 104.518 31.8963C104.286 32.0573 104.146 32.3059 104.099 32.642H100.491C100.538 31.9792 100.749 31.3684 101.123 30.8097C101.502 30.2462 102.054 29.7964 102.778 29.4602C103.502 29.1193 104.407 28.9489 105.491 28.9489C106.272 28.9489 106.973 29.0412 107.593 29.2259C108.214 29.4058 108.742 29.6591 109.177 29.9858C109.613 30.3078 109.944 30.6866 110.172 31.1222C110.404 31.553 110.52 32.0218 110.52 32.5284V40H106.855V38.4659H106.77C106.552 38.8731 106.287 39.2022 105.974 39.4531C105.666 39.7041 105.314 39.8864 104.916 40C104.523 40.1136 104.09 40.1705 103.616 40.1705ZM104.895 37.6989C105.193 37.6989 105.472 37.6373 105.733 37.5142C105.998 37.3911 106.213 37.2135 106.379 36.9815C106.545 36.7495 106.627 36.4678 106.627 36.1364V35.2273C106.523 35.2699 106.412 35.3101 106.294 35.348C106.18 35.3859 106.057 35.4214 105.924 35.4545C105.797 35.4877 105.659 35.5185 105.512 35.5469C105.37 35.5753 105.221 35.6013 105.065 35.625C104.762 35.6723 104.513 35.7505 104.319 35.8594C104.13 35.9635 103.988 36.0938 103.893 36.25C103.803 36.4015 103.758 36.572 103.758 36.7614C103.758 37.0644 103.865 37.2964 104.078 37.4574C104.291 37.6184 104.563 37.6989 104.895 37.6989ZM116.313 33.8636V40H112.393V29.0909H116.114V31.1648H116.228C116.465 30.4735 116.881 29.9313 117.478 29.5384C118.079 29.1454 118.78 28.9489 119.58 28.9489C120.352 28.9489 121.022 29.1264 121.59 29.4815C122.163 29.8319 122.606 30.3149 122.918 30.9304C123.236 31.5459 123.392 32.2491 123.387 33.0398V40H119.467V33.8636C119.471 33.3239 119.334 32.9001 119.055 32.5923C118.78 32.2846 118.397 32.1307 117.904 32.1307C117.582 32.1307 117.3 32.2017 117.059 32.3438C116.822 32.4811 116.64 32.6799 116.512 32.9403C116.384 33.196 116.318 33.5038 116.313 33.8636ZM127.318 44.0909C126.868 44.0909 126.44 44.0554 126.033 43.9844C125.625 43.9181 125.268 43.8258 124.96 43.7074L125.812 40.9233C126.134 41.0369 126.428 41.1103 126.693 41.1435C126.963 41.1766 127.193 41.1577 127.382 41.0866C127.576 41.0156 127.716 40.8807 127.801 40.6818L127.886 40.483L124.051 29.0909H128.142L129.903 36.6477H130.017L131.807 29.0909H135.926L131.949 40.9091C131.75 41.5104 131.461 42.0502 131.082 42.5284C130.708 43.0114 130.216 43.3925 129.605 43.6719C128.994 43.9512 128.232 44.0909 127.318 44.0909Z" fill="#00A6CD"/>
</svg>
