<svg width="94" height="41" viewBox="0 0 94 41" fill="none" xmlns="http://www.w3.org/2000/svg">
<path d="M0.604581 1.45455H5.00799L7.8489 7.36364H7.96254L10.8034 1.45455H15.2069L9.86594 11.4261V16H5.94549V11.4261L0.604581 1.45455ZM19.0332 16.1989C17.8495 16.1989 16.8362 15.9645 15.9934 15.4957C15.1506 15.0223 14.5043 14.3641 14.0545 13.5213C13.6047 12.6738 13.3798 11.6913 13.3798 10.5739C13.3798 9.45644 13.6047 8.47633 14.0545 7.63352C14.5043 6.78598 15.1506 6.12784 15.9934 5.65909C16.8362 5.18561 17.8495 4.94886 19.0332 4.94886C20.2169 4.94886 21.2302 5.18561 22.073 5.65909C22.9158 6.12784 23.5621 6.78598 24.0119 7.63352C24.4617 8.47633 24.6866 9.45644 24.6866 10.5739C24.6866 11.6913 24.4617 12.6738 24.0119 13.5213C23.5621 14.3641 22.9158 15.0223 22.073 15.4957C21.2302 15.9645 20.2169 16.1989 19.0332 16.1989ZM19.0616 13.3011C19.3931 13.3011 19.6795 13.1899 19.921 12.9673C20.1625 12.7448 20.3495 12.4276 20.4821 12.0156C20.6146 11.6037 20.6809 11.1136 20.6809 10.5455C20.6809 9.97254 20.6146 9.48248 20.4821 9.07528C20.3495 8.66335 20.1625 8.34612 19.921 8.12358C19.6795 7.90104 19.3931 7.78977 19.0616 7.78977C18.7112 7.78977 18.4106 7.90104 18.1596 8.12358C17.9087 8.34612 17.7169 8.66335 17.5843 9.07528C17.4518 9.48248 17.3855 9.97254 17.3855 10.5455C17.3855 11.1136 17.4518 11.6037 17.5843 12.0156C17.7169 12.4276 17.9087 12.7448 18.1596 12.9673C18.4106 13.1899 18.7112 13.3011 19.0616 13.3011ZM30.198 9.86364V16H26.2775V5.09091H29.9991V7.16477H30.1127C30.3495 6.47348 30.7662 5.93134 31.3627 5.53835C31.9641 5.14536 32.6648 4.94886 33.465 4.94886C34.2368 4.94886 34.9068 5.12642 35.475 5.48153C36.0479 5.83191 36.4906 6.31487 36.8031 6.9304C37.1203 7.54593 37.2766 8.24905 37.2718 9.03977V16H33.3514V9.86364C33.3561 9.32386 33.2188 8.90009 32.9395 8.59233C32.6648 8.28456 32.2813 8.13068 31.7889 8.13068C31.4669 8.13068 31.1852 8.2017 30.9437 8.34375C30.707 8.48106 30.5247 8.67992 30.3968 8.94034C30.269 9.19602 30.2027 9.50379 30.198 9.86364ZM44.4629 20.3182C43.3691 20.3182 42.4316 20.1619 41.6504 19.8494C40.8739 19.5417 40.2702 19.1155 39.8393 18.571C39.4132 18.0313 39.1741 17.411 39.122 16.7102H42.9004C42.9383 16.9422 43.033 17.1293 43.1845 17.2713C43.336 17.4134 43.5301 17.5152 43.7669 17.5767C44.0083 17.643 44.2782 17.6761 44.5765 17.6761C45.0832 17.6761 45.5022 17.553 45.8336 17.3068C46.1698 17.0606 46.3379 16.6155 46.3379 15.9716V14.125H46.2243C46.0822 14.4943 45.8644 14.8092 45.5708 15.0696C45.2773 15.3253 44.9245 15.5218 44.5126 15.6591C44.1007 15.7917 43.6485 15.858 43.1561 15.858C42.3796 15.858 41.6646 15.678 41.0112 15.3182C40.3625 14.9583 39.8417 14.3878 39.4487 13.6065C39.0604 12.8253 38.8663 11.8049 38.8663 10.5455C38.8663 9.22917 39.0699 8.15909 39.4771 7.33523C39.889 6.51136 40.4193 5.90767 41.068 5.52415C41.7214 5.14062 42.408 4.94886 43.1277 4.94886C43.6674 4.94886 44.1409 5.04356 44.5481 5.23295C44.9553 5.41761 45.2962 5.66619 45.5708 5.97869C45.8455 6.28646 46.0538 6.625 46.1958 6.99432H46.2811V5.09091H50.2015V15.9716C50.2015 16.8949 49.9624 17.6785 49.4842 18.3224C49.0107 18.9711 48.3431 19.4659 47.4814 19.8068C46.6196 20.1477 45.6135 20.3182 44.4629 20.3182ZM44.6049 13.0739C44.9648 13.0739 45.2725 12.9744 45.5282 12.7756C45.7886 12.572 45.9875 12.2831 46.1248 11.9091C46.2669 11.5303 46.3379 11.0758 46.3379 10.5455C46.3379 10.0057 46.2669 9.54403 46.1248 9.16051C45.9875 8.77225 45.7886 8.47633 45.5282 8.27273C45.2725 8.06439 44.9648 7.96023 44.6049 7.96023C44.2451 7.96023 43.9373 8.06439 43.6816 8.27273C43.4307 8.47633 43.2366 8.77225 43.0993 9.16051C42.9667 9.54403 42.9004 10.0057 42.9004 10.5455C42.9004 11.0852 42.9667 11.5445 43.0993 11.9233C43.2366 12.2973 43.4307 12.5838 43.6816 12.7827C43.9373 12.9768 44.2451 13.0739 44.6049 13.0739ZM62.1671 8.64205H58.5591C58.5402 8.41951 58.4621 8.22775 58.3248 8.06676C58.1874 7.90578 58.0099 7.78267 57.7921 7.69744C57.579 7.60748 57.3423 7.5625 57.0819 7.5625C56.7457 7.5625 56.4569 7.62405 56.2154 7.74716C55.9739 7.87027 55.8555 8.04545 55.8603 8.27273C55.8555 8.43371 55.9242 8.58286 56.0662 8.72017C56.213 8.85748 56.4947 8.96402 56.9114 9.03977L59.1273 9.4375C60.2447 9.6411 61.0757 9.98437 61.6202 10.4673C62.1694 10.9455 62.4464 11.5871 62.4512 12.392C62.4464 13.1686 62.2144 13.8433 61.7551 14.4162C61.3006 14.9844 60.678 15.4247 59.8873 15.7372C59.1013 16.045 58.204 16.1989 57.1955 16.1989C55.5288 16.1989 54.2244 15.858 53.2821 15.1761C52.3446 14.4943 51.8214 13.5947 51.7125 12.4773H55.6046C55.6567 12.8229 55.8271 13.0904 56.1159 13.2798C56.4095 13.4645 56.7788 13.5568 57.2239 13.5568C57.5837 13.5568 57.8797 13.4953 58.1117 13.3722C58.3484 13.2491 58.4692 13.0739 58.4739 12.8466C58.4692 12.6383 58.365 12.4725 58.1614 12.3494C57.9625 12.2263 57.65 12.1269 57.2239 12.0511L55.2921 11.7102C54.1794 11.5161 53.3461 11.1468 52.7921 10.6023C52.2381 10.0578 51.9635 9.35701 51.9682 8.5C51.9635 7.74242 52.1623 7.10085 52.5648 6.57528C52.972 6.04498 53.552 5.64252 54.3049 5.3679C55.0624 5.08854 55.9597 4.94886 56.9966 4.94886C58.5733 4.94886 59.8162 5.27557 60.7253 5.92898C61.6391 6.58239 62.1197 7.48674 62.1671 8.64205ZM67.8738 9.86364V16H63.9533V1.45455H67.7317V7.16477H67.8453C68.0916 6.46875 68.5011 5.92661 69.074 5.53835C69.647 5.14536 70.3359 4.94886 71.1408 4.94886C71.9126 4.94886 72.5826 5.12405 73.1507 5.47443C73.7237 5.82481 74.1664 6.30777 74.4789 6.9233C74.7961 7.53883 74.9524 8.24432 74.9476 9.03977V16H71.0272V9.86364C71.0319 9.32386 70.897 8.90009 70.6223 8.59233C70.3525 8.28456 69.9666 8.13068 69.4647 8.13068C69.1474 8.13068 68.8681 8.2017 68.6266 8.34375C68.3899 8.48106 68.2052 8.67992 68.0726 8.94034C67.9448 9.19602 67.8785 9.50379 67.8738 9.86364ZM76.883 16V5.09091H80.8034V16H76.883ZM78.8432 3.95455C78.3129 3.95455 77.8584 3.77936 77.4796 3.42898C77.1008 3.0786 76.9114 2.6572 76.9114 2.16477C76.9114 1.67235 77.1008 1.25095 77.4796 0.900568C77.8584 0.550189 78.3129 0.375 78.8432 0.375C79.3783 0.375 79.8328 0.550189 80.2069 0.900568C80.5856 1.25095 80.775 1.67235 80.775 2.16477C80.775 2.6572 80.5856 3.0786 80.2069 3.42898C79.8328 3.77936 79.3783 3.95455 78.8432 3.95455ZM86.7214 9.86364V16H82.801V5.09091H86.5225V7.16477H86.6362C86.8729 6.47348 87.2896 5.93134 87.8862 5.53835C88.4875 5.14536 89.1883 4.94886 89.9885 4.94886C90.7602 4.94886 91.4302 5.12642 91.9984 5.48153C92.5713 5.83191 93.014 6.31487 93.3265 6.9304C93.6438 7.54593 93.8 8.24905 93.7953 9.03977V16H89.8748V9.86364C89.8796 9.32386 89.7422 8.90009 89.4629 8.59233C89.1883 8.28456 88.8047 8.13068 88.3123 8.13068C87.9904 8.13068 87.7086 8.2017 87.4672 8.34375C87.2304 8.48106 87.0481 8.67992 86.9203 8.94034C86.7924 9.19602 86.7261 9.50379 86.7214 9.86364ZM10.8789 40V25.4545H14.8278V36.8182H20.7085V40H10.8789ZM22.3615 40V29.0909H26.282V40H22.3615ZM24.3217 27.9545C23.7914 27.9545 23.3369 27.7794 22.9581 27.429C22.5793 27.0786 22.3899 26.6572 22.3899 26.1648C22.3899 25.6723 22.5793 25.2509 22.9581 24.9006C23.3369 24.5502 23.7914 24.375 24.3217 24.375C24.8568 24.375 25.3113 24.5502 25.6854 24.9006C26.0642 25.2509 26.2536 25.6723 26.2536 26.1648C26.2536 26.6572 26.0642 27.0786 25.6854 27.429C25.3113 27.7794 24.8568 27.9545 24.3217 27.9545ZM28.2795 40V29.0909H32.0011V31.1648H32.1147C32.342 30.483 32.7302 29.9432 33.2795 29.5455C33.8287 29.1477 34.4821 28.9489 35.2397 28.9489C36.0067 28.9489 36.6673 29.1525 37.2212 29.5597C37.7752 29.9621 38.109 30.4972 38.2227 31.1648H38.3363C38.521 30.4972 38.9139 29.9621 39.5153 29.5597C40.1166 29.1525 40.8221 28.9489 41.6317 28.9489C42.6781 28.9489 43.5257 29.285 44.1744 29.9574C44.8278 30.6297 45.1545 31.5246 45.1545 32.642V40H41.234V33.6364C41.234 33.1581 41.1133 32.7841 40.8718 32.5142C40.6303 32.2396 40.306 32.1023 39.8988 32.1023C39.4963 32.1023 39.1767 32.2396 38.94 32.5142C38.708 32.7841 38.592 33.1581 38.592 33.6364V40H34.842V33.6364C34.842 33.1581 34.7212 32.7841 34.4798 32.5142C34.2383 32.2396 33.9139 32.1023 33.5067 32.1023C33.2369 32.1023 33.0049 32.1638 32.8107 32.2869C32.6166 32.41 32.4651 32.5876 32.3562 32.8196C32.252 33.0469 32.1999 33.3191 32.1999 33.6364V40H28.2795ZM47.0881 40V29.0909H51.0085V40H47.0881ZM49.0483 27.9545C48.518 27.9545 48.0634 27.7794 47.6847 27.429C47.3059 27.0786 47.1165 26.6572 47.1165 26.1648C47.1165 25.6723 47.3059 25.2509 47.6847 24.9006C48.0634 24.5502 48.518 24.375 49.0483 24.375C49.5833 24.375 50.0379 24.5502 50.4119 24.9006C50.7907 25.2509 50.9801 25.6723 50.9801 26.1648C50.9801 26.6572 50.7907 27.0786 50.4119 27.429C50.0379 27.7794 49.5833 27.9545 49.0483 27.9545ZM59.5117 29.0909V31.9318H52.3242V29.0909H59.5117ZM53.7163 26.4773H57.6367V36.4915C57.6367 36.643 57.6628 36.7708 57.7148 36.875C57.7669 36.9744 57.8474 37.0502 57.9563 37.1023C58.0652 37.1496 58.2049 37.1733 58.3754 37.1733C58.4937 37.1733 58.631 37.1591 58.7873 37.1307C58.9483 37.1023 59.0666 37.0786 59.1424 37.0597L59.7106 39.8153C59.5354 39.8674 59.2844 39.9313 58.9577 40.0071C58.6358 40.0829 58.2522 40.1326 57.8072 40.1562C56.9076 40.2036 56.1523 40.1113 55.5415 39.8793C54.9308 39.6425 54.4715 39.2708 54.1637 38.7642C53.8559 38.2576 53.7068 37.6231 53.7163 36.8608V26.4773ZM66.2216 40.1989C65.0568 40.1989 64.053 39.9763 63.2102 39.5312C62.3722 39.0814 61.7259 38.4375 61.2713 37.5994C60.8215 36.7566 60.5966 35.7481 60.5966 34.5739C60.5966 33.447 60.8239 32.4621 61.2784 31.6193C61.733 30.7765 62.3745 30.1207 63.2031 29.652C64.0317 29.1832 65.0095 28.9489 66.1364 28.9489C66.9602 28.9489 67.706 29.0767 68.3736 29.3324C69.0412 29.5881 69.6117 29.9598 70.0852 30.4474C70.5587 30.9304 70.9233 31.5175 71.179 32.2088C71.4347 32.9001 71.5625 33.679 71.5625 34.5455V35.4545H61.8182V33.2955H67.9545C67.9498 32.983 67.8693 32.7083 67.7131 32.4716C67.5616 32.2301 67.3556 32.0431 67.0952 31.9105C66.8395 31.7732 66.5483 31.7045 66.2216 31.7045C65.9044 31.7045 65.6132 31.7732 65.348 31.9105C65.0829 32.0431 64.8698 32.2277 64.7088 32.4645C64.5526 32.7012 64.4697 32.9782 64.4602 33.2955V35.625C64.4602 35.9754 64.5336 36.2879 64.6804 36.5625C64.8272 36.8371 65.0379 37.0526 65.3125 37.2088C65.5871 37.3651 65.9186 37.4432 66.3068 37.4432C66.5767 37.4432 66.8229 37.4053 67.0455 37.3295C67.2727 37.2538 67.4669 37.1449 67.6278 37.0028C67.7888 36.8561 67.9072 36.6809 67.983 36.4773H71.5625C71.4394 37.2348 71.1482 37.893 70.6889 38.4517C70.2296 39.0057 69.6212 39.4366 68.8636 39.7443C68.1108 40.0473 67.2301 40.1989 66.2216 40.1989ZM77.1112 40.142C76.3346 40.142 75.6197 39.9384 74.9663 39.5312C74.3176 39.1241 73.7968 38.5062 73.4038 37.6776C73.0155 36.849 72.8214 35.8049 72.8214 34.5455C72.8214 33.2292 73.025 32.1591 73.4322 31.3352C73.8441 30.5114 74.3744 29.9077 75.0231 29.5241C75.6765 29.1406 76.363 28.9489 77.0827 28.9489C77.6225 28.9489 78.096 29.0436 78.5032 29.233C78.9104 29.4176 79.2513 29.6662 79.5259 29.9787C79.8005 30.2865 80.0089 30.625 80.1509 30.9943H80.2077V25.4545H84.1282V40H80.2362V38.2102H80.1509C79.9994 38.5795 79.7816 38.911 79.4975 39.2045C79.2182 39.4934 78.8772 39.723 78.4748 39.8935C78.0771 40.0592 77.6225 40.142 77.1112 40.142ZM78.56 37.1307C78.9199 37.1307 79.2276 37.0265 79.4833 36.8182C79.7437 36.6051 79.9426 36.3068 80.0799 35.9233C80.2219 35.535 80.293 35.0758 80.293 34.5455C80.293 34.0057 80.2219 33.544 80.0799 33.1605C79.9426 32.7723 79.7437 32.4763 79.4833 32.2727C79.2276 32.0644 78.9199 31.9602 78.56 31.9602C78.2002 31.9602 77.8924 32.0644 77.6367 32.2727C77.3858 32.4763 77.1916 32.7723 77.0543 33.1605C76.9218 33.544 76.8555 34.0057 76.8555 34.5455C76.8555 35.0852 76.9218 35.5492 77.0543 35.9375C77.1916 36.321 77.3858 36.617 77.6367 36.8253C77.8924 37.0289 78.2002 37.1307 78.56 37.1307Z" fill="#00A6CD"/>
</svg>
