<svg width="109" height="44" viewBox="0 0 109 44" fill="none" xmlns="http://www.w3.org/2000/svg">
<path d="M0.974609 15V0.454545H7.28143C8.38938 0.454545 9.31978 0.603693 10.0726 0.901989C10.8302 1.20028 11.4007 1.62169 11.7843 2.16619C12.1725 2.7107 12.3667 3.35227 12.3667 4.09091C12.3667 4.62595 12.2483 5.11364 12.0115 5.55398C11.7795 5.99432 11.4528 6.36364 11.0314 6.66193C10.61 6.95549 10.1176 7.15909 9.55415 7.27273V7.41477C10.1792 7.43845 10.7473 7.59706 11.2587 7.89062C11.7701 8.17945 12.1773 8.57955 12.4803 9.09091C12.7833 9.59754 12.9348 10.1941 12.9348 10.8807C12.9348 11.6761 12.7265 12.384 12.3098 13.0043C11.8979 13.6245 11.3108 14.1122 10.5485 14.4673C9.78616 14.8224 8.87707 15 7.8212 15H0.974609ZM4.92347 11.8466H6.77006C7.43294 11.8466 7.9301 11.7235 8.26154 11.4773C8.59298 11.2263 8.7587 10.857 8.7587 10.3693C8.7587 10.0284 8.68058 9.73958 8.52433 9.50284C8.36808 9.2661 8.14554 9.08617 7.85671 8.96307C7.57262 8.83996 7.22934 8.77841 6.82688 8.77841H4.92347V11.8466ZM4.92347 6.33523H6.54279C6.88844 6.33523 7.19383 6.28078 7.45898 6.17188C7.72414 6.06297 7.9301 5.90672 8.07688 5.70312C8.2284 5.49479 8.30415 5.24148 8.30415 4.94318C8.30415 4.49337 8.14317 4.15009 7.8212 3.91335C7.49923 3.67188 7.09203 3.55114 6.59961 3.55114H4.92347V6.33523ZM18.3113 0.454545V15H14.3908V0.454545H18.3113ZM27.3826 10.2273V4.09091H31.3031V15H27.5815V12.9261H27.4679C27.2311 13.6222 26.8168 14.1667 26.225 14.5597C25.6331 14.9479 24.93 15.142 24.1156 15.142C23.3533 15.142 22.6857 14.9669 22.1127 14.6165C21.5446 14.2661 21.1019 13.7831 20.7846 13.1676C20.4721 12.5521 20.3135 11.8466 20.3088 11.0511V4.09091H24.2292V10.2273C24.234 10.767 24.3713 11.1908 24.6412 11.4986C24.9158 11.8063 25.2993 11.9602 25.7917 11.9602C26.1184 11.9602 26.4002 11.8916 26.6369 11.7543C26.8784 11.6122 27.063 11.4134 27.1909 11.1577C27.3234 10.8973 27.3874 10.5871 27.3826 10.2273ZM38.5243 15.1989C37.3596 15.1989 36.3558 14.9763 35.513 14.5312C34.6749 14.0814 34.0286 13.4375 33.574 12.5994C33.1242 11.7566 32.8993 10.7481 32.8993 9.57386C32.8993 8.44697 33.1266 7.46212 33.5811 6.61932C34.0357 5.77651 34.6773 5.12074 35.5059 4.65199C36.3345 4.18324 37.3122 3.94886 38.4391 3.94886C39.263 3.94886 40.0087 4.0767 40.6763 4.33239C41.3439 4.58807 41.9145 4.95975 42.388 5.44744C42.8614 5.9304 43.226 6.51752 43.4817 7.20881C43.7374 7.90009 43.8652 8.67898 43.8652 9.54545V10.4545H34.1209V8.29545H40.2573C40.2525 7.98295 40.1721 7.70833 40.0158 7.47159C39.8643 7.23011 39.6583 7.04309 39.3979 6.91051C39.1422 6.7732 38.851 6.70455 38.5243 6.70455C38.2071 6.70455 37.9159 6.7732 37.6507 6.91051C37.3856 7.04309 37.1725 7.22775 37.0115 7.46449C36.8553 7.70123 36.7724 7.97822 36.763 8.29545V10.625C36.763 10.9754 36.8364 11.2879 36.9831 11.5625C37.1299 11.8371 37.3406 12.0526 37.6152 12.2088C37.8899 12.3651 38.2213 12.4432 38.6096 12.4432C38.8794 12.4432 39.1257 12.4053 39.3482 12.3295C39.5755 12.2538 39.7696 12.1449 39.9306 12.0028C40.0916 11.8561 40.2099 11.6809 40.2857 11.4773H43.8652C43.7421 12.2348 43.4509 12.893 42.9917 13.4517C42.5324 14.0057 41.9239 14.4366 41.1664 14.7443C40.4135 15.0473 39.5328 15.1989 38.5243 15.1989ZM47.2601 15L44.5328 4.09091H48.4533L49.7033 10.7386H49.7885L51.1806 4.09091H54.9874L56.4363 10.6818H56.5215L57.7147 4.09091H61.6351L58.9078 15H54.6749L53.1408 9.14773H53.0272L51.4931 15H47.2601ZM65.8681 15.1705C65.1721 15.1705 64.5565 15.0568 64.0215 14.8295C63.4912 14.5975 63.0745 14.2472 62.7715 13.7784C62.4685 13.3097 62.3169 12.7131 62.3169 11.9886C62.3169 11.392 62.4187 10.883 62.6223 10.4616C62.8259 10.0355 63.11 9.6875 63.4746 9.41761C63.8392 9.14773 64.263 8.94176 64.7459 8.79972C65.2336 8.65767 65.7592 8.56534 66.3226 8.52273C66.9334 8.47538 67.4235 8.41856 67.7928 8.35227C68.1668 8.28125 68.4367 8.18419 68.6025 8.06108C68.7682 7.93324 68.851 7.76515 68.851 7.55682V7.52841C68.851 7.24432 68.7421 7.02652 68.5243 6.875C68.3065 6.72348 68.0272 6.64773 67.6863 6.64773C67.3122 6.64773 67.0068 6.73059 66.7701 6.89631C66.5381 7.05729 66.3984 7.30587 66.351 7.64205H62.7431C62.7904 6.97917 63.0011 6.36837 63.3752 5.80966C63.754 5.24621 64.3056 4.7964 65.03 4.46023C65.7544 4.11932 66.6588 3.94886 67.7431 3.94886C68.5243 3.94886 69.2251 4.04119 69.8453 4.22585C70.4656 4.40578 70.9935 4.65909 71.4292 4.9858C71.8648 5.30777 72.1962 5.68655 72.4235 6.12216C72.6555 6.55303 72.7715 7.02178 72.7715 7.52841V15H69.1067V13.4659H69.0215C68.8037 13.8731 68.5385 14.2022 68.226 14.4531C67.9183 14.7041 67.5655 14.8864 67.1678 15C66.7748 15.1136 66.3416 15.1705 65.8681 15.1705ZM67.1465 12.6989C67.4448 12.6989 67.7241 12.6373 67.9846 12.5142C68.2497 12.3911 68.4651 12.2135 68.6309 11.9815C68.7966 11.7495 68.8794 11.4678 68.8794 11.1364V10.2273C68.7753 10.2699 68.664 10.3101 68.5456 10.348C68.432 10.3859 68.3089 10.4214 68.1763 10.4545C68.0485 10.4877 67.9112 10.5185 67.7644 10.5469C67.6223 10.5753 67.4732 10.6013 67.3169 10.625C67.0139 10.6723 66.7653 10.7505 66.5712 10.8594C66.3818 10.9635 66.2398 11.0938 66.1451 11.25C66.0551 11.4015 66.0101 11.572 66.0101 11.7614C66.0101 12.0644 66.1167 12.2964 66.3297 12.4574C66.5428 12.6184 66.815 12.6989 67.1465 12.6989ZM85.2484 4.09091L81.5836 15H77.0382L73.3734 4.09091H77.4927L79.2541 11.3068H79.3677L81.1291 4.09091H85.2484ZM91.2587 15.1989C90.0939 15.1989 89.0901 14.9763 88.2473 14.5312C87.4093 14.0814 86.763 13.4375 86.3084 12.5994C85.8586 11.7566 85.6337 10.7481 85.6337 9.57386C85.6337 8.44697 85.861 7.46212 86.3155 6.61932C86.7701 5.77651 87.4116 5.12074 88.2402 4.65199C89.0688 4.18324 90.0466 3.94886 91.1735 3.94886C91.9973 3.94886 92.7431 4.0767 93.4107 4.33239C94.0783 4.58807 94.6489 4.95975 95.1223 5.44744C95.5958 5.9304 95.9604 6.51752 96.2161 7.20881C96.4718 7.90009 96.5996 8.67898 96.5996 9.54545V10.4545H86.8553V8.29545H92.9917C92.9869 7.98295 92.9064 7.70833 92.7502 7.47159C92.5987 7.23011 92.3927 7.04309 92.1323 6.91051C91.8766 6.7732 91.5854 6.70455 91.2587 6.70455C90.9415 6.70455 90.6503 6.7732 90.3851 6.91051C90.12 7.04309 89.9069 7.22775 89.7459 7.46449C89.5897 7.70123 89.5068 7.97822 89.4973 8.29545V10.625C89.4973 10.9754 89.5707 11.2879 89.7175 11.5625C89.8643 11.8371 90.075 12.0526 90.3496 12.2088C90.6242 12.3651 90.9557 12.4432 91.3439 12.4432C91.6138 12.4432 91.86 12.4053 92.0826 12.3295C92.3098 12.2538 92.504 12.1449 92.665 12.0028C92.8259 11.8561 92.9443 11.6809 93.0201 11.4773H96.5996C96.4765 12.2348 96.1853 12.893 95.726 13.4517C95.2667 14.0057 94.6583 14.4366 93.9007 14.7443C93.1479 15.0473 92.2672 15.1989 91.2587 15.1989ZM108.171 7.64205H104.563C104.544 7.41951 104.466 7.22775 104.329 7.06676C104.191 6.90578 104.014 6.78267 103.796 6.69744C103.583 6.60748 103.346 6.5625 103.086 6.5625C102.75 6.5625 102.461 6.62405 102.219 6.74716C101.978 6.87027 101.859 7.04545 101.864 7.27273C101.859 7.43371 101.928 7.58286 102.07 7.72017C102.217 7.85748 102.499 7.96402 102.915 8.03977L105.131 8.4375C106.249 8.6411 107.08 8.98437 107.624 9.46733C108.173 9.94555 108.45 10.5871 108.455 11.392C108.45 12.1686 108.218 12.8433 107.759 13.4162C107.305 13.9844 106.682 14.4247 105.891 14.7372C105.105 15.045 104.208 15.1989 103.199 15.1989C101.533 15.1989 100.228 14.858 99.286 14.1761C98.3485 13.4943 97.8253 12.5947 97.7164 11.4773H101.608C101.661 11.8229 101.831 12.0904 102.12 12.2798C102.413 12.4645 102.783 12.5568 103.228 12.5568C103.588 12.5568 103.884 12.4953 104.116 12.3722C104.352 12.2491 104.473 12.0739 104.478 11.8466C104.473 11.6383 104.369 11.4725 104.165 11.3494C103.966 11.2263 103.654 11.1269 103.228 11.0511L101.296 10.7102C100.183 10.5161 99.35 10.1468 98.796 9.60227C98.242 9.05777 97.9674 8.35701 97.9721 7.5C97.9674 6.74242 98.1663 6.10085 98.5687 5.57528C98.9759 5.04498 99.5559 4.64252 100.309 4.3679C101.066 4.08854 101.964 3.94886 103.001 3.94886C104.577 3.94886 105.82 4.27557 106.729 4.92898C107.643 5.58239 108.124 6.48674 108.171 7.64205ZM16.5836 24.4545V39H12.6348V24.4545H16.5836ZM22.4324 32.8636V39H18.5119V28.0909H22.2335V30.1648H22.3471C22.5839 29.4735 23.0005 28.9313 23.5971 28.5384C24.1984 28.1454 24.8992 27.9489 25.6994 27.9489C26.4712 27.9489 27.1412 28.1264 27.7093 28.4815C28.2823 28.8319 28.725 29.3149 29.0375 29.9304C29.3547 30.5459 29.5109 31.2491 29.5062 32.0398V39H25.5858V32.8636C25.5905 32.3239 25.4532 31.9001 25.1738 31.5923C24.8992 31.2846 24.5157 31.1307 24.0233 31.1307C23.7013 31.1307 23.4196 31.2017 23.1781 31.3438C22.9413 31.4811 22.7591 31.6799 22.6312 31.9403C22.5034 32.196 22.4371 32.5038 22.4324 32.8636ZM35.3904 39.142C34.6139 39.142 33.899 38.9384 33.2456 38.5312C32.5969 38.1241 32.0761 37.5062 31.6831 36.6776C31.2948 35.849 31.1007 34.8049 31.1007 33.5455C31.1007 32.2292 31.3043 31.1591 31.7115 30.3352C32.1234 29.5114 32.6537 28.9077 33.3024 28.5241C33.9558 28.1406 34.6423 27.9489 35.362 27.9489C35.9018 27.9489 36.3753 28.0436 36.7825 28.233C37.1897 28.4176 37.5306 28.6662 37.8052 28.9787C38.0798 29.2865 38.2882 29.625 38.4302 29.9943H38.487V24.4545H42.4075V39H38.5154V37.2102H38.4302C38.2787 37.5795 38.0609 37.911 37.7768 38.2045C37.4975 38.4934 37.1565 38.723 36.7541 38.8935C36.3564 39.0592 35.9018 39.142 35.3904 39.142ZM36.8393 36.1307C37.1992 36.1307 37.5069 36.0265 37.7626 35.8182C38.023 35.6051 38.2219 35.3068 38.3592 34.9233C38.5012 34.535 38.5723 34.0758 38.5723 33.5455C38.5723 33.0057 38.5012 32.544 38.3592 32.1605C38.2219 31.7723 38.023 31.4763 37.7626 31.2727C37.5069 31.0644 37.1992 30.9602 36.8393 30.9602C36.4795 30.9602 36.1717 31.0644 35.916 31.2727C35.6651 31.4763 35.4709 31.7723 35.3336 32.1605C35.2011 32.544 35.1348 33.0057 35.1348 33.5455C35.1348 34.0852 35.2011 34.5492 35.3336 34.9375C35.4709 35.321 35.6651 35.617 35.916 35.8253C36.1717 36.0289 36.4795 36.1307 36.8393 36.1307ZM51.4061 34.2273V28.0909H55.3265V39H51.6049V36.9261H51.4913C51.2546 37.6222 50.8403 38.1667 50.2484 38.5597C49.6565 38.9479 48.9534 39.142 48.139 39.142C47.3767 39.142 46.7091 38.9669 46.1362 38.6165C45.568 38.2661 45.1253 37.7831 44.8081 37.1676C44.4956 36.5521 44.3369 35.8466 44.3322 35.0511V28.0909H48.2527V34.2273C48.2574 34.767 48.3947 35.1908 48.6646 35.4986C48.9392 35.8063 49.3227 35.9602 49.8152 35.9602C50.1419 35.9602 50.4236 35.8916 50.6603 35.7543C50.9018 35.6122 51.0865 35.4134 51.2143 35.1577C51.3469 34.8973 51.4108 34.5871 51.4061 34.2273ZM67.2921 31.642H63.6841C63.6652 31.4195 63.5871 31.2277 63.4498 31.0668C63.3124 30.9058 63.1349 30.7827 62.9171 30.6974C62.704 30.6075 62.4673 30.5625 62.2069 30.5625C61.8707 30.5625 61.5819 30.6241 61.3404 30.7472C61.0989 30.8703 60.9805 31.0455 60.9853 31.2727C60.9805 31.4337 61.0492 31.5829 61.1912 31.7202C61.338 31.8575 61.6197 31.964 62.0364 32.0398L64.2523 32.4375C65.3697 32.6411 66.2007 32.9844 66.7452 33.4673C67.2944 33.9455 67.5714 34.5871 67.5762 35.392C67.5714 36.1686 67.3394 36.8433 66.8801 37.4162C66.4256 37.9844 65.803 38.4247 65.0123 38.7372C64.2263 39.045 63.329 39.1989 62.3205 39.1989C60.6538 39.1989 59.3494 38.858 58.4071 38.1761C57.4696 37.4943 56.9464 36.5947 56.8375 35.4773H60.7296C60.7817 35.8229 60.9521 36.0904 61.2409 36.2798C61.5345 36.4645 61.9038 36.5568 62.3489 36.5568C62.7087 36.5568 63.0047 36.4953 63.2367 36.3722C63.4734 36.2491 63.5942 36.0739 63.5989 35.8466C63.5942 35.6383 63.49 35.4725 63.2864 35.3494C63.0875 35.2263 62.775 35.1269 62.3489 35.0511L60.4171 34.7102C59.3044 34.5161 58.4711 34.1468 57.9171 33.6023C57.3631 33.0578 57.0885 32.357 57.0932 31.5C57.0885 30.7424 57.2873 30.1009 57.6898 29.5753C58.097 29.045 58.677 28.6425 59.4299 28.3679C60.1874 28.0885 61.0847 27.9489 62.1216 27.9489C63.6983 27.9489 64.9412 28.2756 65.8503 28.929C66.7641 29.5824 67.2447 30.4867 67.2921 31.642ZM75.584 28.0909V30.9318H68.3965V28.0909H75.584ZM69.7885 25.4773H73.709V35.4915C73.709 35.643 73.735 35.7708 73.7871 35.875C73.8392 35.9744 73.9197 36.0502 74.0286 36.1023C74.1375 36.1496 74.2772 36.1733 74.4476 36.1733C74.566 36.1733 74.7033 36.1591 74.8596 36.1307C75.0205 36.1023 75.1389 36.0786 75.2147 36.0597L75.7828 38.8153C75.6077 38.8674 75.3567 38.9313 75.03 39.0071C74.708 39.0829 74.3245 39.1326 73.8794 39.1562C72.9798 39.2036 72.2246 39.1113 71.6138 38.8793C71.003 38.6425 70.5437 38.2708 70.236 37.7642C69.9282 37.2576 69.7791 36.6231 69.7885 35.8608V25.4773ZM77.1838 39V28.0909H80.9906V30.1648H81.1042C81.3031 29.3977 81.618 28.8366 82.0488 28.4815C82.4844 28.1264 82.9934 27.9489 83.5758 27.9489C83.7463 27.9489 83.9144 27.9631 84.0801 27.9915C84.2505 28.0152 84.4139 28.0507 84.5701 28.098V31.4432C84.376 31.3769 84.1369 31.3272 83.8528 31.294C83.5687 31.2609 83.3249 31.2443 83.1213 31.2443C82.7377 31.2443 82.3921 31.3319 82.0843 31.5071C81.7813 31.6776 81.5422 31.919 81.367 32.2315C81.1918 32.5393 81.1042 32.9015 81.1042 33.3182V39H77.1838ZM88.574 43.0909C88.1242 43.0909 87.6957 43.0554 87.2885 42.9844C86.8813 42.9181 86.5239 42.8258 86.2161 42.7074L87.0684 39.9233C87.3903 40.0369 87.6839 40.1103 87.949 40.1435C88.2189 40.1766 88.4486 40.1577 88.638 40.0866C88.8321 40.0156 88.9718 39.8807 89.057 39.6818L89.1422 39.483L85.307 28.0909H89.3979L91.1593 35.6477H91.2729L93.0627 28.0909H97.182L93.2047 39.9091C93.0059 40.5104 92.717 41.0502 92.3382 41.5284C91.9642 42.0114 91.4718 42.3925 90.861 42.6719C90.2502 42.9512 89.4879 43.0909 88.574 43.0909Z" fill="#00A6CD"/>
</svg>
