<svg width="150" height="44" viewBox="0 0 150 44" fill="none" xmlns="http://www.w3.org/2000/svg">
<path d="M27.4441 5.25568C27.3825 5.00473 27.2855 4.78456 27.1529 4.59517C27.0203 4.40104 26.8546 4.23769 26.6557 4.10511C26.4616 3.9678 26.2343 3.866 25.9739 3.79972C25.7182 3.72869 25.4365 3.69318 25.1287 3.69318C24.4658 3.69318 23.9 3.8518 23.4313 4.16903C22.9673 4.48627 22.6122 4.94318 22.3659 5.53977C22.1245 6.13636 22.0037 6.85606 22.0037 7.69886C22.0037 8.55114 22.1197 9.2803 22.3517 9.88636C22.5837 10.4924 22.9294 10.9564 23.3887 11.2784C23.848 11.6004 24.4185 11.7614 25.1003 11.7614C25.7016 11.7614 26.2012 11.6738 26.5989 11.4986C27.0014 11.3234 27.302 11.0748 27.5009 10.7528C27.6998 10.4309 27.7992 10.0521 27.7992 9.61648L28.481 9.6875H25.1571V6.875H31.606V8.89205C31.606 10.2178 31.3243 11.3518 30.7608 12.294C30.2021 13.2315 29.4303 13.9512 28.4455 14.4531C27.4654 14.9503 26.3409 15.1989 25.0719 15.1989C23.6562 15.1989 22.4133 14.8982 21.3432 14.2969C20.2731 13.6955 19.4374 12.8385 18.8361 11.7259C18.2395 10.6132 17.9412 9.28977 17.9412 7.75568C17.9412 6.55303 18.1235 5.48769 18.4881 4.55966C18.8574 3.63163 19.3688 2.84801 20.0222 2.20881C20.6756 1.56487 21.4308 1.07955 22.2878 0.75284C23.1448 0.421401 24.0634 0.255681 25.0435 0.255681C25.9052 0.255681 26.7054 0.378788 27.4441 0.625C28.1874 0.866477 28.8432 1.21212 29.4114 1.66193C29.9843 2.10701 30.446 2.63494 30.7963 3.24574C31.1467 3.85653 31.3598 4.52651 31.4355 5.25568H27.4441ZM37.4245 0.454545V15H33.5041V0.454545H37.4245ZM44.6777 15.1989C43.494 15.1989 42.4808 14.9645 41.638 14.4957C40.7952 14.0223 40.1489 13.3641 39.699 12.5213C39.2492 11.6738 39.0243 10.6913 39.0243 9.57386C39.0243 8.45644 39.2492 7.47633 39.699 6.63352C40.1489 5.78598 40.7952 5.12784 41.638 4.65909C42.4808 4.18561 43.494 3.94886 44.6777 3.94886C45.8614 3.94886 46.8747 4.18561 47.7175 4.65909C48.5603 5.12784 49.2066 5.78598 49.6564 6.63352C50.1062 7.47633 50.3311 8.45644 50.3311 9.57386C50.3311 10.6913 50.1062 11.6738 49.6564 12.5213C49.2066 13.3641 48.5603 14.0223 47.7175 14.4957C46.8747 14.9645 45.8614 15.1989 44.6777 15.1989ZM44.7061 12.3011C45.0376 12.3011 45.324 12.1899 45.5655 11.9673C45.807 11.7448 45.994 11.4276 46.1266 11.0156C46.2592 10.6037 46.3255 10.1136 46.3255 9.54545C46.3255 8.97254 46.2592 8.48248 46.1266 8.07528C45.994 7.66335 45.807 7.34612 45.5655 7.12358C45.324 6.90104 45.0376 6.78977 44.7061 6.78977C44.3558 6.78977 44.0551 6.90104 43.8042 7.12358C43.5532 7.34612 43.3614 7.66335 43.2289 8.07528C43.0963 8.48248 43.03 8.97254 43.03 9.54545C43.03 10.1136 43.0963 10.6037 43.2289 11.0156C43.3614 11.4276 43.5532 11.7448 43.8042 11.9673C44.0551 12.1899 44.3558 12.3011 44.7061 12.3011ZM51.8652 15V0.454545H55.7857V5.99432H55.8425C55.9846 5.625 56.1929 5.28646 56.4675 4.97869C56.7421 4.66619 57.083 4.41761 57.4902 4.23295C57.8974 4.04356 58.3709 3.94886 58.9107 3.94886C59.6304 3.94886 60.3146 4.14062 60.9632 4.52415C61.6167 4.90767 62.147 5.51136 62.5542 6.33523C62.9661 7.15909 63.1721 8.22917 63.1721 9.54545C63.1721 10.8049 62.9756 11.849 62.5826 12.6776C62.1943 13.5062 61.6735 14.1241 61.0201 14.5312C60.3714 14.9384 59.6588 15.142 58.8823 15.142C58.3709 15.142 57.914 15.0592 57.5115 14.8935C57.1138 14.723 56.7729 14.4934 56.4888 14.2045C56.2095 13.911 55.994 13.5795 55.8425 13.2102H55.7573V15H51.8652ZM55.7005 9.54545C55.7005 10.0758 55.7691 10.535 55.9064 10.9233C56.0485 11.3068 56.2473 11.6051 56.503 11.8182C56.7634 12.0265 57.0736 12.1307 57.4334 12.1307C57.7933 12.1307 58.0987 12.0289 58.3496 11.8253C58.6053 11.617 58.7994 11.321 58.932 10.9375C59.0693 10.5492 59.138 10.0852 59.138 9.54545C59.138 9.00568 59.0693 8.54403 58.932 8.16051C58.7994 7.77225 58.6053 7.47633 58.3496 7.27273C58.0987 7.06439 57.7933 6.96023 57.4334 6.96023C57.0736 6.96023 56.7634 7.06439 56.503 7.27273C56.2473 7.47633 56.0485 7.77225 55.9064 8.16051C55.7691 8.54403 55.7005 9.00568 55.7005 9.54545ZM67.8525 15.1705C67.1564 15.1705 66.5409 15.0568 66.0059 14.8295C65.4756 14.5975 65.0589 14.2472 64.7559 13.7784C64.4528 13.3097 64.3013 12.7131 64.3013 11.9886C64.3013 11.392 64.4031 10.883 64.6067 10.4616C64.8103 10.0355 65.0944 9.6875 65.459 9.41761C65.8236 9.14773 66.2473 8.94176 66.7303 8.79972C67.218 8.65767 67.7435 8.56534 68.307 8.52273C68.9178 8.47538 69.4078 8.41856 69.7772 8.35227C70.1512 8.28125 70.4211 8.18419 70.5868 8.06108C70.7525 7.93324 70.8354 7.76515 70.8354 7.55682V7.52841C70.8354 7.24432 70.7265 7.02652 70.5087 6.875C70.2909 6.72348 70.0115 6.64773 69.6706 6.64773C69.2966 6.64773 68.9912 6.73059 68.7544 6.89631C68.5224 7.05729 68.3828 7.30587 68.3354 7.64205H64.7275C64.7748 6.97917 64.9855 6.36837 65.3596 5.80966C65.7383 5.24621 66.29 4.7964 67.0144 4.46023C67.7388 4.11932 68.6432 3.94886 69.7275 3.94886C70.5087 3.94886 71.2095 4.04119 71.8297 4.22585C72.45 4.40578 72.9779 4.65909 73.4135 4.9858C73.8491 5.30777 74.1806 5.68655 74.4078 6.12216C74.6399 6.55303 74.7559 7.02178 74.7559 7.52841V15H71.0911V13.4659H71.0059C70.7881 13.8731 70.5229 14.2022 70.2104 14.4531C69.9026 14.7041 69.5499 14.8864 69.1522 15C68.7592 15.1136 68.3259 15.1705 67.8525 15.1705ZM69.1309 12.6989C69.4292 12.6989 69.7085 12.6373 69.9689 12.5142C70.2341 12.3911 70.4495 12.2135 70.6152 11.9815C70.781 11.7495 70.8638 11.4678 70.8638 11.1364V10.2273C70.7596 10.2699 70.6484 10.3101 70.53 10.348C70.4164 10.3859 70.2933 10.4214 70.1607 10.4545C70.0328 10.4877 69.8955 10.5185 69.7488 10.5469C69.6067 10.5753 69.4576 10.6013 69.3013 10.625C68.9983 10.6723 68.7497 10.7505 68.5556 10.8594C68.3662 10.9635 68.2241 11.0938 68.1294 11.25C68.0395 11.4015 67.9945 11.572 67.9945 11.7614C67.9945 12.0644 68.101 12.2964 68.3141 12.4574C68.5272 12.6184 68.7994 12.6989 69.1309 12.6989ZM80.5495 0.454545V15H76.6291V0.454545H80.5495ZM100.054 5.90909H96.0485C96.0201 5.57765 95.9443 5.27699 95.8212 5.0071C95.7028 4.73722 95.5371 4.50521 95.324 4.31108C95.1157 4.11222 94.8624 3.9607 94.5641 3.85653C94.2658 3.74763 93.9273 3.69318 93.5485 3.69318C92.8856 3.69318 92.3245 3.85417 91.8652 4.17614C91.4107 4.49811 91.065 4.95975 90.8283 5.56108C90.5963 6.16241 90.4803 6.88447 90.4803 7.72727C90.4803 8.61742 90.5987 9.36316 90.8354 9.96449C91.0769 10.5611 91.4249 11.0109 91.8794 11.3139C92.334 11.6122 92.8809 11.7614 93.5201 11.7614C93.8846 11.7614 94.2114 11.7164 94.5002 11.6264C94.789 11.5317 95.04 11.3968 95.253 11.2216C95.4661 11.0464 95.6389 10.8357 95.7715 10.5895C95.9088 10.3385 96.0011 10.0568 96.0485 9.74432L100.054 9.77273C100.007 10.3883 99.834 11.0156 99.5357 11.6548C99.2374 12.2893 98.8136 12.8764 98.2644 13.4162C97.7199 13.9512 97.0452 14.3821 96.2402 14.7088C95.4353 15.0355 94.5002 15.1989 93.4348 15.1989C92.0996 15.1989 90.9017 14.9124 89.8411 14.3395C88.7852 13.7666 87.9495 12.9238 87.334 11.8111C86.7232 10.6984 86.4178 9.33712 86.4178 7.72727C86.4178 6.10795 86.7303 4.74432 87.3553 3.63636C87.9803 2.52367 88.8231 1.68324 89.8837 1.11506C90.9443 0.54214 92.128 0.255681 93.4348 0.255681C94.3534 0.255681 95.1986 0.381155 95.9703 0.632101C96.7421 0.883049 97.4192 1.25 98.0016 1.73295C98.584 2.21117 99.0527 2.80066 99.4078 3.50142C99.763 4.20218 99.9784 5.00473 100.054 5.90909ZM104.942 15.1705C104.246 15.1705 103.631 15.0568 103.096 14.8295C102.565 14.5975 102.149 14.2472 101.846 13.7784C101.543 13.3097 101.391 12.7131 101.391 11.9886C101.391 11.392 101.493 10.883 101.697 10.4616C101.9 10.0355 102.184 9.6875 102.549 9.41761C102.913 9.14773 103.337 8.94176 103.82 8.79972C104.308 8.65767 104.833 8.56534 105.397 8.52273C106.008 8.47538 106.498 8.41856 106.867 8.35227C107.241 8.28125 107.511 8.18419 107.677 8.06108C107.842 7.93324 107.925 7.76515 107.925 7.55682V7.52841C107.925 7.24432 107.816 7.02652 107.599 6.875C107.381 6.72348 107.101 6.64773 106.76 6.64773C106.386 6.64773 106.081 6.73059 105.844 6.89631C105.612 7.05729 105.473 7.30587 105.425 7.64205H101.817C101.865 6.97917 102.075 6.36837 102.449 5.80966C102.828 5.24621 103.38 4.7964 104.104 4.46023C104.829 4.11932 105.733 3.94886 106.817 3.94886C107.599 3.94886 108.299 4.04119 108.92 4.22585C109.54 4.40578 110.068 4.65909 110.503 4.9858C110.939 5.30777 111.27 5.68655 111.498 6.12216C111.73 6.55303 111.846 7.02178 111.846 7.52841V15H108.181V13.4659H108.096C107.878 13.8731 107.613 14.2022 107.3 14.4531C106.992 14.7041 106.64 14.8864 106.242 15C105.849 15.1136 105.416 15.1705 104.942 15.1705ZM106.221 12.6989C106.519 12.6989 106.798 12.6373 107.059 12.5142C107.324 12.3911 107.539 12.2135 107.705 11.9815C107.871 11.7495 107.954 11.4678 107.954 11.1364V10.2273C107.849 10.2699 107.738 10.3101 107.62 10.348C107.506 10.3859 107.383 10.4214 107.251 10.4545C107.123 10.4877 106.985 10.5185 106.839 10.5469C106.697 10.5753 106.547 10.6013 106.391 10.625C106.088 10.6723 105.84 10.7505 105.645 10.8594C105.456 10.9635 105.314 11.0938 105.219 11.25C105.129 11.4015 105.084 11.572 105.084 11.7614C105.084 12.0644 105.191 12.2964 105.404 12.4574C105.617 12.6184 105.889 12.6989 106.221 12.6989ZM113.719 15V4.09091H117.526V6.16477H117.639C117.838 5.39773 118.153 4.83665 118.584 4.48153C119.02 4.12642 119.529 3.94886 120.111 3.94886C120.281 3.94886 120.45 3.96307 120.615 3.99148C120.786 4.01515 120.949 4.05066 121.105 4.09801V7.44318C120.911 7.37689 120.672 7.32718 120.388 7.29403C120.104 7.26089 119.86 7.24432 119.656 7.24432C119.273 7.24432 118.927 7.33191 118.619 7.5071C118.316 7.67756 118.077 7.91903 117.902 8.23153C117.727 8.5393 117.639 8.90152 117.639 9.31818V15H113.719ZM126.993 15.1989C125.828 15.1989 124.825 14.9763 123.982 14.5312C123.144 14.0814 122.497 13.4375 122.043 12.5994C121.593 11.7566 121.368 10.7481 121.368 9.57386C121.368 8.44697 121.595 7.46212 122.05 6.61932C122.504 5.77651 123.146 5.12074 123.975 4.65199C124.803 4.18324 125.781 3.94886 126.908 3.94886C127.732 3.94886 128.477 4.0767 129.145 4.33239C129.813 4.58807 130.383 4.95975 130.857 5.44744C131.33 5.9304 131.695 6.51752 131.95 7.20881C132.206 7.90009 132.334 8.67898 132.334 9.54545V10.4545H122.59V8.29545H128.726C128.721 7.98295 128.641 7.70833 128.485 7.47159C128.333 7.23011 128.127 7.04309 127.867 6.91051C127.611 6.7732 127.32 6.70455 126.993 6.70455C126.676 6.70455 126.385 6.7732 126.119 6.91051C125.854 7.04309 125.641 7.22775 125.48 7.46449C125.324 7.70123 125.241 7.97822 125.232 8.29545V10.625C125.232 10.9754 125.305 11.2879 125.452 11.5625C125.599 11.8371 125.809 12.0526 126.084 12.2088C126.359 12.3651 126.69 12.4432 127.078 12.4432C127.348 12.4432 127.594 12.4053 127.817 12.3295C128.044 12.2538 128.238 12.1449 128.399 12.0028C128.56 11.8561 128.679 11.6809 128.754 11.4773H132.334C132.211 12.2348 131.92 12.893 131.46 13.4517C131.001 14.0057 130.393 14.4366 129.635 14.7443C128.882 15.0473 128.002 15.1989 126.993 15.1989ZM13.0051 24.4545V39H9.70969L4.45401 31.358H4.36879V39H0.419922V24.4545H3.77219L8.94265 32.0682H9.05629V24.4545H13.0051ZM14.9299 39V28.0909H18.8503V39H14.9299ZM16.8901 26.9545C16.3598 26.9545 15.9052 26.7794 15.5265 26.429C15.1477 26.0786 14.9583 25.6572 14.9583 25.1648C14.9583 24.6723 15.1477 24.2509 15.5265 23.9006C15.9052 23.5502 16.3598 23.375 16.8901 23.375C17.4251 23.375 17.8797 23.5502 18.2537 23.9006C18.6325 24.2509 18.8219 24.6723 18.8219 25.1648C18.8219 25.6572 18.6325 26.0786 18.2537 26.429C17.8797 26.7794 17.4251 26.9545 16.8901 26.9545ZM26.1035 43.3182C25.0098 43.3182 24.0723 43.1619 23.291 42.8494C22.5145 42.5417 21.9108 42.1155 21.4799 41.571C21.0538 41.0313 20.8147 40.411 20.7626 39.7102H24.541C24.5789 39.9422 24.6736 40.1293 24.8251 40.2713C24.9766 40.4134 25.1708 40.5152 25.4075 40.5767C25.649 40.643 25.9189 40.6761 26.2172 40.6761C26.7238 40.6761 27.1428 40.553 27.4743 40.3068C27.8104 40.0606 27.9785 39.6155 27.9785 38.9716V37.125H27.8649C27.7228 37.4943 27.505 37.8092 27.2115 38.0696C26.9179 38.3253 26.5652 38.5218 26.1532 38.6591C25.7413 38.7917 25.2891 38.858 24.7967 38.858C24.0202 38.858 23.3052 38.678 22.6518 38.3182C22.0031 37.9583 21.4823 37.3878 21.0893 36.6065C20.7011 35.8253 20.5069 34.8049 20.5069 33.5455C20.5069 32.2292 20.7105 31.1591 21.1177 30.3352C21.5297 29.5114 22.06 28.9077 22.7086 28.5241C23.362 28.1406 24.0486 27.9489 24.7683 27.9489C25.3081 27.9489 25.7815 28.0436 26.1887 28.233C26.5959 28.4176 26.9368 28.6662 27.2115 28.9787C27.4861 29.2865 27.6944 29.625 27.8365 29.9943H27.9217V28.0909H31.8422V38.9716C31.8422 39.8949 31.603 40.6785 31.1248 41.3224C30.6513 41.9711 29.9837 42.4659 29.122 42.8068C28.2602 43.1477 27.2541 43.3182 26.1035 43.3182ZM26.2456 36.0739C26.6054 36.0739 26.9132 35.9744 27.1689 35.7756C27.4293 35.572 27.6281 35.2831 27.7654 34.9091C27.9075 34.5303 27.9785 34.0758 27.9785 33.5455C27.9785 33.0057 27.9075 32.544 27.7654 32.1605C27.6281 31.7723 27.4293 31.4763 27.1689 31.2727C26.9132 31.0644 26.6054 30.9602 26.2456 30.9602C25.8857 30.9602 25.5779 31.0644 25.3223 31.2727C25.0713 31.4763 24.8772 31.7723 24.7399 32.1605C24.6073 32.544 24.541 33.0057 24.541 33.5455C24.541 34.0852 24.6073 34.5445 24.7399 34.9233C24.8772 35.2973 25.0713 35.5838 25.3223 35.7827C25.5779 35.9768 25.8857 36.0739 26.2456 36.0739ZM39.0634 39.1989C37.8986 39.1989 36.8948 38.9763 36.052 38.5312C35.214 38.0814 34.5676 37.4375 34.1131 36.5994C33.6633 35.7566 33.4384 34.7481 33.4384 33.5739C33.4384 32.447 33.6657 31.4621 34.1202 30.6193C34.5748 29.7765 35.2163 29.1207 36.0449 28.652C36.8735 28.1832 37.8513 27.9489 38.9782 27.9489C39.802 27.9489 40.5478 28.0767 41.2154 28.3324C41.883 28.5881 42.4535 28.9598 42.927 29.4474C43.4005 29.9304 43.7651 30.5175 44.0208 31.2088C44.2765 31.9001 44.4043 32.679 44.4043 33.5455V34.4545H34.66V32.2955H40.7963C40.7916 31.983 40.7111 31.7083 40.5549 31.4716C40.4033 31.2301 40.1974 31.0431 39.937 30.9105C39.6813 30.7732 39.3901 30.7045 39.0634 30.7045C38.7462 30.7045 38.455 30.7732 38.1898 30.9105C37.9247 31.0431 37.7116 31.2277 37.5506 31.4645C37.3944 31.7012 37.3115 31.9782 37.302 32.2955V34.625C37.302 34.9754 37.3754 35.2879 37.5222 35.5625C37.669 35.8371 37.8797 36.0526 38.1543 36.2088C38.4289 36.3651 38.7604 36.4432 39.1486 36.4432C39.4185 36.4432 39.6647 36.4053 39.8873 36.3295C40.1145 36.2538 40.3087 36.1449 40.4696 36.0028C40.6306 35.8561 40.749 35.6809 40.8248 35.4773H44.4043C44.2812 36.2348 43.99 36.893 43.5307 37.4517C43.0714 38.0057 42.463 38.4366 41.7054 38.7443C40.9526 39.0473 40.0719 39.1989 39.0634 39.1989ZM46.0041 39V28.0909H49.8109V30.1648H49.9245C50.1234 29.3977 50.4383 28.8366 50.8691 28.4815C51.3047 28.1264 51.8137 27.9489 52.3961 27.9489C52.5666 27.9489 52.7347 27.9631 52.9004 27.9915C53.0708 28.0152 53.2342 28.0507 53.3904 28.098V31.4432C53.1963 31.3769 52.9572 31.3272 52.6731 31.294C52.389 31.2609 52.1452 31.2443 51.9416 31.2443C51.5581 31.2443 51.2124 31.3319 50.9047 31.5071C50.6016 31.6776 50.3625 31.919 50.1873 32.2315C50.0121 32.5393 49.9245 32.9015 49.9245 33.3182V39H46.0041ZM54.676 39V28.0909H58.5964V39H54.676ZM56.6362 26.9545C56.1059 26.9545 55.6513 26.7794 55.2725 26.429C54.8938 26.0786 54.7044 25.6572 54.7044 25.1648C54.7044 24.6723 54.8938 24.2509 55.2725 23.9006C55.6513 23.5502 56.1059 23.375 56.6362 23.375C57.1712 23.375 57.6258 23.5502 57.9998 23.9006C58.3786 24.2509 58.568 24.6723 58.568 25.1648C58.568 25.6572 58.3786 26.0786 57.9998 26.429C57.6258 26.7794 57.1712 26.9545 56.6362 26.9545ZM63.6337 39.1705C62.9377 39.1705 62.3221 39.0568 61.7871 38.8295C61.2568 38.5975 60.8401 38.2472 60.5371 37.7784C60.2341 37.3097 60.0826 36.7131 60.0826 35.9886C60.0826 35.392 60.1844 34.883 60.388 34.4616C60.5916 34.0355 60.8757 33.6875 61.2402 33.4176C61.6048 33.1477 62.0286 32.9418 62.5115 32.7997C62.9992 32.6577 63.5248 32.5653 64.0882 32.5227C64.699 32.4754 65.1891 32.4186 65.5584 32.3523C65.9325 32.2812 66.2024 32.1842 66.3681 32.0611C66.5338 31.9332 66.6167 31.7652 66.6167 31.5568V31.5284C66.6167 31.2443 66.5078 31.0265 66.29 30.875C66.0721 30.7235 65.7928 30.6477 65.4519 30.6477C65.0778 30.6477 64.7724 30.7306 64.5357 30.8963C64.3037 31.0573 64.164 31.3059 64.1167 31.642H60.5087C60.556 30.9792 60.7667 30.3684 61.1408 29.8097C61.5196 29.2462 62.0712 28.7964 62.7956 28.4602C63.5201 28.1193 64.4244 27.9489 65.5087 27.9489C66.29 27.9489 66.9907 28.0412 67.611 28.2259C68.2312 28.4058 68.7592 28.6591 69.1948 28.9858C69.6304 29.3078 69.9618 29.6866 70.1891 30.1222C70.4211 30.553 70.5371 31.0218 70.5371 31.5284V39H66.8723V37.4659H66.7871C66.5693 37.8731 66.3042 38.2022 65.9917 38.4531C65.6839 38.7041 65.3311 38.8864 64.9334 39C64.5404 39.1136 64.1072 39.1705 63.6337 39.1705ZM64.9121 36.6989C65.2104 36.6989 65.4898 36.6373 65.7502 36.5142C66.0153 36.3911 66.2308 36.2135 66.3965 35.9815C66.5622 35.7495 66.6451 35.4678 66.6451 35.1364V34.2273C66.5409 34.2699 66.4296 34.3101 66.3113 34.348C66.1976 34.3859 66.0745 34.4214 65.9419 34.4545C65.8141 34.4877 65.6768 34.5185 65.53 34.5469C65.388 34.5753 65.2388 34.6013 65.0826 34.625C64.7795 34.6723 64.531 34.7505 64.3368 34.8594C64.1474 34.9635 64.0054 35.0938 63.9107 35.25C63.8207 35.4015 63.7757 35.572 63.7757 35.7614C63.7757 36.0644 63.8823 36.2964 64.0953 36.4574C64.3084 36.6184 64.5807 36.6989 64.9121 36.6989ZM76.3379 39V24.4545H80.2868V35.8182H86.1674V39H76.3379ZM87.8205 39V28.0909H91.7409V39H87.8205ZM89.7807 26.9545C89.2504 26.9545 88.7959 26.7794 88.4171 26.429C88.0383 26.0786 87.8489 25.6572 87.8489 25.1648C87.8489 24.6723 88.0383 24.2509 88.4171 23.9006C88.7959 23.5502 89.2504 23.375 89.7807 23.375C90.3158 23.375 90.7703 23.5502 91.1444 23.9006C91.5231 24.2509 91.7125 24.6723 91.7125 25.1648C91.7125 25.6572 91.5231 26.0786 91.1444 26.429C90.7703 26.7794 90.3158 26.9545 89.7807 26.9545ZM93.7385 39V28.0909H97.46V30.1648H97.5737C97.801 29.483 98.1892 28.9432 98.7385 28.5455C99.2877 28.1477 99.9411 27.9489 100.699 27.9489C101.466 27.9489 102.126 28.1525 102.68 28.5597C103.234 28.9621 103.568 29.4972 103.682 30.1648H103.795C103.98 29.4972 104.373 28.9621 104.974 28.5597C105.576 28.1525 106.281 27.9489 107.091 27.9489C108.137 27.9489 108.985 28.285 109.633 28.9574C110.287 29.6297 110.613 30.5246 110.613 31.642V39H106.693V32.6364C106.693 32.1581 106.572 31.7841 106.331 31.5142C106.089 31.2396 105.765 31.1023 105.358 31.1023C104.955 31.1023 104.636 31.2396 104.399 31.5142C104.167 31.7841 104.051 32.1581 104.051 32.6364V39H100.301V32.6364C100.301 32.1581 100.18 31.7841 99.9387 31.5142C99.6973 31.2396 99.3729 31.1023 98.9657 31.1023C98.6958 31.1023 98.4638 31.1638 98.2697 31.2869C98.0756 31.41 97.9241 31.5876 97.8152 31.8196C97.711 32.0469 97.6589 32.3191 97.6589 32.6364V39H93.7385ZM112.547 39V28.0909H116.468V39H112.547ZM114.507 26.9545C113.977 26.9545 113.522 26.7794 113.144 26.429C112.765 26.0786 112.575 25.6572 112.575 25.1648C112.575 24.6723 112.765 24.2509 113.144 23.9006C113.522 23.5502 113.977 23.375 114.507 23.375C115.042 23.375 115.497 23.5502 115.871 23.9006C116.25 24.2509 116.439 24.6723 116.439 25.1648C116.439 25.6572 116.25 26.0786 115.871 26.429C115.497 26.7794 115.042 26.9545 114.507 26.9545ZM124.971 28.0909V30.9318H117.783V28.0909H124.971ZM119.175 25.4773H123.096V35.4915C123.096 35.643 123.122 35.7708 123.174 35.875C123.226 35.9744 123.306 36.0502 123.415 36.1023C123.524 36.1496 123.664 36.1733 123.834 36.1733C123.953 36.1733 124.09 36.1591 124.246 36.1307C124.407 36.1023 124.526 36.0786 124.601 36.0597L125.17 38.8153C124.994 38.8674 124.743 38.9313 124.417 39.0071C124.095 39.0829 123.711 39.1326 123.266 39.1562C122.367 39.2036 121.611 39.1113 121.001 38.8793C120.39 38.6425 119.93 38.2708 119.623 37.7642C119.315 37.2576 119.166 36.6231 119.175 35.8608V25.4773ZM131.681 39.1989C130.516 39.1989 129.512 38.9763 128.669 38.5312C127.831 38.0814 127.185 37.4375 126.73 36.5994C126.28 35.7566 126.056 34.7481 126.056 33.5739C126.056 32.447 126.283 31.4621 126.737 30.6193C127.192 29.7765 127.834 29.1207 128.662 28.652C129.491 28.1832 130.468 27.9489 131.595 27.9489C132.419 27.9489 133.165 28.0767 133.833 28.3324C134.5 28.5881 135.071 28.9598 135.544 29.4474C136.018 29.9304 136.382 30.5175 136.638 31.2088C136.894 31.9001 137.021 32.679 137.021 33.5455V34.4545H127.277V32.2955H133.414C133.409 31.983 133.328 31.7083 133.172 31.4716C133.021 31.2301 132.815 31.0431 132.554 30.9105C132.298 30.7732 132.007 30.7045 131.681 30.7045C131.363 30.7045 131.072 30.7732 130.807 30.9105C130.542 31.0431 130.329 31.2277 130.168 31.4645C130.012 31.7012 129.929 31.9782 129.919 32.2955V34.625C129.919 34.9754 129.993 35.2879 130.139 35.5625C130.286 35.8371 130.497 36.0526 130.771 36.2088C131.046 36.3651 131.378 36.4432 131.766 36.4432C132.036 36.4432 132.282 36.4053 132.504 36.3295C132.732 36.2538 132.926 36.1449 133.087 36.0028C133.248 35.8561 133.366 35.6809 133.442 35.4773H137.021C136.898 36.2348 136.607 36.893 136.148 37.4517C135.689 38.0057 135.08 38.4366 134.323 38.7443C133.57 39.0473 132.689 39.1989 131.681 39.1989ZM142.57 39.142C141.794 39.142 141.079 38.9384 140.425 38.5312C139.777 38.1241 139.256 37.5062 138.863 36.6776C138.474 35.849 138.28 34.8049 138.28 33.5455C138.28 32.2292 138.484 31.1591 138.891 30.3352C139.303 29.5114 139.833 28.9077 140.482 28.5241C141.135 28.1406 141.822 27.9489 142.542 27.9489C143.081 27.9489 143.555 28.0436 143.962 28.233C144.369 28.4176 144.71 28.6662 144.985 28.9787C145.26 29.2865 145.468 29.625 145.61 29.9943H145.667V24.4545H149.587V39H145.695V37.2102H145.61C145.458 37.5795 145.241 37.911 144.956 38.2045C144.677 38.4934 144.336 38.723 143.934 38.8935C143.536 39.0592 143.081 39.142 142.57 39.142ZM144.019 36.1307C144.379 36.1307 144.687 36.0265 144.942 35.8182C145.203 35.6051 145.402 35.3068 145.539 34.9233C145.681 34.535 145.752 34.0758 145.752 33.5455C145.752 33.0057 145.681 32.544 145.539 32.1605C145.402 31.7723 145.203 31.4763 144.942 31.2727C144.687 31.0644 144.379 30.9602 144.019 30.9602C143.659 30.9602 143.351 31.0644 143.096 31.2727C142.845 31.4763 142.651 31.7723 142.513 32.1605C142.381 32.544 142.314 33.0057 142.314 33.5455C142.314 34.0852 142.381 34.5492 142.513 34.9375C142.651 35.321 142.845 35.617 143.096 35.8253C143.351 36.0289 143.659 36.1307 144.019 36.1307Z" fill="#00A6CD"/>
</svg>
