<svg width="50" height="40" viewBox="0 0 50 40" fill="none" xmlns="http://www.w3.org/2000/svg">
<path d="M12.19 0.454545H16.1388V9.77273C16.1388 10.8807 15.8737 11.8395 15.3434 12.6491C14.8178 13.4541 14.0839 14.0767 13.1417 14.517C12.1995 14.9527 11.1057 15.1705 9.86044 15.1705C8.60571 15.1705 7.50722 14.9527 6.56499 14.517C5.62275 14.0767 4.88885 13.4541 4.36328 12.6491C3.84245 11.8395 3.58203 10.8807 3.58203 9.77273V0.454545H7.53089V9.43182C7.53089 9.88163 7.63033 10.2841 7.82919 10.6392C8.02805 10.9896 8.30268 11.2642 8.65305 11.4631C9.00817 11.6619 9.41063 11.7614 9.86044 11.7614C10.315 11.7614 10.7174 11.6619 11.0678 11.4631C11.4182 11.2642 11.6928 10.9896 11.8917 10.6392C12.0906 10.2841 12.19 9.88163 12.19 9.43182V0.454545ZM18.0156 15V0.454545H24.3224C25.4304 0.454545 26.3608 0.603693 27.1136 0.901989C27.8712 1.20028 28.4418 1.62169 28.8253 2.16619C29.2135 2.7107 29.4077 3.35227 29.4077 4.09091C29.4077 4.62595 29.2893 5.11364 29.0526 5.55398C28.8205 5.99432 28.4938 6.36364 28.0724 6.66193C27.651 6.95549 27.1586 7.15909 26.5952 7.27273V7.41477C27.2202 7.43845 27.7884 7.59706 28.2997 7.89062C28.8111 8.17945 29.2183 8.57955 29.5213 9.09091C29.8243 9.59754 29.9759 10.1941 29.9759 10.8807C29.9759 11.6761 29.7675 12.384 29.3509 13.0043C28.9389 13.6245 28.3518 14.1122 27.5895 14.4673C26.8272 14.8224 25.9181 15 24.8622 15H18.0156ZM21.9645 11.8466H23.8111C24.474 11.8466 24.9711 11.7235 25.3026 11.4773C25.634 11.2263 25.7997 10.857 25.7997 10.3693C25.7997 10.0284 25.7216 9.73958 25.5653 9.50284C25.4091 9.2661 25.1866 9.08617 24.8977 8.96307C24.6136 8.83996 24.2704 8.77841 23.8679 8.77841H21.9645V11.8466ZM21.9645 6.33523H23.5838C23.9295 6.33523 24.2348 6.28078 24.5 6.17188C24.7652 6.06297 24.9711 5.90672 25.1179 5.70312C25.2694 5.49479 25.3452 5.24148 25.3452 4.94318C25.3452 4.49337 25.1842 4.15009 24.8622 3.91335C24.5402 3.67188 24.133 3.55114 23.6406 3.55114H21.9645V6.33523ZM35.1534 15H30.892L35.6932 0.454545H41.0909L45.892 15H41.6307L38.4489 4.46023H38.3352L35.1534 15ZM34.358 9.26136H42.3693V12.2159H34.358V9.26136ZM0.320312 39V24.4545H6.62713C7.73509 24.4545 8.66548 24.6037 9.41832 24.902C10.1759 25.2003 10.7464 25.6217 11.13 26.1662C11.5182 26.7107 11.7124 27.3523 11.7124 28.0909C11.7124 28.6259 11.594 29.1136 11.3572 29.554C11.1252 29.9943 10.7985 30.3636 10.3771 30.6619C9.95573 30.9555 9.46331 31.1591 8.89986 31.2727V31.4148C9.52486 31.4384 10.093 31.5971 10.6044 31.8906C11.1158 32.1795 11.523 32.5795 11.826 33.0909C12.129 33.5975 12.2805 34.1941 12.2805 34.8807C12.2805 35.6761 12.0722 36.384 11.6555 37.0043C11.2436 37.6245 10.6565 38.1122 9.89418 38.4673C9.13187 38.8224 8.22277 39 7.1669 39H0.320312ZM4.26918 35.8466H6.11577C6.77865 35.8466 7.27581 35.7235 7.60724 35.4773C7.93868 35.2263 8.1044 34.857 8.1044 34.3693C8.1044 34.0284 8.02628 33.7396 7.87003 33.5028C7.71378 33.2661 7.49124 33.0862 7.20241 32.9631C6.91832 32.84 6.57505 32.7784 6.17259 32.7784H4.26918V35.8466ZM4.26918 30.3352H5.88849C6.23414 30.3352 6.53954 30.2808 6.80469 30.1719C7.06984 30.063 7.27581 29.9067 7.42259 29.7031C7.5741 29.4948 7.64986 29.2415 7.64986 28.9432C7.64986 28.4934 7.48887 28.1501 7.1669 27.9134C6.84493 27.6719 6.43774 27.5511 5.94531 27.5511H4.26918V30.3352ZM16.7763 39.1705C16.0803 39.1705 15.4647 39.0568 14.9297 38.8295C14.3994 38.5975 13.9827 38.2472 13.6797 37.7784C13.3767 37.3097 13.2251 36.7131 13.2251 35.9886C13.2251 35.392 13.3269 34.883 13.5305 34.4616C13.7341 34.0355 14.0182 33.6875 14.3828 33.4176C14.7474 33.1477 15.1712 32.9418 15.6541 32.7997C16.1418 32.6577 16.6674 32.5653 17.2308 32.5227C17.8416 32.4754 18.3317 32.4186 18.701 32.3523C19.075 32.2812 19.3449 32.1842 19.5107 32.0611C19.6764 31.9332 19.7592 31.7652 19.7592 31.5568V31.5284C19.7592 31.2443 19.6503 31.0265 19.4325 30.875C19.2147 30.7235 18.9354 30.6477 18.5945 30.6477C18.2204 30.6477 17.915 30.7306 17.6783 30.8963C17.4463 31.0573 17.3066 31.3059 17.2592 31.642H13.6513C13.6986 30.9792 13.9093 30.3684 14.2834 29.8097C14.6622 29.2462 15.2138 28.7964 15.9382 28.4602C16.6626 28.1193 17.567 27.9489 18.6513 27.9489C19.4325 27.9489 20.1333 28.0412 20.7536 28.2259C21.3738 28.4058 21.9018 28.6591 22.3374 28.9858C22.773 29.3078 23.1044 29.6866 23.3317 30.1222C23.5637 30.553 23.6797 31.0218 23.6797 31.5284V39H20.0149V37.4659H19.9297C19.7119 37.8731 19.4467 38.2022 19.1342 38.4531C18.8265 38.7041 18.4737 38.8864 18.076 39C17.683 39.1136 17.2498 39.1705 16.7763 39.1705ZM18.0547 36.6989C18.353 36.6989 18.6323 36.6373 18.8928 36.5142C19.1579 36.3911 19.3733 36.2135 19.5391 35.9815C19.7048 35.7495 19.7876 35.4678 19.7876 35.1364V34.2273C19.6835 34.2699 19.5722 34.3101 19.4538 34.348C19.3402 34.3859 19.2171 34.4214 19.0845 34.4545C18.9567 34.4877 18.8194 34.5185 18.6726 34.5469C18.5305 34.5753 18.3814 34.6013 18.2251 34.625C17.9221 34.6723 17.6735 34.7505 17.4794 34.8594C17.29 34.9635 17.148 35.0938 17.0533 35.25C16.9633 35.4015 16.9183 35.572 16.9183 35.7614C16.9183 36.0644 17.0249 36.2964 17.2379 36.4574C17.451 36.6184 17.7232 36.6989 18.0547 36.6989ZM29.4734 32.8636V39H25.5529V28.0909H29.2745V30.1648H29.3881C29.6249 29.4735 30.0415 28.9313 30.6381 28.5384C31.2395 28.1454 31.9402 27.9489 32.7404 27.9489C33.5122 27.9489 34.1822 28.1264 34.7504 28.4815C35.3233 28.8319 35.766 29.3149 36.0785 29.9304C36.3957 30.5459 36.552 31.2491 36.5472 32.0398V39H32.6268V32.8636C32.6315 32.3239 32.4942 31.9001 32.2148 31.5923C31.9402 31.2846 31.5567 31.1307 31.0643 31.1307C30.7423 31.1307 30.4606 31.2017 30.2191 31.3438C29.9824 31.4811 29.8001 31.6799 29.6722 31.9403C29.5444 32.196 29.4781 32.5038 29.4734 32.8636ZM42.0053 36.4148L42.0337 31.7557H42.5451L45.1871 28.0909H49.5906L45.1587 33.8011H44.0508L42.0053 36.4148ZM38.4826 39V24.4545H42.4031V39H38.4826ZM45.2156 39L42.7156 34.6818L45.2724 31.8977L49.7042 39H45.2156Z" fill="#00A6CD"/>
</svg>
