<svg width="60" height="16" viewBox="0 0 60 16" fill="none" xmlns="http://www.w3.org/2000/svg">
<path d="M7.09783 0.454545H10.9899V10.4261C10.9851 11.3731 10.746 12.2064 10.2726 12.9261C9.8038 13.6411 9.15513 14.1998 8.32653 14.6023C7.50266 15 6.55333 15.1989 5.47852 15.1989C4.54575 15.1989 3.69348 15.0379 2.9217 14.7159C2.14992 14.3892 1.53439 13.8778 1.07511 13.1818C0.615826 12.4811 0.388554 11.572 0.393288 10.4545H4.34215C4.35636 10.8191 4.41791 11.1269 4.52681 11.3778C4.64045 11.6288 4.7967 11.8182 4.99556 11.946C5.19916 12.0691 5.44537 12.1307 5.7342 12.1307C6.02776 12.1307 6.27397 12.0668 6.47283 11.9389C6.67643 11.8111 6.83032 11.6217 6.93448 11.3707C7.03865 11.1151 7.0931 10.8002 7.09783 10.4261V0.454545ZM16.6397 15H12.3784L17.1795 0.454545H22.5772L27.3784 15H23.117L19.9352 4.46023H19.8216L16.6397 15ZM15.8443 9.26136H23.8556V12.2159H15.8443V9.26136ZM28.7793 0.454545H33.6941L37.0748 8.69318H37.2452L40.6259 0.454545H45.5407V15H41.677V6.59091H41.5634L38.3248 14.8864H35.9952L32.7566 6.53409H32.6429V15H28.7793V0.454545ZM47.4121 15V0.454545H53.7189C54.8269 0.454545 55.7573 0.603693 56.5101 0.901989C57.2677 1.20028 57.8382 1.62169 58.2218 2.16619C58.61 2.7107 58.8042 3.35227 58.8042 4.09091C58.8042 4.62595 58.6858 5.11364 58.449 5.55398C58.217 5.99432 57.8903 6.36364 57.4689 6.66193C57.0475 6.95549 56.5551 7.15909 55.9917 7.27273V7.41477C56.6167 7.43845 57.1848 7.59706 57.6962 7.89062C58.2076 8.17945 58.6148 8.57955 58.9178 9.09091C59.2208 9.59754 59.3723 10.1941 59.3723 10.8807C59.3723 11.6761 59.164 12.384 58.7473 13.0043C58.3354 13.6245 57.7483 14.1122 56.986 14.4673C56.2237 14.8224 55.3146 15 54.2587 15H47.4121ZM51.361 11.8466H53.2076C53.8704 11.8466 54.3676 11.7235 54.699 11.4773C55.0305 11.2263 55.1962 10.857 55.1962 10.3693C55.1962 10.0284 55.1181 9.73958 54.9618 9.50284C54.8056 9.2661 54.583 9.08617 54.2942 8.96307C54.0101 8.83996 53.6668 8.77841 53.2644 8.77841H51.361V11.8466ZM51.361 6.33523H52.9803C53.3259 6.33523 53.6313 6.28078 53.8965 6.17188C54.1616 6.06297 54.3676 5.90672 54.5144 5.70312C54.6659 5.49479 54.7417 5.24148 54.7417 4.94318C54.7417 4.49337 54.5807 4.15009 54.2587 3.91335C53.9367 3.67188 53.5295 3.55114 53.0371 3.55114H51.361V6.33523Z" fill="#00A6CD"/>
</svg>
