<svg width="142" height="45" viewBox="0 0 142 45" fill="none" xmlns="http://www.w3.org/2000/svg">
<path d="M0.294922 16V1.45455H4.24379V7.13636H9.47106V1.45455H13.4199V16H9.47106V10.3182H4.24379V16H0.294922ZM18.3915 16.1705C17.6955 16.1705 17.08 16.0568 16.5449 15.8295C16.0146 15.5975 15.598 15.2472 15.2949 14.7784C14.9919 14.3097 14.8404 13.7131 14.8404 12.9886C14.8404 12.392 14.9422 11.883 15.1458 11.4616C15.3494 11.0355 15.6335 10.6875 15.998 10.4176C16.3626 10.1477 16.7864 9.94176 17.2694 9.79972C17.757 9.65767 18.2826 9.56534 18.8461 9.52273C19.4569 9.47538 19.9469 9.41856 20.3162 9.35227C20.6903 9.28125 20.9602 9.18419 21.1259 9.06108C21.2916 8.93324 21.3745 8.76515 21.3745 8.55682V8.52841C21.3745 8.24432 21.2656 8.02652 21.0478 7.875C20.83 7.72348 20.5506 7.64773 20.2097 7.64773C19.8356 7.64773 19.5302 7.73059 19.2935 7.89631C19.0615 8.05729 18.9218 8.30587 18.8745 8.64205H15.2665C15.3139 7.97917 15.5246 7.36837 15.8986 6.80966C16.2774 6.24621 16.829 5.7964 17.5534 5.46023C18.2779 5.11932 19.1822 4.94886 20.2665 4.94886C21.0478 4.94886 21.7485 5.04119 22.3688 5.22585C22.9891 5.40578 23.517 5.65909 23.9526 5.9858C24.3882 6.30777 24.7196 6.68655 24.9469 7.12216C25.1789 7.55303 25.2949 8.02178 25.2949 8.52841V16H21.6301V14.4659H21.5449C21.3271 14.8731 21.062 15.2022 20.7495 15.4531C20.4417 15.7041 20.089 15.8864 19.6912 16C19.2982 16.1136 18.865 16.1705 18.3915 16.1705ZM19.6699 13.6989C19.9682 13.6989 20.2476 13.6373 20.508 13.5142C20.7731 13.3911 20.9886 13.2135 21.1543 12.9815C21.32 12.7495 21.4029 12.4678 21.4029 12.1364V11.2273C21.2987 11.2699 21.1874 11.3101 21.0691 11.348C20.9554 11.3859 20.8323 11.4214 20.6998 11.4545C20.5719 11.4877 20.4346 11.5185 20.2878 11.5469C20.1458 11.5753 19.9966 11.6013 19.8404 11.625C19.5373 11.6723 19.2888 11.7505 19.0946 11.8594C18.9052 11.9635 18.7632 12.0938 18.6685 12.25C18.5785 12.4015 18.5336 12.572 18.5336 12.7614C18.5336 13.0644 18.6401 13.2964 18.8532 13.4574C19.0662 13.6184 19.3385 13.6989 19.6699 13.6989ZM33.7022 5.09091V7.93182H26.4011V5.09091H33.7022ZM27.7931 16V4.77841C27.7931 3.87879 27.9541 3.13305 28.2761 2.54119C28.5981 1.94934 29.0526 1.50663 29.6397 1.21307C30.2269 0.919507 30.9181 0.772726 31.7136 0.772726C32.2108 0.772726 32.6937 0.810605 33.1625 0.886364C33.6359 0.962121 33.9863 1.02841 34.2136 1.08523L33.6454 3.89773C33.5034 3.85511 33.3377 3.82197 33.1483 3.7983C32.9589 3.76989 32.7931 3.75568 32.6511 3.75568C32.2818 3.75568 32.0332 3.83381 31.9054 3.99006C31.7775 4.14631 31.7136 4.35227 31.7136 4.60795V16H27.7931ZM37.8056 16.1705C37.1096 16.1705 36.494 16.0568 35.959 15.8295C35.4287 15.5975 35.012 15.2472 34.709 14.7784C34.406 14.3097 34.2544 13.7131 34.2544 12.9886C34.2544 12.392 34.3562 11.883 34.5598 11.4616C34.7634 11.0355 35.0475 10.6875 35.4121 10.4176C35.7767 10.1477 36.2005 9.94176 36.6834 9.79972C37.1711 9.65767 37.6967 9.56534 38.2601 9.52273C38.8709 9.47538 39.361 9.41856 39.7303 9.35227C40.1043 9.28125 40.3742 9.18419 40.54 9.06108C40.7057 8.93324 40.7885 8.76515 40.7885 8.55682V8.52841C40.7885 8.24432 40.6796 8.02652 40.4618 7.875C40.244 7.72348 39.9647 7.64773 39.6238 7.64773C39.2497 7.64773 38.9443 7.73059 38.7076 7.89631C38.4756 8.05729 38.3359 8.30587 38.2885 8.64205H34.6806C34.7279 7.97917 34.9386 7.36837 35.3127 6.80966C35.6915 6.24621 36.2431 5.7964 36.9675 5.46023C37.6919 5.11932 38.5963 4.94886 39.6806 4.94886C40.4618 4.94886 41.1626 5.04119 41.7828 5.22585C42.4031 5.40578 42.931 5.65909 43.3667 5.9858C43.8023 6.30777 44.1337 6.68655 44.361 7.12216C44.593 7.55303 44.709 8.02178 44.709 8.52841V16H41.0442V14.4659H40.959C40.7412 14.8731 40.476 15.2022 40.1635 15.4531C39.8558 15.7041 39.503 15.8864 39.1053 16C38.7123 16.1136 38.2791 16.1705 37.8056 16.1705ZM39.084 13.6989C39.3823 13.6989 39.6616 13.6373 39.9221 13.5142C40.1872 13.3911 40.4026 13.2135 40.5684 12.9815C40.7341 12.7495 40.8169 12.4678 40.8169 12.1364V11.2273C40.7128 11.2699 40.6015 11.3101 40.4831 11.348C40.3695 11.3859 40.2464 11.4214 40.1138 11.4545C39.986 11.4877 39.8487 11.5185 39.7019 11.5469C39.5598 11.5753 39.4107 11.6013 39.2544 11.625C38.9514 11.6723 38.7028 11.7505 38.5087 11.8594C38.3193 11.9635 38.1773 12.0938 38.0826 12.25C37.9926 12.4015 37.9476 12.572 37.9476 12.7614C37.9476 13.0644 38.0542 13.2964 38.2672 13.4574C38.4803 13.6184 38.7525 13.6989 39.084 13.6989ZM50.5311 16.142C49.7546 16.142 49.0396 15.9384 48.3862 15.5312C47.7375 15.1241 47.2167 14.5062 46.8237 13.6776C46.4354 12.849 46.2413 11.8049 46.2413 10.5455C46.2413 9.22917 46.4449 8.15909 46.8521 7.33523C47.264 6.51136 47.7943 5.90767 48.443 5.52415C49.0964 5.14062 49.783 4.94886 50.5027 4.94886C51.0424 4.94886 51.5159 5.04356 51.9231 5.23295C52.3303 5.41761 52.6712 5.66619 52.9458 5.97869C53.2205 6.28646 53.4288 6.625 53.5708 6.99432H53.6277V1.45455H57.5481V16H53.6561V14.2102H53.5708C53.4193 14.5795 53.2015 14.911 52.9174 15.2045C52.6381 15.4934 52.2972 15.723 51.8947 15.8935C51.497 16.0592 51.0424 16.142 50.5311 16.142ZM51.9799 13.1307C52.3398 13.1307 52.6475 13.0265 52.9032 12.8182C53.1636 12.6051 53.3625 12.3068 53.4998 11.9233C53.6419 11.535 53.7129 11.0758 53.7129 10.5455C53.7129 10.0057 53.6419 9.54403 53.4998 9.16051C53.3625 8.77225 53.1636 8.47633 52.9032 8.27273C52.6475 8.06439 52.3398 7.96023 51.9799 7.96023C51.6201 7.96023 51.3123 8.06439 51.0566 8.27273C50.8057 8.47633 50.6116 8.77225 50.4743 9.16051C50.3417 9.54403 50.2754 10.0057 50.2754 10.5455C50.2754 11.0852 50.3417 11.5492 50.4743 11.9375C50.6116 12.321 50.8057 12.617 51.0566 12.8253C51.3123 13.0289 51.6201 13.1307 51.9799 13.1307ZM67.0936 16L62.8038 1.45455H67.2072L69.1958 10.4034H69.3095L71.6674 1.45455H75.1333L77.4913 10.4318H77.6049L79.5936 1.45455H83.997L79.7072 16H75.9288L73.4572 7.875H73.3436L70.872 16H67.0936ZM87.1025 16.1705C86.4064 16.1705 85.7909 16.0568 85.2559 15.8295C84.7256 15.5975 84.3089 15.2472 84.0059 14.7784C83.7028 14.3097 83.5513 13.7131 83.5513 12.9886C83.5513 12.392 83.6531 11.883 83.8567 11.4616C84.0603 11.0355 84.3444 10.6875 84.709 10.4176C85.0736 10.1477 85.4973 9.94176 85.9803 9.79972C86.468 9.65767 86.9935 9.56534 87.557 9.52273C88.1678 9.47538 88.6578 9.41856 89.0272 9.35227C89.4012 9.28125 89.6711 9.18419 89.8368 9.06108C90.0025 8.93324 90.0854 8.76515 90.0854 8.55682V8.52841C90.0854 8.24432 89.9765 8.02652 89.7587 7.875C89.5409 7.72348 89.2615 7.64773 88.9206 7.64773C88.5466 7.64773 88.2412 7.73059 88.0044 7.89631C87.7724 8.05729 87.6328 8.30587 87.5854 8.64205H83.9775C84.0248 7.97917 84.2355 7.36837 84.6096 6.80966C84.9883 6.24621 85.54 5.7964 86.2644 5.46023C86.9888 5.11932 87.8932 4.94886 88.9775 4.94886C89.7587 4.94886 90.4595 5.04119 91.0797 5.22585C91.7 5.40578 92.2279 5.65909 92.6635 5.9858C93.0991 6.30777 93.4306 6.68655 93.6578 7.12216C93.8899 7.55303 94.0059 8.02178 94.0059 8.52841V16H90.3411V14.4659H90.2559C90.0381 14.8731 89.7729 15.2022 89.4604 15.4531C89.1526 15.7041 88.7999 15.8864 88.4022 16C88.0092 16.1136 87.5759 16.1705 87.1025 16.1705ZM88.3809 13.6989C88.6792 13.6989 88.9585 13.6373 89.2189 13.5142C89.4841 13.3911 89.6995 13.2135 89.8652 12.9815C90.031 12.7495 90.1138 12.4678 90.1138 12.1364V11.2273C90.0096 11.2699 89.8984 11.3101 89.78 11.348C89.6664 11.3859 89.5433 11.4214 89.4107 11.4545C89.2828 11.4877 89.1455 11.5185 88.9988 11.5469C88.8567 11.5753 88.7076 11.6013 88.5513 11.625C88.2483 11.6723 87.9997 11.7505 87.8056 11.8594C87.6162 11.9635 87.4741 12.0938 87.3794 12.25C87.2895 12.4015 87.2445 12.572 87.2445 12.7614C87.2445 13.0644 87.351 13.2964 87.5641 13.4574C87.7772 13.6184 88.0494 13.6989 88.3809 13.6989ZM102.385 5.09091V7.93182H95.1973V5.09091H102.385ZM96.5893 2.47727H100.51V12.4915C100.51 12.643 100.536 12.7708 100.588 12.875C100.64 12.9744 100.72 13.0502 100.829 13.1023C100.938 13.1496 101.078 13.1733 101.248 13.1733C101.367 13.1733 101.504 13.1591 101.66 13.1307C101.821 13.1023 101.94 13.0786 102.015 13.0597L102.584 15.8153C102.408 15.8674 102.157 15.9313 101.831 16.0071C101.509 16.0829 101.125 16.1326 100.68 16.1562C99.7806 16.2036 99.0254 16.1113 98.4146 15.8793C97.8038 15.6425 97.3445 15.2708 97.0368 14.7642C96.729 14.2576 96.5798 13.6231 96.5893 12.8608V2.47727ZM109.095 16.1989C107.93 16.1989 106.926 15.9763 106.083 15.5312C105.245 15.0814 104.599 14.4375 104.144 13.5994C103.695 12.7566 103.47 11.7481 103.47 10.5739C103.47 9.44697 103.697 8.46212 104.151 7.61932C104.606 6.77651 105.248 6.12074 106.076 5.65199C106.905 5.18324 107.883 4.94886 109.009 4.94886C109.833 4.94886 110.579 5.0767 111.247 5.33239C111.914 5.58807 112.485 5.95975 112.958 6.44744C113.432 6.9304 113.796 7.51752 114.052 8.20881C114.308 8.90009 114.436 9.67898 114.436 10.5455V11.4545H104.691V9.29545H110.828C110.823 8.98295 110.742 8.70833 110.586 8.47159C110.435 8.23011 110.229 8.04309 109.968 7.91051C109.713 7.7732 109.421 7.70455 109.095 7.70455C108.777 7.70455 108.486 7.7732 108.221 7.91051C107.956 8.04309 107.743 8.22775 107.582 8.46449C107.426 8.70123 107.343 8.97822 107.333 9.29545V11.625C107.333 11.9754 107.407 12.2879 107.553 12.5625C107.7 12.8371 107.911 13.0526 108.186 13.2088C108.46 13.3651 108.792 13.4432 109.18 13.4432C109.45 13.4432 109.696 13.4053 109.919 13.3295C110.146 13.2538 110.34 13.1449 110.501 13.0028C110.662 12.8561 110.78 12.6809 110.856 12.4773H114.436C114.312 13.2348 114.021 13.893 113.562 14.4517C113.103 15.0057 112.494 15.4366 111.737 15.7443C110.984 16.0473 110.103 16.1989 109.095 16.1989ZM116.035 16V5.09091H119.842V7.16477H119.956C120.155 6.39773 120.47 5.83665 120.9 5.48153C121.336 5.12642 121.845 4.94886 122.427 4.94886C122.598 4.94886 122.766 4.96307 122.932 4.99148C123.102 5.01515 123.265 5.05066 123.422 5.09801V8.44318C123.228 8.37689 122.988 8.32718 122.704 8.29403C122.42 8.26089 122.176 8.24432 121.973 8.24432C121.589 8.24432 121.244 8.33191 120.936 8.5071C120.633 8.67756 120.394 8.91903 120.219 9.23153C120.043 9.5393 119.956 9.90152 119.956 10.3182V16H116.035ZM133.379 16.2273C132.337 16.2273 131.44 16.0426 130.687 15.6733C129.934 15.304 129.357 14.8092 128.954 14.1889C128.552 13.5687 128.351 12.8845 128.351 12.1364C128.351 11.5919 128.455 11.1113 128.663 10.6946C128.872 10.2732 129.163 9.88731 129.537 9.53693C129.911 9.18655 130.349 8.84091 130.851 8.5L134.146 6.45455C134.478 6.24621 134.702 6.03078 134.821 5.80824C134.939 5.58097 134.998 5.37973 134.998 5.20455C134.998 4.97254 134.913 4.76657 134.743 4.58665C134.572 4.40672 134.307 4.31913 133.947 4.32386C133.725 4.32386 133.533 4.36648 133.372 4.4517C133.211 4.5322 133.086 4.64583 132.996 4.79261C132.91 4.93939 132.868 5.11458 132.868 5.31818C132.868 5.59754 132.948 5.884 133.109 6.17756C133.27 6.46638 133.49 6.77888 133.77 7.11506C134.049 7.45123 134.364 7.82765 134.714 8.24432L141.76 16H137.839L131.93 9.75C131.641 9.44223 131.322 9.06581 130.971 8.62074C130.621 8.17093 130.318 7.6643 130.062 7.10085C129.811 6.5374 129.686 5.92424 129.686 5.26136C129.686 4.52273 129.863 3.84801 130.219 3.23722C130.574 2.62642 131.071 2.13873 131.71 1.77415C132.349 1.40956 133.095 1.22727 133.947 1.22727C134.762 1.22727 135.462 1.39536 136.05 1.73153C136.641 2.06771 137.096 2.51515 137.413 3.07386C137.735 3.63258 137.896 4.24811 137.896 4.92045C137.896 5.59754 137.728 6.22964 137.392 6.81676C137.06 7.40388 136.585 7.91761 135.964 8.35795L132.953 10.4886C132.721 10.6496 132.52 10.8343 132.349 11.0426C132.184 11.2509 132.101 11.5208 132.101 11.8523C132.101 12.1269 132.165 12.3613 132.292 12.5554C132.42 12.7495 132.6 12.8987 132.832 13.0028C133.069 13.107 133.346 13.1591 133.663 13.1591C134.146 13.1591 134.629 13.0431 135.112 12.8111C135.6 12.5743 136.045 12.2453 136.447 11.8239C136.85 11.3977 137.172 10.8958 137.413 10.3182C137.659 9.7358 137.782 9.10133 137.782 8.41477H140.879C140.879 9.25758 140.791 10.0696 140.616 10.8509C140.441 11.6321 140.159 12.3471 139.771 12.9957C139.383 13.6444 138.872 14.1913 138.237 14.6364C138.038 14.7358 137.844 14.8305 137.655 14.9205C137.465 15.0104 137.271 15.1051 137.072 15.2045C136.49 15.5786 135.881 15.8438 135.247 16C134.613 16.1515 133.99 16.2273 133.379 16.2273ZM18.3906 40V25.4545H24.6974C25.8054 25.4545 26.7358 25.6037 27.4886 25.902C28.2462 26.2003 28.8168 26.6217 29.2003 27.1662C29.5885 27.7107 29.7827 28.3523 29.7827 29.0909C29.7827 29.6259 29.6643 30.1136 29.4276 30.554C29.1955 30.9943 28.8688 31.3636 28.4474 31.6619C28.026 31.9555 27.5336 32.1591 26.9702 32.2727V32.4148C27.5952 32.4384 28.1634 32.5971 28.6747 32.8906C29.1861 33.1795 29.5933 33.5795 29.8963 34.0909C30.1993 34.5975 30.3509 35.1941 30.3509 35.8807C30.3509 36.6761 30.1425 37.384 29.7259 38.0043C29.3139 38.6245 28.7268 39.1122 27.9645 39.4673C27.2022 39.8224 26.2931 40 25.2372 40H18.3906ZM22.3395 36.8466H24.1861C24.849 36.8466 25.3461 36.7235 25.6776 36.4773C26.009 36.2263 26.1747 35.857 26.1747 35.3693C26.1747 35.0284 26.0966 34.7396 25.9403 34.5028C25.7841 34.2661 25.5616 34.0862 25.2727 33.9631C24.9886 33.84 24.6454 33.7784 24.2429 33.7784H22.3395V36.8466ZM22.3395 31.3352H23.9588C24.3045 31.3352 24.6098 31.2808 24.875 31.1719C25.1402 31.063 25.3461 30.9067 25.4929 30.7031C25.6444 30.4948 25.7202 30.2415 25.7202 29.9432C25.7202 29.4934 25.5592 29.1501 25.2372 28.9134C24.9152 28.6719 24.508 28.5511 24.0156 28.5511H22.3395V31.3352ZM37.0341 40.1989C35.8693 40.1989 34.8655 39.9763 34.0227 39.5312C33.1847 39.0814 32.5384 38.4375 32.0838 37.5994C31.634 36.7566 31.4091 35.7481 31.4091 34.5739C31.4091 33.447 31.6364 32.4621 32.0909 31.6193C32.5455 30.7765 33.187 30.1207 34.0156 29.652C34.8442 29.1832 35.822 28.9489 36.9489 28.9489C37.7727 28.9489 38.5185 29.0767 39.1861 29.3324C39.8537 29.5881 40.4242 29.9598 40.8977 30.4474C41.3712 30.9304 41.7358 31.5175 41.9915 32.2088C42.2472 32.9001 42.375 33.679 42.375 34.5455V35.4545H32.6307V33.2955H38.767C38.7623 32.983 38.6818 32.7083 38.5256 32.4716C38.3741 32.2301 38.1681 32.0431 37.9077 31.9105C37.652 31.7732 37.3608 31.7045 37.0341 31.7045C36.7169 31.7045 36.4257 31.7732 36.1605 31.9105C35.8954 32.0431 35.6823 32.2277 35.5213 32.4645C35.3651 32.7012 35.2822 32.9782 35.2727 33.2955V35.625C35.2727 35.9754 35.3461 36.2879 35.4929 36.5625C35.6397 36.8371 35.8504 37.0526 36.125 37.2088C36.3996 37.3651 36.7311 37.4432 37.1193 37.4432C37.3892 37.4432 37.6354 37.4053 37.858 37.3295C38.0852 37.2538 38.2794 37.1449 38.4403 37.0028C38.6013 36.8561 38.7197 36.6809 38.7955 36.4773H42.375C42.2519 37.2348 41.9607 37.893 41.5014 38.4517C41.0421 39.0057 40.4337 39.4366 39.6761 39.7443C38.9233 40.0473 38.0426 40.1989 37.0341 40.1989ZM54.6957 29.0909L51.0309 40H46.4854L42.8207 29.0909H46.94L48.7013 36.3068H48.815L50.5763 29.0909H54.6957ZM60.706 40.1989C59.5412 40.1989 58.5374 39.9763 57.6946 39.5312C56.8565 39.0814 56.2102 38.4375 55.7557 37.5994C55.3059 36.7566 55.081 35.7481 55.081 34.5739C55.081 33.447 55.3082 32.4621 55.7628 31.6193C56.2173 30.7765 56.8589 30.1207 57.6875 29.652C58.5161 29.1832 59.4938 28.9489 60.6207 28.9489C61.4446 28.9489 62.1903 29.0767 62.858 29.3324C63.5256 29.5881 64.0961 29.9598 64.5696 30.4474C65.0431 30.9304 65.4077 31.5175 65.6634 32.2088C65.919 32.9001 66.0469 33.679 66.0469 34.5455V35.4545H56.3026V33.2955H62.4389C62.4342 32.983 62.3537 32.7083 62.1974 32.4716C62.0459 32.2301 61.84 32.0431 61.5795 31.9105C61.3239 31.7732 61.0327 31.7045 60.706 31.7045C60.3887 31.7045 60.0975 31.7732 59.8324 31.9105C59.5672 32.0431 59.3542 32.2277 59.1932 32.4645C59.0369 32.7012 58.9541 32.9782 58.9446 33.2955V35.625C58.9446 35.9754 59.018 36.2879 59.1648 36.5625C59.3116 36.8371 59.5223 37.0526 59.7969 37.2088C60.0715 37.3651 60.4029 37.4432 60.7912 37.4432C61.0611 37.4432 61.3073 37.4053 61.5298 37.3295C61.7571 37.2538 61.9512 37.1449 62.1122 37.0028C62.2732 36.8561 62.3916 36.6809 62.4673 36.4773H66.0469C65.9238 37.2348 65.6326 37.893 65.1733 38.4517C64.714 39.0057 64.1056 39.4366 63.348 39.7443C62.5952 40.0473 61.7145 40.1989 60.706 40.1989ZM67.6467 40V29.0909H71.4535V31.1648H71.5671C71.766 30.3977 72.0808 29.8366 72.5117 29.4815C72.9473 29.1264 73.4563 28.9489 74.0387 28.9489C74.2092 28.9489 74.3772 28.9631 74.543 28.9915C74.7134 29.0152 74.8768 29.0507 75.033 29.098V32.4432C74.8389 32.3769 74.5998 32.3272 74.3157 32.294C74.0316 32.2609 73.7878 32.2443 73.5842 32.2443C73.2006 32.2443 72.855 32.3319 72.5472 32.5071C72.2442 32.6776 72.0051 32.919 71.8299 33.2315C71.6547 33.5393 71.5671 33.9015 71.5671 34.3182V40H67.6467ZM78.8505 40.1705C78.1545 40.1705 77.5389 40.0568 77.0039 39.8295C76.4736 39.5975 76.0569 39.2472 75.7539 38.7784C75.4509 38.3097 75.2994 37.7131 75.2994 36.9886C75.2994 36.392 75.4012 35.883 75.6048 35.4616C75.8084 35.0355 76.0924 34.6875 76.457 34.4176C76.8216 34.1477 77.2454 33.9418 77.7283 33.7997C78.216 33.6577 78.7416 33.5653 79.305 33.5227C79.9158 33.4754 80.4059 33.4186 80.7752 33.3523C81.1493 33.2812 81.4192 33.1842 81.5849 33.0611C81.7506 32.9332 81.8335 32.7652 81.8335 32.5568V32.5284C81.8335 32.2443 81.7246 32.0265 81.5067 31.875C81.2889 31.7235 81.0096 31.6477 80.6687 31.6477C80.2946 31.6477 79.9892 31.7306 79.7525 31.8963C79.5205 32.0573 79.3808 32.3059 79.3335 32.642H75.7255C75.7728 31.9792 75.9835 31.3684 76.3576 30.8097C76.7364 30.2462 77.288 29.7964 78.0124 29.4602C78.7369 29.1193 79.6412 28.9489 80.7255 28.9489C81.5067 28.9489 82.2075 29.0412 82.8278 29.2259C83.448 29.4058 83.976 29.6591 84.4116 29.9858C84.8472 30.3078 85.1786 30.6866 85.4059 31.1222C85.6379 31.553 85.7539 32.0218 85.7539 32.5284V40H82.0891V38.4659H82.0039C81.7861 38.8731 81.521 39.2022 81.2085 39.4531C80.9007 39.7041 80.5479 39.8864 80.1502 40C79.7572 40.1136 79.324 40.1705 78.8505 40.1705ZM80.1289 37.6989C80.4272 37.6989 80.7066 37.6373 80.967 37.5142C81.2321 37.3911 81.4476 37.2135 81.6133 36.9815C81.779 36.7495 81.8619 36.4678 81.8619 36.1364V35.2273C81.7577 35.2699 81.6464 35.3101 81.5281 35.348C81.4144 35.3859 81.2913 35.4214 81.1587 35.4545C81.0309 35.4877 80.8936 35.5185 80.7468 35.5469C80.6048 35.5753 80.4556 35.6013 80.2994 35.625C79.9963 35.6723 79.7478 35.7505 79.5536 35.8594C79.3642 35.9635 79.2222 36.0938 79.1275 36.25C79.0375 36.4015 78.9925 36.572 78.9925 36.7614C78.9925 37.0644 79.0991 37.2964 79.3121 37.4574C79.5252 37.6184 79.7975 37.6989 80.1289 37.6989ZM92.8828 44.3182C91.7891 44.3182 90.8516 44.1619 90.0703 43.8494C89.2938 43.5417 88.6901 43.1155 88.2592 42.571C87.8331 42.0313 87.594 41.411 87.5419 40.7102H91.3203C91.3582 40.9422 91.4529 41.1293 91.6044 41.2713C91.7559 41.4134 91.95 41.5152 92.1868 41.5767C92.4283 41.643 92.6982 41.6761 92.9964 41.6761C93.5031 41.6761 93.9221 41.553 94.2536 41.3068C94.5897 41.0606 94.7578 40.6155 94.7578 39.9716V38.125H94.6442C94.5021 38.4943 94.2843 38.8092 93.9908 39.0696C93.6972 39.3253 93.3445 39.5218 92.9325 39.6591C92.5206 39.7917 92.0684 39.858 91.576 39.858C90.7995 39.858 90.0845 39.678 89.4311 39.3182C88.7824 38.9583 88.2616 38.3878 87.8686 37.6065C87.4804 36.8253 87.2862 35.8049 87.2862 34.5455C87.2862 33.2292 87.4898 32.1591 87.897 31.3352C88.3089 30.5114 88.8393 29.9077 89.4879 29.5241C90.1413 29.1406 90.8279 28.9489 91.5476 28.9489C92.0874 28.9489 92.5608 29.0436 92.968 29.233C93.3752 29.4176 93.7161 29.6662 93.9908 29.9787C94.2654 30.2865 94.4737 30.625 94.6158 30.9943H94.701V29.0909H98.6214V39.9716C98.6214 40.8949 98.3823 41.6785 97.9041 42.3224C97.4306 42.9711 96.763 43.4659 95.9013 43.8068C95.0395 44.1477 94.0334 44.3182 92.8828 44.3182ZM93.0249 37.0739C93.3847 37.0739 93.6925 36.9744 93.9482 36.7756C94.2086 36.572 94.4074 36.2831 94.5447 35.9091C94.6868 35.5303 94.7578 35.0758 94.7578 34.5455C94.7578 34.0057 94.6868 33.544 94.5447 33.1605C94.4074 32.7723 94.2086 32.4763 93.9482 32.2727C93.6925 32.0644 93.3847 31.9602 93.0249 31.9602C92.665 31.9602 92.3572 32.0644 92.1016 32.2727C91.8506 32.4763 91.6565 32.7723 91.5192 33.1605C91.3866 33.544 91.3203 34.0057 91.3203 34.5455C91.3203 35.0852 91.3866 35.5445 91.5192 35.9233C91.6565 36.2973 91.8506 36.5838 92.1016 36.7827C92.3572 36.9768 92.665 37.0739 93.0249 37.0739ZM105.843 40.1989C104.678 40.1989 103.674 39.9763 102.831 39.5312C101.993 39.0814 101.347 38.4375 100.892 37.5994C100.443 36.7566 100.218 35.7481 100.218 34.5739C100.218 33.447 100.445 32.4621 100.9 31.6193C101.354 30.7765 101.996 30.1207 102.824 29.652C103.653 29.1832 104.631 28.9489 105.757 28.9489C106.581 28.9489 107.327 29.0767 107.995 29.3324C108.662 29.5881 109.233 29.9598 109.706 30.4474C110.18 30.9304 110.544 31.5175 110.8 32.2088C111.056 32.9001 111.184 33.679 111.184 34.5455V35.4545H101.439V33.2955H107.576C107.571 32.983 107.49 32.7083 107.334 32.4716C107.183 32.2301 106.977 32.0431 106.716 31.9105C106.461 31.7732 106.169 31.7045 105.843 31.7045C105.525 31.7045 105.234 31.7732 104.969 31.9105C104.704 32.0431 104.491 32.2277 104.33 32.4645C104.174 32.7012 104.091 32.9782 104.081 33.2955V35.625C104.081 35.9754 104.155 36.2879 104.301 36.5625C104.448 36.8371 104.659 37.0526 104.934 37.2088C105.208 37.3651 105.54 37.4432 105.928 37.4432C106.198 37.4432 106.444 37.4053 106.667 37.3295C106.894 37.2538 107.088 37.1449 107.249 37.0028C107.41 36.8561 107.528 36.6809 107.604 36.4773H111.184C111.06 37.2348 110.769 37.893 110.31 38.4517C109.851 39.0057 109.242 39.4366 108.485 39.7443C107.732 40.0473 106.851 40.1989 105.843 40.1989ZM122.755 32.642H119.147C119.128 32.4195 119.05 32.2277 118.913 32.0668C118.775 31.9058 118.598 31.7827 118.38 31.6974C118.167 31.6075 117.93 31.5625 117.67 31.5625C117.334 31.5625 117.045 31.6241 116.803 31.7472C116.562 31.8703 116.443 32.0455 116.448 32.2727C116.443 32.4337 116.512 32.5829 116.654 32.7202C116.801 32.8575 117.083 32.964 117.499 33.0398L119.715 33.4375C120.833 33.6411 121.664 33.9844 122.208 34.4673C122.757 34.9455 123.034 35.5871 123.039 36.392C123.034 37.1686 122.802 37.8433 122.343 38.4162C121.888 38.9844 121.266 39.4247 120.475 39.7372C119.689 40.045 118.792 40.1989 117.783 40.1989C116.117 40.1989 114.812 39.858 113.87 39.1761C112.933 38.4943 112.409 37.5947 112.3 36.4773H116.192C116.245 36.8229 116.415 37.0904 116.704 37.2798C116.997 37.4645 117.367 37.5568 117.812 37.5568C118.172 37.5568 118.468 37.4953 118.7 37.3722C118.936 37.2491 119.057 37.0739 119.062 36.8466C119.057 36.6383 118.953 36.4725 118.749 36.3494C118.55 36.2263 118.238 36.1269 117.812 36.0511L115.88 35.7102C114.767 35.5161 113.934 35.1468 113.38 34.6023C112.826 34.0578 112.551 33.357 112.556 32.5C112.551 31.7424 112.75 31.1009 113.153 30.5753C113.56 30.045 114.14 29.6425 114.893 29.3679C115.65 29.0885 116.548 28.9489 117.585 28.9489C119.161 28.9489 120.404 29.2756 121.313 29.929C122.227 30.5824 122.708 31.4867 122.755 32.642Z" fill="#00A6CD"/>
</svg>
