<svg width="171" height="40" viewBox="0 0 171 40" fill="none" xmlns="http://www.w3.org/2000/svg">
<path d="M5.07138 15H0.810014L5.61115 0.454545H11.0089L15.81 15H11.5487L8.36683 4.46023H8.2532L5.07138 15ZM4.27592 9.26136H12.2873V12.2159H4.27592V9.26136ZM26.8097 7.64205H23.2017C23.1828 7.41951 23.1046 7.22775 22.9673 7.06676C22.83 6.90578 22.6525 6.78267 22.4347 6.69744C22.2216 6.60748 21.9848 6.5625 21.7244 6.5625C21.3883 6.5625 21.0994 6.62405 20.858 6.74716C20.6165 6.87027 20.4981 7.04545 20.5028 7.27273C20.4981 7.43371 20.5668 7.58286 20.7088 7.72017C20.8556 7.85748 21.1373 7.96402 21.554 8.03977L23.7699 8.4375C24.8873 8.6411 25.7183 8.98437 26.2628 9.46733C26.812 9.94555 27.089 10.5871 27.0938 11.392C27.089 12.1686 26.857 12.8433 26.3977 13.4162C25.9432 13.9844 25.3205 14.4247 24.5298 14.7372C23.7438 15.045 22.8466 15.1989 21.8381 15.1989C20.1714 15.1989 18.867 14.858 17.9247 14.1761C16.9872 13.4943 16.464 12.5947 16.3551 11.4773H20.2472C20.2992 11.8229 20.4697 12.0904 20.7585 12.2798C21.0521 12.4645 21.4214 12.5568 21.8665 12.5568C22.2263 12.5568 22.5223 12.4953 22.7543 12.3722C22.991 12.2491 23.1117 12.0739 23.1165 11.8466C23.1117 11.6383 23.0076 11.4725 22.804 11.3494C22.6051 11.2263 22.2926 11.1269 21.8665 11.0511L19.9347 10.7102C18.822 10.5161 17.9886 10.1468 17.4347 9.60227C16.8807 9.05777 16.6061 8.35701 16.6108 7.5C16.6061 6.74242 16.8049 6.10085 17.2074 5.57528C17.6146 5.04498 18.1946 4.64252 18.9474 4.3679C19.705 4.08854 20.6023 3.94886 21.6392 3.94886C23.2159 3.94886 24.4588 4.27557 25.3679 4.92898C26.2817 5.58239 26.7623 6.48674 26.8097 7.64205ZM38.5675 7.64205H34.9595C34.9406 7.41951 34.8625 7.22775 34.7251 7.06676C34.5878 6.90578 34.4103 6.78267 34.1925 6.69744C33.9794 6.60748 33.7427 6.5625 33.4822 6.5625C33.1461 6.5625 32.8572 6.62405 32.6158 6.74716C32.3743 6.87027 32.2559 7.04545 32.2607 7.27273C32.2559 7.43371 32.3246 7.58286 32.4666 7.72017C32.6134 7.85748 32.8951 7.96402 33.3118 8.03977L35.5277 8.4375C36.6451 8.6411 37.4761 8.98437 38.0206 9.46733C38.5698 9.94555 38.8468 10.5871 38.8516 11.392C38.8468 12.1686 38.6148 12.8433 38.1555 13.4162C37.701 13.9844 37.0784 14.4247 36.2876 14.7372C35.5017 15.045 34.6044 15.1989 33.5959 15.1989C31.9292 15.1989 30.6248 14.858 29.6825 14.1761C28.745 13.4943 28.2218 12.5947 28.1129 11.4773H32.005C32.0571 11.8229 32.2275 12.0904 32.5163 12.2798C32.8099 12.4645 33.1792 12.5568 33.6243 12.5568C33.9841 12.5568 34.2801 12.4953 34.5121 12.3722C34.7488 12.2491 34.8696 12.0739 34.8743 11.8466C34.8696 11.6383 34.7654 11.4725 34.5618 11.3494C34.3629 11.2263 34.0504 11.1269 33.6243 11.0511L31.6925 10.7102C30.5798 10.5161 29.7464 10.1468 29.1925 9.60227C28.6385 9.05777 28.3639 8.35701 28.3686 7.5C28.3639 6.74242 28.5627 6.10085 28.9652 5.57528C29.3724 5.04498 29.9524 4.64252 30.7053 4.3679C31.4628 4.08854 32.3601 3.94886 33.397 3.94886C34.9737 3.94886 36.2166 4.27557 37.1257 4.92898C38.0395 5.58239 38.5201 6.48674 38.5675 7.64205ZM43.3935 15.1705C42.6974 15.1705 42.0819 15.0568 41.5469 14.8295C41.0166 14.5975 40.5999 14.2472 40.2969 13.7784C39.9938 13.3097 39.8423 12.7131 39.8423 11.9886C39.8423 11.392 39.9441 10.883 40.1477 10.4616C40.3513 10.0355 40.6354 9.6875 41 9.41761C41.3646 9.14773 41.7884 8.94176 42.2713 8.79972C42.759 8.65767 43.2846 8.56534 43.848 8.52273C44.4588 8.47538 44.9489 8.41856 45.3182 8.35227C45.6922 8.28125 45.9621 8.18419 46.1278 8.06108C46.2936 7.93324 46.3764 7.76515 46.3764 7.55682V7.52841C46.3764 7.24432 46.2675 7.02652 46.0497 6.875C45.8319 6.72348 45.5526 6.64773 45.2116 6.64773C44.8376 6.64773 44.5322 6.73059 44.2955 6.89631C44.0634 7.05729 43.9238 7.30587 43.8764 7.64205H40.2685C40.3158 6.97917 40.5265 6.36837 40.9006 5.80966C41.2794 5.24621 41.831 4.7964 42.5554 4.46023C43.2798 4.11932 44.1842 3.94886 45.2685 3.94886C46.0497 3.94886 46.7505 4.04119 47.3707 4.22585C47.991 4.40578 48.5189 4.65909 48.9545 4.9858C49.3902 5.30777 49.7216 5.68655 49.9489 6.12216C50.1809 6.55303 50.2969 7.02178 50.2969 7.52841V15H46.6321V13.4659H46.5469C46.3291 13.8731 46.0639 14.2022 45.7514 14.4531C45.4437 14.7041 45.0909 14.8864 44.6932 15C44.3002 15.1136 43.867 15.1705 43.3935 15.1705ZM44.6719 12.6989C44.9702 12.6989 45.2495 12.6373 45.5099 12.5142C45.7751 12.3911 45.9905 12.2135 46.1562 11.9815C46.322 11.7495 46.4048 11.4678 46.4048 11.1364V10.2273C46.3007 10.2699 46.1894 10.3101 46.071 10.348C45.9574 10.3859 45.8343 10.4214 45.7017 10.4545C45.5739 10.4877 45.4366 10.5185 45.2898 10.5469C45.1477 10.5753 44.9986 10.6013 44.8423 10.625C44.5393 10.6723 44.2907 10.7505 44.0966 10.8594C43.9072 10.9635 43.7652 11.0938 43.6705 11.25C43.5805 11.4015 43.5355 11.572 43.5355 11.7614C43.5355 12.0644 43.642 12.2964 43.8551 12.4574C44.0682 12.6184 44.3404 12.6989 44.6719 12.6989ZM56.119 15.142C55.3424 15.142 54.6275 14.9384 53.9741 14.5312C53.3254 14.1241 52.8046 13.5062 52.4116 12.6776C52.0233 11.849 51.8292 10.8049 51.8292 9.54545C51.8292 8.22917 52.0328 7.15909 52.44 6.33523C52.8519 5.51136 53.3822 4.90767 54.0309 4.52415C54.6843 4.14062 55.3709 3.94886 56.0906 3.94886C56.6303 3.94886 57.1038 4.04356 57.511 4.23295C57.9182 4.41761 58.2591 4.66619 58.5337 4.97869C58.8084 5.28646 59.0167 5.625 59.1587 5.99432H59.2156V0.454545H63.136V15H59.244V13.2102H59.1587C59.0072 13.5795 58.7894 13.911 58.5053 14.2045C58.226 14.4934 57.8851 14.723 57.4826 14.8935C57.0849 15.0592 56.6303 15.142 56.119 15.142ZM57.5678 12.1307C57.9277 12.1307 58.2354 12.0265 58.4911 11.8182C58.7515 11.6051 58.9504 11.3068 59.0877 10.9233C59.2298 10.535 59.3008 10.0758 59.3008 9.54545C59.3008 9.00568 59.2298 8.54403 59.0877 8.16051C58.9504 7.77225 58.7515 7.47633 58.4911 7.27273C58.2354 7.06439 57.9277 6.96023 57.5678 6.96023C57.208 6.96023 56.9002 7.06439 56.6445 7.27273C56.3936 7.47633 56.1995 7.77225 56.0621 8.16051C55.9296 8.54403 55.8633 9.00568 55.8633 9.54545C55.8633 10.0852 55.9296 10.5492 56.0621 10.9375C56.1995 11.321 56.3936 11.617 56.6445 11.8253C56.9002 12.0289 57.208 12.1307 57.5678 12.1307ZM68.9883 15V0.454545H75.2667C76.3462 0.454545 77.2908 0.667613 78.1005 1.09375C78.9102 1.51989 79.5399 2.11884 79.9897 2.89062C80.4395 3.66241 80.6644 4.56439 80.6644 5.59659C80.6644 6.63826 80.4324 7.54025 79.9684 8.30256C79.5091 9.06487 78.8628 9.65199 78.0295 10.0639C77.2009 10.4759 76.2326 10.6818 75.1246 10.6818H71.3746V7.61364H74.3292C74.7932 7.61364 75.1886 7.53314 75.5153 7.37216C75.8467 7.20644 76.1 6.97206 76.2752 6.66903C76.4551 6.366 76.5451 6.00852 76.5451 5.59659C76.5451 5.17992 76.4551 4.82481 76.2752 4.53125C76.1 4.23295 75.8467 4.00568 75.5153 3.84943C75.1886 3.68845 74.7932 3.60795 74.3292 3.60795H72.9371V15H68.9883ZM87.163 15.1989C85.9982 15.1989 84.9944 14.9763 84.1516 14.5312C83.3136 14.0814 82.6673 13.4375 82.2127 12.5994C81.7629 11.7566 81.538 10.7481 81.538 9.57386C81.538 8.44697 81.7653 7.46212 82.2198 6.61932C82.6744 5.77651 83.3159 5.12074 84.1445 4.65199C84.9731 4.18324 85.9509 3.94886 87.0778 3.94886C87.9016 3.94886 88.6474 4.0767 89.315 4.33239C89.9826 4.58807 90.5531 4.95975 91.0266 5.44744C91.5001 5.9304 91.8647 6.51752 92.1204 7.20881C92.3761 7.90009 92.5039 8.67898 92.5039 9.54545V10.4545H82.7596V8.29545H88.896C88.8912 7.98295 88.8107 7.70833 88.6545 7.47159C88.503 7.23011 88.297 7.04309 88.0366 6.91051C87.7809 6.7732 87.4897 6.70455 87.163 6.70455C86.8458 6.70455 86.5546 6.7732 86.2894 6.91051C86.0243 7.04309 85.8112 7.22775 85.6502 7.46449C85.494 7.70123 85.4111 7.97822 85.4016 8.29545V10.625C85.4016 10.9754 85.475 11.2879 85.6218 11.5625C85.7686 11.8371 85.9793 12.0526 86.2539 12.2088C86.5285 12.3651 86.86 12.4432 87.2482 12.4432C87.5181 12.4432 87.7643 12.4053 87.9869 12.3295C88.2141 12.2538 88.4083 12.1449 88.5692 12.0028C88.7302 11.8561 88.8486 11.6809 88.9244 11.4773H92.5039C92.3808 12.2348 92.0896 12.893 91.6303 13.4517C91.171 14.0057 90.5626 14.4366 89.805 14.7443C89.0522 15.0473 88.1715 15.1989 87.163 15.1989ZM100.609 4.09091V6.93182H93.4219V4.09091H100.609ZM94.8139 1.47727H98.7344V11.4915C98.7344 11.643 98.7604 11.7708 98.8125 11.875C98.8646 11.9744 98.9451 12.0502 99.054 12.1023C99.1629 12.1496 99.3026 12.1733 99.473 12.1733C99.5914 12.1733 99.7287 12.1591 99.8849 12.1307C100.046 12.1023 100.164 12.0786 100.24 12.0597L100.808 14.8153C100.633 14.8674 100.382 14.9313 100.055 15.0071C99.7334 15.0829 99.3499 15.1326 98.9048 15.1562C98.0052 15.2036 97.25 15.1113 96.6392 14.8793C96.0284 14.6425 95.5691 14.2708 95.2614 13.7642C94.9536 13.2576 94.8045 12.6231 94.8139 11.8608V1.47727ZM102.209 15V4.09091H106.016V6.16477H106.13C106.328 5.39773 106.643 4.83665 107.074 4.48153C107.51 4.12642 108.019 3.94886 108.601 3.94886C108.772 3.94886 108.94 3.96307 109.105 3.99148C109.276 4.01515 109.439 4.05066 109.596 4.09801V7.44318C109.401 7.37689 109.162 7.32718 108.878 7.29403C108.594 7.26089 108.35 7.24432 108.147 7.24432C107.763 7.24432 107.417 7.33191 107.11 7.5071C106.807 7.67756 106.568 7.91903 106.392 8.23153C106.217 8.5393 106.13 8.90152 106.13 9.31818V15H102.209ZM115.512 15.1989C114.328 15.1989 113.315 14.9645 112.472 14.4957C111.629 14.0223 110.983 13.3641 110.533 12.5213C110.083 11.6738 109.858 10.6913 109.858 9.57386C109.858 8.45644 110.083 7.47633 110.533 6.63352C110.983 5.78598 111.629 5.12784 112.472 4.65909C113.315 4.18561 114.328 3.94886 115.512 3.94886C116.695 3.94886 117.709 4.18561 118.551 4.65909C119.394 5.12784 120.041 5.78598 120.49 6.63352C120.94 7.47633 121.165 8.45644 121.165 9.57386C121.165 10.6913 120.94 11.6738 120.49 12.5213C120.041 13.3641 119.394 14.0223 118.551 14.4957C117.709 14.9645 116.695 15.1989 115.512 15.1989ZM115.54 12.3011C115.872 12.3011 116.158 12.1899 116.4 11.9673C116.641 11.7448 116.828 11.4276 116.961 11.0156C117.093 10.6037 117.159 10.1136 117.159 9.54545C117.159 8.97254 117.093 8.48248 116.961 8.07528C116.828 7.66335 116.641 7.34612 116.4 7.12358C116.158 6.90104 115.872 6.78977 115.54 6.78977C115.19 6.78977 114.889 6.90104 114.638 7.12358C114.387 7.34612 114.195 7.66335 114.063 8.07528C113.93 8.48248 113.864 8.97254 113.864 9.54545C113.864 10.1136 113.93 10.6037 114.063 11.0156C114.195 11.4276 114.387 11.7448 114.638 11.9673C114.889 12.1899 115.19 12.3011 115.54 12.3011ZM126.676 0.454545V15H122.756V0.454545H126.676ZM133.901 15.1989C132.737 15.1989 131.733 14.9763 130.89 14.5312C130.052 14.0814 129.406 13.4375 128.951 12.5994C128.501 11.7566 128.276 10.7481 128.276 9.57386C128.276 8.44697 128.504 7.46212 128.958 6.61932C129.413 5.77651 130.054 5.12074 130.883 4.65199C131.711 4.18324 132.689 3.94886 133.816 3.94886C134.64 3.94886 135.386 4.0767 136.053 4.33239C136.721 4.58807 137.291 4.95975 137.765 5.44744C138.238 5.9304 138.603 6.51752 138.859 7.20881C139.114 7.90009 139.242 8.67898 139.242 9.54545V10.4545H129.498V8.29545H135.634C135.629 7.98295 135.549 7.70833 135.393 7.47159C135.241 7.23011 135.035 7.04309 134.775 6.91051C134.519 6.7732 134.228 6.70455 133.901 6.70455C133.584 6.70455 133.293 6.7732 133.028 6.91051C132.763 7.04309 132.549 7.22775 132.388 7.46449C132.232 7.70123 132.149 7.97822 132.14 8.29545V10.625C132.14 10.9754 132.213 11.2879 132.36 11.5625C132.507 11.8371 132.718 12.0526 132.992 12.2088C133.267 12.3651 133.598 12.4432 133.987 12.4432C134.256 12.4432 134.503 12.4053 134.725 12.3295C134.952 12.2538 135.147 12.1449 135.308 12.0028C135.469 11.8561 135.587 11.6809 135.663 11.4773H139.242C139.119 12.2348 138.828 12.893 138.369 13.4517C137.909 14.0057 137.301 14.4366 136.543 14.7443C135.79 15.0473 134.91 15.1989 133.901 15.1989ZM147.916 10.2273V4.09091H151.836V15H148.115V12.9261H148.001C147.764 13.6222 147.35 14.1667 146.758 14.5597C146.166 14.9479 145.463 15.142 144.649 15.142C143.886 15.142 143.219 14.9669 142.646 14.6165C142.078 14.2661 141.635 13.7831 141.318 13.1676C141.005 12.5521 140.847 11.8466 140.842 11.0511V4.09091H144.762V10.2273C144.767 10.767 144.904 11.1908 145.174 11.4986C145.449 11.8063 145.833 11.9602 146.325 11.9602C146.652 11.9602 146.933 11.8916 147.17 11.7543C147.412 11.6122 147.596 11.4134 147.724 11.1577C147.857 10.8973 147.921 10.5871 147.916 10.2273ZM153.83 15V4.09091H157.552V6.16477H157.665C157.893 5.48295 158.281 4.94318 158.83 4.54545C159.379 4.14773 160.033 3.94886 160.79 3.94886C161.558 3.94886 162.218 4.15246 162.772 4.55966C163.326 4.96212 163.66 5.49716 163.773 6.16477H163.887C164.072 5.49716 164.465 4.96212 165.066 4.55966C165.667 4.15246 166.373 3.94886 167.183 3.94886C168.229 3.94886 169.076 4.28504 169.725 4.95739C170.379 5.62973 170.705 6.52462 170.705 7.64205V15H166.785V8.63636C166.785 8.15814 166.664 7.78409 166.423 7.5142C166.181 7.23958 165.857 7.10227 165.45 7.10227C165.047 7.10227 164.728 7.23958 164.491 7.5142C164.259 7.78409 164.143 8.15814 164.143 8.63636V15H160.393V8.63636C160.393 8.15814 160.272 7.78409 160.031 7.5142C159.789 7.23958 159.465 7.10227 159.058 7.10227C158.788 7.10227 158.556 7.16383 158.362 7.28693C158.167 7.41004 158.016 7.58759 157.907 7.8196C157.803 8.04687 157.751 8.31913 157.751 8.63636V15H153.83ZM49.3789 39V24.4545H53.3278V35.8182H59.2085V39H49.3789ZM60.8615 39V28.0909H64.782V39H60.8615ZM62.8217 26.9545C62.2914 26.9545 61.8369 26.7794 61.4581 26.429C61.0793 26.0786 60.8899 25.6572 60.8899 25.1648C60.8899 24.6723 61.0793 24.2509 61.4581 23.9006C61.8369 23.5502 62.2914 23.375 62.8217 23.375C63.3568 23.375 63.8113 23.5502 64.1854 23.9006C64.5642 24.2509 64.7536 24.6723 64.7536 25.1648C64.7536 25.6572 64.5642 26.0786 64.1854 26.429C63.8113 26.7794 63.3568 26.9545 62.8217 26.9545ZM66.7795 39V28.0909H70.5011V30.1648H70.6147C70.842 29.483 71.2302 28.9432 71.7795 28.5455C72.3287 28.1477 72.9821 27.9489 73.7397 27.9489C74.5067 27.9489 75.1673 28.1525 75.7212 28.5597C76.2752 28.9621 76.609 29.4972 76.7227 30.1648H76.8363C77.021 29.4972 77.4139 28.9621 78.0153 28.5597C78.6166 28.1525 79.3221 27.9489 80.1317 27.9489C81.1781 27.9489 82.0257 28.285 82.6744 28.9574C83.3278 29.6297 83.6545 30.5246 83.6545 31.642V39H79.734V32.6364C79.734 32.1581 79.6133 31.7841 79.3718 31.5142C79.1303 31.2396 78.806 31.1023 78.3988 31.1023C77.9963 31.1023 77.6767 31.2396 77.44 31.5142C77.208 31.7841 77.092 32.1581 77.092 32.6364V39H73.342V32.6364C73.342 32.1581 73.2212 31.7841 72.9798 31.5142C72.7383 31.2396 72.4139 31.1023 72.0067 31.1023C71.7369 31.1023 71.5049 31.1638 71.3107 31.2869C71.1166 31.41 70.9651 31.5876 70.8562 31.8196C70.752 32.0469 70.6999 32.3191 70.6999 32.6364V39H66.7795ZM85.5881 39V28.0909H89.5085V39H85.5881ZM87.5483 26.9545C87.018 26.9545 86.5634 26.7794 86.1847 26.429C85.8059 26.0786 85.6165 25.6572 85.6165 25.1648C85.6165 24.6723 85.8059 24.2509 86.1847 23.9006C86.5634 23.5502 87.018 23.375 87.5483 23.375C88.0833 23.375 88.5379 23.5502 88.9119 23.9006C89.2907 24.2509 89.4801 24.6723 89.4801 25.1648C89.4801 25.6572 89.2907 26.0786 88.9119 26.429C88.5379 26.7794 88.0833 26.9545 87.5483 26.9545ZM98.0117 28.0909V30.9318H90.8242V28.0909H98.0117ZM92.2163 25.4773H96.1367V35.4915C96.1367 35.643 96.1628 35.7708 96.2148 35.875C96.2669 35.9744 96.3474 36.0502 96.4563 36.1023C96.5652 36.1496 96.7049 36.1733 96.8754 36.1733C96.9937 36.1733 97.131 36.1591 97.2873 36.1307C97.4483 36.1023 97.5666 36.0786 97.6424 36.0597L98.2106 38.8153C98.0354 38.8674 97.7844 38.9313 97.4577 39.0071C97.1358 39.0829 96.7522 39.1326 96.3072 39.1562C95.4076 39.2036 94.6523 39.1113 94.0415 38.8793C93.4308 38.6425 92.9715 38.2708 92.6637 37.7642C92.3559 37.2576 92.2068 36.6231 92.2163 35.8608V25.4773ZM104.722 39.1989C103.557 39.1989 102.553 38.9763 101.71 38.5312C100.872 38.0814 100.226 37.4375 99.7713 36.5994C99.3215 35.7566 99.0966 34.7481 99.0966 33.5739C99.0966 32.447 99.3239 31.4621 99.7784 30.6193C100.233 29.7765 100.875 29.1207 101.703 28.652C102.532 28.1832 103.509 27.9489 104.636 27.9489C105.46 27.9489 106.206 28.0767 106.874 28.3324C107.541 28.5881 108.112 28.9598 108.585 29.4474C109.059 29.9304 109.423 30.5175 109.679 31.2088C109.935 31.9001 110.062 32.679 110.062 33.5455V34.4545H100.318V32.2955H106.455C106.45 31.983 106.369 31.7083 106.213 31.4716C106.062 31.2301 105.856 31.0431 105.595 30.9105C105.339 30.7732 105.048 30.7045 104.722 30.7045C104.404 30.7045 104.113 30.7732 103.848 30.9105C103.583 31.0431 103.37 31.2277 103.209 31.4645C103.053 31.7012 102.97 31.9782 102.96 32.2955V34.625C102.96 34.9754 103.034 35.2879 103.18 35.5625C103.327 35.8371 103.538 36.0526 103.812 36.2088C104.087 36.3651 104.419 36.4432 104.807 36.4432C105.077 36.4432 105.323 36.4053 105.545 36.3295C105.773 36.2538 105.967 36.1449 106.128 36.0028C106.289 35.8561 106.407 35.6809 106.483 35.4773H110.062C109.939 36.2348 109.648 36.893 109.189 37.4517C108.73 38.0057 108.121 38.4366 107.364 38.7443C106.611 39.0473 105.73 39.1989 104.722 39.1989ZM115.611 39.142C114.835 39.142 114.12 38.9384 113.466 38.5312C112.818 38.1241 112.297 37.5062 111.904 36.6776C111.516 35.849 111.321 34.8049 111.321 33.5455C111.321 32.2292 111.525 31.1591 111.932 30.3352C112.344 29.5114 112.874 28.9077 113.523 28.5241C114.176 28.1406 114.863 27.9489 115.583 27.9489C116.123 27.9489 116.596 28.0436 117.003 28.233C117.41 28.4176 117.751 28.6662 118.026 28.9787C118.301 29.2865 118.509 29.625 118.651 29.9943H118.708V24.4545H122.628V39H118.736V37.2102H118.651C118.499 37.5795 118.282 37.911 117.998 38.2045C117.718 38.4934 117.377 38.723 116.975 38.8935C116.577 39.0592 116.123 39.142 115.611 39.142ZM117.06 36.1307C117.42 36.1307 117.728 36.0265 117.983 35.8182C118.244 35.6051 118.443 35.3068 118.58 34.9233C118.722 34.535 118.793 34.0758 118.793 33.5455C118.793 33.0057 118.722 32.544 118.58 32.1605C118.443 31.7723 118.244 31.4763 117.983 31.2727C117.728 31.0644 117.42 30.9602 117.06 30.9602C116.7 30.9602 116.392 31.0644 116.137 31.2727C115.886 31.4763 115.692 31.7723 115.554 32.1605C115.422 32.544 115.355 33.0057 115.355 33.5455C115.355 34.0852 115.422 34.5492 115.554 34.9375C115.692 35.321 115.886 35.617 116.137 35.8253C116.392 36.0289 116.7 36.1307 117.06 36.1307Z" fill="#00A6CD"/>
</svg>
