<svg width="102" height="40" viewBox="0 0 102 40" fill="none" xmlns="http://www.w3.org/2000/svg">
<path d="M3.51953 15V0.454545H14.0025V3.63636H7.46839V6.13636H13.4627V9.31818H7.46839V11.8182H13.9741V15H3.51953ZM23.0916 10.2273V4.09091H27.0121V15H23.2905V12.9261H23.1768C22.9401 13.6222 22.5258 14.1667 21.9339 14.5597C21.3421 14.9479 20.639 15.142 19.8246 15.142C19.0623 15.142 18.3946 14.9669 17.8217 14.6165C17.2536 14.2661 16.8108 13.7831 16.4936 13.1676C16.1811 12.5521 16.0225 11.8466 16.0178 11.0511V4.09091H19.9382V10.2273C19.9429 10.767 20.0803 11.1908 20.3501 11.4986C20.6248 11.8063 21.0083 11.9602 21.5007 11.9602C21.8274 11.9602 22.1091 11.8916 22.3459 11.7543C22.5874 11.6122 22.772 11.4134 22.8999 11.1577C23.0324 10.8973 23.0964 10.5871 23.0916 10.2273ZM29.006 15V4.09091H32.8129V6.16477H32.9265C33.1254 5.39773 33.4402 4.83665 33.8711 4.48153C34.3067 4.12642 34.8157 3.94886 35.3981 3.94886C35.5685 3.94886 35.7366 3.96307 35.9023 3.99148C36.0728 4.01515 36.2362 4.05066 36.3924 4.09801V7.44318C36.1983 7.37689 35.9592 7.32718 35.6751 7.29403C35.391 7.26089 35.1471 7.24432 34.9435 7.24432C34.56 7.24432 34.2144 7.33191 33.9066 7.5071C33.6036 7.67756 33.3645 7.91903 33.1893 8.23153C33.0141 8.5393 32.9265 8.90152 32.9265 9.31818V15H29.006ZM42.3086 15.1989C41.1249 15.1989 40.1116 14.9645 39.2688 14.4957C38.426 14.0223 37.7797 13.3641 37.3299 12.5213C36.8801 11.6738 36.6552 10.6913 36.6552 9.57386C36.6552 8.45644 36.8801 7.47633 37.3299 6.63352C37.7797 5.78598 38.426 5.12784 39.2688 4.65909C40.1116 4.18561 41.1249 3.94886 42.3086 3.94886C43.4923 3.94886 44.5056 4.18561 45.3484 4.65909C46.1912 5.12784 46.8375 5.78598 47.2873 6.63352C47.7371 7.47633 47.962 8.45644 47.962 9.57386C47.962 10.6913 47.7371 11.6738 47.2873 12.5213C46.8375 13.3641 46.1912 14.0223 45.3484 14.4957C44.5056 14.9645 43.4923 15.1989 42.3086 15.1989ZM42.337 12.3011C42.6684 12.3011 42.9549 12.1899 43.1964 11.9673C43.4379 11.7448 43.6249 11.4276 43.7575 11.0156C43.89 10.6037 43.9563 10.1136 43.9563 9.54545C43.9563 8.97254 43.89 8.48248 43.7575 8.07528C43.6249 7.66335 43.4379 7.34612 43.1964 7.12358C42.9549 6.90104 42.6684 6.78977 42.337 6.78977C41.9866 6.78977 41.686 6.90104 41.435 7.12358C41.1841 7.34612 40.9923 7.66335 40.8597 8.07528C40.7272 8.48248 40.6609 8.97254 40.6609 9.54545C40.6609 10.1136 40.7272 10.6037 40.8597 11.0156C40.9923 11.4276 41.1841 11.7448 41.435 11.9673C41.686 12.1899 41.9866 12.3011 42.337 12.3011ZM49.4961 15V0.454545H59.7234V3.63636H53.445V6.13636H59.0984V9.31818H53.445V15H49.4961ZM65.6875 15.1989C64.5038 15.1989 63.4905 14.9645 62.6477 14.4957C61.8049 14.0223 61.1586 13.3641 60.7088 12.5213C60.259 11.6738 60.0341 10.6913 60.0341 9.57386C60.0341 8.45644 60.259 7.47633 60.7088 6.63352C61.1586 5.78598 61.8049 5.12784 62.6477 4.65909C63.4905 4.18561 64.5038 3.94886 65.6875 3.94886C66.8712 3.94886 67.8845 4.18561 68.7273 4.65909C69.5701 5.12784 70.2164 5.78598 70.6662 6.63352C71.116 7.47633 71.3409 8.45644 71.3409 9.57386C71.3409 10.6913 71.116 11.6738 70.6662 12.5213C70.2164 13.3641 69.5701 14.0223 68.7273 14.4957C67.8845 14.9645 66.8712 15.1989 65.6875 15.1989ZM65.7159 12.3011C66.0473 12.3011 66.3338 12.1899 66.5753 11.9673C66.8168 11.7448 67.0038 11.4276 67.1364 11.0156C67.2689 10.6037 67.3352 10.1136 67.3352 9.54545C67.3352 8.97254 67.2689 8.48248 67.1364 8.07528C67.0038 7.66335 66.8168 7.34612 66.5753 7.12358C66.3338 6.90104 66.0473 6.78977 65.7159 6.78977C65.3655 6.78977 65.0649 6.90104 64.8139 7.12358C64.563 7.34612 64.3712 7.66335 64.2386 8.07528C64.1061 8.48248 64.0398 8.97254 64.0398 9.54545C64.0398 10.1136 64.1061 10.6037 64.2386 11.0156C64.3712 11.4276 64.563 11.7448 64.8139 11.9673C65.0649 12.1899 65.3655 12.3011 65.7159 12.3011ZM72.9318 15V4.09091H76.7386V6.16477H76.8523C77.0511 5.39773 77.366 4.83665 77.7969 4.48153C78.2325 4.12642 78.7415 3.94886 79.3239 3.94886C79.4943 3.94886 79.6624 3.96307 79.8281 3.99148C79.9986 4.01515 80.1619 4.05066 80.3182 4.09801V7.44318C80.1241 7.37689 79.8849 7.32718 79.6009 7.29403C79.3168 7.26089 79.0729 7.24432 78.8693 7.24432C78.4858 7.24432 78.1402 7.33191 77.8324 7.5071C77.5294 7.67756 77.2902 7.91903 77.1151 8.23153C76.9399 8.5393 76.8523 8.90152 76.8523 9.31818V15H72.9318ZM81.6037 15V4.09091H85.3253V6.16477H85.4389C85.6662 5.48295 86.0545 4.94318 86.6037 4.54545C87.1529 4.14773 87.8063 3.94886 88.5639 3.94886C89.331 3.94886 89.9915 4.15246 90.5455 4.55966C91.0994 4.96212 91.4332 5.49716 91.5469 6.16477H91.6605C91.8452 5.49716 92.2382 4.96212 92.8395 4.55966C93.4408 4.15246 94.1463 3.94886 94.956 3.94886C96.0024 3.94886 96.8499 4.28504 97.4986 4.95739C98.152 5.62973 98.4787 6.52462 98.4787 7.64205V15H94.5582V8.63636C94.5582 8.15814 94.4375 7.78409 94.196 7.5142C93.9545 7.23958 93.6302 7.10227 93.223 7.10227C92.8205 7.10227 92.5009 7.23958 92.2642 7.5142C92.0322 7.78409 91.9162 8.15814 91.9162 8.63636V15H88.1662V8.63636C88.1662 8.15814 88.0455 7.78409 87.804 7.5142C87.5625 7.23958 87.2382 7.10227 86.831 7.10227C86.5611 7.10227 86.3291 7.16383 86.1349 7.28693C85.9408 7.41004 85.7893 7.58759 85.6804 7.8196C85.5762 8.04687 85.5241 8.31913 85.5241 8.63636V15H81.6037ZM4.38246 24.4545V39H0.433594V24.4545H4.38246ZM10.2312 32.8636V39H6.31072V28.0909H10.0323V30.1648H10.146C10.3827 29.4735 10.7994 28.9313 11.396 28.5384C11.9973 28.1454 12.698 27.9489 13.4982 27.9489C14.27 27.9489 14.94 28.1264 15.5082 28.4815C16.0811 28.8319 16.5238 29.3149 16.8363 29.9304C17.1535 30.5459 17.3098 31.2491 17.305 32.0398V39H13.3846V32.8636C13.3893 32.3239 13.252 31.9001 12.9727 31.5923C12.698 31.2846 12.3145 31.1307 11.8221 31.1307C11.5001 31.1307 11.2184 31.2017 10.9769 31.3438C10.7402 31.4811 10.5579 31.6799 10.43 31.9403C10.3022 32.196 10.2359 32.5038 10.2312 32.8636ZM23.1893 39.142C22.4128 39.142 21.6978 38.9384 21.0444 38.5312C20.3957 38.1241 19.8749 37.5062 19.4819 36.6776C19.0936 35.849 18.8995 34.8049 18.8995 33.5455C18.8995 32.2292 19.1031 31.1591 19.5103 30.3352C19.9222 29.5114 20.4525 28.9077 21.1012 28.5241C21.7546 28.1406 22.4412 27.9489 23.1609 27.9489C23.7006 27.9489 24.1741 28.0436 24.5813 28.233C24.9885 28.4176 25.3294 28.6662 25.604 28.9787C25.8787 29.2865 26.087 29.625 26.229 29.9943H26.2859V24.4545H30.2063V39H26.3143V37.2102H26.229C26.0775 37.5795 25.8597 37.911 25.5756 38.2045C25.2963 38.4934 24.9554 38.723 24.5529 38.8935C24.1552 39.0592 23.7006 39.142 23.1893 39.142ZM24.6381 36.1307C24.998 36.1307 25.3058 36.0265 25.5614 35.8182C25.8219 35.6051 26.0207 35.3068 26.158 34.9233C26.3001 34.535 26.3711 34.0758 26.3711 33.5455C26.3711 33.0057 26.3001 32.544 26.158 32.1605C26.0207 31.7723 25.8219 31.4763 25.5614 31.2727C25.3058 31.0644 24.998 30.9602 24.6381 30.9602C24.2783 30.9602 23.9705 31.0644 23.7148 31.2727C23.4639 31.4763 23.2698 31.7723 23.1325 32.1605C22.9999 32.544 22.9336 33.0057 22.9336 33.5455C22.9336 34.0852 22.9999 34.5492 23.1325 34.9375C23.2698 35.321 23.4639 35.617 23.7148 35.8253C23.9705 36.0289 24.2783 36.1307 24.6381 36.1307ZM39.2049 34.2273V28.0909H43.1254V39H39.4038V36.9261H39.2901C39.0534 37.6222 38.6391 38.1667 38.0472 38.5597C37.4554 38.9479 36.7522 39.142 35.9379 39.142C35.1755 39.142 34.5079 38.9669 33.935 38.6165C33.3668 38.2661 32.9241 37.7831 32.6069 37.1676C32.2944 36.5521 32.1358 35.8466 32.131 35.0511V28.0909H36.0515V34.2273C36.0562 34.767 36.1935 35.1908 36.4634 35.4986C36.738 35.8063 37.1216 35.9602 37.614 35.9602C37.9407 35.9602 38.2224 35.8916 38.4592 35.7543C38.7006 35.6122 38.8853 35.4134 39.0131 35.1577C39.1457 34.8973 39.2096 34.5871 39.2049 34.2273ZM55.0909 31.642H51.483C51.464 31.4195 51.3859 31.2277 51.2486 31.0668C51.1113 30.9058 50.9337 30.7827 50.7159 30.6974C50.5028 30.6075 50.2661 30.5625 50.0057 30.5625C49.6695 30.5625 49.3807 30.6241 49.1392 30.7472C48.8977 30.8703 48.7794 31.0455 48.7841 31.2727C48.7794 31.4337 48.848 31.5829 48.9901 31.7202C49.1368 31.8575 49.4186 31.964 49.8352 32.0398L52.0511 32.4375C53.1686 32.6411 53.9995 32.9844 54.544 33.4673C55.0933 33.9455 55.3703 34.5871 55.375 35.392C55.3703 36.1686 55.1383 36.8433 54.679 37.4162C54.2244 37.9844 53.6018 38.4247 52.8111 38.7372C52.0251 39.045 51.1278 39.1989 50.1193 39.1989C48.4527 39.1989 47.1482 38.858 46.206 38.1761C45.2685 37.4943 44.7453 36.5947 44.6364 35.4773H48.5284C48.5805 35.8229 48.7509 36.0904 49.0398 36.2798C49.3333 36.4645 49.7027 36.5568 50.1477 36.5568C50.5076 36.5568 50.8035 36.4953 51.0355 36.3722C51.2723 36.2491 51.393 36.0739 51.3977 35.8466C51.393 35.6383 51.2888 35.4725 51.0852 35.3494C50.8864 35.2263 50.5739 35.1269 50.1477 35.0511L48.2159 34.7102C47.1032 34.5161 46.2699 34.1468 45.7159 33.6023C45.1619 33.0578 44.8873 32.357 44.892 31.5C44.8873 30.7424 45.0862 30.1009 45.4886 29.5753C45.8958 29.045 46.4759 28.6425 47.2287 28.3679C47.9863 28.0885 48.8835 27.9489 49.9205 27.9489C51.4972 27.9489 52.7401 28.2756 53.6491 28.929C54.563 29.5824 55.0436 30.4867 55.0909 31.642ZM63.3828 28.0909V30.9318H56.1953V28.0909H63.3828ZM57.5874 25.4773H61.5078V35.4915C61.5078 35.643 61.5339 35.7708 61.5859 35.875C61.638 35.9744 61.7185 36.0502 61.8274 36.1023C61.9363 36.1496 62.076 36.1733 62.2464 36.1733C62.3648 36.1733 62.5021 36.1591 62.6584 36.1307C62.8194 36.1023 62.9377 36.0786 63.0135 36.0597L63.5817 38.8153C63.4065 38.8674 63.1555 38.9313 62.8288 39.0071C62.5069 39.0829 62.1233 39.1326 61.6783 39.1562C60.7786 39.2036 60.0234 39.1113 59.4126 38.8793C58.8018 38.6425 58.3426 38.2708 58.0348 37.7642C57.727 37.2576 57.5779 36.6231 57.5874 35.8608V25.4773ZM64.9826 39V28.0909H68.7894V30.1648H68.9031C69.1019 29.3977 69.4168 28.8366 69.8477 28.4815C70.2833 28.1264 70.7923 27.9489 71.3746 27.9489C71.5451 27.9489 71.7132 27.9631 71.8789 27.9915C72.0494 28.0152 72.2127 28.0507 72.369 28.098V31.4432C72.1748 31.3769 71.9357 31.3272 71.6516 31.294C71.3675 31.2609 71.1237 31.2443 70.9201 31.2443C70.5366 31.2443 70.1909 31.3319 69.8832 31.5071C69.5801 31.6776 69.341 31.919 69.1658 32.2315C68.9906 32.5393 68.9031 32.9015 68.9031 33.3182V39H64.9826ZM73.6545 39V28.0909H77.5749V39H73.6545ZM75.6147 26.9545C75.0844 26.9545 74.6299 26.7794 74.2511 26.429C73.8723 26.0786 73.6829 25.6572 73.6829 25.1648C73.6829 24.6723 73.8723 24.2509 74.2511 23.9006C74.6299 23.5502 75.0844 23.375 75.6147 23.375C76.1497 23.375 76.6043 23.5502 76.9783 23.9006C77.3571 24.2509 77.5465 24.6723 77.5465 25.1648C77.5465 25.6572 77.3571 26.0786 76.9783 26.429C76.6043 26.7794 76.1497 26.9545 75.6147 26.9545ZM84.7997 39.1989C83.6349 39.1989 82.6312 38.9763 81.7884 38.5312C80.9503 38.0814 80.304 37.4375 79.8494 36.5994C79.3996 35.7566 79.1747 34.7481 79.1747 33.5739C79.1747 32.447 79.402 31.4621 79.8565 30.6193C80.3111 29.7765 80.9527 29.1207 81.7812 28.652C82.6098 28.1832 83.5876 27.9489 84.7145 27.9489C85.5384 27.9489 86.2841 28.0767 86.9517 28.3324C87.6193 28.5881 88.1899 28.9598 88.6634 29.4474C89.1368 29.9304 89.5014 30.5175 89.7571 31.2088C90.0128 31.9001 90.1406 32.679 90.1406 33.5455V34.4545H80.3963V32.2955H86.5327C86.5279 31.983 86.4474 31.7083 86.2912 31.4716C86.1397 31.2301 85.9337 31.0431 85.6733 30.9105C85.4176 30.7732 85.1264 30.7045 84.7997 30.7045C84.4825 30.7045 84.1913 30.7732 83.9261 30.9105C83.661 31.0431 83.4479 31.2277 83.2869 31.4645C83.1307 31.7012 83.0478 31.9782 83.0384 32.2955V34.625C83.0384 34.9754 83.1117 35.2879 83.2585 35.5625C83.4053 35.8371 83.616 36.0526 83.8906 36.2088C84.1652 36.3651 84.4967 36.4432 84.8849 36.4432C85.1548 36.4432 85.401 36.4053 85.6236 36.3295C85.8509 36.2538 86.045 36.1449 86.206 36.0028C86.367 35.8561 86.4853 35.6809 86.5611 35.4773H90.1406C90.0175 36.2348 89.7263 36.893 89.267 37.4517C88.8078 38.0057 88.1993 38.4366 87.4418 38.7443C86.6889 39.0473 85.8082 39.1989 84.7997 39.1989ZM101.712 31.642H98.104C98.0851 31.4195 98.007 31.2277 97.8697 31.0668C97.7324 30.9058 97.5548 30.7827 97.337 30.6974C97.1239 30.6075 96.8872 30.5625 96.6268 30.5625C96.2906 30.5625 96.0018 30.6241 95.7603 30.7472C95.5188 30.8703 95.4004 31.0455 95.4052 31.2727C95.4004 31.4337 95.4691 31.5829 95.6112 31.7202C95.7579 31.8575 96.0397 31.964 96.4563 32.0398L98.6722 32.4375C99.7897 32.6411 100.621 32.9844 101.165 33.4673C101.714 33.9455 101.991 34.5871 101.996 35.392C101.991 36.1686 101.759 36.8433 101.3 37.4162C100.846 37.9844 100.223 38.4247 99.4322 38.7372C98.6462 39.045 97.7489 39.1989 96.7404 39.1989C95.0737 39.1989 93.7693 38.858 92.8271 38.1761C91.8896 37.4943 91.3664 36.5947 91.2575 35.4773H95.1495C95.2016 35.8229 95.372 36.0904 95.6609 36.2798C95.9544 36.4645 96.3237 36.5568 96.7688 36.5568C97.1287 36.5568 97.4246 36.4953 97.6566 36.3722C97.8933 36.2491 98.0141 36.0739 98.0188 35.8466C98.0141 35.6383 97.9099 35.4725 97.7063 35.3494C97.5075 35.2263 97.195 35.1269 96.7688 35.0511L94.837 34.7102C93.7243 34.5161 92.891 34.1468 92.337 33.6023C91.783 33.0578 91.5084 32.357 91.5131 31.5C91.5084 30.7424 91.7073 30.1009 92.1097 29.5753C92.5169 29.045 93.0969 28.6425 93.8498 28.3679C94.6074 28.0885 95.5046 27.9489 96.5415 27.9489C98.1183 27.9489 99.3612 28.2756 100.27 28.929C101.184 29.5824 101.665 30.4867 101.712 31.642Z" fill="#00A6CD"/>
</svg>
