<svg width="105" height="45" viewBox="0 0 105 45" fill="none" xmlns="http://www.w3.org/2000/svg">
<path d="M31.5366 6.90909H27.5309C27.5025 6.57765 27.4267 6.27699 27.3036 6.0071C27.1853 5.73722 27.0195 5.50521 26.8065 5.31108C26.5981 5.11222 26.3448 4.9607 26.0465 4.85653C25.7482 4.74763 25.4097 4.69318 25.0309 4.69318C24.368 4.69318 23.8069 4.85417 23.3477 5.17614C22.8931 5.49811 22.5475 5.95975 22.3107 6.56108C22.0787 7.16241 21.9627 7.88447 21.9627 8.72727C21.9627 9.61742 22.0811 10.3632 22.3178 10.9645C22.5593 11.5611 22.9073 12.0109 23.3619 12.3139C23.8164 12.6122 24.3633 12.7614 25.0025 12.7614C25.3671 12.7614 25.6938 12.7164 25.9826 12.6264C26.2714 12.5317 26.5224 12.3968 26.7354 12.2216C26.9485 12.0464 27.1213 11.8357 27.2539 11.5895C27.3912 11.3385 27.4835 11.0568 27.5309 10.7443L31.5366 10.7727C31.4892 11.3883 31.3164 12.0156 31.0181 12.6548C30.7198 13.2893 30.296 13.8764 29.7468 14.4162C29.2023 14.9512 28.5276 15.3821 27.7227 15.7088C26.9177 16.0355 25.9826 16.1989 24.9173 16.1989C23.582 16.1989 22.3841 15.9124 21.3235 15.3395C20.2676 14.7666 19.4319 13.9238 18.8164 12.8111C18.2056 11.6984 17.9002 10.3371 17.9002 8.72727C17.9002 7.10795 18.2127 5.74432 18.8377 4.63636C19.4627 3.52367 20.3055 2.68324 21.3661 2.11506C22.4267 1.54214 23.6104 1.25568 24.9173 1.25568C25.8358 1.25568 26.681 1.38115 27.4528 1.6321C28.2246 1.88305 28.9016 2.25 29.484 2.73295C30.0664 3.21117 30.5352 3.80066 30.8903 4.50142C31.2454 5.20218 31.4608 6.00473 31.5366 6.90909ZM36.4247 16.1705C35.7287 16.1705 35.1132 16.0568 34.5781 15.8295C34.0478 15.5975 33.6312 15.2472 33.3281 14.7784C33.0251 14.3097 32.8736 13.7131 32.8736 12.9886C32.8736 12.392 32.9754 11.883 33.179 11.4616C33.3826 11.0355 33.6667 10.6875 34.0312 10.4176C34.3958 10.1477 34.8196 9.94176 35.3026 9.79972C35.7902 9.65767 36.3158 9.56534 36.8793 9.52273C37.4901 9.47538 37.9801 9.41856 38.3494 9.35227C38.7235 9.28125 38.9934 9.18419 39.1591 9.06108C39.3248 8.93324 39.4077 8.76515 39.4077 8.55682V8.52841C39.4077 8.24432 39.2988 8.02652 39.081 7.875C38.8632 7.72348 38.5838 7.64773 38.2429 7.64773C37.8688 7.64773 37.5634 7.73059 37.3267 7.89631C37.0947 8.05729 36.955 8.30587 36.9077 8.64205H33.2997C33.3471 7.97917 33.5578 7.36837 33.9318 6.80966C34.3106 6.24621 34.8622 5.7964 35.5866 5.46023C36.3111 5.11932 37.2154 4.94886 38.2997 4.94886C39.081 4.94886 39.7817 5.04119 40.402 5.22585C41.0223 5.40578 41.5502 5.65909 41.9858 5.9858C42.4214 6.30777 42.7528 6.68655 42.9801 7.12216C43.2121 7.55303 43.3281 8.02178 43.3281 8.52841V16H39.6634V14.4659H39.5781C39.3603 14.8731 39.0952 15.2022 38.7827 15.4531C38.4749 15.7041 38.1222 15.8864 37.7244 16C37.3314 16.1136 36.8982 16.1705 36.4247 16.1705ZM37.7031 13.6989C38.0014 13.6989 38.2808 13.6373 38.5412 13.5142C38.8063 13.3911 39.0218 13.2135 39.1875 12.9815C39.3532 12.7495 39.4361 12.4678 39.4361 12.1364V11.2273C39.3319 11.2699 39.2206 11.3101 39.1023 11.348C38.9886 11.3859 38.8655 11.4214 38.733 11.4545C38.6051 11.4877 38.4678 11.5185 38.321 11.5469C38.179 11.5753 38.0298 11.6013 37.8736 11.625C37.5705 11.6723 37.322 11.7505 37.1278 11.8594C36.9384 11.9635 36.7964 12.0938 36.7017 12.25C36.6117 12.4015 36.5668 12.572 36.5668 12.7614C36.5668 13.0644 36.6733 13.2964 36.8864 13.4574C37.0994 13.6184 37.3717 13.6989 37.7031 13.6989ZM45.2013 16V5.09091H49.1218V16H45.2013ZM47.1616 3.95455C46.6313 3.95455 46.1767 3.77936 45.7979 3.42898C45.4192 3.0786 45.2298 2.6572 45.2298 2.16477C45.2298 1.67235 45.4192 1.25095 45.7979 0.900568C46.1767 0.550189 46.6313 0.375 47.1616 0.375C47.6966 0.375 48.1512 0.550189 48.5252 0.900568C48.904 1.25095 49.0934 1.67235 49.0934 2.16477C49.0934 2.6572 48.904 3.0786 48.5252 3.42898C48.1512 3.77936 47.6966 3.95455 47.1616 3.95455ZM55.0398 9.86364V16H51.1193V5.09091H54.8409V7.16477H54.9545C55.1913 6.47348 55.608 5.93134 56.2045 5.53835C56.8059 5.14536 57.5066 4.94886 58.3068 4.94886C59.0786 4.94886 59.7486 5.12642 60.3168 5.48153C60.8897 5.83191 61.3324 6.31487 61.6449 6.9304C61.9621 7.54593 62.1184 8.24905 62.1136 9.03977V16H58.1932V9.86364C58.1979 9.32386 58.0606 8.90009 57.7812 8.59233C57.5066 8.28456 57.1231 8.13068 56.6307 8.13068C56.3087 8.13068 56.027 8.2017 55.7855 8.34375C55.5488 8.48106 55.3665 8.67992 55.2386 8.94034C55.1108 9.19602 55.0445 9.50379 55.0398 9.86364ZM69.2763 16.1989C68.1115 16.1989 67.1077 15.9763 66.2649 15.5312C65.4268 15.0814 64.7805 14.4375 64.326 13.5994C63.8762 12.7566 63.6513 11.7481 63.6513 10.5739C63.6513 9.44697 63.8786 8.46212 64.3331 7.61932C64.7876 6.77651 65.4292 6.12074 66.2578 5.65199C67.0864 5.18324 68.0642 4.94886 69.1911 4.94886C70.0149 4.94886 70.7607 5.0767 71.4283 5.33239C72.0959 5.58807 72.6664 5.95975 73.1399 6.44744C73.6134 6.9304 73.978 7.51752 74.2337 8.20881C74.4893 8.90009 74.6172 9.67898 74.6172 10.5455V11.4545H64.8729V9.29545H71.0092C71.0045 8.98295 70.924 8.70833 70.7678 8.47159C70.6162 8.23011 70.4103 8.04309 70.1499 7.91051C69.8942 7.7732 69.603 7.70455 69.2763 7.70455C68.959 7.70455 68.6679 7.7732 68.4027 7.91051C68.1375 8.04309 67.9245 8.22775 67.7635 8.46449C67.6072 8.70123 67.5244 8.97822 67.5149 9.29545V11.625C67.5149 11.9754 67.5883 12.2879 67.7351 12.5625C67.8819 12.8371 68.0926 13.0526 68.3672 13.2088C68.6418 13.3651 68.9732 13.4432 69.3615 13.4432C69.6314 13.4432 69.8776 13.4053 70.1001 13.3295C70.3274 13.2538 70.5215 13.1449 70.6825 13.0028C70.8435 12.8561 70.9619 12.6809 71.0376 12.4773H74.6172C74.4941 13.2348 74.2029 13.893 73.7436 14.4517C73.2843 15.0057 72.6759 15.4366 71.9183 15.7443C71.1655 16.0473 70.2848 16.1989 69.2763 16.1989ZM86.1886 8.64205H82.5806C82.5617 8.41951 82.4835 8.22775 82.3462 8.06676C82.2089 7.90578 82.0314 7.78267 81.8136 7.69744C81.6005 7.60748 81.3638 7.5625 81.1033 7.5625C80.7672 7.5625 80.4783 7.62405 80.2369 7.74716C79.9954 7.87027 79.877 8.04545 79.8817 8.27273C79.877 8.43371 79.9457 8.58286 80.0877 8.72017C80.2345 8.85748 80.5162 8.96402 80.9329 9.03977L83.1488 9.4375C84.2662 9.6411 85.0972 9.98437 85.6417 10.4673C86.1909 10.9455 86.4679 11.5871 86.4727 12.392C86.4679 13.1686 86.2359 13.8433 85.7766 14.4162C85.3221 14.9844 84.6995 15.4247 83.9087 15.7372C83.1228 16.045 82.2255 16.1989 81.217 16.1989C79.5503 16.1989 78.2459 15.858 77.3036 15.1761C76.3661 14.4943 75.8429 13.5947 75.734 12.4773H79.6261C79.6781 12.8229 79.8486 13.0904 80.1374 13.2798C80.431 13.4645 80.8003 13.5568 81.2454 13.5568C81.6052 13.5568 81.9012 13.4953 82.1332 13.3722C82.3699 13.2491 82.4906 13.0739 82.4954 12.8466C82.4906 12.6383 82.3865 12.4725 82.1829 12.3494C81.984 12.2263 81.6715 12.1269 81.2454 12.0511L79.3136 11.7102C78.2009 11.5161 77.3675 11.1468 76.8136 10.6023C76.2596 10.0578 75.985 9.35701 75.9897 8.5C75.985 7.74242 76.1838 7.10085 76.5863 6.57528C76.9935 6.04498 77.5735 5.64252 78.3263 5.3679C79.0839 5.08854 79.9812 4.94886 81.0181 4.94886C82.5948 4.94886 83.8377 5.27557 84.7468 5.92898C85.6606 6.58239 86.1412 7.48674 86.1886 8.64205ZM0.0078125 40V25.4545H6.28622C7.36577 25.4545 8.31037 25.6676 9.12003 26.0938C9.92969 26.5199 10.5594 27.1188 11.0092 27.8906C11.459 28.6624 11.6839 29.5644 11.6839 30.5966C11.6839 31.6383 11.4519 32.5402 10.9879 33.3026C10.5286 34.0649 9.88234 34.652 9.04901 35.0639C8.22041 35.4759 7.25213 35.6818 6.14418 35.6818H2.39418V32.6136H5.34872C5.81274 32.6136 6.2081 32.5331 6.5348 32.3722C6.86624 32.2064 7.11956 31.9721 7.29474 31.669C7.47467 31.366 7.56463 31.0085 7.56463 30.5966C7.56463 30.1799 7.47467 29.8248 7.29474 29.5312C7.11956 29.233 6.86624 29.0057 6.5348 28.8494C6.2081 28.6884 5.81274 28.608 5.34872 28.608H3.95668V40H0.0078125ZM13.1896 40V29.0909H16.9964V31.1648H17.1101C17.3089 30.3977 17.6238 29.8366 18.0547 29.4815C18.4903 29.1264 18.9993 28.9489 19.5817 28.9489C19.7521 28.9489 19.9202 28.9631 20.0859 28.9915C20.2564 29.0152 20.4197 29.0507 20.576 29.098V32.4432C20.3819 32.3769 20.1428 32.3272 19.8587 32.294C19.5746 32.2609 19.3307 32.2443 19.1271 32.2443C18.7436 32.2443 18.398 32.3319 18.0902 32.5071C17.7872 32.6776 17.5481 32.919 17.3729 33.2315C17.1977 33.5393 17.1101 33.9015 17.1101 34.3182V40H13.1896ZM26.4922 40.1989C25.3085 40.1989 24.2952 39.9645 23.4524 39.4957C22.6096 39.0223 21.9633 38.3641 21.5135 37.5213C21.0637 36.6738 20.8388 35.6913 20.8388 34.5739C20.8388 33.4564 21.0637 32.4763 21.5135 31.6335C21.9633 30.786 22.6096 30.1278 23.4524 29.6591C24.2952 29.1856 25.3085 28.9489 26.4922 28.9489C27.6759 28.9489 28.6892 29.1856 29.532 29.6591C30.3748 30.1278 31.0211 30.786 31.4709 31.6335C31.9207 32.4763 32.1456 33.4564 32.1456 34.5739C32.1456 35.6913 31.9207 36.6738 31.4709 37.5213C31.0211 38.3641 30.3748 39.0223 29.532 39.4957C28.6892 39.9645 27.6759 40.1989 26.4922 40.1989ZM26.5206 37.3011C26.852 37.3011 27.1385 37.1899 27.38 36.9673C27.6214 36.7448 27.8085 36.4276 27.9411 36.0156C28.0736 35.6037 28.1399 35.1136 28.1399 34.5455C28.1399 33.9725 28.0736 33.4825 27.9411 33.0753C27.8085 32.6634 27.6214 32.3461 27.38 32.1236C27.1385 31.901 26.852 31.7898 26.5206 31.7898C26.1702 31.7898 25.8696 31.901 25.6186 32.1236C25.3677 32.3461 25.1759 32.6634 25.0433 33.0753C24.9107 33.4825 24.8445 33.9725 24.8445 34.5455C24.8445 35.1136 24.9107 35.6037 25.0433 36.0156C25.1759 36.4276 25.3677 36.7448 25.6186 36.9673C25.8696 37.1899 26.1702 37.3011 26.5206 37.3011ZM33.7365 44.0909V29.0909H37.6286V30.9943H37.7138C37.8558 30.625 38.0642 30.2865 38.3388 29.9787C38.6134 29.6662 38.9543 29.4176 39.3615 29.233C39.7687 29.0436 40.2422 28.9489 40.782 28.9489C41.5017 28.9489 42.1858 29.1406 42.8345 29.5241C43.4879 29.9077 44.0182 30.5114 44.4254 31.3352C44.8374 32.1591 45.0433 33.2292 45.0433 34.5455C45.0433 35.8049 44.8468 36.849 44.4538 37.6776C44.0656 38.5062 43.5447 39.1241 42.8913 39.5312C42.2427 39.9384 41.5301 40.142 40.7536 40.142C40.2422 40.142 39.7853 40.0592 39.3828 39.8935C38.9851 39.723 38.6442 39.4934 38.3601 39.2045C38.0807 38.911 37.8653 38.5795 37.7138 38.2102H37.657V44.0909H33.7365ZM37.5717 34.5455C37.5717 35.0758 37.6404 35.535 37.7777 35.9233C37.9197 36.3068 38.1186 36.6051 38.3743 36.8182C38.6347 37.0265 38.9448 37.1307 39.3047 37.1307C39.6645 37.1307 39.9699 37.0289 40.2209 36.8253C40.4766 36.617 40.6707 36.321 40.8033 35.9375C40.9406 35.5492 41.0092 35.0852 41.0092 34.5455C41.0092 34.0057 40.9406 33.544 40.8033 33.1605C40.6707 32.7723 40.4766 32.4763 40.2209 32.2727C39.9699 32.0644 39.6645 31.9602 39.3047 31.9602C38.9448 31.9602 38.6347 32.0644 38.3743 32.2727C38.1186 32.4763 37.9197 32.7723 37.7777 33.1605C37.6404 33.544 37.5717 34.0057 37.5717 34.5455ZM51.913 40.1989C50.7482 40.1989 49.7444 39.9763 48.9016 39.5312C48.0636 39.0814 47.4173 38.4375 46.9627 37.5994C46.5129 36.7566 46.288 35.7481 46.288 34.5739C46.288 33.447 46.5153 32.4621 46.9698 31.6193C47.4244 30.7765 48.0659 30.1207 48.8945 29.652C49.7231 29.1832 50.7009 28.9489 51.8278 28.9489C52.6516 28.9489 53.3974 29.0767 54.065 29.3324C54.7326 29.5881 55.3031 29.9598 55.7766 30.4474C56.2501 30.9304 56.6147 31.5175 56.8704 32.2088C57.1261 32.9001 57.2539 33.679 57.2539 34.5455V35.4545H47.5096V33.2955H53.646C53.6412 32.983 53.5607 32.7083 53.4045 32.4716C53.253 32.2301 53.047 32.0431 52.7866 31.9105C52.5309 31.7732 52.2397 31.7045 51.913 31.7045C51.5958 31.7045 51.3046 31.7732 51.0394 31.9105C50.7743 32.0431 50.5612 32.2277 50.4002 32.4645C50.244 32.7012 50.1611 32.9782 50.1516 33.2955V35.625C50.1516 35.9754 50.225 36.2879 50.3718 36.5625C50.5186 36.8371 50.7293 37.0526 51.0039 37.2088C51.2785 37.3651 51.61 37.4432 51.9982 37.4432C52.2681 37.4432 52.5143 37.4053 52.7369 37.3295C52.9641 37.2538 53.1583 37.1449 53.3192 37.0028C53.4802 36.8561 53.5986 36.6809 53.6744 36.4773H57.2539C57.1308 37.2348 56.8396 37.893 56.3803 38.4517C55.921 39.0057 55.3126 39.4366 54.555 39.7443C53.8022 40.0473 52.9215 40.1989 51.913 40.1989ZM58.8537 40V29.0909H62.6605V31.1648H62.7741C62.973 30.3977 63.2879 29.8366 63.7188 29.4815C64.1544 29.1264 64.6634 28.9489 65.2457 28.9489C65.4162 28.9489 65.5843 28.9631 65.75 28.9915C65.9205 29.0152 66.0838 29.0507 66.2401 29.098V32.4432C66.0459 32.3769 65.8068 32.3272 65.5227 32.294C65.2386 32.2609 64.9948 32.2443 64.7912 32.2443C64.4077 32.2443 64.062 32.3319 63.7543 32.5071C63.4512 32.6776 63.2121 32.919 63.0369 33.2315C62.8617 33.5393 62.7741 33.9015 62.7741 34.3182V40H58.8537ZM74.4805 29.0909V31.9318H67.293V29.0909H74.4805ZM68.685 26.4773H72.6055V36.4915C72.6055 36.643 72.6315 36.7708 72.6836 36.875C72.7357 36.9744 72.8162 37.0502 72.9251 37.1023C73.034 37.1496 73.1737 37.1733 73.3441 37.1733C73.4625 37.1733 73.5998 37.1591 73.756 37.1307C73.917 37.1023 74.0354 37.0786 74.1112 37.0597L74.6793 39.8153C74.5041 39.8674 74.2532 39.9313 73.9265 40.0071C73.6045 40.0829 73.221 40.1326 72.7759 40.1562C71.8763 40.2036 71.1211 40.1113 70.5103 39.8793C69.8995 39.6425 69.4402 39.2708 69.1325 38.7642C68.8247 38.2576 68.6755 37.6231 68.685 36.8608V26.4773ZM76.0803 40V29.0909H80.0007V40H76.0803ZM78.0405 27.9545C77.5102 27.9545 77.0556 27.7794 76.6768 27.429C76.2981 27.0786 76.1087 26.6572 76.1087 26.1648C76.1087 25.6723 76.2981 25.2509 76.6768 24.9006C77.0556 24.5502 77.5102 24.375 78.0405 24.375C78.5755 24.375 79.0301 24.5502 79.4041 24.9006C79.7829 25.2509 79.9723 25.6723 79.9723 26.1648C79.9723 26.6572 79.7829 27.0786 79.4041 27.429C79.0301 27.7794 78.5755 27.9545 78.0405 27.9545ZM87.2255 40.1989C86.0607 40.1989 85.0569 39.9763 84.2141 39.5312C83.3761 39.0814 82.7298 38.4375 82.2752 37.5994C81.8254 36.7566 81.6005 35.7481 81.6005 34.5739C81.6005 33.447 81.8278 32.4621 82.2823 31.6193C82.7369 30.7765 83.3784 30.1207 84.207 29.652C85.0356 29.1832 86.0134 28.9489 87.1403 28.9489C87.9641 28.9489 88.7099 29.0767 89.3775 29.3324C90.0451 29.5881 90.6156 29.9598 91.0891 30.4474C91.5626 30.9304 91.9272 31.5175 92.1829 32.2088C92.4386 32.9001 92.5664 33.679 92.5664 34.5455V35.4545H82.8221V33.2955H88.9585C88.9537 32.983 88.8732 32.7083 88.717 32.4716C88.5655 32.2301 88.3595 32.0431 88.0991 31.9105C87.8434 31.7732 87.5522 31.7045 87.2255 31.7045C86.9083 31.7045 86.6171 31.7732 86.3519 31.9105C86.0868 32.0431 85.8737 32.2277 85.7127 32.4645C85.5565 32.7012 85.4736 32.9782 85.4641 33.2955V35.625C85.4641 35.9754 85.5375 36.2879 85.6843 36.5625C85.8311 36.8371 86.0418 37.0526 86.3164 37.2088C86.591 37.3651 86.9225 37.4432 87.3107 37.4432C87.5806 37.4432 87.8268 37.4053 88.0494 37.3295C88.2766 37.2538 88.4708 37.1449 88.6317 37.0028C88.7927 36.8561 88.9111 36.6809 88.9869 36.4773H92.5664C92.4433 37.2348 92.1521 37.893 91.6928 38.4517C91.2335 39.0057 90.6251 39.4366 89.8675 39.7443C89.1147 40.0473 88.234 40.1989 87.2255 40.1989ZM104.138 32.642H100.53C100.511 32.4195 100.433 32.2277 100.295 32.0668C100.158 31.9058 99.9806 31.7827 99.7628 31.6974C99.5497 31.6075 99.313 31.5625 99.0526 31.5625C98.7164 31.5625 98.4276 31.6241 98.1861 31.7472C97.9446 31.8703 97.8262 32.0455 97.831 32.2727C97.8262 32.4337 97.8949 32.5829 98.0369 32.7202C98.1837 32.8575 98.4654 32.964 98.8821 33.0398L101.098 33.4375C102.215 33.6411 103.046 33.9844 103.591 34.4673C104.14 34.9455 104.417 35.5871 104.422 36.392C104.417 37.1686 104.185 37.8433 103.726 38.4162C103.271 38.9844 102.649 39.4247 101.858 39.7372C101.072 40.045 100.175 40.1989 99.1662 40.1989C97.4995 40.1989 96.1951 39.858 95.2528 39.1761C94.3153 38.4943 93.7921 37.5947 93.6832 36.4773H97.5753C97.6274 36.8229 97.7978 37.0904 98.0866 37.2798C98.3802 37.4645 98.7495 37.5568 99.1946 37.5568C99.5545 37.5568 99.8504 37.4953 100.082 37.3722C100.319 37.2491 100.44 37.0739 100.445 36.8466C100.44 36.6383 100.336 36.4725 100.132 36.3494C99.9332 36.2263 99.6207 36.1269 99.1946 36.0511L97.2628 35.7102C96.1501 35.5161 95.3168 35.1468 94.7628 34.6023C94.2088 34.0578 93.9342 33.357 93.9389 32.5C93.9342 31.7424 94.133 31.1009 94.5355 30.5753C94.9427 30.045 95.5227 29.6425 96.2756 29.3679C97.0331 29.0885 97.9304 28.9489 98.9673 28.9489C100.544 28.9489 101.787 29.2756 102.696 29.929C103.61 30.5824 104.09 31.4867 104.138 32.642Z" fill="#00A6CD"/>
</svg>
