<svg width="360" height="133" viewBox="0 0 360 133" fill="none" xmlns="http://www.w3.org/2000/svg">
<rect x="3" y="83" width="342" height="50" fill="#FCCA09"/>
<path d="M35.304 119V95.7273H40.2244V114.943H50.2017V119H35.304ZM58.3807 95.7273V119H53.4602V95.7273H58.3807ZM77.8608 103.25C77.7017 102.697 77.4782 102.208 77.1903 101.784C76.9025 101.352 76.5502 100.989 76.1335 100.693C75.7244 100.39 75.2547 100.159 74.7244 100C74.2017 99.8409 73.6222 99.7614 72.9858 99.7614C71.7964 99.7614 70.7509 100.057 69.8494 100.648C68.9555 101.239 68.2585 102.098 67.7585 103.227C67.2585 104.348 67.0085 105.72 67.0085 107.341C67.0085 108.962 67.2547 110.341 67.7472 111.477C68.2396 112.614 68.9366 113.481 69.8381 114.08C70.7396 114.67 71.804 114.966 73.0312 114.966C74.1449 114.966 75.0956 114.769 75.8835 114.375C76.679 113.973 77.285 113.409 77.7017 112.682C78.1259 111.955 78.3381 111.095 78.3381 110.102L79.3381 110.25H73.3381V106.545H83.0767V109.477C83.0767 111.523 82.6449 113.28 81.7812 114.75C80.9176 116.212 79.7282 117.341 78.2131 118.136C76.6979 118.924 74.9631 119.318 73.0085 119.318C70.8267 119.318 68.91 118.837 67.2585 117.875C65.607 116.905 64.3191 115.53 63.3949 113.75C62.4782 111.962 62.0199 109.841 62.0199 107.386C62.0199 105.5 62.2926 103.818 62.8381 102.341C63.3911 100.856 64.1638 99.5985 65.1562 98.5682C66.1487 97.5379 67.304 96.7538 68.6222 96.2159C69.9403 95.678 71.3684 95.4091 72.9062 95.4091C74.2244 95.4091 75.4517 95.6023 76.5881 95.9886C77.7244 96.3674 78.732 96.9053 79.6108 97.6023C80.4972 98.2992 81.2206 99.1288 81.7812 100.091C82.3419 101.045 82.7017 102.098 82.8608 103.25H77.8608ZM86.7727 119V95.7273H91.6932V105.33H101.682V95.7273H106.591V119H101.682V109.386H91.6932V119H86.7727ZM109.761 99.7841V95.7273H128.875V99.7841H121.75V119H116.886V99.7841H109.761ZM144.668 119L138.009 95.7273H143.384L147.236 111.898H147.429L151.679 95.7273H156.281L160.52 111.932H160.724L164.577 95.7273H169.952L163.293 119H158.497L154.065 103.784H153.884L149.463 119H144.668ZM192.659 107.364C192.659 109.902 192.178 112.061 191.216 113.841C190.261 115.621 188.958 116.981 187.307 117.92C185.663 118.852 183.814 119.318 181.761 119.318C179.693 119.318 177.837 118.848 176.193 117.909C174.549 116.97 173.25 115.61 172.295 113.83C171.341 112.049 170.864 109.894 170.864 107.364C170.864 104.826 171.341 102.667 172.295 100.886C173.25 99.1061 174.549 97.75 176.193 96.8182C177.837 95.8788 179.693 95.4091 181.761 95.4091C183.814 95.4091 185.663 95.8788 187.307 96.8182C188.958 97.75 190.261 99.1061 191.216 100.886C192.178 102.667 192.659 104.826 192.659 107.364ZM187.67 107.364C187.67 105.72 187.424 104.333 186.932 103.205C186.447 102.076 185.761 101.22 184.875 100.636C183.989 100.053 182.951 99.7614 181.761 99.7614C180.572 99.7614 179.534 100.053 178.648 100.636C177.761 101.22 177.072 102.076 176.58 103.205C176.095 104.333 175.852 105.72 175.852 107.364C175.852 109.008 176.095 110.394 176.58 111.523C177.072 112.652 177.761 113.508 178.648 114.091C179.534 114.674 180.572 114.966 181.761 114.966C182.951 114.966 183.989 114.674 184.875 114.091C185.761 113.508 186.447 112.652 186.932 111.523C187.424 110.394 187.67 109.008 187.67 107.364ZM196.304 119V95.7273H205.486C207.243 95.7273 208.743 96.0417 209.986 96.6705C211.236 97.2917 212.187 98.1742 212.838 99.3182C213.497 100.455 213.827 101.792 213.827 103.33C213.827 104.875 213.493 106.205 212.827 107.318C212.16 108.424 211.194 109.273 209.929 109.864C208.671 110.455 207.149 110.75 205.361 110.75H199.213V106.795H204.565C205.505 106.795 206.285 106.667 206.906 106.409C207.527 106.152 207.99 105.765 208.293 105.25C208.603 104.735 208.759 104.095 208.759 103.33C208.759 102.557 208.603 101.905 208.293 101.375C207.99 100.845 207.524 100.443 206.895 100.17C206.274 99.8902 205.49 99.75 204.543 99.75H201.224V119H196.304ZM208.872 108.409L214.656 119H209.224L203.565 108.409H208.872ZM217.304 119V95.7273H222.224V105.989H222.531L230.906 95.7273H236.804L228.168 106.148L236.906 119H231.02L224.645 109.432L222.224 112.386V119H217.304ZM246.773 119V95.7273H251.693V114.943H261.67V119H246.773ZM261.136 99.7841V95.7273H280.25V99.7841H273.125V119H268.261V99.7841H261.136ZM291.648 119H283.398V95.7273H291.716C294.057 95.7273 296.072 96.1932 297.761 97.125C299.451 98.0492 300.75 99.3788 301.659 101.114C302.576 102.848 303.034 104.924 303.034 107.341C303.034 109.765 302.576 111.848 301.659 113.591C300.75 115.333 299.443 116.67 297.739 117.602C296.042 118.534 294.011 119 291.648 119ZM288.318 114.784H291.443C292.898 114.784 294.121 114.527 295.114 114.011C296.114 113.489 296.864 112.682 297.364 111.591C297.871 110.492 298.125 109.076 298.125 107.341C298.125 105.621 297.871 104.216 297.364 103.125C296.864 102.034 296.117 101.231 295.125 100.716C294.133 100.201 292.909 99.9432 291.455 99.9432H288.318V114.784ZM307.949 119.295C307.199 119.295 306.555 119.03 306.017 118.5C305.487 117.962 305.222 117.318 305.222 116.568C305.222 115.826 305.487 115.189 306.017 114.659C306.555 114.129 307.199 113.864 307.949 113.864C308.676 113.864 309.313 114.129 309.858 114.659C310.403 115.189 310.676 115.826 310.676 116.568C310.676 117.068 310.547 117.527 310.29 117.943C310.04 118.352 309.71 118.682 309.301 118.932C308.892 119.174 308.441 119.295 307.949 119.295Z" fill="black"/>
<path d="M4.04545 26.4545H16.1818L29 57.7273H29.5455L42.3636 26.4545H54.5V73H44.9545V42.7045H44.5682L32.5227 72.7727H26.0227L13.9773 42.5909H13.5909V73H4.04545V26.4545ZM62.608 73V26.4545H93.9716V34.5682H72.4489V45.6591H92.358V53.7727H72.4489V64.8864H94.0625V73H62.608ZM132.659 41.5C132.341 40.3939 131.894 39.4167 131.318 38.5682C130.742 37.7045 130.038 36.9773 129.205 36.3864C128.386 35.7803 127.447 35.3182 126.386 35C125.341 34.6818 124.182 34.5227 122.909 34.5227C120.53 34.5227 118.439 35.1136 116.636 36.2955C114.848 37.4773 113.455 39.197 112.455 41.4545C111.455 43.697 110.955 46.4394 110.955 49.6818C110.955 52.9242 111.447 55.6818 112.432 57.9545C113.417 60.2273 114.811 61.9621 116.614 63.1591C118.417 64.3409 120.545 64.9318 123 64.9318C125.227 64.9318 127.129 64.5379 128.705 63.75C130.295 62.947 131.508 61.8182 132.341 60.3636C133.189 58.9091 133.614 57.1894 133.614 55.2045L135.614 55.5H123.614V48.0909H143.091V53.9545C143.091 58.0455 142.227 61.5606 140.5 64.5C138.773 67.4242 136.394 69.6818 133.364 71.2727C130.333 72.8485 126.864 73.6364 122.955 73.6364C118.591 73.6364 114.758 72.6742 111.455 70.75C108.152 68.8106 105.576 66.0606 103.727 62.5C101.894 58.9242 100.977 54.6818 100.977 49.7727C100.977 46 101.523 42.6364 102.614 39.6818C103.72 36.7121 105.265 34.197 107.25 32.1364C109.235 30.0758 111.545 28.5076 114.182 27.4318C116.818 26.3561 119.674 25.8182 122.75 25.8182C125.386 25.8182 127.841 26.2045 130.114 26.9773C132.386 27.7348 134.402 28.8106 136.159 30.2045C137.932 31.5985 139.379 33.2576 140.5 35.1818C141.621 37.0909 142.341 39.197 142.659 41.5H132.659ZM157.068 73H146.523L162.591 26.4545H175.273L191.318 73H180.773L169.114 37.0909H168.75L157.068 73ZM156.409 54.7045H181.318V62.3864H156.409V54.7045Z" fill="#1E1E1E"/>
<path d="M197.045 26.4545H209.182L222 57.7273H222.545L235.364 26.4545H247.5V73H237.955V42.7045H237.568L225.523 72.7727H219.023L206.977 42.5909H206.591V73H197.045V26.4545ZM263.631 73H253.085L269.153 26.4545H281.835L297.881 73H287.335L275.676 37.0909H275.312L263.631 73ZM262.972 54.7045H287.881V62.3864H262.972V54.7045ZM312.71 26.4545L322.097 42.3182H322.46L331.892 26.4545H343.006L328.801 49.7273L343.324 73H332.006L322.46 57.1136H322.097L312.551 73H301.278L315.847 49.7273L301.551 26.4545H312.71Z" fill="#DF0D86"/>
<path fill-rule="evenodd" clip-rule="evenodd" d="M348.377 0L318.552 48.2105L326.76 53.2877L359.725 0H348.377Z" fill="#DF0D86"/>
<path d="M212.714 16V4.36364H217.305C218.184 4.36364 218.934 4.52083 219.555 4.83523C220.18 5.14583 220.656 5.58712 220.982 6.15909C221.311 6.72727 221.476 7.39583 221.476 8.16477C221.476 8.9375 221.309 9.60227 220.976 10.1591C220.643 10.7121 220.16 11.1364 219.527 11.4318C218.898 11.7273 218.137 11.875 217.243 11.875H214.169V9.89773H216.845C217.315 9.89773 217.705 9.83333 218.016 9.70455C218.326 9.57576 218.557 9.38258 218.709 9.125C218.864 8.86742 218.942 8.54735 218.942 8.16477C218.942 7.77841 218.864 7.45265 218.709 7.1875C218.557 6.92235 218.324 6.72159 218.01 6.58523C217.699 6.44508 217.307 6.375 216.834 6.375H215.175V16H212.714ZM218.999 10.7045L221.891 16H219.175L216.345 10.7045H218.999ZM233.482 8.4375H230.993C230.947 8.11553 230.855 7.82955 230.714 7.57955C230.574 7.32576 230.394 7.10985 230.175 6.93182C229.955 6.75379 229.701 6.61742 229.413 6.52273C229.129 6.42803 228.821 6.38068 228.487 6.38068C227.885 6.38068 227.36 6.5303 226.913 6.82955C226.466 7.125 226.12 7.55682 225.874 8.125C225.627 8.68939 225.504 9.375 225.504 10.1818C225.504 11.0114 225.627 11.7083 225.874 12.2727C226.124 12.8371 226.472 13.2633 226.919 13.5511C227.366 13.839 227.883 13.983 228.47 13.983C228.8 13.983 229.105 13.9394 229.385 13.8523C229.669 13.7652 229.921 13.6383 230.141 13.4716C230.36 13.3011 230.542 13.0947 230.686 12.8523C230.834 12.6098 230.936 12.3333 230.993 12.0227L233.482 12.0341C233.417 12.5682 233.256 13.0833 232.999 13.5795C232.745 14.072 232.402 14.5133 231.97 14.9034C231.542 15.2898 231.031 15.5966 230.436 15.8239C229.845 16.0473 229.177 16.1591 228.43 16.1591C227.393 16.1591 226.464 15.9242 225.646 15.4545C224.832 14.9848 224.188 14.3049 223.714 13.4148C223.245 12.5246 223.01 11.447 223.01 10.1818C223.01 8.91288 223.249 7.83333 223.726 6.94318C224.203 6.05303 224.851 5.375 225.669 4.90909C226.487 4.43939 227.408 4.20455 228.43 4.20455C229.105 4.20455 229.73 4.29924 230.305 4.48864C230.885 4.67803 231.398 4.95455 231.845 5.31818C232.292 5.67803 232.656 6.11932 232.936 6.64205C233.22 7.16477 233.402 7.76326 233.482 8.4375ZM236.615 14.6477C236.24 14.6477 235.918 14.5152 235.649 14.25C235.384 13.9848 235.251 13.6629 235.251 13.2841C235.251 12.9129 235.384 12.5947 235.649 12.3295C235.918 12.0644 236.24 11.9318 236.615 11.9318C236.979 11.9318 237.297 12.0644 237.57 12.3295C237.842 12.5947 237.979 12.9129 237.979 13.2841C237.979 13.5341 237.914 13.7633 237.786 13.9716C237.661 14.1761 237.496 14.3409 237.291 14.4659C237.087 14.5871 236.861 14.6477 236.615 14.6477ZM236.615 8.9375C236.24 8.9375 235.918 8.80492 235.649 8.53977C235.384 8.27462 235.251 7.95265 235.251 7.57386C235.251 7.20265 235.384 6.88636 235.649 6.625C235.918 6.35985 236.24 6.22727 236.615 6.22727C236.979 6.22727 237.297 6.35985 237.57 6.625C237.842 6.88636 237.979 7.20265 237.979 7.57386C237.979 7.82765 237.914 8.05871 237.786 8.26705C237.661 8.47159 237.496 8.63447 237.291 8.75568C237.087 8.87689 236.861 8.9375 236.615 8.9375ZM244.107 16L248.93 6.45455V6.375H243.311V4.36364H251.476V6.40341L246.646 16H244.107ZM257.474 16.2557C256.497 16.2519 255.656 16.0114 254.952 15.5341C254.251 15.0568 253.711 14.3655 253.332 13.4602C252.957 12.5549 252.772 11.4659 252.776 10.1932C252.776 8.92424 252.963 7.8428 253.338 6.94886C253.717 6.05492 254.257 5.375 254.957 4.90909C255.662 4.43939 256.501 4.20455 257.474 4.20455C258.448 4.20455 259.285 4.43939 259.986 4.90909C260.69 5.37879 261.232 6.06061 261.611 6.95455C261.99 7.8447 262.177 8.92424 262.173 10.1932C262.173 11.4697 261.984 12.5606 261.605 13.4659C261.23 14.3712 260.692 15.0625 259.991 15.5398C259.291 16.017 258.452 16.2557 257.474 16.2557ZM257.474 14.2159C258.141 14.2159 258.673 13.8807 259.071 13.2102C259.469 12.5398 259.666 11.5341 259.662 10.1932C259.662 9.31061 259.571 8.57576 259.389 7.98864C259.211 7.40151 258.957 6.96023 258.628 6.66477C258.302 6.36932 257.918 6.22159 257.474 6.22159C256.812 6.22159 256.281 6.55303 255.884 7.21591C255.486 7.87879 255.285 8.87121 255.281 10.1932C255.281 11.0871 255.37 11.8333 255.548 12.4318C255.73 13.0265 255.986 13.4735 256.315 13.7727C256.645 14.0682 257.031 14.2159 257.474 14.2159ZM268.268 16.1591C267.393 16.1591 266.615 16.017 265.933 15.733C265.255 15.4451 264.723 15.053 264.337 14.5568C263.95 14.0606 263.757 13.4981 263.757 12.8693C263.757 12.3845 263.867 11.9394 264.087 11.5341C264.31 11.125 264.613 10.786 264.996 10.517C265.378 10.2443 265.806 10.0701 266.28 9.99432V9.91477C265.659 9.78977 265.155 9.48864 264.768 9.01136C264.382 8.5303 264.189 7.97159 264.189 7.33523C264.189 6.73295 264.365 6.19697 264.717 5.72727C265.07 5.25379 265.553 4.88258 266.166 4.61364C266.784 4.34091 267.484 4.20455 268.268 4.20455C269.053 4.20455 269.751 4.34091 270.365 4.61364C270.982 4.88636 271.467 5.25947 271.82 5.73295C272.172 6.20265 272.35 6.73674 272.354 7.33523C272.35 7.97538 272.153 8.53409 271.763 9.01136C271.373 9.48864 270.873 9.78977 270.263 9.91477V9.99432C270.729 10.0701 271.151 10.2443 271.53 10.517C271.912 10.786 272.215 11.125 272.439 11.5341C272.666 11.9394 272.782 12.3845 272.786 12.8693C272.782 13.4981 272.587 14.0606 272.2 14.5568C271.814 15.053 271.28 15.4451 270.598 15.733C269.92 16.017 269.143 16.1591 268.268 16.1591ZM268.268 14.3523C268.659 14.3523 269 14.2822 269.291 14.142C269.583 13.9981 269.81 13.8011 269.973 13.5511C270.14 13.2973 270.223 13.0057 270.223 12.6761C270.223 12.339 270.138 12.0417 269.967 11.7841C269.797 11.5227 269.566 11.3182 269.274 11.1705C268.982 11.0189 268.647 10.9432 268.268 10.9432C267.893 10.9432 267.558 11.0189 267.263 11.1705C266.967 11.3182 266.734 11.5227 266.564 11.7841C266.397 12.0417 266.314 12.339 266.314 12.6761C266.314 13.0057 266.395 13.2973 266.558 13.5511C266.721 13.8011 266.95 13.9981 267.246 14.142C267.541 14.2822 267.882 14.3523 268.268 14.3523ZM268.268 9.15341C268.594 9.15341 268.884 9.08712 269.138 8.95455C269.392 8.82197 269.59 8.63826 269.734 8.40341C269.878 8.16856 269.95 7.89773 269.95 7.59091C269.95 7.28788 269.878 7.02273 269.734 6.79545C269.59 6.56439 269.393 6.38447 269.143 6.25568C268.893 6.12311 268.602 6.05682 268.268 6.05682C267.939 6.05682 267.647 6.12311 267.393 6.25568C267.14 6.38447 266.941 6.56439 266.797 6.79545C266.657 7.02273 266.587 7.28788 266.587 7.59091C266.587 7.89773 266.659 8.16856 266.803 8.40341C266.946 8.63826 267.145 8.82197 267.399 8.95455C267.653 9.08712 267.943 9.15341 268.268 9.15341ZM278.972 16.1591C278.373 16.1553 277.795 16.0549 277.239 15.858C276.686 15.661 276.189 15.3409 275.75 14.8977C275.311 14.4545 274.962 13.8674 274.705 13.1364C274.451 12.4053 274.324 11.5076 274.324 10.4432C274.328 9.46591 274.439 8.5928 274.659 7.82386C274.883 7.05114 275.201 6.39583 275.614 5.85795C276.03 5.32008 276.528 4.91098 277.108 4.63068C277.688 4.34659 278.337 4.20455 279.057 4.20455C279.833 4.20455 280.519 4.35606 281.114 4.65909C281.708 4.95833 282.186 5.36553 282.545 5.88068C282.909 6.39583 283.129 6.97348 283.205 7.61364H280.778C280.684 7.20833 280.485 6.89015 280.182 6.65909C279.879 6.42803 279.504 6.3125 279.057 6.3125C278.299 6.3125 277.723 6.64205 277.33 7.30114C276.939 7.96023 276.741 8.85606 276.733 9.98864H276.812C276.987 9.64394 277.222 9.35038 277.517 9.10795C277.816 8.86174 278.155 8.67424 278.534 8.54545C278.917 8.41288 279.32 8.34659 279.744 8.34659C280.434 8.34659 281.047 8.50947 281.585 8.83523C282.123 9.1572 282.547 9.60038 282.858 10.1648C283.169 10.7292 283.324 11.375 283.324 12.1023C283.324 12.8902 283.14 13.5909 282.773 14.2045C282.409 14.8182 281.9 15.2992 281.244 15.6477C280.593 15.9924 279.835 16.1629 278.972 16.1591ZM278.96 14.2273C279.339 14.2273 279.678 14.1364 279.977 13.9545C280.277 13.7727 280.511 13.5265 280.682 13.2159C280.852 12.9053 280.938 12.5568 280.938 12.1705C280.938 11.7841 280.852 11.4375 280.682 11.1307C280.515 10.8239 280.284 10.5795 279.989 10.3977C279.693 10.2159 279.356 10.125 278.977 10.125C278.693 10.125 278.43 10.178 278.188 10.2841C277.949 10.3902 277.739 10.5379 277.557 10.7273C277.379 10.9167 277.239 11.1364 277.136 11.3864C277.034 11.6326 276.983 11.8958 276.983 12.1761C276.983 12.5511 277.068 12.8939 277.239 13.2045C277.413 13.5152 277.648 13.7633 277.943 13.9489C278.242 14.1345 278.581 14.2273 278.96 14.2273ZM290.131 4.36364V16H287.67V6.69886H287.602L284.938 8.36932V6.1875L287.818 4.36364H290.131ZM297.459 16.2557C296.482 16.2519 295.641 16.0114 294.936 15.5341C294.235 15.0568 293.696 14.3655 293.317 13.4602C292.942 12.5549 292.756 11.4659 292.76 10.1932C292.76 8.92424 292.947 7.8428 293.322 6.94886C293.701 6.05492 294.241 5.375 294.942 4.90909C295.646 4.43939 296.485 4.20455 297.459 4.20455C298.432 4.20455 299.269 4.43939 299.97 4.90909C300.675 5.37879 301.216 6.06061 301.595 6.95455C301.974 7.8447 302.161 8.92424 302.158 10.1932C302.158 11.4697 301.968 12.5606 301.589 13.4659C301.214 14.3712 300.677 15.0625 299.976 15.5398C299.275 16.017 298.436 16.2557 297.459 16.2557ZM297.459 14.2159C298.125 14.2159 298.658 13.8807 299.055 13.2102C299.453 12.5398 299.65 11.5341 299.646 10.1932C299.646 9.31061 299.555 8.57576 299.374 7.98864C299.196 7.40151 298.942 6.96023 298.612 6.66477C298.286 6.36932 297.902 6.22159 297.459 6.22159C296.796 6.22159 296.266 6.55303 295.868 7.21591C295.47 7.87879 295.269 8.87121 295.266 10.1932C295.266 11.0871 295.355 11.8333 295.533 12.4318C295.714 13.0265 295.97 13.4735 296.3 13.7727C296.629 14.0682 297.016 14.2159 297.459 14.2159ZM303.736 13.9545V12.017L308.594 4.36364H310.264V7.04545H309.276L306.213 11.892V11.983H313.116V13.9545H303.736ZM309.321 16V13.3636L309.366 12.5057V4.36364H311.673V16H309.321Z" fill="#00A6CD"/>
</svg>
