<svg width="360" height="133" viewBox="0 0 360 133" fill="none" xmlns="http://www.w3.org/2000/svg">
<rect x="3" y="83" width="342" height="50" fill="#FFDE59"/>
<path d="M35.304 119V95.7273H40.2244V114.943H50.2017V119H35.304ZM58.3807 95.7273V119H53.4602V95.7273H58.3807ZM77.8608 103.25C77.7017 102.697 77.4782 102.208 77.1903 101.784C76.9025 101.352 76.5502 100.989 76.1335 100.693C75.7244 100.39 75.2547 100.159 74.7244 100C74.2017 99.8409 73.6222 99.7614 72.9858 99.7614C71.7964 99.7614 70.7509 100.057 69.8494 100.648C68.9555 101.239 68.2585 102.098 67.7585 103.227C67.2585 104.348 67.0085 105.72 67.0085 107.341C67.0085 108.962 67.2547 110.341 67.7472 111.477C68.2396 112.614 68.9366 113.481 69.8381 114.08C70.7396 114.67 71.804 114.966 73.0312 114.966C74.1449 114.966 75.0956 114.769 75.8835 114.375C76.679 113.973 77.285 113.409 77.7017 112.682C78.1259 111.955 78.3381 111.095 78.3381 110.102L79.3381 110.25H73.3381V106.545H83.0767V109.477C83.0767 111.523 82.6449 113.28 81.7812 114.75C80.9176 116.212 79.7282 117.341 78.2131 118.136C76.6979 118.924 74.9631 119.318 73.0085 119.318C70.8267 119.318 68.91 118.837 67.2585 117.875C65.607 116.905 64.3191 115.53 63.3949 113.75C62.4782 111.962 62.0199 109.841 62.0199 107.386C62.0199 105.5 62.2926 103.818 62.8381 102.341C63.3911 100.856 64.1638 99.5985 65.1562 98.5682C66.1487 97.5379 67.304 96.7538 68.6222 96.2159C69.9403 95.678 71.3684 95.4091 72.9062 95.4091C74.2244 95.4091 75.4517 95.6023 76.5881 95.9886C77.7244 96.3674 78.732 96.9053 79.6108 97.6023C80.4972 98.2992 81.2206 99.1288 81.7812 100.091C82.3419 101.045 82.7017 102.098 82.8608 103.25H77.8608ZM86.7727 119V95.7273H91.6932V105.33H101.682V95.7273H106.591V119H101.682V109.386H91.6932V119H86.7727ZM109.761 99.7841V95.7273H128.875V99.7841H121.75V119H116.886V99.7841H109.761ZM144.668 119L138.009 95.7273H143.384L147.236 111.898H147.429L151.679 95.7273H156.281L160.52 111.932H160.724L164.577 95.7273H169.952L163.293 119H158.497L154.065 103.784H153.884L149.463 119H144.668ZM192.659 107.364C192.659 109.902 192.178 112.061 191.216 113.841C190.261 115.621 188.958 116.981 187.307 117.92C185.663 118.852 183.814 119.318 181.761 119.318C179.693 119.318 177.837 118.848 176.193 117.909C174.549 116.97 173.25 115.61 172.295 113.83C171.341 112.049 170.864 109.894 170.864 107.364C170.864 104.826 171.341 102.667 172.295 100.886C173.25 99.1061 174.549 97.75 176.193 96.8182C177.837 95.8788 179.693 95.4091 181.761 95.4091C183.814 95.4091 185.663 95.8788 187.307 96.8182C188.958 97.75 190.261 99.1061 191.216 100.886C192.178 102.667 192.659 104.826 192.659 107.364ZM187.67 107.364C187.67 105.72 187.424 104.333 186.932 103.205C186.447 102.076 185.761 101.22 184.875 100.636C183.989 100.053 182.951 99.7614 181.761 99.7614C180.572 99.7614 179.534 100.053 178.648 100.636C177.761 101.22 177.072 102.076 176.58 103.205C176.095 104.333 175.852 105.72 175.852 107.364C175.852 109.008 176.095 110.394 176.58 111.523C177.072 112.652 177.761 113.508 178.648 114.091C179.534 114.674 180.572 114.966 181.761 114.966C182.951 114.966 183.989 114.674 184.875 114.091C185.761 113.508 186.447 112.652 186.932 111.523C187.424 110.394 187.67 109.008 187.67 107.364ZM196.304 119V95.7273H205.486C207.243 95.7273 208.743 96.0417 209.986 96.6705C211.236 97.2917 212.187 98.1742 212.838 99.3182C213.497 100.455 213.827 101.792 213.827 103.33C213.827 104.875 213.493 106.205 212.827 107.318C212.16 108.424 211.194 109.273 209.929 109.864C208.671 110.455 207.149 110.75 205.361 110.75H199.213V106.795H204.565C205.505 106.795 206.285 106.667 206.906 106.409C207.527 106.152 207.99 105.765 208.293 105.25C208.603 104.735 208.759 104.095 208.759 103.33C208.759 102.557 208.603 101.905 208.293 101.375C207.99 100.845 207.524 100.443 206.895 100.17C206.274 99.8902 205.49 99.75 204.543 99.75H201.224V119H196.304ZM208.872 108.409L214.656 119H209.224L203.565 108.409H208.872ZM217.304 119V95.7273H222.224V105.989H222.531L230.906 95.7273H236.804L228.168 106.148L236.906 119H231.02L224.645 109.432L222.224 112.386V119H217.304ZM246.773 119V95.7273H251.693V114.943H261.67V119H246.773ZM261.136 99.7841V95.7273H280.25V99.7841H273.125V119H268.261V99.7841H261.136ZM291.648 119H283.398V95.7273H291.716C294.057 95.7273 296.072 96.1932 297.761 97.125C299.451 98.0492 300.75 99.3788 301.659 101.114C302.576 102.848 303.034 104.924 303.034 107.341C303.034 109.765 302.576 111.848 301.659 113.591C300.75 115.333 299.443 116.67 297.739 117.602C296.042 118.534 294.011 119 291.648 119ZM288.318 114.784H291.443C292.898 114.784 294.121 114.527 295.114 114.011C296.114 113.489 296.864 112.682 297.364 111.591C297.871 110.492 298.125 109.076 298.125 107.341C298.125 105.621 297.871 104.216 297.364 103.125C296.864 102.034 296.117 101.231 295.125 100.716C294.133 100.201 292.909 99.9432 291.455 99.9432H288.318V114.784ZM307.949 119.295C307.199 119.295 306.555 119.03 306.017 118.5C305.487 117.962 305.222 117.318 305.222 116.568C305.222 115.826 305.487 115.189 306.017 114.659C306.555 114.129 307.199 113.864 307.949 113.864C308.676 113.864 309.313 114.129 309.858 114.659C310.403 115.189 310.676 115.826 310.676 116.568C310.676 117.068 310.547 117.527 310.29 117.943C310.04 118.352 309.71 118.682 309.301 118.932C308.892 119.174 308.441 119.295 307.949 119.295Z" fill="black"/>
<path d="M4.04545 26.4545H16.1818L29 57.7273H29.5455L42.3636 26.4545H54.5V73H44.9545V42.7045H44.5682L32.5227 72.7727H26.0227L13.9773 42.5909H13.5909V73H4.04545V26.4545ZM62.608 73V26.4545H93.9716V34.5682H72.4489V45.6591H92.358V53.7727H72.4489V64.8864H94.0625V73H62.608ZM132.659 41.5C132.341 40.3939 131.894 39.4167 131.318 38.5682C130.742 37.7045 130.038 36.9773 129.205 36.3864C128.386 35.7803 127.447 35.3182 126.386 35C125.341 34.6818 124.182 34.5227 122.909 34.5227C120.53 34.5227 118.439 35.1136 116.636 36.2955C114.848 37.4773 113.455 39.197 112.455 41.4545C111.455 43.697 110.955 46.4394 110.955 49.6818C110.955 52.9242 111.447 55.6818 112.432 57.9545C113.417 60.2273 114.811 61.9621 116.614 63.1591C118.417 64.3409 120.545 64.9318 123 64.9318C125.227 64.9318 127.129 64.5379 128.705 63.75C130.295 62.947 131.508 61.8182 132.341 60.3636C133.189 58.9091 133.614 57.1894 133.614 55.2045L135.614 55.5H123.614V48.0909H143.091V53.9545C143.091 58.0455 142.227 61.5606 140.5 64.5C138.773 67.4242 136.394 69.6818 133.364 71.2727C130.333 72.8485 126.864 73.6364 122.955 73.6364C118.591 73.6364 114.758 72.6742 111.455 70.75C108.152 68.8106 105.576 66.0606 103.727 62.5C101.894 58.9242 100.977 54.6818 100.977 49.7727C100.977 46 101.523 42.6364 102.614 39.6818C103.72 36.7121 105.265 34.197 107.25 32.1364C109.235 30.0758 111.545 28.5076 114.182 27.4318C116.818 26.3561 119.674 25.8182 122.75 25.8182C125.386 25.8182 127.841 26.2045 130.114 26.9773C132.386 27.7348 134.402 28.8106 136.159 30.2045C137.932 31.5985 139.379 33.2576 140.5 35.1818C141.621 37.0909 142.341 39.197 142.659 41.5H132.659ZM157.068 73H146.523L162.591 26.4545H175.273L191.318 73H180.773L169.114 37.0909H168.75L157.068 73ZM156.409 54.7045H181.318V62.3864H156.409V54.7045Z" fill="#1E1E1E"/>
<path d="M197.045 26.4545H209.182L222 57.7273H222.545L235.364 26.4545H247.5V73H237.955V42.7045H237.568L225.523 72.7727H219.023L206.977 42.5909H206.591V73H197.045V26.4545ZM263.631 73H253.085L269.153 26.4545H281.835L297.881 73H287.335L275.676 37.0909H275.312L263.631 73ZM262.972 54.7045H287.881V62.3864H262.972V54.7045ZM312.71 26.4545L322.097 42.3182H322.46L331.892 26.4545H343.006L328.801 49.7273L343.324 73H332.006L322.46 57.1136H322.097L312.551 73H301.278L315.847 49.7273L301.551 26.4545H312.71Z" fill="#DF0D86"/>
<path fill-rule="evenodd" clip-rule="evenodd" d="M348.377 0L318.552 48.2105L326.76 53.2877L359.725 0H348.377Z" fill="#DF0D86"/>
<path d="M223.125 22V11.8182H227.142C227.911 11.8182 228.567 11.9557 229.111 12.2308C229.658 12.5026 230.074 12.8887 230.359 13.3892C230.647 13.8864 230.791 14.4714 230.791 15.1442C230.791 15.8203 230.646 16.402 230.354 16.8892C230.062 17.3731 229.64 17.7443 229.086 18.0028C228.536 18.2614 227.87 18.3906 227.088 18.3906H224.398V16.6605H226.74C227.151 16.6605 227.492 16.6042 227.764 16.4915C228.035 16.3788 228.238 16.2098 228.37 15.9844C228.506 15.759 228.574 15.4789 228.574 15.1442C228.574 14.8061 228.506 14.5211 228.37 14.2891C228.238 14.0571 228.034 13.8814 227.759 13.7621C227.487 13.6394 227.144 13.5781 226.73 13.5781H225.278V22H223.125ZM228.624 17.3665L231.154 22H228.778L226.302 17.3665H228.624ZM241.296 15.3828H239.119C239.079 15.1011 238.998 14.8509 238.875 14.6321C238.753 14.41 238.595 14.2211 238.403 14.0653C238.211 13.9096 237.989 13.7902 237.737 13.7074C237.488 13.6245 237.218 13.5831 236.926 13.5831C236.399 13.5831 235.94 13.714 235.549 13.9759C235.158 14.2344 234.855 14.6122 234.639 15.1094C234.424 15.6032 234.316 16.2031 234.316 16.9091C234.316 17.6349 234.424 18.2448 234.639 18.7386C234.858 19.2325 235.163 19.6054 235.554 19.8572C235.945 20.1091 236.398 20.2351 236.911 20.2351C237.2 20.2351 237.467 20.197 237.712 20.1207C237.96 20.0445 238.181 19.9335 238.373 19.7876C238.565 19.6385 238.724 19.4579 238.85 19.2457C238.98 19.0336 239.069 18.7917 239.119 18.5199L241.296 18.5298C241.24 18.9972 241.099 19.4479 240.874 19.8821C240.652 20.313 240.352 20.6991 239.974 21.0405C239.599 21.3786 239.152 21.647 238.632 21.8459C238.115 22.0414 237.53 22.1392 236.877 22.1392C235.968 22.1392 235.156 21.9337 234.441 21.5227C233.728 21.1117 233.164 20.5168 232.75 19.7379C232.339 18.959 232.134 18.0161 232.134 16.9091C232.134 15.7988 232.343 14.8542 232.76 14.0753C233.178 13.2964 233.744 12.7031 234.46 12.2955C235.176 11.8845 235.982 11.679 236.877 11.679C237.467 11.679 238.013 11.7618 238.517 11.9276C239.024 12.0933 239.473 12.3352 239.865 12.6534C240.256 12.9683 240.574 13.3544 240.819 13.8118C241.068 14.2692 241.227 14.7929 241.296 15.3828ZM244.038 20.8168C243.71 20.8168 243.428 20.7008 243.193 20.4688C242.961 20.2367 242.845 19.955 242.845 19.6236C242.845 19.2988 242.961 19.0204 243.193 18.7884C243.428 18.5563 243.71 18.4403 244.038 18.4403C244.356 18.4403 244.635 18.5563 244.873 18.7884C245.112 19.0204 245.231 19.2988 245.231 19.6236C245.231 19.8423 245.175 20.0429 245.062 20.2251C244.953 20.4041 244.809 20.5483 244.63 20.6577C244.451 20.7637 244.254 20.8168 244.038 20.8168ZM244.038 15.8203C243.71 15.8203 243.428 15.7043 243.193 15.4723C242.961 15.2403 242.845 14.9586 242.845 14.6271C242.845 14.3023 242.961 14.0256 243.193 13.7969C243.428 13.5649 243.71 13.4489 244.038 13.4489C244.356 13.4489 244.635 13.5649 244.873 13.7969C245.112 14.0256 245.231 14.3023 245.231 14.6271C245.231 14.8492 245.175 15.0514 245.062 15.2337C244.953 15.4126 244.809 15.5552 244.63 15.6612C244.451 15.7673 244.254 15.8203 244.038 15.8203ZM250.593 22L254.814 13.6477V13.5781H249.897V11.8182H257.041V13.603L252.816 22H250.593ZM262.29 22.2237C261.435 22.2204 260.699 22.0099 260.083 21.5923C259.47 21.1747 258.997 20.5698 258.666 19.7777C258.338 18.9856 258.175 18.0327 258.179 16.919C258.179 15.8087 258.343 14.8625 258.671 14.0803C259.002 13.2981 259.475 12.7031 260.088 12.2955C260.704 11.8845 261.438 11.679 262.29 11.679C263.142 11.679 263.874 11.8845 264.488 12.2955C265.104 12.7064 265.578 13.303 265.909 14.0852C266.241 14.8641 266.405 15.8087 266.402 16.919C266.402 18.036 266.236 18.9905 265.904 19.7827C265.576 20.5748 265.106 21.1797 264.493 21.5973C263.879 22.0149 263.145 22.2237 262.29 22.2237ZM262.29 20.4389C262.873 20.4389 263.339 20.1456 263.687 19.5589C264.035 18.9723 264.208 18.0923 264.204 16.919C264.204 16.1468 264.125 15.5038 263.966 14.9901C263.81 14.4763 263.588 14.0902 263.299 13.8317C263.014 13.5732 262.678 13.4439 262.29 13.4439C261.71 13.4439 261.246 13.7339 260.898 14.3139C260.55 14.8939 260.374 15.7623 260.371 16.919C260.371 17.7012 260.449 18.3542 260.605 18.8778C260.764 19.3982 260.988 19.7893 261.276 20.0511C261.564 20.3097 261.902 20.4389 262.29 20.4389ZM271.735 22.1392C270.969 22.1392 270.288 22.0149 269.692 21.7663C269.098 21.5144 268.633 21.1714 268.295 20.7372C267.956 20.303 267.787 19.8108 267.787 19.2607C267.787 18.8364 267.884 18.447 268.076 18.0923C268.271 17.7344 268.537 17.4377 268.871 17.2024C269.206 16.9638 269.581 16.8113 269.995 16.745V16.6754C269.451 16.5661 269.01 16.3026 268.672 15.8849C268.334 15.464 268.165 14.9751 268.165 14.4183C268.165 13.8913 268.319 13.4223 268.628 13.0114C268.936 12.5971 269.358 12.2723 269.895 12.0369C270.436 11.7983 271.049 11.679 271.735 11.679C272.421 11.679 273.032 11.7983 273.569 12.0369C274.11 12.2756 274.534 12.602 274.842 13.0163C275.15 13.4273 275.306 13.8946 275.309 14.4183C275.306 14.9785 275.134 15.4673 274.792 15.8849C274.451 16.3026 274.014 16.5661 273.48 16.6754V16.745C273.888 16.8113 274.257 16.9638 274.589 17.2024C274.923 17.4377 275.189 17.7344 275.384 18.0923C275.583 18.447 275.684 18.8364 275.687 19.2607C275.684 19.8108 275.513 20.303 275.175 20.7372C274.837 21.1714 274.37 21.5144 273.773 21.7663C273.18 22.0149 272.501 22.1392 271.735 22.1392ZM271.735 20.5582C272.076 20.5582 272.375 20.4969 272.63 20.3743C272.885 20.2483 273.084 20.076 273.226 19.8572C273.372 19.6352 273.445 19.38 273.445 19.0916C273.445 18.7966 273.371 18.5365 273.221 18.3111C273.072 18.0824 272.87 17.9034 272.615 17.7741C272.36 17.6416 272.066 17.5753 271.735 17.5753C271.407 17.5753 271.113 17.6416 270.855 17.7741C270.596 17.9034 270.393 18.0824 270.243 18.3111C270.098 18.5365 270.025 18.7966 270.025 19.0916C270.025 19.38 270.096 19.6352 270.238 19.8572C270.381 20.076 270.581 20.2483 270.84 20.3743C271.099 20.4969 271.397 20.5582 271.735 20.5582ZM271.735 16.0092C272.02 16.0092 272.273 15.9512 272.496 15.8352C272.718 15.7192 272.892 15.5585 273.018 15.353C273.144 15.1475 273.206 14.9105 273.206 14.642C273.206 14.3769 273.144 14.1449 273.018 13.946C272.892 13.7438 272.719 13.5864 272.501 13.4737C272.282 13.3577 272.027 13.2997 271.735 13.2997C271.447 13.2997 271.191 13.3577 270.969 13.4737C270.747 13.5864 270.573 13.7438 270.447 13.946C270.325 14.1449 270.263 14.3769 270.263 14.642C270.263 14.9105 270.326 15.1475 270.452 15.353C270.578 15.5585 270.752 15.7192 270.974 15.8352C271.196 15.9512 271.45 16.0092 271.735 16.0092ZM281.1 22.1392C280.576 22.1359 280.071 22.0481 279.584 21.8757C279.1 21.7034 278.666 21.4233 278.281 21.0355C277.897 20.6477 277.592 20.134 277.366 19.4943C277.144 18.8546 277.033 18.0691 277.033 17.1378C277.037 16.2827 277.134 15.5187 277.327 14.8459C277.522 14.1697 277.801 13.5964 278.162 13.1257C278.527 12.6551 278.962 12.2971 279.469 12.0518C279.977 11.8033 280.545 11.679 281.175 11.679C281.854 11.679 282.454 11.8116 282.974 12.0767C283.495 12.3385 283.912 12.6948 284.227 13.1456C284.545 13.5964 284.738 14.1018 284.804 14.6619H282.681C282.598 14.3073 282.424 14.0289 282.159 13.8267C281.894 13.6245 281.566 13.5234 281.175 13.5234C280.512 13.5234 280.008 13.8118 279.663 14.3885C279.322 14.9652 279.148 15.7491 279.141 16.7401H279.211C279.363 16.4384 279.569 16.1816 279.827 15.9695C280.089 15.754 280.386 15.59 280.717 15.4773C281.052 15.3613 281.405 15.3033 281.776 15.3033C282.379 15.3033 282.916 15.4458 283.387 15.7308C283.858 16.0125 284.229 16.4003 284.501 16.8942C284.772 17.388 284.908 17.9531 284.908 18.5895C284.908 19.2789 284.748 19.892 284.426 20.429C284.108 20.9659 283.662 21.3868 283.089 21.6918C282.519 21.9934 281.856 22.1425 281.1 22.1392ZM281.09 20.4489C281.422 20.4489 281.718 20.3693 281.98 20.2102C282.242 20.0511 282.447 19.8357 282.597 19.5639C282.746 19.2921 282.82 18.9872 282.82 18.6491C282.82 18.3111 282.746 18.0078 282.597 17.7393C282.451 17.4709 282.249 17.2571 281.99 17.098C281.732 16.9389 281.437 16.8594 281.105 16.8594C280.857 16.8594 280.626 16.9058 280.414 16.9986C280.205 17.0914 280.021 17.2206 279.862 17.3864C279.706 17.5521 279.584 17.7443 279.494 17.9631C279.405 18.1785 279.36 18.4089 279.36 18.6541C279.36 18.9822 279.435 19.2822 279.584 19.554C279.736 19.8258 279.942 20.0429 280.2 20.2053C280.462 20.3677 280.759 20.4489 281.09 20.4489ZM290.864 11.8182V22H288.712V13.8615H288.652L286.32 15.3232V13.4141L288.841 11.8182H290.864ZM297.276 22.2237C296.421 22.2204 295.686 22.0099 295.069 21.5923C294.456 21.1747 293.984 20.5698 293.652 19.7777C293.324 18.9856 293.162 18.0327 293.165 16.919C293.165 15.8087 293.329 14.8625 293.657 14.0803C293.989 13.2981 294.461 12.7031 295.074 12.2955C295.691 11.8845 296.425 11.679 297.276 11.679C298.128 11.679 298.861 11.8845 299.474 12.2955C300.09 12.7064 300.564 13.303 300.896 14.0852C301.227 14.8641 301.391 15.8087 301.388 16.919C301.388 18.036 301.222 18.9905 300.891 19.7827C300.563 20.5748 300.092 21.1797 299.479 21.5973C298.866 22.0149 298.132 22.2237 297.276 22.2237ZM297.276 20.4389C297.86 20.4389 298.325 20.1456 298.673 19.5589C299.021 18.9723 299.194 18.0923 299.191 16.919C299.191 16.1468 299.111 15.5038 298.952 14.9901C298.796 14.4763 298.574 14.0902 298.286 13.8317C298.001 13.5732 297.664 13.4439 297.276 13.4439C296.696 13.4439 296.232 13.7339 295.884 14.3139C295.536 14.8939 295.361 15.7623 295.357 16.919C295.357 17.7012 295.435 18.3542 295.591 18.8778C295.75 19.3982 295.974 19.7893 296.262 20.0511C296.551 20.3097 296.889 20.4389 297.276 20.4389ZM302.769 20.2102V18.5149L307.02 11.8182H308.481V14.1648H307.616L304.936 18.4055V18.4851H310.977V20.2102H302.769ZM307.656 22V19.6932L307.696 18.9425V11.8182H309.714V22H307.656Z" fill="black"/>
</svg>
