<svg width="360" height="128" viewBox="0 0 360 128" fill="none" xmlns="http://www.w3.org/2000/svg">
<rect x="3" y="78.0075" width="342" height="46.9925" fill="#FCCA09"/>
<path d="M41.304 113.707V90.434H46.2244V109.65H56.2017V113.707H41.304ZM64.3807 90.434V113.707H59.4602V90.434H64.3807ZM83.8608 97.9568C83.7017 97.4037 83.4782 96.9151 83.1903 96.4908C82.9025 96.059 82.5502 95.6954 82.1335 95.3999C81.7244 95.0969 81.2547 94.8658 80.7244 94.7068C80.2017 94.5477 79.6222 94.4681 78.9858 94.4681C77.7964 94.4681 76.7509 94.7636 75.8494 95.3545C74.9555 95.9454 74.2585 96.8052 73.7585 97.934C73.2585 99.0552 73.0085 100.426 73.0085 102.048C73.0085 103.669 73.2547 105.048 73.7472 106.184C74.2396 107.32 74.9366 108.188 75.8381 108.786C76.7396 109.377 77.804 109.673 79.0312 109.673C80.1449 109.673 81.0956 109.476 81.8835 109.082C82.679 108.68 83.285 108.116 83.7017 107.389C84.1259 106.661 84.3381 105.801 84.3381 104.809L85.3381 104.957H79.3381V101.252H89.0767V104.184C89.0767 106.229 88.6449 107.987 87.7812 109.457C86.9176 110.919 85.7282 112.048 84.2131 112.843C82.6979 113.631 80.9631 114.025 79.0085 114.025C76.8267 114.025 74.91 113.544 73.2585 112.582C71.607 111.612 70.3191 110.237 69.3949 108.457C68.4782 106.669 68.0199 104.548 68.0199 102.093C68.0199 100.207 68.2926 98.5249 68.8381 97.0477C69.3911 95.5628 70.1638 94.3052 71.1562 93.2749C72.1487 92.2446 73.304 91.4605 74.6222 90.9227C75.9403 90.3848 77.3684 90.1158 78.9062 90.1158C80.2244 90.1158 81.4517 90.309 82.5881 90.6954C83.7244 91.0742 84.732 91.6121 85.6108 92.309C86.4972 93.006 87.2206 93.8355 87.7812 94.7977C88.3419 95.7522 88.7017 96.8052 88.8608 97.9568H83.8608ZM92.7727 113.707V90.434H97.6932V100.036H107.682V90.434H112.591V113.707H107.682V104.093H97.6932V113.707H92.7727ZM115.761 94.4908V90.434H134.875V94.4908H127.75V113.707H122.886V94.4908H115.761ZM150.668 113.707L144.009 90.434H149.384L153.236 106.604H153.429L157.679 90.434H162.281L166.52 106.639H166.724L170.577 90.434H175.952L169.293 113.707H164.497L160.065 98.4908H159.884L155.463 113.707H150.668ZM198.659 102.07C198.659 104.608 198.178 106.767 197.216 108.548C196.261 110.328 194.958 111.688 193.307 112.627C191.663 113.559 189.814 114.025 187.761 114.025C185.693 114.025 183.837 113.555 182.193 112.616C180.549 111.676 179.25 110.317 178.295 108.536C177.341 106.756 176.864 104.601 176.864 102.07C176.864 99.5325 177.341 97.3734 178.295 95.5931C179.25 93.8128 180.549 92.4568 182.193 91.5249C183.837 90.5855 185.693 90.1158 187.761 90.1158C189.814 90.1158 191.663 90.5855 193.307 91.5249C194.958 92.4568 196.261 93.8128 197.216 95.5931C198.178 97.3734 198.659 99.5325 198.659 102.07ZM193.67 102.07C193.67 100.426 193.424 99.0401 192.932 97.9113C192.447 96.7825 191.761 95.9265 190.875 95.3431C189.989 94.7598 188.951 94.4681 187.761 94.4681C186.572 94.4681 185.534 94.7598 184.648 95.3431C183.761 95.9265 183.072 96.7825 182.58 97.9113C182.095 99.0401 181.852 100.426 181.852 102.07C181.852 103.714 182.095 105.101 182.58 106.229C183.072 107.358 183.761 108.214 184.648 108.798C185.534 109.381 186.572 109.673 187.761 109.673C188.951 109.673 189.989 109.381 190.875 108.798C191.761 108.214 192.447 107.358 192.932 106.229C193.424 105.101 193.67 103.714 193.67 102.07ZM202.304 113.707V90.434H211.486C213.243 90.434 214.743 90.7484 215.986 91.3772C217.236 91.9984 218.187 92.881 218.838 94.0249C219.497 95.1613 219.827 96.4984 219.827 98.0363C219.827 99.5818 219.493 100.911 218.827 102.025C218.16 103.131 217.194 103.979 215.929 104.57C214.671 105.161 213.149 105.457 211.361 105.457H205.213V101.502H210.565C211.505 101.502 212.285 101.373 212.906 101.116C213.527 100.858 213.99 100.472 214.293 99.9568C214.603 99.4416 214.759 98.8015 214.759 98.0363C214.759 97.2636 214.603 96.6121 214.293 96.0818C213.99 95.5515 213.524 95.1499 212.895 94.8772C212.274 94.5969 211.49 94.4568 210.543 94.4568H207.224V113.707H202.304ZM214.872 103.116L220.656 113.707H215.224L209.565 103.116H214.872ZM223.304 113.707V90.434H228.224V100.695H228.531L236.906 90.434H242.804L234.168 100.854L242.906 113.707H237.02L230.645 104.139L228.224 107.093V113.707H223.304ZM252.773 113.707V90.434H257.693V109.65H267.67V113.707H252.773ZM267.136 94.4908V90.434H286.25V94.4908H279.125V113.707H274.261V94.4908H267.136ZM297.648 113.707H289.398V90.434H297.716C300.057 90.434 302.072 90.8999 303.761 91.8318C305.451 92.756 306.75 94.0855 307.659 95.8204C308.576 97.5552 309.034 99.631 309.034 102.048C309.034 104.472 308.576 106.555 307.659 108.298C306.75 110.04 305.443 111.377 303.739 112.309C302.042 113.241 300.011 113.707 297.648 113.707ZM294.318 109.491H297.443C298.898 109.491 300.121 109.233 301.114 108.718C302.114 108.195 302.864 107.389 303.364 106.298C303.871 105.199 304.125 103.783 304.125 102.048C304.125 100.328 303.871 98.9227 303.364 97.8318C302.864 96.7408 302.117 95.9378 301.125 95.4227C300.133 94.9075 298.909 94.6499 297.455 94.6499H294.318V109.491ZM313.949 114.002C313.199 114.002 312.555 113.737 312.017 113.207C311.487 112.669 311.222 112.025 311.222 111.275C311.222 110.533 311.487 109.896 312.017 109.366C312.555 108.836 313.199 108.57 313.949 108.57C314.676 108.57 315.313 108.836 315.858 109.366C316.403 109.896 316.676 110.533 316.676 111.275C316.676 111.775 316.547 112.233 316.29 112.65C316.04 113.059 315.71 113.389 315.301 113.639C314.892 113.881 314.441 114.002 313.949 114.002Z" fill="black"/>
<path d="M4.04545 25.7929H16.1818L29 57.0656H29.5455L42.3636 25.7929H54.5V72.3383H44.9545V42.0429H44.5682L32.5227 72.1111H26.0227L13.9773 41.9293H13.5909V72.3383H4.04545V25.7929ZM62.608 72.3383V25.7929H93.9716V33.9065H72.4489V44.9974H92.358V53.1111H72.4489V64.2247H94.0625V72.3383H62.608ZM132.659 40.8383C132.341 39.7323 131.894 38.755 131.318 37.9065C130.742 37.0429 130.038 36.3156 129.205 35.7247C128.386 35.1187 127.447 34.6565 126.386 34.3383C125.341 34.0202 124.182 33.8611 122.909 33.8611C120.53 33.8611 118.439 34.452 116.636 35.6338C114.848 36.8156 113.455 38.5353 112.455 40.7929C111.455 43.0353 110.955 45.7777 110.955 49.0202C110.955 52.2626 111.447 55.0202 112.432 57.2929C113.417 59.5656 114.811 61.3005 116.614 62.4974C118.417 63.6793 120.545 64.2702 123 64.2702C125.227 64.2702 127.129 63.8762 128.705 63.0883C130.295 62.2853 131.508 61.1565 132.341 59.702C133.189 58.2474 133.614 56.5277 133.614 54.5429L135.614 54.8383H123.614V47.4293H143.091V53.2929C143.091 57.3838 142.227 60.899 140.5 63.8383C138.773 66.7626 136.394 69.0202 133.364 70.6111C130.333 72.1868 126.864 72.9747 122.955 72.9747C118.591 72.9747 114.758 72.0126 111.455 70.0883C108.152 68.149 105.576 65.399 103.727 61.8383C101.894 58.2626 100.977 54.0202 100.977 49.1111C100.977 45.3383 101.523 41.9747 102.614 39.0202C103.72 36.0505 105.265 33.5353 107.25 31.4747C109.235 29.4141 111.545 27.8459 114.182 26.7702C116.818 25.6944 119.674 25.1565 122.75 25.1565C125.386 25.1565 127.841 25.5429 130.114 26.3156C132.386 27.0732 134.402 28.149 136.159 29.5429C137.932 30.9368 139.379 32.5959 140.5 34.5202C141.621 36.4293 142.341 38.5353 142.659 40.8383H132.659ZM157.068 72.3383H146.523L162.591 25.7929H175.273L191.318 72.3383H180.773L169.114 36.4293H168.75L157.068 72.3383ZM156.409 54.0429H181.318V61.7247H156.409V54.0429Z" fill="white"/>
<path d="M197.045 25.7929H209.182L222 57.0656H222.545L235.364 25.7929H247.5V72.3383H237.955V42.0429H237.568L225.523 72.1111H219.023L206.977 41.9293H206.591V72.3383H197.045V25.7929ZM263.631 72.3383H253.085L269.153 25.7929H281.835L297.881 72.3383H287.335L275.676 36.4293H275.312L263.631 72.3383ZM262.972 54.0429H287.881V61.7247H262.972V54.0429ZM312.71 25.7929L322.097 41.6565H322.46L331.892 25.7929H343.006L328.801 49.0656L343.324 72.3383H332.006L322.46 56.452H322.097L312.551 72.3383H301.278L315.847 49.0656L301.551 25.7929H312.71Z" fill="#DF0D86"/>
<path fill-rule="evenodd" clip-rule="evenodd" d="M348.377 0L318.552 45.3106L326.76 50.0825L359.725 0H348.377Z" fill="#DF0D86"/>
<path d="M215.714 15V3.36364H220.305C221.184 3.36364 221.934 3.52083 222.555 3.83523C223.18 4.14583 223.656 4.58712 223.982 5.15909C224.311 5.72727 224.476 6.39583 224.476 7.16477C224.476 7.9375 224.309 8.60227 223.976 9.15909C223.643 9.71212 223.16 10.1364 222.527 10.4318C221.898 10.7273 221.137 10.875 220.243 10.875H217.169V8.89773H219.845C220.315 8.89773 220.705 8.83333 221.016 8.70455C221.326 8.57576 221.557 8.38258 221.709 8.125C221.864 7.86742 221.942 7.54735 221.942 7.16477C221.942 6.77841 221.864 6.45265 221.709 6.1875C221.557 5.92235 221.324 5.72159 221.01 5.58523C220.699 5.44508 220.307 5.375 219.834 5.375H218.175V15H215.714ZM221.999 9.70455L224.891 15H222.175L219.345 9.70455H221.999ZM236.482 7.4375H233.993C233.947 7.11553 233.855 6.82955 233.714 6.57955C233.574 6.32576 233.394 6.10985 233.175 5.93182C232.955 5.75379 232.701 5.61742 232.413 5.52273C232.129 5.42803 231.821 5.38068 231.487 5.38068C230.885 5.38068 230.36 5.5303 229.913 5.82955C229.466 6.125 229.12 6.55682 228.874 7.125C228.627 7.68939 228.504 8.375 228.504 9.18182C228.504 10.0114 228.627 10.7083 228.874 11.2727C229.124 11.8371 229.472 12.2633 229.919 12.5511C230.366 12.839 230.883 12.983 231.47 12.983C231.8 12.983 232.105 12.9394 232.385 12.8523C232.669 12.7652 232.921 12.6383 233.141 12.4716C233.36 12.3011 233.542 12.0947 233.686 11.8523C233.834 11.6098 233.936 11.3333 233.993 11.0227L236.482 11.0341C236.417 11.5682 236.256 12.0833 235.999 12.5795C235.745 13.072 235.402 13.5133 234.97 13.9034C234.542 14.2898 234.031 14.5966 233.436 14.8239C232.845 15.0473 232.177 15.1591 231.43 15.1591C230.393 15.1591 229.464 14.9242 228.646 14.4545C227.832 13.9848 227.188 13.3049 226.714 12.4148C226.245 11.5246 226.01 10.447 226.01 9.18182C226.01 7.91288 226.249 6.83333 226.726 5.94318C227.203 5.05303 227.851 4.375 228.669 3.90909C229.487 3.43939 230.408 3.20455 231.43 3.20455C232.105 3.20455 232.73 3.29924 233.305 3.48864C233.885 3.67803 234.398 3.95455 234.845 4.31818C235.292 4.67803 235.656 5.11932 235.936 5.64205C236.22 6.16477 236.402 6.76326 236.482 7.4375ZM239.615 13.6477C239.24 13.6477 238.918 13.5152 238.649 13.25C238.384 12.9848 238.251 12.6629 238.251 12.2841C238.251 11.9129 238.384 11.5947 238.649 11.3295C238.918 11.0644 239.24 10.9318 239.615 10.9318C239.979 10.9318 240.297 11.0644 240.57 11.3295C240.842 11.5947 240.979 11.9129 240.979 12.2841C240.979 12.5341 240.914 12.7633 240.786 12.9716C240.661 13.1761 240.496 13.3409 240.291 13.4659C240.087 13.5871 239.861 13.6477 239.615 13.6477ZM239.615 7.9375C239.24 7.9375 238.918 7.80492 238.649 7.53977C238.384 7.27462 238.251 6.95265 238.251 6.57386C238.251 6.20265 238.384 5.88636 238.649 5.625C238.918 5.35985 239.24 5.22727 239.615 5.22727C239.979 5.22727 240.297 5.35985 240.57 5.625C240.842 5.88636 240.979 6.20265 240.979 6.57386C240.979 6.82765 240.914 7.05871 240.786 7.26705C240.661 7.47159 240.496 7.63447 240.291 7.75568C240.087 7.87689 239.861 7.9375 239.615 7.9375ZM247.107 15L251.93 5.45455V5.375H246.311V3.36364H254.476V5.40341L249.646 15H247.107ZM260.474 15.2557C259.497 15.2519 258.656 15.0114 257.952 14.5341C257.251 14.0568 256.711 13.3655 256.332 12.4602C255.957 11.5549 255.772 10.4659 255.776 9.19318C255.776 7.92424 255.963 6.8428 256.338 5.94886C256.717 5.05492 257.257 4.375 257.957 3.90909C258.662 3.43939 259.501 3.20455 260.474 3.20455C261.448 3.20455 262.285 3.43939 262.986 3.90909C263.69 4.37879 264.232 5.06061 264.611 5.95455C264.99 6.8447 265.177 7.92424 265.173 9.19318C265.173 10.4697 264.984 11.5606 264.605 12.4659C264.23 13.3712 263.692 14.0625 262.991 14.5398C262.291 15.017 261.452 15.2557 260.474 15.2557ZM260.474 13.2159C261.141 13.2159 261.673 12.8807 262.071 12.2102C262.469 11.5398 262.666 10.5341 262.662 9.19318C262.662 8.31061 262.571 7.57576 262.389 6.98864C262.211 6.40151 261.957 5.96023 261.628 5.66477C261.302 5.36932 260.918 5.22159 260.474 5.22159C259.812 5.22159 259.281 5.55303 258.884 6.21591C258.486 6.87879 258.285 7.87121 258.281 9.19318C258.281 10.0871 258.37 10.8333 258.548 11.4318C258.73 12.0265 258.986 12.4735 259.315 12.7727C259.645 13.0682 260.031 13.2159 260.474 13.2159ZM271.268 15.1591C270.393 15.1591 269.615 15.017 268.933 14.733C268.255 14.4451 267.723 14.053 267.337 13.5568C266.95 13.0606 266.757 12.4981 266.757 11.8693C266.757 11.3845 266.867 10.9394 267.087 10.5341C267.31 10.125 267.613 9.78598 267.996 9.51705C268.378 9.24432 268.806 9.07008 269.28 8.99432V8.91477C268.659 8.78977 268.155 8.48864 267.768 8.01136C267.382 7.5303 267.189 6.97159 267.189 6.33523C267.189 5.73295 267.365 5.19697 267.717 4.72727C268.07 4.25379 268.553 3.88258 269.166 3.61364C269.784 3.34091 270.484 3.20455 271.268 3.20455C272.053 3.20455 272.751 3.34091 273.365 3.61364C273.982 3.88636 274.467 4.25947 274.82 4.73295C275.172 5.20265 275.35 5.73674 275.354 6.33523C275.35 6.97538 275.153 7.53409 274.763 8.01136C274.373 8.48864 273.873 8.78977 273.263 8.91477V8.99432C273.729 9.07008 274.151 9.24432 274.53 9.51705C274.912 9.78598 275.215 10.125 275.439 10.5341C275.666 10.9394 275.782 11.3845 275.786 11.8693C275.782 12.4981 275.587 13.0606 275.2 13.5568C274.814 14.053 274.28 14.4451 273.598 14.733C272.92 15.017 272.143 15.1591 271.268 15.1591ZM271.268 13.3523C271.659 13.3523 272 13.2822 272.291 13.142C272.583 12.9981 272.81 12.8011 272.973 12.5511C273.14 12.2973 273.223 12.0057 273.223 11.6761C273.223 11.339 273.138 11.0417 272.967 10.7841C272.797 10.5227 272.566 10.3182 272.274 10.1705C271.982 10.0189 271.647 9.94318 271.268 9.94318C270.893 9.94318 270.558 10.0189 270.263 10.1705C269.967 10.3182 269.734 10.5227 269.564 10.7841C269.397 11.0417 269.314 11.339 269.314 11.6761C269.314 12.0057 269.395 12.2973 269.558 12.5511C269.721 12.8011 269.95 12.9981 270.246 13.142C270.541 13.2822 270.882 13.3523 271.268 13.3523ZM271.268 8.15341C271.594 8.15341 271.884 8.08712 272.138 7.95455C272.392 7.82197 272.59 7.63826 272.734 7.40341C272.878 7.16856 272.95 6.89773 272.95 6.59091C272.95 6.28788 272.878 6.02273 272.734 5.79545C272.59 5.56439 272.393 5.38447 272.143 5.25568C271.893 5.12311 271.602 5.05682 271.268 5.05682C270.939 5.05682 270.647 5.12311 270.393 5.25568C270.14 5.38447 269.941 5.56439 269.797 5.79545C269.657 6.02273 269.587 6.28788 269.587 6.59091C269.587 6.89773 269.659 7.16856 269.803 7.40341C269.946 7.63826 270.145 7.82197 270.399 7.95455C270.653 8.08712 270.943 8.15341 271.268 8.15341ZM281.972 15.1591C281.373 15.1553 280.795 15.0549 280.239 14.858C279.686 14.661 279.189 14.3409 278.75 13.8977C278.311 13.4545 277.962 12.8674 277.705 12.1364C277.451 11.4053 277.324 10.5076 277.324 9.44318C277.328 8.46591 277.439 7.5928 277.659 6.82386C277.883 6.05114 278.201 5.39583 278.614 4.85795C279.03 4.32008 279.528 3.91098 280.108 3.63068C280.688 3.34659 281.337 3.20455 282.057 3.20455C282.833 3.20455 283.519 3.35606 284.114 3.65909C284.708 3.95833 285.186 4.36553 285.545 4.88068C285.909 5.39583 286.129 5.97348 286.205 6.61364H283.778C283.684 6.20833 283.485 5.89015 283.182 5.65909C282.879 5.42803 282.504 5.3125 282.057 5.3125C281.299 5.3125 280.723 5.64205 280.33 6.30114C279.939 6.96023 279.741 7.85606 279.733 8.98864H279.812C279.987 8.64394 280.222 8.35038 280.517 8.10795C280.816 7.86174 281.155 7.67424 281.534 7.54545C281.917 7.41288 282.32 7.34659 282.744 7.34659C283.434 7.34659 284.047 7.50947 284.585 7.83523C285.123 8.1572 285.547 8.60038 285.858 9.16477C286.169 9.72917 286.324 10.375 286.324 11.1023C286.324 11.8902 286.14 12.5909 285.773 13.2045C285.409 13.8182 284.9 14.2992 284.244 14.6477C283.593 14.9924 282.835 15.1629 281.972 15.1591ZM281.96 13.2273C282.339 13.2273 282.678 13.1364 282.977 12.9545C283.277 12.7727 283.511 12.5265 283.682 12.2159C283.852 11.9053 283.938 11.5568 283.938 11.1705C283.938 10.7841 283.852 10.4375 283.682 10.1307C283.515 9.82386 283.284 9.57955 282.989 9.39773C282.693 9.21591 282.356 9.125 281.977 9.125C281.693 9.125 281.43 9.17803 281.188 9.28409C280.949 9.39015 280.739 9.53788 280.557 9.72727C280.379 9.91667 280.239 10.1364 280.136 10.3864C280.034 10.6326 279.983 10.8958 279.983 11.1761C279.983 11.5511 280.068 11.8939 280.239 12.2045C280.413 12.5152 280.648 12.7633 280.943 12.9489C281.242 13.1345 281.581 13.2273 281.96 13.2273ZM293.131 3.36364V15H290.67V5.69886H290.602L287.938 7.36932V5.1875L290.818 3.36364H293.131ZM300.459 15.2557C299.482 15.2519 298.641 15.0114 297.936 14.5341C297.235 14.0568 296.696 13.3655 296.317 12.4602C295.942 11.5549 295.756 10.4659 295.76 9.19318C295.76 7.92424 295.947 6.8428 296.322 5.94886C296.701 5.05492 297.241 4.375 297.942 3.90909C298.646 3.43939 299.485 3.20455 300.459 3.20455C301.432 3.20455 302.269 3.43939 302.97 3.90909C303.675 4.37879 304.216 5.06061 304.595 5.95455C304.974 6.8447 305.161 7.92424 305.158 9.19318C305.158 10.4697 304.968 11.5606 304.589 12.4659C304.214 13.3712 303.677 14.0625 302.976 14.5398C302.275 15.017 301.436 15.2557 300.459 15.2557ZM300.459 13.2159C301.125 13.2159 301.658 12.8807 302.055 12.2102C302.453 11.5398 302.65 10.5341 302.646 9.19318C302.646 8.31061 302.555 7.57576 302.374 6.98864C302.196 6.40151 301.942 5.96023 301.612 5.66477C301.286 5.36932 300.902 5.22159 300.459 5.22159C299.796 5.22159 299.266 5.55303 298.868 6.21591C298.47 6.87879 298.269 7.87121 298.266 9.19318C298.266 10.0871 298.355 10.8333 298.533 11.4318C298.714 12.0265 298.97 12.4735 299.3 12.7727C299.629 13.0682 300.016 13.2159 300.459 13.2159ZM306.736 12.9545V11.017L311.594 3.36364H313.264V6.04545H312.276L309.213 10.892V10.983H316.116V12.9545H306.736ZM312.321 15V12.3636L312.366 11.5057V3.36364H314.673V15H312.321Z" fill="#00A6CD"/>
</svg>
