<svg width="360" height="133" viewBox="0 0 360 133" fill="none" xmlns="http://www.w3.org/2000/svg">
<rect x="3" y="83" width="342" height="50" fill="#FFDE59"/>
<path d="M35.304 117V93.7273H40.2244V112.943H50.2017V117H35.304ZM58.3807 93.7273V117H53.4602V93.7273H58.3807ZM77.8608 101.25C77.7017 100.697 77.4782 100.208 77.1903 99.7841C76.9025 99.3523 76.5502 98.9886 76.1335 98.6932C75.7244 98.3902 75.2547 98.1591 74.7244 98C74.2017 97.8409 73.6222 97.7614 72.9858 97.7614C71.7964 97.7614 70.7509 98.0568 69.8494 98.6477C68.9555 99.2386 68.2585 100.098 67.7585 101.227C67.2585 102.348 67.0085 103.72 67.0085 105.341C67.0085 106.962 67.2547 108.341 67.7472 109.477C68.2396 110.614 68.9366 111.481 69.8381 112.08C70.7396 112.67 71.804 112.966 73.0312 112.966C74.1449 112.966 75.0956 112.769 75.8835 112.375C76.679 111.973 77.285 111.409 77.7017 110.682C78.1259 109.955 78.3381 109.095 78.3381 108.102L79.3381 108.25H73.3381V104.545H83.0767V107.477C83.0767 109.523 82.6449 111.28 81.7812 112.75C80.9176 114.212 79.7282 115.341 78.2131 116.136C76.6979 116.924 74.9631 117.318 73.0085 117.318C70.8267 117.318 68.91 116.837 67.2585 115.875C65.607 114.905 64.3191 113.53 63.3949 111.75C62.4782 109.962 62.0199 107.841 62.0199 105.386C62.0199 103.5 62.2926 101.818 62.8381 100.341C63.3911 98.8561 64.1638 97.5985 65.1562 96.5682C66.1487 95.5379 67.304 94.7538 68.6222 94.2159C69.9403 93.678 71.3684 93.4091 72.9062 93.4091C74.2244 93.4091 75.4517 93.6023 76.5881 93.9886C77.7244 94.3674 78.732 94.9053 79.6108 95.6023C80.4972 96.2992 81.2206 97.1288 81.7812 98.0909C82.3419 99.0455 82.7017 100.098 82.8608 101.25H77.8608ZM86.7727 117V93.7273H91.6932V103.33H101.682V93.7273H106.591V117H101.682V107.386H91.6932V117H86.7727ZM109.761 97.7841V93.7273H128.875V97.7841H121.75V117H116.886V97.7841H109.761ZM144.668 117L138.009 93.7273H143.384L147.236 109.898H147.429L151.679 93.7273H156.281L160.52 109.932H160.724L164.577 93.7273H169.952L163.293 117H158.497L154.065 101.784H153.884L149.463 117H144.668ZM192.659 105.364C192.659 107.902 192.178 110.061 191.216 111.841C190.261 113.621 188.958 114.981 187.307 115.92C185.663 116.852 183.814 117.318 181.761 117.318C179.693 117.318 177.837 116.848 176.193 115.909C174.549 114.97 173.25 113.61 172.295 111.83C171.341 110.049 170.864 107.894 170.864 105.364C170.864 102.826 171.341 100.667 172.295 98.8864C173.25 97.1061 174.549 95.75 176.193 94.8182C177.837 93.8788 179.693 93.4091 181.761 93.4091C183.814 93.4091 185.663 93.8788 187.307 94.8182C188.958 95.75 190.261 97.1061 191.216 98.8864C192.178 100.667 192.659 102.826 192.659 105.364ZM187.67 105.364C187.67 103.72 187.424 102.333 186.932 101.205C186.447 100.076 185.761 99.2197 184.875 98.6364C183.989 98.053 182.951 97.7614 181.761 97.7614C180.572 97.7614 179.534 98.053 178.648 98.6364C177.761 99.2197 177.072 100.076 176.58 101.205C176.095 102.333 175.852 103.72 175.852 105.364C175.852 107.008 176.095 108.394 176.58 109.523C177.072 110.652 177.761 111.508 178.648 112.091C179.534 112.674 180.572 112.966 181.761 112.966C182.951 112.966 183.989 112.674 184.875 112.091C185.761 111.508 186.447 110.652 186.932 109.523C187.424 108.394 187.67 107.008 187.67 105.364ZM196.304 117V93.7273H205.486C207.243 93.7273 208.743 94.0417 209.986 94.6705C211.236 95.2917 212.187 96.1742 212.838 97.3182C213.497 98.4545 213.827 99.7917 213.827 101.33C213.827 102.875 213.493 104.205 212.827 105.318C212.16 106.424 211.194 107.273 209.929 107.864C208.671 108.455 207.149 108.75 205.361 108.75H199.213V104.795H204.565C205.505 104.795 206.285 104.667 206.906 104.409C207.527 104.152 207.99 103.765 208.293 103.25C208.603 102.735 208.759 102.095 208.759 101.33C208.759 100.557 208.603 99.9053 208.293 99.375C207.99 98.8447 207.524 98.4432 206.895 98.1705C206.274 97.8902 205.49 97.75 204.543 97.75H201.224V117H196.304ZM208.872 106.409L214.656 117H209.224L203.565 106.409H208.872ZM217.304 117V93.7273H222.224V103.989H222.531L230.906 93.7273H236.804L228.168 104.148L236.906 117H231.02L224.645 107.432L222.224 110.386V117H217.304ZM246.773 117V93.7273H251.693V112.943H261.67V117H246.773ZM261.136 97.7841V93.7273H280.25V97.7841H273.125V117H268.261V97.7841H261.136ZM291.648 117H283.398V93.7273H291.716C294.057 93.7273 296.072 94.1932 297.761 95.125C299.451 96.0492 300.75 97.3788 301.659 99.1136C302.576 100.848 303.034 102.924 303.034 105.341C303.034 107.765 302.576 109.848 301.659 111.591C300.75 113.333 299.443 114.67 297.739 115.602C296.042 116.534 294.011 117 291.648 117ZM288.318 112.784H291.443C292.898 112.784 294.121 112.527 295.114 112.011C296.114 111.489 296.864 110.682 297.364 109.591C297.871 108.492 298.125 107.076 298.125 105.341C298.125 103.621 297.871 102.216 297.364 101.125C296.864 100.034 296.117 99.2311 295.125 98.7159C294.133 98.2008 292.909 97.9432 291.455 97.9432H288.318V112.784ZM307.949 117.295C307.199 117.295 306.555 117.03 306.017 116.5C305.487 115.962 305.222 115.318 305.222 114.568C305.222 113.826 305.487 113.189 306.017 112.659C306.555 112.129 307.199 111.864 307.949 111.864C308.676 111.864 309.313 112.129 309.858 112.659C310.403 113.189 310.676 113.826 310.676 114.568C310.676 115.068 310.547 115.527 310.29 115.943C310.04 116.352 309.71 116.682 309.301 116.932C308.892 117.174 308.441 117.295 307.949 117.295Z" fill="black"/>
<path d="M4.04545 26.4545H16.1818L29 57.7273H29.5455L42.3636 26.4545H54.5V73H44.9545V42.7045H44.5682L32.5227 72.7727H26.0227L13.9773 42.5909H13.5909V73H4.04545V26.4545ZM62.608 73V26.4545H93.9716V34.5682H72.4489V45.6591H92.358V53.7727H72.4489V64.8864H94.0625V73H62.608ZM132.659 41.5C132.341 40.3939 131.894 39.4167 131.318 38.5682C130.742 37.7045 130.038 36.9773 129.205 36.3864C128.386 35.7803 127.447 35.3182 126.386 35C125.341 34.6818 124.182 34.5227 122.909 34.5227C120.53 34.5227 118.439 35.1136 116.636 36.2955C114.848 37.4773 113.455 39.197 112.455 41.4545C111.455 43.697 110.955 46.4394 110.955 49.6818C110.955 52.9242 111.447 55.6818 112.432 57.9545C113.417 60.2273 114.811 61.9621 116.614 63.1591C118.417 64.3409 120.545 64.9318 123 64.9318C125.227 64.9318 127.129 64.5379 128.705 63.75C130.295 62.947 131.508 61.8182 132.341 60.3636C133.189 58.9091 133.614 57.1894 133.614 55.2045L135.614 55.5H123.614V48.0909H143.091V53.9545C143.091 58.0455 142.227 61.5606 140.5 64.5C138.773 67.4242 136.394 69.6818 133.364 71.2727C130.333 72.8485 126.864 73.6364 122.955 73.6364C118.591 73.6364 114.758 72.6742 111.455 70.75C108.152 68.8106 105.576 66.0606 103.727 62.5C101.894 58.9242 100.977 54.6818 100.977 49.7727C100.977 46 101.523 42.6364 102.614 39.6818C103.72 36.7121 105.265 34.197 107.25 32.1364C109.235 30.0758 111.545 28.5076 114.182 27.4318C116.818 26.3561 119.674 25.8182 122.75 25.8182C125.386 25.8182 127.841 26.2045 130.114 26.9773C132.386 27.7348 134.402 28.8106 136.159 30.2045C137.932 31.5985 139.379 33.2576 140.5 35.1818C141.621 37.0909 142.341 39.197 142.659 41.5H132.659ZM157.068 73H146.523L162.591 26.4545H175.273L191.318 73H180.773L169.114 37.0909H168.75L157.068 73ZM156.409 54.7045H181.318V62.3864H156.409V54.7045Z" fill="#1E1E1E"/>
<path d="M197.045 26.4545H209.182L222 57.7273H222.545L235.364 26.4545H247.5V73H237.955V42.7045H237.568L225.523 72.7727H219.023L206.977 42.5909H206.591V73H197.045V26.4545ZM263.631 73H253.085L269.153 26.4545H281.835L297.881 73H287.335L275.676 37.0909H275.312L263.631 73ZM262.972 54.7045H287.881V62.3864H262.972V54.7045ZM312.71 26.4545L322.097 42.3182H322.46L331.892 26.4545H343.006L328.801 49.7273L343.324 73H332.006L322.46 57.1136H322.097L312.551 73H301.278L315.847 49.7273L301.551 26.4545H312.71Z" fill="#DF0D86"/>
<path fill-rule="evenodd" clip-rule="evenodd" d="M348.377 0L318.552 48.2104L326.76 53.2877L359.725 0H348.377Z" fill="#DF0D86"/>
</svg>
