<svg width="360" height="125" viewBox="0 0 360 125" fill="none" xmlns="http://www.w3.org/2000/svg">
<rect x="3" y="78.0075" width="342" height="46.9925" fill="#FFDE59"/>
<path d="M41.304 113.707V90.434H46.2244V109.65H56.2017V113.707H41.304ZM64.3807 90.434V113.707H59.4602V90.434H64.3807ZM83.8608 97.9568C83.7017 97.4037 83.4782 96.9151 83.1903 96.4908C82.9025 96.059 82.5502 95.6954 82.1335 95.3999C81.7244 95.0969 81.2547 94.8658 80.7244 94.7068C80.2017 94.5477 79.6222 94.4681 78.9858 94.4681C77.7964 94.4681 76.7509 94.7636 75.8494 95.3545C74.9555 95.9454 74.2585 96.8052 73.7585 97.934C73.2585 99.0552 73.0085 100.426 73.0085 102.048C73.0085 103.669 73.2547 105.048 73.7472 106.184C74.2396 107.32 74.9366 108.188 75.8381 108.786C76.7396 109.377 77.804 109.673 79.0312 109.673C80.1449 109.673 81.0956 109.476 81.8835 109.082C82.679 108.68 83.285 108.116 83.7017 107.389C84.1259 106.661 84.3381 105.801 84.3381 104.809L85.3381 104.957H79.3381V101.252H89.0767V104.184C89.0767 106.229 88.6449 107.987 87.7812 109.457C86.9176 110.919 85.7282 112.048 84.2131 112.843C82.6979 113.631 80.9631 114.025 79.0085 114.025C76.8267 114.025 74.91 113.544 73.2585 112.582C71.607 111.612 70.3191 110.237 69.3949 108.457C68.4782 106.669 68.0199 104.548 68.0199 102.093C68.0199 100.207 68.2926 98.5249 68.8381 97.0477C69.3911 95.5628 70.1638 94.3052 71.1562 93.2749C72.1487 92.2446 73.304 91.4605 74.6222 90.9227C75.9403 90.3848 77.3684 90.1158 78.9062 90.1158C80.2244 90.1158 81.4517 90.309 82.5881 90.6954C83.7244 91.0742 84.732 91.6121 85.6108 92.309C86.4972 93.006 87.2206 93.8355 87.7812 94.7977C88.3419 95.7522 88.7017 96.8052 88.8608 97.9568H83.8608ZM92.7727 113.707V90.434H97.6932V100.036H107.682V90.434H112.591V113.707H107.682V104.093H97.6932V113.707H92.7727ZM115.761 94.4908V90.434H134.875V94.4908H127.75V113.707H122.886V94.4908H115.761ZM150.668 113.707L144.009 90.434H149.384L153.236 106.604H153.429L157.679 90.434H162.281L166.52 106.639H166.724L170.577 90.434H175.952L169.293 113.707H164.497L160.065 98.4908H159.884L155.463 113.707H150.668ZM198.659 102.07C198.659 104.608 198.178 106.767 197.216 108.548C196.261 110.328 194.958 111.688 193.307 112.627C191.663 113.559 189.814 114.025 187.761 114.025C185.693 114.025 183.837 113.555 182.193 112.616C180.549 111.676 179.25 110.317 178.295 108.536C177.341 106.756 176.864 104.601 176.864 102.07C176.864 99.5325 177.341 97.3734 178.295 95.5931C179.25 93.8128 180.549 92.4568 182.193 91.5249C183.837 90.5855 185.693 90.1158 187.761 90.1158C189.814 90.1158 191.663 90.5855 193.307 91.5249C194.958 92.4568 196.261 93.8128 197.216 95.5931C198.178 97.3734 198.659 99.5325 198.659 102.07ZM193.67 102.07C193.67 100.426 193.424 99.0401 192.932 97.9113C192.447 96.7825 191.761 95.9265 190.875 95.3431C189.989 94.7598 188.951 94.4681 187.761 94.4681C186.572 94.4681 185.534 94.7598 184.648 95.3431C183.761 95.9265 183.072 96.7825 182.58 97.9113C182.095 99.0401 181.852 100.426 181.852 102.07C181.852 103.714 182.095 105.101 182.58 106.229C183.072 107.358 183.761 108.214 184.648 108.798C185.534 109.381 186.572 109.673 187.761 109.673C188.951 109.673 189.989 109.381 190.875 108.798C191.761 108.214 192.447 107.358 192.932 106.229C193.424 105.101 193.67 103.714 193.67 102.07ZM202.304 113.707V90.434H211.486C213.243 90.434 214.743 90.7484 215.986 91.3772C217.236 91.9984 218.187 92.881 218.838 94.0249C219.497 95.1613 219.827 96.4984 219.827 98.0363C219.827 99.5818 219.493 100.911 218.827 102.025C218.16 103.131 217.194 103.979 215.929 104.57C214.671 105.161 213.149 105.457 211.361 105.457H205.213V101.502H210.565C211.505 101.502 212.285 101.373 212.906 101.116C213.527 100.858 213.99 100.472 214.293 99.9568C214.603 99.4416 214.759 98.8015 214.759 98.0363C214.759 97.2636 214.603 96.6121 214.293 96.0818C213.99 95.5515 213.524 95.1499 212.895 94.8772C212.274 94.5969 211.49 94.4568 210.543 94.4568H207.224V113.707H202.304ZM214.872 103.116L220.656 113.707H215.224L209.565 103.116H214.872ZM223.304 113.707V90.434H228.224V100.695H228.531L236.906 90.434H242.804L234.168 100.854L242.906 113.707H237.02L230.645 104.139L228.224 107.093V113.707H223.304ZM252.773 113.707V90.434H257.693V109.65H267.67V113.707H252.773ZM267.136 94.4908V90.434H286.25V94.4908H279.125V113.707H274.261V94.4908H267.136ZM297.648 113.707H289.398V90.434H297.716C300.057 90.434 302.072 90.8999 303.761 91.8318C305.451 92.756 306.75 94.0855 307.659 95.8204C308.576 97.5552 309.034 99.631 309.034 102.048C309.034 104.472 308.576 106.555 307.659 108.298C306.75 110.04 305.443 111.377 303.739 112.309C302.042 113.241 300.011 113.707 297.648 113.707ZM294.318 109.491H297.443C298.898 109.491 300.121 109.233 301.114 108.718C302.114 108.195 302.864 107.389 303.364 106.298C303.871 105.199 304.125 103.783 304.125 102.048C304.125 100.328 303.871 98.9227 303.364 97.8318C302.864 96.7408 302.117 95.9378 301.125 95.4227C300.133 94.9075 298.909 94.6499 297.455 94.6499H294.318V109.491ZM313.949 114.002C313.199 114.002 312.555 113.737 312.017 113.207C311.487 112.669 311.222 112.025 311.222 111.275C311.222 110.533 311.487 109.896 312.017 109.366C312.555 108.836 313.199 108.57 313.949 108.57C314.676 108.57 315.313 108.836 315.858 109.366C316.403 109.896 316.676 110.533 316.676 111.275C316.676 111.775 316.547 112.233 316.29 112.65C316.04 113.059 315.71 113.389 315.301 113.639C314.892 113.881 314.441 114.002 313.949 114.002Z" fill="black"/>
<path d="M4.04545 25.7929H16.1818L29 57.0656H29.5455L42.3636 25.7929H54.5V72.3383H44.9545V42.0429H44.5682L32.5227 72.1111H26.0227L13.9773 41.9293H13.5909V72.3383H4.04545V25.7929ZM62.608 72.3383V25.7929H93.9716V33.9065H72.4489V44.9974H92.358V53.1111H72.4489V64.2247H94.0625V72.3383H62.608ZM132.659 40.8383C132.341 39.7323 131.894 38.755 131.318 37.9065C130.742 37.0429 130.038 36.3156 129.205 35.7247C128.386 35.1187 127.447 34.6565 126.386 34.3383C125.341 34.0202 124.182 33.8611 122.909 33.8611C120.53 33.8611 118.439 34.452 116.636 35.6338C114.848 36.8156 113.455 38.5353 112.455 40.7929C111.455 43.0353 110.955 45.7777 110.955 49.0202C110.955 52.2626 111.447 55.0202 112.432 57.2929C113.417 59.5656 114.811 61.3005 116.614 62.4974C118.417 63.6793 120.545 64.2702 123 64.2702C125.227 64.2702 127.129 63.8762 128.705 63.0883C130.295 62.2853 131.508 61.1565 132.341 59.702C133.189 58.2474 133.614 56.5277 133.614 54.5429L135.614 54.8383H123.614V47.4293H143.091V53.2929C143.091 57.3838 142.227 60.899 140.5 63.8383C138.773 66.7626 136.394 69.0202 133.364 70.6111C130.333 72.1868 126.864 72.9747 122.955 72.9747C118.591 72.9747 114.758 72.0126 111.455 70.0883C108.152 68.149 105.576 65.399 103.727 61.8383C101.894 58.2626 100.977 54.0202 100.977 49.1111C100.977 45.3383 101.523 41.9747 102.614 39.0202C103.72 36.0505 105.265 33.5353 107.25 31.4747C109.235 29.4141 111.545 27.8459 114.182 26.7702C116.818 25.6944 119.674 25.1565 122.75 25.1565C125.386 25.1565 127.841 25.5429 130.114 26.3156C132.386 27.0732 134.402 28.149 136.159 29.5429C137.932 30.9368 139.379 32.5959 140.5 34.5202C141.621 36.4293 142.341 38.5353 142.659 40.8383H132.659ZM157.068 72.3383H146.523L162.591 25.7929H175.273L191.318 72.3383H180.773L169.114 36.4293H168.75L157.068 72.3383ZM156.409 54.0429H181.318V61.7247H156.409V54.0429Z" fill="white"/>
<path d="M197.045 25.7929H209.182L222 57.0656H222.545L235.364 25.7929H247.5V72.3383H237.955V42.0429H237.568L225.523 72.1111H219.023L206.977 41.9293H206.591V72.3383H197.045V25.7929ZM263.631 72.3383H253.085L269.153 25.7929H281.835L297.881 72.3383H287.335L275.676 36.4293H275.312L263.631 72.3383ZM262.972 54.0429H287.881V61.7247H262.972V54.0429ZM312.71 25.7929L322.097 41.6565H322.46L331.892 25.7929H343.006L328.801 49.0656L343.324 72.3383H332.006L322.46 56.452H322.097L312.551 72.3383H301.278L315.847 49.0656L301.551 25.7929H312.71Z" fill="#DF0D86"/>
<path fill-rule="evenodd" clip-rule="evenodd" d="M348.377 0L318.552 45.3106L326.76 50.0825L359.725 0H348.377Z" fill="#DF0D86"/>
<path d="M221.125 22V11.8182H225.142C225.911 11.8182 226.567 11.9557 227.111 12.2308C227.658 12.5026 228.074 12.8887 228.359 13.3892C228.647 13.8864 228.791 14.4714 228.791 15.1442C228.791 15.8203 228.646 16.402 228.354 16.8892C228.062 17.3731 227.64 17.7443 227.086 18.0028C226.536 18.2614 225.87 18.3906 225.088 18.3906H222.398V16.6605H224.74C225.151 16.6605 225.492 16.6042 225.764 16.4915C226.035 16.3788 226.238 16.2098 226.37 15.9844C226.506 15.759 226.574 15.4789 226.574 15.1442C226.574 14.8061 226.506 14.5211 226.37 14.2891C226.238 14.0571 226.034 13.8814 225.759 13.7621C225.487 13.6394 225.144 13.5781 224.73 13.5781H223.278V22H221.125ZM226.624 17.3665L229.154 22H226.778L224.302 17.3665H226.624ZM239.296 15.3828H237.119C237.079 15.1011 236.998 14.8509 236.875 14.6321C236.753 14.41 236.595 14.2211 236.403 14.0653C236.211 13.9096 235.989 13.7902 235.737 13.7074C235.488 13.6245 235.218 13.5831 234.926 13.5831C234.399 13.5831 233.94 13.714 233.549 13.9759C233.158 14.2344 232.855 14.6122 232.639 15.1094C232.424 15.6032 232.316 16.2031 232.316 16.9091C232.316 17.6349 232.424 18.2448 232.639 18.7386C232.858 19.2325 233.163 19.6054 233.554 19.8572C233.945 20.1091 234.398 20.2351 234.911 20.2351C235.2 20.2351 235.467 20.197 235.712 20.1207C235.96 20.0445 236.181 19.9335 236.373 19.7876C236.565 19.6385 236.724 19.4579 236.85 19.2457C236.98 19.0336 237.069 18.7917 237.119 18.5199L239.296 18.5298C239.24 18.9972 239.099 19.4479 238.874 19.8821C238.652 20.313 238.352 20.6991 237.974 21.0405C237.599 21.3786 237.152 21.647 236.632 21.8459C236.115 22.0414 235.53 22.1392 234.877 22.1392C233.968 22.1392 233.156 21.9337 232.441 21.5227C231.728 21.1117 231.164 20.5168 230.75 19.7379C230.339 18.959 230.134 18.0161 230.134 16.9091C230.134 15.7988 230.343 14.8542 230.76 14.0753C231.178 13.2964 231.744 12.7031 232.46 12.2955C233.176 11.8845 233.982 11.679 234.877 11.679C235.467 11.679 236.013 11.7618 236.517 11.9276C237.024 12.0933 237.473 12.3352 237.865 12.6534C238.256 12.9683 238.574 13.3544 238.819 13.8118C239.068 14.2692 239.227 14.7929 239.296 15.3828ZM242.038 20.8168C241.71 20.8168 241.428 20.7008 241.193 20.4688C240.961 20.2367 240.845 19.955 240.845 19.6236C240.845 19.2988 240.961 19.0204 241.193 18.7884C241.428 18.5563 241.71 18.4403 242.038 18.4403C242.356 18.4403 242.635 18.5563 242.873 18.7884C243.112 19.0204 243.231 19.2988 243.231 19.6236C243.231 19.8423 243.175 20.0429 243.062 20.2251C242.953 20.4041 242.809 20.5483 242.63 20.6577C242.451 20.7637 242.254 20.8168 242.038 20.8168ZM242.038 15.8203C241.71 15.8203 241.428 15.7043 241.193 15.4723C240.961 15.2403 240.845 14.9586 240.845 14.6271C240.845 14.3023 240.961 14.0256 241.193 13.7969C241.428 13.5649 241.71 13.4489 242.038 13.4489C242.356 13.4489 242.635 13.5649 242.873 13.7969C243.112 14.0256 243.231 14.3023 243.231 14.6271C243.231 14.8492 243.175 15.0514 243.062 15.2337C242.953 15.4126 242.809 15.5552 242.63 15.6612C242.451 15.7673 242.254 15.8203 242.038 15.8203ZM248.593 22L252.814 13.6477V13.5781H247.897V11.8182H255.041V13.603L250.816 22H248.593ZM260.29 22.2237C259.435 22.2204 258.699 22.0099 258.083 21.5923C257.47 21.1747 256.997 20.5698 256.666 19.7777C256.338 18.9856 256.175 18.0327 256.179 16.919C256.179 15.8087 256.343 14.8625 256.671 14.0803C257.002 13.2981 257.475 12.7031 258.088 12.2955C258.704 11.8845 259.438 11.679 260.29 11.679C261.142 11.679 261.874 11.8845 262.488 12.2955C263.104 12.7064 263.578 13.303 263.909 14.0852C264.241 14.8641 264.405 15.8087 264.402 16.919C264.402 18.036 264.236 18.9905 263.904 19.7827C263.576 20.5748 263.106 21.1797 262.493 21.5973C261.879 22.0149 261.145 22.2237 260.29 22.2237ZM260.29 20.4389C260.873 20.4389 261.339 20.1456 261.687 19.5589C262.035 18.9723 262.208 18.0923 262.204 16.919C262.204 16.1468 262.125 15.5038 261.966 14.9901C261.81 14.4763 261.588 14.0902 261.299 13.8317C261.014 13.5732 260.678 13.4439 260.29 13.4439C259.71 13.4439 259.246 13.7339 258.898 14.3139C258.55 14.8939 258.374 15.7623 258.371 16.919C258.371 17.7012 258.449 18.3542 258.605 18.8778C258.764 19.3982 258.988 19.7893 259.276 20.0511C259.564 20.3097 259.902 20.4389 260.29 20.4389ZM269.735 22.1392C268.969 22.1392 268.288 22.0149 267.692 21.7663C267.098 21.5144 266.633 21.1714 266.295 20.7372C265.956 20.303 265.787 19.8108 265.787 19.2607C265.787 18.8364 265.884 18.447 266.076 18.0923C266.271 17.7344 266.537 17.4377 266.871 17.2024C267.206 16.9638 267.581 16.8113 267.995 16.745V16.6754C267.451 16.5661 267.01 16.3026 266.672 15.8849C266.334 15.464 266.165 14.9751 266.165 14.4183C266.165 13.8913 266.319 13.4223 266.628 13.0114C266.936 12.5971 267.358 12.2723 267.895 12.0369C268.436 11.7983 269.049 11.679 269.735 11.679C270.421 11.679 271.032 11.7983 271.569 12.0369C272.11 12.2756 272.534 12.602 272.842 13.0163C273.15 13.4273 273.306 13.8946 273.309 14.4183C273.306 14.9785 273.134 15.4673 272.792 15.8849C272.451 16.3026 272.014 16.5661 271.48 16.6754V16.745C271.888 16.8113 272.257 16.9638 272.589 17.2024C272.923 17.4377 273.189 17.7344 273.384 18.0923C273.583 18.447 273.684 18.8364 273.687 19.2607C273.684 19.8108 273.513 20.303 273.175 20.7372C272.837 21.1714 272.37 21.5144 271.773 21.7663C271.18 22.0149 270.501 22.1392 269.735 22.1392ZM269.735 20.5582C270.076 20.5582 270.375 20.4969 270.63 20.3743C270.885 20.2483 271.084 20.076 271.226 19.8572C271.372 19.6352 271.445 19.38 271.445 19.0916C271.445 18.7966 271.371 18.5365 271.221 18.3111C271.072 18.0824 270.87 17.9034 270.615 17.7741C270.36 17.6416 270.066 17.5753 269.735 17.5753C269.407 17.5753 269.113 17.6416 268.855 17.7741C268.596 17.9034 268.393 18.0824 268.243 18.3111C268.098 18.5365 268.025 18.7966 268.025 19.0916C268.025 19.38 268.096 19.6352 268.238 19.8572C268.381 20.076 268.581 20.2483 268.84 20.3743C269.099 20.4969 269.397 20.5582 269.735 20.5582ZM269.735 16.0092C270.02 16.0092 270.273 15.9512 270.496 15.8352C270.718 15.7192 270.892 15.5585 271.018 15.353C271.144 15.1475 271.206 14.9105 271.206 14.642C271.206 14.3769 271.144 14.1449 271.018 13.946C270.892 13.7438 270.719 13.5864 270.501 13.4737C270.282 13.3577 270.027 13.2997 269.735 13.2997C269.447 13.2997 269.191 13.3577 268.969 13.4737C268.747 13.5864 268.573 13.7438 268.447 13.946C268.325 14.1449 268.263 14.3769 268.263 14.642C268.263 14.9105 268.326 15.1475 268.452 15.353C268.578 15.5585 268.752 15.7192 268.974 15.8352C269.196 15.9512 269.45 16.0092 269.735 16.0092ZM279.1 22.1392C278.576 22.1359 278.071 22.0481 277.584 21.8757C277.1 21.7034 276.666 21.4233 276.281 21.0355C275.897 20.6477 275.592 20.134 275.366 19.4943C275.144 18.8546 275.033 18.0691 275.033 17.1378C275.037 16.2827 275.134 15.5187 275.327 14.8459C275.522 14.1697 275.801 13.5964 276.162 13.1257C276.527 12.6551 276.962 12.2971 277.469 12.0518C277.977 11.8033 278.545 11.679 279.175 11.679C279.854 11.679 280.454 11.8116 280.974 12.0767C281.495 12.3385 281.912 12.6948 282.227 13.1456C282.545 13.5964 282.738 14.1018 282.804 14.6619H280.681C280.598 14.3073 280.424 14.0289 280.159 13.8267C279.894 13.6245 279.566 13.5234 279.175 13.5234C278.512 13.5234 278.008 13.8118 277.663 14.3885C277.322 14.9652 277.148 15.7491 277.141 16.7401H277.211C277.363 16.4384 277.569 16.1816 277.827 15.9695C278.089 15.754 278.386 15.59 278.717 15.4773C279.052 15.3613 279.405 15.3033 279.776 15.3033C280.379 15.3033 280.916 15.4458 281.387 15.7308C281.858 16.0125 282.229 16.4003 282.501 16.8942C282.772 17.388 282.908 17.9531 282.908 18.5895C282.908 19.2789 282.748 19.892 282.426 20.429C282.108 20.9659 281.662 21.3868 281.089 21.6918C280.519 21.9934 279.856 22.1425 279.1 22.1392ZM279.09 20.4489C279.422 20.4489 279.718 20.3693 279.98 20.2102C280.242 20.0511 280.447 19.8357 280.597 19.5639C280.746 19.2921 280.82 18.9872 280.82 18.6491C280.82 18.3111 280.746 18.0078 280.597 17.7393C280.451 17.4709 280.249 17.2571 279.99 17.098C279.732 16.9389 279.437 16.8594 279.105 16.8594C278.857 16.8594 278.626 16.9058 278.414 16.9986C278.205 17.0914 278.021 17.2206 277.862 17.3864C277.706 17.5521 277.584 17.7443 277.494 17.9631C277.405 18.1785 277.36 18.4089 277.36 18.6541C277.36 18.9822 277.435 19.2822 277.584 19.554C277.736 19.8258 277.942 20.0429 278.2 20.2053C278.462 20.3677 278.759 20.4489 279.09 20.4489ZM288.864 11.8182V22H286.712V13.8615H286.652L284.32 15.3232V13.4141L286.841 11.8182H288.864ZM295.276 22.2237C294.421 22.2204 293.686 22.0099 293.069 21.5923C292.456 21.1747 291.984 20.5698 291.652 19.7777C291.324 18.9856 291.162 18.0327 291.165 16.919C291.165 15.8087 291.329 14.8625 291.657 14.0803C291.989 13.2981 292.461 12.7031 293.074 12.2955C293.691 11.8845 294.425 11.679 295.276 11.679C296.128 11.679 296.861 11.8845 297.474 12.2955C298.09 12.7064 298.564 13.303 298.896 14.0852C299.227 14.8641 299.391 15.8087 299.388 16.919C299.388 18.036 299.222 18.9905 298.891 19.7827C298.563 20.5748 298.092 21.1797 297.479 21.5973C296.866 22.0149 296.132 22.2237 295.276 22.2237ZM295.276 20.4389C295.86 20.4389 296.325 20.1456 296.673 19.5589C297.021 18.9723 297.194 18.0923 297.191 16.919C297.191 16.1468 297.111 15.5038 296.952 14.9901C296.796 14.4763 296.574 14.0902 296.286 13.8317C296.001 13.5732 295.664 13.4439 295.276 13.4439C294.696 13.4439 294.232 13.7339 293.884 14.3139C293.536 14.8939 293.361 15.7623 293.357 16.919C293.357 17.7012 293.435 18.3542 293.591 18.8778C293.75 19.3982 293.974 19.7893 294.262 20.0511C294.551 20.3097 294.889 20.4389 295.276 20.4389ZM300.769 20.2102V18.5149L305.02 11.8182H306.481V14.1648H305.616L302.936 18.4055V18.4851H308.977V20.2102H300.769ZM305.656 22V19.6932L305.696 18.9425V11.8182H307.714V22H305.656Z" fill="white"/>
</svg>
