<svg width="360" height="88" viewBox="0 0 360 88" fill="none" xmlns="http://www.w3.org/2000/svg">
<path d="M4.04545 26.4545H16.1818L29 57.7273H29.5455L42.3636 26.4545H54.5V73H44.9545V42.7045H44.5682L32.5227 72.7727H26.0227L13.9773 42.5909H13.5909V73H4.04545V26.4545ZM62.608 73V26.4545H93.9716V34.5682H72.4489V45.6591H92.358V53.7727H72.4489V64.8864H94.0625V73H62.608ZM132.659 41.5C132.341 40.3939 131.894 39.4167 131.318 38.5682C130.742 37.7045 130.038 36.9773 129.205 36.3864C128.386 35.7803 127.447 35.3182 126.386 35C125.341 34.6818 124.182 34.5227 122.909 34.5227C120.53 34.5227 118.439 35.1136 116.636 36.2955C114.848 37.4773 113.455 39.197 112.455 41.4545C111.455 43.697 110.955 46.4394 110.955 49.6818C110.955 52.9242 111.447 55.6818 112.432 57.9545C113.417 60.2273 114.811 61.9621 116.614 63.1591C118.417 64.3409 120.545 64.9318 123 64.9318C125.227 64.9318 127.129 64.5379 128.705 63.75C130.295 62.947 131.508 61.8182 132.341 60.3636C133.189 58.9091 133.614 57.1894 133.614 55.2045L135.614 55.5H123.614V48.0909H143.091V53.9545C143.091 58.0455 142.227 61.5606 140.5 64.5C138.773 67.4242 136.394 69.6818 133.364 71.2727C130.333 72.8485 126.864 73.6364 122.955 73.6364C118.591 73.6364 114.758 72.6742 111.455 70.75C108.152 68.8106 105.576 66.0606 103.727 62.5C101.894 58.9242 100.977 54.6818 100.977 49.7727C100.977 46 101.523 42.6364 102.614 39.6818C103.72 36.7121 105.265 34.197 107.25 32.1364C109.235 30.0758 111.545 28.5076 114.182 27.4318C116.818 26.3561 119.674 25.8182 122.75 25.8182C125.386 25.8182 127.841 26.2045 130.114 26.9773C132.386 27.7348 134.402 28.8106 136.159 30.2045C137.932 31.5985 139.379 33.2576 140.5 35.1818C141.621 37.0909 142.341 39.197 142.659 41.5H132.659ZM157.068 73H146.523L162.591 26.4545H175.273L191.318 73H180.773L169.114 37.0909H168.75L157.068 73ZM156.409 54.7045H181.318V62.3864H156.409V54.7045Z" fill="white"/>
<path d="M197.045 26.4545H209.182L222 57.7273H222.545L235.364 26.4545H247.5V73H237.955V42.7045H237.568L225.523 72.7727H219.023L206.977 42.5909H206.591V73H197.045V26.4545ZM263.631 73H253.085L269.153 26.4545H281.835L297.881 73H287.335L275.676 37.0909H275.312L263.631 73ZM262.972 54.7045H287.881V62.3864H262.972V54.7045ZM312.71 26.4545L322.097 42.3182H322.46L331.892 26.4545H343.006L328.801 49.7273L343.324 73H332.006L322.46 57.1136H322.097L312.551 73H301.278L315.847 49.7273L301.551 26.4545H312.71Z" fill="#DF0D86"/>
<path fill-rule="evenodd" clip-rule="evenodd" d="M348.377 0L318.552 48.2105L326.76 53.2877L359.725 0H348.377Z" fill="#DF0D86"/>
</svg>
