<svg width="800" height="789" viewBox="0 0 800 789" fill="none" xmlns="http://www.w3.org/2000/svg">
<path d="M375.637 136.038C383.353 118.726 387.213 110.069 392.587 107.404C397.253 105.088 402.733 105.088 407.4 107.404C412.773 110.069 416.633 118.726 424.35 136.038L485.817 273.936C488.1 279.054 489.24 281.613 491.007 283.573C492.567 285.307 494.477 286.694 496.607 287.643C499.017 288.716 501.803 289.01 507.377 289.598L657.52 305.445C676.37 307.435 685.793 308.429 689.99 312.716C693.633 316.439 695.327 321.652 694.567 326.807C693.693 332.74 686.653 339.083 672.573 351.773L560.417 452.847C556.257 456.597 554.173 458.473 552.857 460.757C551.69 462.78 550.96 465.023 550.717 467.343C550.44 469.967 551.02 472.707 552.183 478.19L583.51 625.88C587.443 644.423 589.41 653.693 586.63 659.007C584.213 663.627 579.78 666.847 574.643 667.717C568.73 668.717 560.52 663.983 544.1 654.513L413.317 579.08C408.463 576.28 406.037 574.883 403.457 574.333C401.173 573.85 398.813 573.85 396.53 574.333C393.95 574.883 391.523 576.28 386.67 579.08L255.887 654.513C239.468 663.983 231.258 668.717 225.345 667.717C220.208 666.847 215.773 663.627 213.358 659.007C210.579 653.693 212.545 644.423 216.478 625.88L247.803 478.19C248.966 472.707 249.547 469.967 249.271 467.343C249.027 465.023 248.298 462.78 247.131 460.757C245.813 458.473 243.732 456.597 239.569 452.847L127.415 351.773C113.335 339.083 106.295 332.74 105.419 326.807C104.659 321.652 106.353 316.439 109.998 312.716C114.194 308.429 123.619 307.435 142.469 305.445L292.612 289.598C298.184 289.01 300.97 288.716 303.38 287.643C305.511 286.694 307.42 285.307 308.982 283.573C310.747 281.613 311.888 279.054 314.169 273.936L375.637 136.038Z" stroke="#00A6CD" stroke-width="66.6667" stroke-linecap="round" stroke-linejoin="round"/>
</svg>
